M48
;DRILL file {KiCad 4.0.6+dfsg1-1} date Mon Feb 26 15:43:39 2018
;FORMAT={2:4/ absolute / inch / suppress leading zeros}
FMAT,2
INCH,TZ
T1C0.016
T2C0.030
T3C0.031
T4C0.035
T5C0.039
T6C0.051
%
G90
G05
M72
T1
X380Y9630
X1930Y5330
X3730Y10030
X3730Y9630
X3730Y8230
X3730Y7830
X3730Y7430
X3730Y7030
X3730Y6630
X4230Y10030
X4230Y9630
X4230Y8230
X4230Y7830
X4230Y7430
X4230Y7030
X4230Y6630
X4730Y10030
X4730Y9630
X4730Y8230
X4730Y7830
X4730Y7430
X4730Y7030
X4730Y6630
T2
X630Y11530
X630Y5030
X630Y4030
X630Y3030
X630Y2030
X630Y530
X7630Y11530
X7630Y4030
X7630Y3030
X7630Y1530
X7630Y530
T3
X730Y8930
X730Y5930
X1730Y8930
X1730Y5930
X2730Y8930
X2730Y5930
X3730Y8930
X3730Y5930
X4730Y8930
X4730Y5930
X5730Y8930
X5730Y5930
X6730Y8930
X6730Y5930
X7730Y8930
X7730Y5930
T4
X4380Y3330
X4380Y2346
T5
X1980Y3930
X1980Y2930
X1980Y1930
X1980Y930
X6530Y3780
X6530Y2780
X6530Y1780
T6
X3161Y11530
X5130Y11530
T0
M30
