G04 #@! TF.FileFunction,Copper,L2,Bot,Signal*
%FSLAX46Y46*%
G04 Gerber Fmt 4.6, Leading zero omitted, Abs format (unit mm)*
G04 Created by KiCad (PCBNEW 4.0.6+dfsg1-1) date Mon Feb 26 15:43:31 2018*
%MOMM*%
%LPD*%
G01*
G04 APERTURE LIST*
%ADD10C,0.100000*%
%ADD11C,1.524000*%
%ADD12R,1.700000X1.700000*%
%ADD13O,1.700000X1.700000*%
%ADD14R,2.500000X2.500000*%
%ADD15C,2.500000*%
%ADD16R,1.600000X1.600000*%
%ADD17O,1.600000X1.600000*%
%ADD18R,1.850000X1.850000*%
%ADD19C,1.850000*%
%ADD20C,0.600000*%
%ADD21C,0.250000*%
%ADD22C,0.750000*%
%ADD23C,1.000000*%
%ADD24C,0.254000*%
G04 APERTURE END LIST*
D10*
D11*
X19380200Y1346200D03*
X19380200Y3886200D03*
X19380200Y7696200D03*
X19380200Y10236200D03*
X1600200Y1346200D03*
X1600200Y29286200D03*
X19380200Y29286200D03*
X1600200Y5156200D03*
X1600200Y7696200D03*
X1600200Y10236200D03*
X1600200Y12776200D03*
D12*
X16586200Y9601200D03*
D13*
X16586200Y7061200D03*
X16586200Y4521200D03*
D14*
X13030200Y29286200D03*
D15*
X8030200Y29286200D03*
D16*
X1854200Y15062200D03*
D17*
X19634200Y22682200D03*
X4394200Y15062200D03*
X17094200Y22682200D03*
X6934200Y15062200D03*
X14554200Y22682200D03*
X9474200Y15062200D03*
X12014200Y22682200D03*
X12014200Y15062200D03*
X9474200Y22682200D03*
X14554200Y15062200D03*
X6934200Y22682200D03*
X17094200Y15062200D03*
X4394200Y22682200D03*
X19634200Y15062200D03*
X1854200Y22682200D03*
D18*
X11125200Y8458200D03*
D19*
X11125200Y5958200D03*
D12*
X5029200Y9982200D03*
D13*
X5029200Y7442200D03*
X5029200Y4902200D03*
X5029200Y2362200D03*
D20*
X12014200Y16840200D03*
X12014200Y20904200D03*
X12014200Y19888200D03*
X12014200Y18872200D03*
X12014200Y17856200D03*
X10744200Y25476200D03*
X12014200Y25476200D03*
X9474200Y25476200D03*
X9474200Y16840200D03*
X9474200Y20904200D03*
X9474200Y19888200D03*
X9474200Y18872200D03*
X9474200Y17856200D03*
X9474200Y24460200D03*
X10744200Y16840200D03*
X10744200Y20904200D03*
X10744200Y19888200D03*
X10744200Y18872200D03*
X10744200Y17856200D03*
X10744200Y24460200D03*
X12014200Y24460200D03*
X4902200Y13538200D03*
X965200Y24460200D03*
D21*
X1854200Y20142200D02*
X1854200Y22682200D01*
X3124200Y18872200D02*
X1854200Y20142200D01*
X3124200Y14173200D02*
X3124200Y18872200D01*
X3632200Y13665200D02*
X3124200Y14173200D01*
X4775200Y13665200D02*
X3632200Y13665200D01*
X4902200Y13538200D02*
X4775200Y13665200D01*
D22*
X19380200Y1346200D02*
X19253200Y1346200D01*
X4394200Y15062200D02*
X4394200Y14681200D01*
D23*
X4394200Y14554200D02*
X4394200Y15062200D01*
D22*
X1600200Y5156200D02*
X2235200Y5156200D01*
X2235200Y5156200D02*
X3251200Y6172200D01*
X3251200Y6172200D02*
X3251200Y11633200D01*
X3251200Y11633200D02*
X4013200Y12395200D01*
X4013200Y12395200D02*
X16078200Y12395200D01*
X16078200Y12395200D02*
X17094200Y13411200D01*
X17094200Y13411200D02*
X17094200Y15062200D01*
X17094200Y14427200D02*
X17094200Y15062200D01*
D21*
X584200Y16332200D02*
X1854200Y15062200D01*
X584200Y24079200D02*
X584200Y16332200D01*
X965200Y24460200D02*
X584200Y24079200D01*
D24*
G36*
X18619502Y14019389D02*
X19085049Y13708320D01*
X19634200Y13599087D01*
X20183351Y13708320D01*
X20448200Y13885287D01*
X20448200Y11143717D01*
X20172570Y11419829D01*
X19659300Y11632957D01*
X19103539Y11633442D01*
X18589897Y11421210D01*
X18196571Y11028570D01*
X18044095Y10661365D01*
X18039362Y10686517D01*
X17900290Y10902641D01*
X17688090Y11047631D01*
X17436200Y11098640D01*
X15736200Y11098640D01*
X15500883Y11054362D01*
X15284759Y10915290D01*
X15139769Y10703090D01*
X15088760Y10451200D01*
X15088760Y8751200D01*
X15133038Y8515883D01*
X15272110Y8299759D01*
X15484310Y8154769D01*
X15551741Y8141114D01*
X15507053Y8111254D01*
X15185146Y7629485D01*
X15072107Y7061200D01*
X15185146Y6492915D01*
X15507053Y6011146D01*
X15836226Y5791200D01*
X15507053Y5571254D01*
X15185146Y5089485D01*
X15072107Y4521200D01*
X15185146Y3952915D01*
X15507053Y3471146D01*
X15988822Y3149239D01*
X16557107Y3036200D01*
X16615293Y3036200D01*
X17183578Y3149239D01*
X17665347Y3471146D01*
X17983252Y3946926D01*
X17982958Y3609539D01*
X18195190Y3095897D01*
X18587830Y2702571D01*
X18795712Y2616251D01*
X18589897Y2531210D01*
X18196571Y2138570D01*
X17983443Y1625300D01*
X17982958Y1069539D01*
X18100031Y786200D01*
X2880317Y786200D01*
X2996957Y1067100D01*
X2997442Y1622861D01*
X2839418Y2005310D01*
X3587724Y2005310D01*
X3757555Y1595276D01*
X4147842Y1167017D01*
X4672308Y920714D01*
X4902200Y1041381D01*
X4902200Y2235200D01*
X5156200Y2235200D01*
X5156200Y1041381D01*
X5386092Y920714D01*
X5910558Y1167017D01*
X6300845Y1595276D01*
X6470676Y2005310D01*
X6349355Y2235200D01*
X5156200Y2235200D01*
X4902200Y2235200D01*
X3709045Y2235200D01*
X3587724Y2005310D01*
X2839418Y2005310D01*
X2785210Y2136503D01*
X2392570Y2529829D01*
X1879300Y2742957D01*
X1323539Y2743442D01*
X809897Y2531210D01*
X786200Y2507554D01*
X786200Y3994239D01*
X807830Y3972571D01*
X1321100Y3759443D01*
X1876861Y3758958D01*
X2390503Y3971190D01*
X2685598Y4265771D01*
X2949378Y4442022D01*
X3541316Y5033960D01*
X3515107Y4902200D01*
X3628146Y4333915D01*
X3950053Y3852146D01*
X4290753Y3624498D01*
X4147842Y3557383D01*
X3757555Y3129124D01*
X3587724Y2719090D01*
X3709045Y2489200D01*
X4902200Y2489200D01*
X4902200Y2509200D01*
X5156200Y2509200D01*
X5156200Y2489200D01*
X6349355Y2489200D01*
X6470676Y2719090D01*
X6300845Y3129124D01*
X5910558Y3557383D01*
X5767647Y3624498D01*
X6108347Y3852146D01*
X6430254Y4333915D01*
X6543293Y4902200D01*
X6430254Y5470485D01*
X6310802Y5649258D01*
X9564930Y5649258D01*
X9801925Y5075686D01*
X10240377Y4636468D01*
X10813536Y4398472D01*
X11434142Y4397930D01*
X12007714Y4634925D01*
X12446932Y5073377D01*
X12684928Y5646536D01*
X12685470Y6267142D01*
X12448475Y6840714D01*
X12328318Y6961081D01*
X12409899Y6994873D01*
X12588527Y7173502D01*
X12685200Y7406891D01*
X12685200Y8172450D01*
X12526450Y8331200D01*
X11252200Y8331200D01*
X11252200Y8311200D01*
X10998200Y8311200D01*
X10998200Y8331200D01*
X9723950Y8331200D01*
X9565200Y8172450D01*
X9565200Y7406891D01*
X9661873Y7173502D01*
X9840501Y6994873D01*
X9921835Y6961183D01*
X9803468Y6843023D01*
X9565472Y6269864D01*
X9564930Y5649258D01*
X6310802Y5649258D01*
X6108347Y5952254D01*
X5779174Y6172200D01*
X6108347Y6392146D01*
X6430254Y6873915D01*
X6543293Y7442200D01*
X6430254Y8010485D01*
X6108347Y8492254D01*
X6066748Y8520050D01*
X6114517Y8529038D01*
X6330641Y8668110D01*
X6475631Y8880310D01*
X6526640Y9132200D01*
X6526640Y9509509D01*
X9565200Y9509509D01*
X9565200Y8743950D01*
X9723950Y8585200D01*
X10998200Y8585200D01*
X10998200Y9859450D01*
X11252200Y9859450D01*
X11252200Y8585200D01*
X12526450Y8585200D01*
X12685200Y8743950D01*
X12685200Y9509509D01*
X12588527Y9742898D01*
X12409899Y9921527D01*
X12176510Y10018200D01*
X11410950Y10018200D01*
X11252200Y9859450D01*
X10998200Y9859450D01*
X10839450Y10018200D01*
X10073890Y10018200D01*
X9840501Y9921527D01*
X9661873Y9742898D01*
X9565200Y9509509D01*
X6526640Y9509509D01*
X6526640Y10832200D01*
X6482362Y11067517D01*
X6343290Y11283641D01*
X6194653Y11385200D01*
X16078200Y11385200D01*
X16464710Y11462082D01*
X16792378Y11681022D01*
X17808378Y12697022D01*
X18027318Y13024690D01*
X18104200Y13411200D01*
X18104200Y14016250D01*
X18108898Y14019389D01*
X18364200Y14401475D01*
X18619502Y14019389D01*
X18619502Y14019389D01*
G37*
X18619502Y14019389D02*
X19085049Y13708320D01*
X19634200Y13599087D01*
X20183351Y13708320D01*
X20448200Y13885287D01*
X20448200Y11143717D01*
X20172570Y11419829D01*
X19659300Y11632957D01*
X19103539Y11633442D01*
X18589897Y11421210D01*
X18196571Y11028570D01*
X18044095Y10661365D01*
X18039362Y10686517D01*
X17900290Y10902641D01*
X17688090Y11047631D01*
X17436200Y11098640D01*
X15736200Y11098640D01*
X15500883Y11054362D01*
X15284759Y10915290D01*
X15139769Y10703090D01*
X15088760Y10451200D01*
X15088760Y8751200D01*
X15133038Y8515883D01*
X15272110Y8299759D01*
X15484310Y8154769D01*
X15551741Y8141114D01*
X15507053Y8111254D01*
X15185146Y7629485D01*
X15072107Y7061200D01*
X15185146Y6492915D01*
X15507053Y6011146D01*
X15836226Y5791200D01*
X15507053Y5571254D01*
X15185146Y5089485D01*
X15072107Y4521200D01*
X15185146Y3952915D01*
X15507053Y3471146D01*
X15988822Y3149239D01*
X16557107Y3036200D01*
X16615293Y3036200D01*
X17183578Y3149239D01*
X17665347Y3471146D01*
X17983252Y3946926D01*
X17982958Y3609539D01*
X18195190Y3095897D01*
X18587830Y2702571D01*
X18795712Y2616251D01*
X18589897Y2531210D01*
X18196571Y2138570D01*
X17983443Y1625300D01*
X17982958Y1069539D01*
X18100031Y786200D01*
X2880317Y786200D01*
X2996957Y1067100D01*
X2997442Y1622861D01*
X2839418Y2005310D01*
X3587724Y2005310D01*
X3757555Y1595276D01*
X4147842Y1167017D01*
X4672308Y920714D01*
X4902200Y1041381D01*
X4902200Y2235200D01*
X5156200Y2235200D01*
X5156200Y1041381D01*
X5386092Y920714D01*
X5910558Y1167017D01*
X6300845Y1595276D01*
X6470676Y2005310D01*
X6349355Y2235200D01*
X5156200Y2235200D01*
X4902200Y2235200D01*
X3709045Y2235200D01*
X3587724Y2005310D01*
X2839418Y2005310D01*
X2785210Y2136503D01*
X2392570Y2529829D01*
X1879300Y2742957D01*
X1323539Y2743442D01*
X809897Y2531210D01*
X786200Y2507554D01*
X786200Y3994239D01*
X807830Y3972571D01*
X1321100Y3759443D01*
X1876861Y3758958D01*
X2390503Y3971190D01*
X2685598Y4265771D01*
X2949378Y4442022D01*
X3541316Y5033960D01*
X3515107Y4902200D01*
X3628146Y4333915D01*
X3950053Y3852146D01*
X4290753Y3624498D01*
X4147842Y3557383D01*
X3757555Y3129124D01*
X3587724Y2719090D01*
X3709045Y2489200D01*
X4902200Y2489200D01*
X4902200Y2509200D01*
X5156200Y2509200D01*
X5156200Y2489200D01*
X6349355Y2489200D01*
X6470676Y2719090D01*
X6300845Y3129124D01*
X5910558Y3557383D01*
X5767647Y3624498D01*
X6108347Y3852146D01*
X6430254Y4333915D01*
X6543293Y4902200D01*
X6430254Y5470485D01*
X6310802Y5649258D01*
X9564930Y5649258D01*
X9801925Y5075686D01*
X10240377Y4636468D01*
X10813536Y4398472D01*
X11434142Y4397930D01*
X12007714Y4634925D01*
X12446932Y5073377D01*
X12684928Y5646536D01*
X12685470Y6267142D01*
X12448475Y6840714D01*
X12328318Y6961081D01*
X12409899Y6994873D01*
X12588527Y7173502D01*
X12685200Y7406891D01*
X12685200Y8172450D01*
X12526450Y8331200D01*
X11252200Y8331200D01*
X11252200Y8311200D01*
X10998200Y8311200D01*
X10998200Y8331200D01*
X9723950Y8331200D01*
X9565200Y8172450D01*
X9565200Y7406891D01*
X9661873Y7173502D01*
X9840501Y6994873D01*
X9921835Y6961183D01*
X9803468Y6843023D01*
X9565472Y6269864D01*
X9564930Y5649258D01*
X6310802Y5649258D01*
X6108347Y5952254D01*
X5779174Y6172200D01*
X6108347Y6392146D01*
X6430254Y6873915D01*
X6543293Y7442200D01*
X6430254Y8010485D01*
X6108347Y8492254D01*
X6066748Y8520050D01*
X6114517Y8529038D01*
X6330641Y8668110D01*
X6475631Y8880310D01*
X6526640Y9132200D01*
X6526640Y9509509D01*
X9565200Y9509509D01*
X9565200Y8743950D01*
X9723950Y8585200D01*
X10998200Y8585200D01*
X10998200Y9859450D01*
X11252200Y9859450D01*
X11252200Y8585200D01*
X12526450Y8585200D01*
X12685200Y8743950D01*
X12685200Y9509509D01*
X12588527Y9742898D01*
X12409899Y9921527D01*
X12176510Y10018200D01*
X11410950Y10018200D01*
X11252200Y9859450D01*
X10998200Y9859450D01*
X10839450Y10018200D01*
X10073890Y10018200D01*
X9840501Y9921527D01*
X9661873Y9742898D01*
X9565200Y9509509D01*
X6526640Y9509509D01*
X6526640Y10832200D01*
X6482362Y11067517D01*
X6343290Y11283641D01*
X6194653Y11385200D01*
X16078200Y11385200D01*
X16464710Y11462082D01*
X16792378Y11681022D01*
X17808378Y12697022D01*
X18027318Y13024690D01*
X18104200Y13411200D01*
X18104200Y14016250D01*
X18108898Y14019389D01*
X18364200Y14401475D01*
X18619502Y14019389D01*
G36*
X20448200Y30061628D02*
X20360413Y30086808D01*
X19559805Y29286200D01*
X20360413Y28485592D01*
X20448200Y28510772D01*
X20448200Y23859113D01*
X20183351Y24036080D01*
X19634200Y24145313D01*
X19085049Y24036080D01*
X18619502Y23725011D01*
X18364200Y23342925D01*
X18108898Y23725011D01*
X17643351Y24036080D01*
X17094200Y24145313D01*
X16545049Y24036080D01*
X16079502Y23725011D01*
X15824200Y23342925D01*
X15568898Y23725011D01*
X15103351Y24036080D01*
X14554200Y24145313D01*
X14005049Y24036080D01*
X13539502Y23725011D01*
X13269214Y23320497D01*
X13166589Y23537334D01*
X12751623Y23913241D01*
X12363239Y24074104D01*
X12141200Y23952115D01*
X12141200Y22809200D01*
X12161200Y22809200D01*
X12161200Y22555200D01*
X12141200Y22555200D01*
X12141200Y21412285D01*
X12363239Y21290296D01*
X12751623Y21451159D01*
X13166589Y21827066D01*
X13269214Y22043903D01*
X13539502Y21639389D01*
X14005049Y21328320D01*
X14554200Y21219087D01*
X15103351Y21328320D01*
X15568898Y21639389D01*
X15824200Y22021475D01*
X16079502Y21639389D01*
X16545049Y21328320D01*
X17094200Y21219087D01*
X17643351Y21328320D01*
X18108898Y21639389D01*
X18364200Y22021475D01*
X18619502Y21639389D01*
X19085049Y21328320D01*
X19634200Y21219087D01*
X20183351Y21328320D01*
X20448200Y21505287D01*
X20448200Y16239113D01*
X20183351Y16416080D01*
X19634200Y16525313D01*
X19085049Y16416080D01*
X18619502Y16105011D01*
X18364200Y15722925D01*
X18108898Y16105011D01*
X17643351Y16416080D01*
X17094200Y16525313D01*
X16545049Y16416080D01*
X16079502Y16105011D01*
X15824200Y15722925D01*
X15568898Y16105011D01*
X15103351Y16416080D01*
X14554200Y16525313D01*
X14005049Y16416080D01*
X13539502Y16105011D01*
X13269214Y15700497D01*
X13166589Y15917334D01*
X12751623Y16293241D01*
X12363239Y16454104D01*
X12141200Y16332115D01*
X12141200Y15189200D01*
X12161200Y15189200D01*
X12161200Y14935200D01*
X12141200Y14935200D01*
X12141200Y13792285D01*
X12363239Y13670296D01*
X12751623Y13831159D01*
X13166589Y14207066D01*
X13269214Y14423903D01*
X13539502Y14019389D01*
X14005049Y13708320D01*
X14554200Y13599087D01*
X15103351Y13708320D01*
X15568898Y14019389D01*
X15824200Y14401475D01*
X16079502Y14019389D01*
X16084200Y14016250D01*
X16084200Y13829556D01*
X15659844Y13405200D01*
X5837085Y13405200D01*
X5837362Y13723367D01*
X5695317Y14067143D01*
X5542856Y14219871D01*
X5664200Y14401475D01*
X5919502Y14019389D01*
X6385049Y13708320D01*
X6934200Y13599087D01*
X7483351Y13708320D01*
X7948898Y14019389D01*
X8219186Y14423903D01*
X8321811Y14207066D01*
X8736777Y13831159D01*
X9125161Y13670296D01*
X9347200Y13792285D01*
X9347200Y14935200D01*
X9601200Y14935200D01*
X9601200Y13792285D01*
X9823239Y13670296D01*
X10211623Y13831159D01*
X10626589Y14207066D01*
X10744200Y14455567D01*
X10861811Y14207066D01*
X11276777Y13831159D01*
X11665161Y13670296D01*
X11887200Y13792285D01*
X11887200Y14935200D01*
X9601200Y14935200D01*
X9347200Y14935200D01*
X9327200Y14935200D01*
X9327200Y15189200D01*
X9347200Y15189200D01*
X9347200Y16332115D01*
X9601200Y16332115D01*
X9601200Y15189200D01*
X11887200Y15189200D01*
X11887200Y16332115D01*
X11665161Y16454104D01*
X11276777Y16293241D01*
X10861811Y15917334D01*
X10744200Y15668833D01*
X10626589Y15917334D01*
X10211623Y16293241D01*
X9823239Y16454104D01*
X9601200Y16332115D01*
X9347200Y16332115D01*
X9125161Y16454104D01*
X8736777Y16293241D01*
X8321811Y15917334D01*
X8219186Y15700497D01*
X7948898Y16105011D01*
X7483351Y16416080D01*
X6934200Y16525313D01*
X6385049Y16416080D01*
X5919502Y16105011D01*
X5664200Y15722925D01*
X5408898Y16105011D01*
X4943351Y16416080D01*
X4394200Y16525313D01*
X3884200Y16423868D01*
X3884200Y18872200D01*
X3826348Y19163039D01*
X3826348Y19163040D01*
X3661601Y19409601D01*
X2614200Y20457002D01*
X2614200Y21469205D01*
X2868898Y21639389D01*
X3124200Y22021475D01*
X3379502Y21639389D01*
X3845049Y21328320D01*
X4394200Y21219087D01*
X4943351Y21328320D01*
X5408898Y21639389D01*
X5664200Y22021475D01*
X5919502Y21639389D01*
X6385049Y21328320D01*
X6934200Y21219087D01*
X7483351Y21328320D01*
X7948898Y21639389D01*
X8219186Y22043903D01*
X8321811Y21827066D01*
X8736777Y21451159D01*
X9125161Y21290296D01*
X9347200Y21412285D01*
X9347200Y22555200D01*
X9601200Y22555200D01*
X9601200Y21412285D01*
X9823239Y21290296D01*
X10211623Y21451159D01*
X10626589Y21827066D01*
X10744200Y22075567D01*
X10861811Y21827066D01*
X11276777Y21451159D01*
X11665161Y21290296D01*
X11887200Y21412285D01*
X11887200Y22555200D01*
X9601200Y22555200D01*
X9347200Y22555200D01*
X9327200Y22555200D01*
X9327200Y22809200D01*
X9347200Y22809200D01*
X9347200Y23952115D01*
X9601200Y23952115D01*
X9601200Y22809200D01*
X11887200Y22809200D01*
X11887200Y23952115D01*
X11665161Y24074104D01*
X11276777Y23913241D01*
X10861811Y23537334D01*
X10744200Y23288833D01*
X10626589Y23537334D01*
X10211623Y23913241D01*
X9823239Y24074104D01*
X9601200Y23952115D01*
X9347200Y23952115D01*
X9125161Y24074104D01*
X8736777Y23913241D01*
X8321811Y23537334D01*
X8219186Y23320497D01*
X7948898Y23725011D01*
X7483351Y24036080D01*
X6934200Y24145313D01*
X6385049Y24036080D01*
X5919502Y23725011D01*
X5664200Y23342925D01*
X5408898Y23725011D01*
X4943351Y24036080D01*
X4394200Y24145313D01*
X3845049Y24036080D01*
X3379502Y23725011D01*
X3124200Y23342925D01*
X2868898Y23725011D01*
X2403351Y24036080D01*
X1854200Y24145313D01*
X1846189Y24143720D01*
X1900038Y24273401D01*
X1900362Y24645367D01*
X1758317Y24989143D01*
X1495527Y25252392D01*
X1151999Y25395038D01*
X786200Y25395357D01*
X786200Y28292592D01*
X799593Y28305985D01*
X869057Y28063803D01*
X1392502Y27877056D01*
X1947568Y27904838D01*
X2331343Y28063803D01*
X2400808Y28305987D01*
X1600200Y29106595D01*
X1586058Y29092452D01*
X1406453Y29272057D01*
X1420595Y29286200D01*
X1779805Y29286200D01*
X2580413Y28485592D01*
X2822597Y28555057D01*
X2950261Y28912895D01*
X6144874Y28912895D01*
X6431243Y28219828D01*
X6961039Y27689107D01*
X7653605Y27401528D01*
X8403505Y27400874D01*
X9096572Y27687243D01*
X9627293Y28217039D01*
X9914872Y28909605D01*
X9915526Y29659505D01*
X9629157Y30352572D01*
X9445850Y30536200D01*
X11132760Y30536200D01*
X11132760Y28036200D01*
X11177038Y27800883D01*
X11316110Y27584759D01*
X11528310Y27439769D01*
X11780200Y27388760D01*
X14280200Y27388760D01*
X14515517Y27433038D01*
X14731641Y27572110D01*
X14876631Y27784310D01*
X14927640Y28036200D01*
X14927640Y28305987D01*
X18579592Y28305987D01*
X18649057Y28063803D01*
X19172502Y27877056D01*
X19727568Y27904838D01*
X20111343Y28063803D01*
X20180808Y28305987D01*
X19380200Y29106595D01*
X18579592Y28305987D01*
X14927640Y28305987D01*
X14927640Y29493898D01*
X17971056Y29493898D01*
X17998838Y28938832D01*
X18157803Y28555057D01*
X18399987Y28485592D01*
X19200595Y29286200D01*
X18399987Y30086808D01*
X18157803Y30017343D01*
X17971056Y29493898D01*
X14927640Y29493898D01*
X14927640Y30266413D01*
X18579592Y30266413D01*
X19380200Y29465805D01*
X20180808Y30266413D01*
X20111343Y30508597D01*
X19587898Y30695344D01*
X19032832Y30667562D01*
X18649057Y30508597D01*
X18579592Y30266413D01*
X14927640Y30266413D01*
X14927640Y30536200D01*
X14883362Y30771517D01*
X14744290Y30987641D01*
X14532090Y31132631D01*
X14280200Y31183640D01*
X11780200Y31183640D01*
X11544883Y31139362D01*
X11328759Y31000290D01*
X11183769Y30788090D01*
X11132760Y30536200D01*
X9445850Y30536200D01*
X9099361Y30883293D01*
X8406795Y31170872D01*
X7656895Y31171526D01*
X6963828Y30885157D01*
X6433107Y30355361D01*
X6145528Y29662795D01*
X6144874Y28912895D01*
X2950261Y28912895D01*
X3009344Y29078502D01*
X2981562Y29633568D01*
X2822597Y30017343D01*
X2580413Y30086808D01*
X1779805Y29286200D01*
X1420595Y29286200D01*
X1406453Y29300342D01*
X1586058Y29479947D01*
X1600200Y29465805D01*
X2400808Y30266413D01*
X2331343Y30508597D01*
X1807898Y30695344D01*
X1252832Y30667562D01*
X869057Y30508597D01*
X799593Y30266415D01*
X786200Y30279808D01*
X786200Y33656200D01*
X20448200Y33656200D01*
X20448200Y30061628D01*
X20448200Y30061628D01*
G37*
X20448200Y30061628D02*
X20360413Y30086808D01*
X19559805Y29286200D01*
X20360413Y28485592D01*
X20448200Y28510772D01*
X20448200Y23859113D01*
X20183351Y24036080D01*
X19634200Y24145313D01*
X19085049Y24036080D01*
X18619502Y23725011D01*
X18364200Y23342925D01*
X18108898Y23725011D01*
X17643351Y24036080D01*
X17094200Y24145313D01*
X16545049Y24036080D01*
X16079502Y23725011D01*
X15824200Y23342925D01*
X15568898Y23725011D01*
X15103351Y24036080D01*
X14554200Y24145313D01*
X14005049Y24036080D01*
X13539502Y23725011D01*
X13269214Y23320497D01*
X13166589Y23537334D01*
X12751623Y23913241D01*
X12363239Y24074104D01*
X12141200Y23952115D01*
X12141200Y22809200D01*
X12161200Y22809200D01*
X12161200Y22555200D01*
X12141200Y22555200D01*
X12141200Y21412285D01*
X12363239Y21290296D01*
X12751623Y21451159D01*
X13166589Y21827066D01*
X13269214Y22043903D01*
X13539502Y21639389D01*
X14005049Y21328320D01*
X14554200Y21219087D01*
X15103351Y21328320D01*
X15568898Y21639389D01*
X15824200Y22021475D01*
X16079502Y21639389D01*
X16545049Y21328320D01*
X17094200Y21219087D01*
X17643351Y21328320D01*
X18108898Y21639389D01*
X18364200Y22021475D01*
X18619502Y21639389D01*
X19085049Y21328320D01*
X19634200Y21219087D01*
X20183351Y21328320D01*
X20448200Y21505287D01*
X20448200Y16239113D01*
X20183351Y16416080D01*
X19634200Y16525313D01*
X19085049Y16416080D01*
X18619502Y16105011D01*
X18364200Y15722925D01*
X18108898Y16105011D01*
X17643351Y16416080D01*
X17094200Y16525313D01*
X16545049Y16416080D01*
X16079502Y16105011D01*
X15824200Y15722925D01*
X15568898Y16105011D01*
X15103351Y16416080D01*
X14554200Y16525313D01*
X14005049Y16416080D01*
X13539502Y16105011D01*
X13269214Y15700497D01*
X13166589Y15917334D01*
X12751623Y16293241D01*
X12363239Y16454104D01*
X12141200Y16332115D01*
X12141200Y15189200D01*
X12161200Y15189200D01*
X12161200Y14935200D01*
X12141200Y14935200D01*
X12141200Y13792285D01*
X12363239Y13670296D01*
X12751623Y13831159D01*
X13166589Y14207066D01*
X13269214Y14423903D01*
X13539502Y14019389D01*
X14005049Y13708320D01*
X14554200Y13599087D01*
X15103351Y13708320D01*
X15568898Y14019389D01*
X15824200Y14401475D01*
X16079502Y14019389D01*
X16084200Y14016250D01*
X16084200Y13829556D01*
X15659844Y13405200D01*
X5837085Y13405200D01*
X5837362Y13723367D01*
X5695317Y14067143D01*
X5542856Y14219871D01*
X5664200Y14401475D01*
X5919502Y14019389D01*
X6385049Y13708320D01*
X6934200Y13599087D01*
X7483351Y13708320D01*
X7948898Y14019389D01*
X8219186Y14423903D01*
X8321811Y14207066D01*
X8736777Y13831159D01*
X9125161Y13670296D01*
X9347200Y13792285D01*
X9347200Y14935200D01*
X9601200Y14935200D01*
X9601200Y13792285D01*
X9823239Y13670296D01*
X10211623Y13831159D01*
X10626589Y14207066D01*
X10744200Y14455567D01*
X10861811Y14207066D01*
X11276777Y13831159D01*
X11665161Y13670296D01*
X11887200Y13792285D01*
X11887200Y14935200D01*
X9601200Y14935200D01*
X9347200Y14935200D01*
X9327200Y14935200D01*
X9327200Y15189200D01*
X9347200Y15189200D01*
X9347200Y16332115D01*
X9601200Y16332115D01*
X9601200Y15189200D01*
X11887200Y15189200D01*
X11887200Y16332115D01*
X11665161Y16454104D01*
X11276777Y16293241D01*
X10861811Y15917334D01*
X10744200Y15668833D01*
X10626589Y15917334D01*
X10211623Y16293241D01*
X9823239Y16454104D01*
X9601200Y16332115D01*
X9347200Y16332115D01*
X9125161Y16454104D01*
X8736777Y16293241D01*
X8321811Y15917334D01*
X8219186Y15700497D01*
X7948898Y16105011D01*
X7483351Y16416080D01*
X6934200Y16525313D01*
X6385049Y16416080D01*
X5919502Y16105011D01*
X5664200Y15722925D01*
X5408898Y16105011D01*
X4943351Y16416080D01*
X4394200Y16525313D01*
X3884200Y16423868D01*
X3884200Y18872200D01*
X3826348Y19163039D01*
X3826348Y19163040D01*
X3661601Y19409601D01*
X2614200Y20457002D01*
X2614200Y21469205D01*
X2868898Y21639389D01*
X3124200Y22021475D01*
X3379502Y21639389D01*
X3845049Y21328320D01*
X4394200Y21219087D01*
X4943351Y21328320D01*
X5408898Y21639389D01*
X5664200Y22021475D01*
X5919502Y21639389D01*
X6385049Y21328320D01*
X6934200Y21219087D01*
X7483351Y21328320D01*
X7948898Y21639389D01*
X8219186Y22043903D01*
X8321811Y21827066D01*
X8736777Y21451159D01*
X9125161Y21290296D01*
X9347200Y21412285D01*
X9347200Y22555200D01*
X9601200Y22555200D01*
X9601200Y21412285D01*
X9823239Y21290296D01*
X10211623Y21451159D01*
X10626589Y21827066D01*
X10744200Y22075567D01*
X10861811Y21827066D01*
X11276777Y21451159D01*
X11665161Y21290296D01*
X11887200Y21412285D01*
X11887200Y22555200D01*
X9601200Y22555200D01*
X9347200Y22555200D01*
X9327200Y22555200D01*
X9327200Y22809200D01*
X9347200Y22809200D01*
X9347200Y23952115D01*
X9601200Y23952115D01*
X9601200Y22809200D01*
X11887200Y22809200D01*
X11887200Y23952115D01*
X11665161Y24074104D01*
X11276777Y23913241D01*
X10861811Y23537334D01*
X10744200Y23288833D01*
X10626589Y23537334D01*
X10211623Y23913241D01*
X9823239Y24074104D01*
X9601200Y23952115D01*
X9347200Y23952115D01*
X9125161Y24074104D01*
X8736777Y23913241D01*
X8321811Y23537334D01*
X8219186Y23320497D01*
X7948898Y23725011D01*
X7483351Y24036080D01*
X6934200Y24145313D01*
X6385049Y24036080D01*
X5919502Y23725011D01*
X5664200Y23342925D01*
X5408898Y23725011D01*
X4943351Y24036080D01*
X4394200Y24145313D01*
X3845049Y24036080D01*
X3379502Y23725011D01*
X3124200Y23342925D01*
X2868898Y23725011D01*
X2403351Y24036080D01*
X1854200Y24145313D01*
X1846189Y24143720D01*
X1900038Y24273401D01*
X1900362Y24645367D01*
X1758317Y24989143D01*
X1495527Y25252392D01*
X1151999Y25395038D01*
X786200Y25395357D01*
X786200Y28292592D01*
X799593Y28305985D01*
X869057Y28063803D01*
X1392502Y27877056D01*
X1947568Y27904838D01*
X2331343Y28063803D01*
X2400808Y28305987D01*
X1600200Y29106595D01*
X1586058Y29092452D01*
X1406453Y29272057D01*
X1420595Y29286200D01*
X1779805Y29286200D01*
X2580413Y28485592D01*
X2822597Y28555057D01*
X2950261Y28912895D01*
X6144874Y28912895D01*
X6431243Y28219828D01*
X6961039Y27689107D01*
X7653605Y27401528D01*
X8403505Y27400874D01*
X9096572Y27687243D01*
X9627293Y28217039D01*
X9914872Y28909605D01*
X9915526Y29659505D01*
X9629157Y30352572D01*
X9445850Y30536200D01*
X11132760Y30536200D01*
X11132760Y28036200D01*
X11177038Y27800883D01*
X11316110Y27584759D01*
X11528310Y27439769D01*
X11780200Y27388760D01*
X14280200Y27388760D01*
X14515517Y27433038D01*
X14731641Y27572110D01*
X14876631Y27784310D01*
X14927640Y28036200D01*
X14927640Y28305987D01*
X18579592Y28305987D01*
X18649057Y28063803D01*
X19172502Y27877056D01*
X19727568Y27904838D01*
X20111343Y28063803D01*
X20180808Y28305987D01*
X19380200Y29106595D01*
X18579592Y28305987D01*
X14927640Y28305987D01*
X14927640Y29493898D01*
X17971056Y29493898D01*
X17998838Y28938832D01*
X18157803Y28555057D01*
X18399987Y28485592D01*
X19200595Y29286200D01*
X18399987Y30086808D01*
X18157803Y30017343D01*
X17971056Y29493898D01*
X14927640Y29493898D01*
X14927640Y30266413D01*
X18579592Y30266413D01*
X19380200Y29465805D01*
X20180808Y30266413D01*
X20111343Y30508597D01*
X19587898Y30695344D01*
X19032832Y30667562D01*
X18649057Y30508597D01*
X18579592Y30266413D01*
X14927640Y30266413D01*
X14927640Y30536200D01*
X14883362Y30771517D01*
X14744290Y30987641D01*
X14532090Y31132631D01*
X14280200Y31183640D01*
X11780200Y31183640D01*
X11544883Y31139362D01*
X11328759Y31000290D01*
X11183769Y30788090D01*
X11132760Y30536200D01*
X9445850Y30536200D01*
X9099361Y30883293D01*
X8406795Y31170872D01*
X7656895Y31171526D01*
X6963828Y30885157D01*
X6433107Y30355361D01*
X6145528Y29662795D01*
X6144874Y28912895D01*
X2950261Y28912895D01*
X3009344Y29078502D01*
X2981562Y29633568D01*
X2822597Y30017343D01*
X2580413Y30086808D01*
X1779805Y29286200D01*
X1420595Y29286200D01*
X1406453Y29300342D01*
X1586058Y29479947D01*
X1600200Y29465805D01*
X2400808Y30266413D01*
X2331343Y30508597D01*
X1807898Y30695344D01*
X1252832Y30667562D01*
X869057Y30508597D01*
X799593Y30266415D01*
X786200Y30279808D01*
X786200Y33656200D01*
X20448200Y33656200D01*
X20448200Y30061628D01*
M02*
