G04 #@! TF.FileFunction,Soldermask,Top*
%FSLAX46Y46*%
G04 Gerber Fmt 4.6, Leading zero omitted, Abs format (unit mm)*
G04 Created by KiCad (PCBNEW 4.0.6+dfsg1-1) date Thu Mar 15 12:52:20 2018*
%MOMM*%
%LPD*%
G01*
G04 APERTURE LIST*
%ADD10C,0.100000*%
%ADD11R,2.900000X2.700000*%
%ADD12R,2.100000X2.100000*%
%ADD13O,2.100000X2.100000*%
%ADD14R,2.900000X2.900000*%
%ADD15C,2.900000*%
%ADD16C,1.924000*%
%ADD17C,0.500000*%
%ADD18R,2.000000X2.000000*%
%ADD19O,2.000000X2.000000*%
%ADD20R,3.400000X2.000000*%
G04 APERTURE END LIST*
D10*
D11*
X154750000Y-77800000D03*
X150450000Y-77800000D03*
D12*
X152600000Y-98600000D03*
D13*
X155140000Y-98600000D03*
X152600000Y-101140000D03*
X155140000Y-101140000D03*
D14*
X156200000Y-69200000D03*
D15*
X161200000Y-69200000D03*
D12*
X155000000Y-89000000D03*
D13*
X155000000Y-91540000D03*
X155000000Y-94080000D03*
D16*
X167551100Y-103733600D03*
X167551100Y-101193600D03*
X167551100Y-97383600D03*
X167551100Y-94843600D03*
X149771100Y-103733600D03*
D17*
X149771100Y-75793600D03*
D16*
X167551100Y-75793600D03*
X149771100Y-99923600D03*
X149771100Y-97383600D03*
X149771100Y-94843600D03*
D17*
X149771100Y-92303600D03*
D18*
X157800000Y-76800000D03*
D19*
X165420000Y-99660000D03*
X157800000Y-79340000D03*
X165420000Y-97120000D03*
X157800000Y-81880000D03*
X165420000Y-94580000D03*
X157800000Y-84420000D03*
X165420000Y-92040000D03*
X157800000Y-86960000D03*
X165420000Y-89500000D03*
X157800000Y-89500000D03*
X165420000Y-86960000D03*
X157800000Y-92040000D03*
X165420000Y-84420000D03*
X157800000Y-94580000D03*
X165420000Y-81880000D03*
X157800000Y-97120000D03*
X165420000Y-79340000D03*
X157800000Y-99660000D03*
X165420000Y-76800000D03*
D20*
X154800000Y-83000000D03*
X150400000Y-83000000D03*
M02*
