G04 #@! TF.FileFunction,Copper,L1,Top,Signal*
%FSLAX46Y46*%
G04 Gerber Fmt 4.6, Leading zero omitted, Abs format (unit mm)*
G04 Created by KiCad (PCBNEW 4.0.6+dfsg1-1) date Thu Mar 15 12:52:20 2018*
%MOMM*%
%LPD*%
G01*
G04 APERTURE LIST*
%ADD10C,0.100000*%
%ADD11R,2.500000X2.300000*%
%ADD12R,1.700000X1.700000*%
%ADD13O,1.700000X1.700000*%
%ADD14R,2.500000X2.500000*%
%ADD15C,2.500000*%
%ADD16C,1.524000*%
%ADD17C,0.100000*%
%ADD18R,1.600000X1.600000*%
%ADD19O,1.600000X1.600000*%
%ADD20R,3.000000X1.600000*%
%ADD21C,0.600000*%
%ADD22C,2.000000*%
%ADD23C,0.500000*%
%ADD24C,0.250000*%
%ADD25C,1.000000*%
%ADD26C,0.750000*%
G04 APERTURE END LIST*
D10*
D11*
X154750000Y-77800000D03*
X150450000Y-77800000D03*
D12*
X152600000Y-98600000D03*
D13*
X155140000Y-98600000D03*
X152600000Y-101140000D03*
X155140000Y-101140000D03*
D14*
X156200000Y-69200000D03*
D15*
X161200000Y-69200000D03*
D12*
X155000000Y-89000000D03*
D13*
X155000000Y-91540000D03*
X155000000Y-94080000D03*
D16*
X167551100Y-103733600D03*
X167551100Y-101193600D03*
X167551100Y-97383600D03*
X167551100Y-94843600D03*
X149771100Y-103733600D03*
X167551100Y-75793600D03*
X149771100Y-99923600D03*
X149771100Y-97383600D03*
X149771100Y-94843600D03*
D17*
X149771100Y-92303600D03*
D18*
X157800000Y-76800000D03*
D19*
X165420000Y-99660000D03*
X157800000Y-79340000D03*
X165420000Y-97120000D03*
X157800000Y-81880000D03*
X165420000Y-94580000D03*
X157800000Y-84420000D03*
X165420000Y-92040000D03*
X157800000Y-86960000D03*
X165420000Y-89500000D03*
X157800000Y-89500000D03*
X165420000Y-86960000D03*
X157800000Y-92040000D03*
X165420000Y-84420000D03*
X157800000Y-94580000D03*
X165420000Y-81880000D03*
X157800000Y-97120000D03*
X165420000Y-79340000D03*
X157800000Y-99660000D03*
X165420000Y-76800000D03*
D20*
X154800000Y-83000000D03*
X150400000Y-83000000D03*
D21*
X150400000Y-86800000D03*
X150400000Y-85400000D03*
X150400000Y-84200000D03*
X150400000Y-83000000D03*
X163000000Y-86000000D03*
D22*
X154800000Y-83000000D02*
X154800000Y-77850000D01*
X154800000Y-77850000D02*
X154750000Y-77800000D01*
X155000000Y-89000000D02*
X155000000Y-83200000D01*
X155000000Y-83200000D02*
X154800000Y-83000000D01*
X167551100Y-75793600D02*
X167551100Y-72151100D01*
X164600000Y-69200000D02*
X161200000Y-69200000D01*
X167551100Y-72151100D02*
X164600000Y-69200000D01*
X155000000Y-94080000D02*
X153080000Y-94080000D01*
X150400000Y-90600000D02*
X150400000Y-86800000D01*
X150400000Y-86800000D02*
X150400000Y-85400000D01*
X150400000Y-85400000D02*
X150400000Y-84200000D01*
X150400000Y-84200000D02*
X150400000Y-83000000D01*
X151400000Y-91600000D02*
X150400000Y-90600000D01*
X151400000Y-92400000D02*
X151400000Y-91600000D01*
X153080000Y-94080000D02*
X151400000Y-92400000D01*
X150450000Y-77800000D02*
X150450000Y-72750000D01*
X154000000Y-69200000D02*
X156200000Y-69200000D01*
X150450000Y-72750000D02*
X154000000Y-69200000D01*
D23*
X149771100Y-99923600D02*
X149771100Y-100371100D01*
X149771100Y-100371100D02*
X150540000Y-101140000D01*
X150540000Y-101140000D02*
X152600000Y-101140000D01*
X165420000Y-84420000D02*
X162780000Y-84420000D01*
X156600000Y-102600000D02*
X155140000Y-101140000D01*
X158200000Y-102600000D02*
X156600000Y-102600000D01*
X162000000Y-98800000D02*
X158200000Y-102600000D01*
X162000000Y-85200000D02*
X162000000Y-98800000D01*
X162780000Y-84420000D02*
X162000000Y-85200000D01*
X149771100Y-97383600D02*
X151383600Y-97383600D01*
X151383600Y-97383600D02*
X152600000Y-98600000D01*
X155140000Y-98600000D02*
X155140000Y-98940000D01*
X155140000Y-98940000D02*
X156600000Y-100400000D01*
X156600000Y-100400000D02*
X156600000Y-101000000D01*
X156600000Y-101000000D02*
X157000000Y-101400000D01*
X157000000Y-101400000D02*
X158200000Y-101400000D01*
X158200000Y-101400000D02*
X161200000Y-98400000D01*
X161200000Y-98400000D02*
X161200000Y-82800000D01*
X161200000Y-82800000D02*
X162120000Y-81880000D01*
X162120000Y-81880000D02*
X165420000Y-81880000D01*
D24*
X155000000Y-91540000D02*
X155860000Y-91540000D01*
X159400000Y-83480000D02*
X157800000Y-81880000D01*
X159400000Y-90200000D02*
X159400000Y-83480000D01*
X158800000Y-90800000D02*
X159400000Y-90200000D01*
X156600000Y-90800000D02*
X158800000Y-90800000D01*
X155860000Y-91540000D02*
X156600000Y-90800000D01*
D25*
X157800000Y-81880000D02*
X157800000Y-79340000D01*
X167551100Y-101193600D02*
X167551100Y-103733600D01*
X167551100Y-94843600D02*
X167551100Y-97383600D01*
D26*
X149771100Y-103733600D02*
X158466400Y-103733600D01*
X163000000Y-99200000D02*
X163000000Y-86000000D01*
X158466400Y-103733600D02*
X163000000Y-99200000D01*
D25*
X157800000Y-76800000D02*
X161800000Y-76800000D01*
X164340000Y-79340000D02*
X165420000Y-79340000D01*
X161800000Y-76800000D02*
X164340000Y-79340000D01*
M02*
