G04 #@! TF.FileFunction,Copper,L2,Bot,Signal*
%FSLAX46Y46*%
G04 Gerber Fmt 4.6, Leading zero omitted, Abs format (unit mm)*
G04 Created by KiCad (PCBNEW 4.0.6+dfsg1-1) date Thu Mar 15 12:52:20 2018*
%MOMM*%
%LPD*%
G01*
G04 APERTURE LIST*
%ADD10C,0.100000*%
%ADD11R,1.700000X1.700000*%
%ADD12O,1.700000X1.700000*%
%ADD13R,2.500000X2.500000*%
%ADD14C,2.500000*%
%ADD15C,1.524000*%
%ADD16C,0.100000*%
%ADD17R,1.600000X1.600000*%
%ADD18O,1.600000X1.600000*%
%ADD19C,0.600000*%
%ADD20C,0.750000*%
%ADD21C,0.254000*%
G04 APERTURE END LIST*
D10*
D11*
X152600000Y-98600000D03*
D12*
X155140000Y-98600000D03*
X152600000Y-101140000D03*
X155140000Y-101140000D03*
D13*
X156200000Y-69200000D03*
D14*
X161200000Y-69200000D03*
D11*
X155000000Y-89000000D03*
D12*
X155000000Y-91540000D03*
X155000000Y-94080000D03*
D15*
X167551100Y-103733600D03*
X167551100Y-101193600D03*
X167551100Y-97383600D03*
X167551100Y-94843600D03*
X149771100Y-103733600D03*
D16*
X149771100Y-75793600D03*
D15*
X167551100Y-75793600D03*
X149771100Y-99923600D03*
X149771100Y-97383600D03*
X149771100Y-94843600D03*
D17*
X157800000Y-76800000D03*
D18*
X165420000Y-99660000D03*
X157800000Y-79340000D03*
X165420000Y-97120000D03*
X157800000Y-81880000D03*
X165420000Y-94580000D03*
X157800000Y-84420000D03*
X165420000Y-92040000D03*
X157800000Y-86960000D03*
X165420000Y-89500000D03*
X157800000Y-89500000D03*
X165420000Y-86960000D03*
X157800000Y-92040000D03*
X165420000Y-84420000D03*
X157800000Y-94580000D03*
X165420000Y-81880000D03*
X157800000Y-97120000D03*
X165420000Y-79340000D03*
X157800000Y-99660000D03*
X165420000Y-76800000D03*
D19*
X150400000Y-86800000D03*
X150400000Y-85400000D03*
X150400000Y-84200000D03*
X150400000Y-83000000D03*
X163000000Y-86000000D03*
D20*
X165420000Y-76800000D02*
X165400000Y-76800000D01*
X165400000Y-76800000D02*
X161800000Y-80400000D01*
X161800000Y-80400000D02*
X161800000Y-100800000D01*
X161800000Y-100800000D02*
X164733600Y-103733600D01*
X164733600Y-103733600D02*
X167551100Y-103733600D01*
X164260000Y-79340000D02*
X165420000Y-79340000D01*
X163000000Y-80600000D02*
X164260000Y-79340000D01*
X163000000Y-86000000D02*
X163000000Y-80600000D01*
D21*
G36*
X168090000Y-74502617D02*
X167758798Y-74384456D01*
X167203732Y-74412238D01*
X166819957Y-74571203D01*
X166750492Y-74813387D01*
X167551100Y-75613995D01*
X167565243Y-75599853D01*
X167744848Y-75779458D01*
X167730705Y-75793600D01*
X167744848Y-75807743D01*
X167565243Y-75987348D01*
X167551100Y-75973205D01*
X167536958Y-75987348D01*
X167357353Y-75807743D01*
X167371495Y-75793600D01*
X166570887Y-74992992D01*
X166328703Y-75062457D01*
X166146274Y-75573799D01*
X165997264Y-75474233D01*
X165448113Y-75365000D01*
X165391887Y-75365000D01*
X164842736Y-75474233D01*
X164377189Y-75785302D01*
X164066120Y-76250849D01*
X163956887Y-76800000D01*
X163959335Y-76812309D01*
X161085822Y-79685822D01*
X160866882Y-80013490D01*
X160790000Y-80400000D01*
X160790000Y-100800000D01*
X160866882Y-101186510D01*
X161085822Y-101514178D01*
X164019422Y-104447778D01*
X164082612Y-104490000D01*
X150969665Y-104490000D01*
X151167857Y-104012700D01*
X151168342Y-103456939D01*
X150956110Y-102943297D01*
X150563470Y-102549971D01*
X150050200Y-102336843D01*
X149494439Y-102336358D01*
X149110000Y-102495205D01*
X149110000Y-101161737D01*
X149492000Y-101320357D01*
X150047761Y-101320842D01*
X150561403Y-101108610D01*
X150954729Y-100715970D01*
X151167857Y-100202700D01*
X151168279Y-99718638D01*
X151285910Y-99901441D01*
X151498110Y-100046431D01*
X151565541Y-100060086D01*
X151520853Y-100089946D01*
X151198946Y-100571715D01*
X151085907Y-101140000D01*
X151198946Y-101708285D01*
X151520853Y-102190054D01*
X152002622Y-102511961D01*
X152570907Y-102625000D01*
X152629093Y-102625000D01*
X153197378Y-102511961D01*
X153679147Y-102190054D01*
X153870000Y-101904422D01*
X154060853Y-102190054D01*
X154542622Y-102511961D01*
X155110907Y-102625000D01*
X155169093Y-102625000D01*
X155737378Y-102511961D01*
X156219147Y-102190054D01*
X156541054Y-101708285D01*
X156654093Y-101140000D01*
X156541054Y-100571715D01*
X156219147Y-100089946D01*
X156098061Y-100009039D01*
X156408096Y-100009039D01*
X156568959Y-100397423D01*
X156944866Y-100812389D01*
X157450959Y-101051914D01*
X157673000Y-100930629D01*
X157673000Y-99787000D01*
X157927000Y-99787000D01*
X157927000Y-100930629D01*
X158149041Y-101051914D01*
X158655134Y-100812389D01*
X159031041Y-100397423D01*
X159191904Y-100009039D01*
X159069915Y-99787000D01*
X157927000Y-99787000D01*
X157673000Y-99787000D01*
X156530085Y-99787000D01*
X156408096Y-100009039D01*
X156098061Y-100009039D01*
X155889974Y-99870000D01*
X156219147Y-99650054D01*
X156425073Y-99341863D01*
X156530085Y-99533000D01*
X157673000Y-99533000D01*
X157673000Y-99513000D01*
X157927000Y-99513000D01*
X157927000Y-99533000D01*
X159069915Y-99533000D01*
X159191904Y-99310961D01*
X159031041Y-98922577D01*
X158655134Y-98507611D01*
X158438297Y-98404986D01*
X158842811Y-98134698D01*
X159153880Y-97669151D01*
X159263113Y-97120000D01*
X159153880Y-96570849D01*
X158842811Y-96105302D01*
X158460725Y-95850000D01*
X158842811Y-95594698D01*
X159153880Y-95129151D01*
X159263113Y-94580000D01*
X159153880Y-94030849D01*
X158842811Y-93565302D01*
X158460725Y-93310000D01*
X158842811Y-93054698D01*
X159153880Y-92589151D01*
X159263113Y-92040000D01*
X159153880Y-91490849D01*
X158842811Y-91025302D01*
X158460725Y-90770000D01*
X158842811Y-90514698D01*
X159153880Y-90049151D01*
X159263113Y-89500000D01*
X159153880Y-88950849D01*
X158842811Y-88485302D01*
X158460725Y-88230000D01*
X158842811Y-87974698D01*
X159153880Y-87509151D01*
X159263113Y-86960000D01*
X159153880Y-86410849D01*
X158842811Y-85945302D01*
X158460725Y-85690000D01*
X158842811Y-85434698D01*
X159153880Y-84969151D01*
X159263113Y-84420000D01*
X159153880Y-83870849D01*
X158842811Y-83405302D01*
X158460725Y-83150000D01*
X158842811Y-82894698D01*
X159153880Y-82429151D01*
X159263113Y-81880000D01*
X159153880Y-81330849D01*
X158842811Y-80865302D01*
X158460725Y-80610000D01*
X158842811Y-80354698D01*
X159153880Y-79889151D01*
X159263113Y-79340000D01*
X159153880Y-78790849D01*
X158842811Y-78325302D01*
X158698535Y-78228899D01*
X158835317Y-78203162D01*
X159051441Y-78064090D01*
X159196431Y-77851890D01*
X159247440Y-77600000D01*
X159247440Y-76000000D01*
X159203162Y-75764683D01*
X159064090Y-75548559D01*
X158851890Y-75403569D01*
X158827000Y-75398529D01*
X158827000Y-70533320D01*
X160046285Y-70533320D01*
X160175533Y-70826123D01*
X160875806Y-71094388D01*
X161625435Y-71074250D01*
X162224467Y-70826123D01*
X162353715Y-70533320D01*
X161200000Y-69379605D01*
X160046285Y-70533320D01*
X158827000Y-70533320D01*
X158827000Y-68875806D01*
X159305612Y-68875806D01*
X159325750Y-69625435D01*
X159573877Y-70224467D01*
X159866680Y-70353715D01*
X161020395Y-69200000D01*
X161379605Y-69200000D01*
X162533320Y-70353715D01*
X162826123Y-70224467D01*
X163094388Y-69524194D01*
X163074250Y-68774565D01*
X162826123Y-68175533D01*
X162533320Y-68046285D01*
X161379605Y-69200000D01*
X161020395Y-69200000D01*
X159866680Y-68046285D01*
X159573877Y-68175533D01*
X159305612Y-68875806D01*
X158827000Y-68875806D01*
X158827000Y-67866680D01*
X160046285Y-67866680D01*
X161200000Y-69020395D01*
X162353715Y-67866680D01*
X162224467Y-67573877D01*
X161524194Y-67305612D01*
X160774565Y-67325750D01*
X160175533Y-67573877D01*
X160046285Y-67866680D01*
X158827000Y-67866680D01*
X158827000Y-64510000D01*
X168090000Y-64510000D01*
X168090000Y-74502617D01*
X168090000Y-74502617D01*
G37*
X168090000Y-74502617D02*
X167758798Y-74384456D01*
X167203732Y-74412238D01*
X166819957Y-74571203D01*
X166750492Y-74813387D01*
X167551100Y-75613995D01*
X167565243Y-75599853D01*
X167744848Y-75779458D01*
X167730705Y-75793600D01*
X167744848Y-75807743D01*
X167565243Y-75987348D01*
X167551100Y-75973205D01*
X167536958Y-75987348D01*
X167357353Y-75807743D01*
X167371495Y-75793600D01*
X166570887Y-74992992D01*
X166328703Y-75062457D01*
X166146274Y-75573799D01*
X165997264Y-75474233D01*
X165448113Y-75365000D01*
X165391887Y-75365000D01*
X164842736Y-75474233D01*
X164377189Y-75785302D01*
X164066120Y-76250849D01*
X163956887Y-76800000D01*
X163959335Y-76812309D01*
X161085822Y-79685822D01*
X160866882Y-80013490D01*
X160790000Y-80400000D01*
X160790000Y-100800000D01*
X160866882Y-101186510D01*
X161085822Y-101514178D01*
X164019422Y-104447778D01*
X164082612Y-104490000D01*
X150969665Y-104490000D01*
X151167857Y-104012700D01*
X151168342Y-103456939D01*
X150956110Y-102943297D01*
X150563470Y-102549971D01*
X150050200Y-102336843D01*
X149494439Y-102336358D01*
X149110000Y-102495205D01*
X149110000Y-101161737D01*
X149492000Y-101320357D01*
X150047761Y-101320842D01*
X150561403Y-101108610D01*
X150954729Y-100715970D01*
X151167857Y-100202700D01*
X151168279Y-99718638D01*
X151285910Y-99901441D01*
X151498110Y-100046431D01*
X151565541Y-100060086D01*
X151520853Y-100089946D01*
X151198946Y-100571715D01*
X151085907Y-101140000D01*
X151198946Y-101708285D01*
X151520853Y-102190054D01*
X152002622Y-102511961D01*
X152570907Y-102625000D01*
X152629093Y-102625000D01*
X153197378Y-102511961D01*
X153679147Y-102190054D01*
X153870000Y-101904422D01*
X154060853Y-102190054D01*
X154542622Y-102511961D01*
X155110907Y-102625000D01*
X155169093Y-102625000D01*
X155737378Y-102511961D01*
X156219147Y-102190054D01*
X156541054Y-101708285D01*
X156654093Y-101140000D01*
X156541054Y-100571715D01*
X156219147Y-100089946D01*
X156098061Y-100009039D01*
X156408096Y-100009039D01*
X156568959Y-100397423D01*
X156944866Y-100812389D01*
X157450959Y-101051914D01*
X157673000Y-100930629D01*
X157673000Y-99787000D01*
X157927000Y-99787000D01*
X157927000Y-100930629D01*
X158149041Y-101051914D01*
X158655134Y-100812389D01*
X159031041Y-100397423D01*
X159191904Y-100009039D01*
X159069915Y-99787000D01*
X157927000Y-99787000D01*
X157673000Y-99787000D01*
X156530085Y-99787000D01*
X156408096Y-100009039D01*
X156098061Y-100009039D01*
X155889974Y-99870000D01*
X156219147Y-99650054D01*
X156425073Y-99341863D01*
X156530085Y-99533000D01*
X157673000Y-99533000D01*
X157673000Y-99513000D01*
X157927000Y-99513000D01*
X157927000Y-99533000D01*
X159069915Y-99533000D01*
X159191904Y-99310961D01*
X159031041Y-98922577D01*
X158655134Y-98507611D01*
X158438297Y-98404986D01*
X158842811Y-98134698D01*
X159153880Y-97669151D01*
X159263113Y-97120000D01*
X159153880Y-96570849D01*
X158842811Y-96105302D01*
X158460725Y-95850000D01*
X158842811Y-95594698D01*
X159153880Y-95129151D01*
X159263113Y-94580000D01*
X159153880Y-94030849D01*
X158842811Y-93565302D01*
X158460725Y-93310000D01*
X158842811Y-93054698D01*
X159153880Y-92589151D01*
X159263113Y-92040000D01*
X159153880Y-91490849D01*
X158842811Y-91025302D01*
X158460725Y-90770000D01*
X158842811Y-90514698D01*
X159153880Y-90049151D01*
X159263113Y-89500000D01*
X159153880Y-88950849D01*
X158842811Y-88485302D01*
X158460725Y-88230000D01*
X158842811Y-87974698D01*
X159153880Y-87509151D01*
X159263113Y-86960000D01*
X159153880Y-86410849D01*
X158842811Y-85945302D01*
X158460725Y-85690000D01*
X158842811Y-85434698D01*
X159153880Y-84969151D01*
X159263113Y-84420000D01*
X159153880Y-83870849D01*
X158842811Y-83405302D01*
X158460725Y-83150000D01*
X158842811Y-82894698D01*
X159153880Y-82429151D01*
X159263113Y-81880000D01*
X159153880Y-81330849D01*
X158842811Y-80865302D01*
X158460725Y-80610000D01*
X158842811Y-80354698D01*
X159153880Y-79889151D01*
X159263113Y-79340000D01*
X159153880Y-78790849D01*
X158842811Y-78325302D01*
X158698535Y-78228899D01*
X158835317Y-78203162D01*
X159051441Y-78064090D01*
X159196431Y-77851890D01*
X159247440Y-77600000D01*
X159247440Y-76000000D01*
X159203162Y-75764683D01*
X159064090Y-75548559D01*
X158851890Y-75403569D01*
X158827000Y-75398529D01*
X158827000Y-70533320D01*
X160046285Y-70533320D01*
X160175533Y-70826123D01*
X160875806Y-71094388D01*
X161625435Y-71074250D01*
X162224467Y-70826123D01*
X162353715Y-70533320D01*
X161200000Y-69379605D01*
X160046285Y-70533320D01*
X158827000Y-70533320D01*
X158827000Y-68875806D01*
X159305612Y-68875806D01*
X159325750Y-69625435D01*
X159573877Y-70224467D01*
X159866680Y-70353715D01*
X161020395Y-69200000D01*
X161379605Y-69200000D01*
X162533320Y-70353715D01*
X162826123Y-70224467D01*
X163094388Y-69524194D01*
X163074250Y-68774565D01*
X162826123Y-68175533D01*
X162533320Y-68046285D01*
X161379605Y-69200000D01*
X161020395Y-69200000D01*
X159866680Y-68046285D01*
X159573877Y-68175533D01*
X159305612Y-68875806D01*
X158827000Y-68875806D01*
X158827000Y-67866680D01*
X160046285Y-67866680D01*
X161200000Y-69020395D01*
X162353715Y-67866680D01*
X162224467Y-67573877D01*
X161524194Y-67305612D01*
X160774565Y-67325750D01*
X160175533Y-67573877D01*
X160046285Y-67866680D01*
X158827000Y-67866680D01*
X158827000Y-64510000D01*
X168090000Y-64510000D01*
X168090000Y-74502617D01*
G36*
X149407583Y-76192473D02*
X149381068Y-76372966D01*
X149632470Y-76478123D01*
X149904979Y-76479069D01*
X150157105Y-76375658D01*
X150161132Y-76372966D01*
X150134617Y-76192473D01*
X149869145Y-75927000D01*
X149939855Y-75927000D01*
X150169973Y-76157117D01*
X150350466Y-76183632D01*
X150455623Y-75932230D01*
X150455641Y-75927000D01*
X156367343Y-75927000D01*
X156352560Y-76000000D01*
X156352560Y-77600000D01*
X156396838Y-77835317D01*
X156535910Y-78051441D01*
X156748110Y-78196431D01*
X156903089Y-78227815D01*
X156757189Y-78325302D01*
X156446120Y-78790849D01*
X156336887Y-79340000D01*
X156446120Y-79889151D01*
X156757189Y-80354698D01*
X157139275Y-80610000D01*
X156757189Y-80865302D01*
X156446120Y-81330849D01*
X156336887Y-81880000D01*
X156446120Y-82429151D01*
X156757189Y-82894698D01*
X157139275Y-83150000D01*
X156757189Y-83405302D01*
X156446120Y-83870849D01*
X156336887Y-84420000D01*
X156446120Y-84969151D01*
X156757189Y-85434698D01*
X157139275Y-85690000D01*
X156757189Y-85945302D01*
X156446120Y-86410849D01*
X156336887Y-86960000D01*
X156446120Y-87509151D01*
X156757189Y-87974698D01*
X157139275Y-88230000D01*
X156757189Y-88485302D01*
X156497440Y-88874043D01*
X156497440Y-88150000D01*
X156453162Y-87914683D01*
X156314090Y-87698559D01*
X156101890Y-87553569D01*
X155850000Y-87502560D01*
X154150000Y-87502560D01*
X153914683Y-87546838D01*
X153698559Y-87685910D01*
X153553569Y-87898110D01*
X153502560Y-88150000D01*
X153502560Y-89850000D01*
X153546838Y-90085317D01*
X153685910Y-90301441D01*
X153898110Y-90446431D01*
X153965541Y-90460086D01*
X153920853Y-90489946D01*
X153598946Y-90971715D01*
X153485907Y-91540000D01*
X153598946Y-92108285D01*
X153920853Y-92590054D01*
X154261553Y-92817702D01*
X154118642Y-92884817D01*
X153728355Y-93313076D01*
X153558524Y-93723110D01*
X153679845Y-93953000D01*
X154873000Y-93953000D01*
X154873000Y-93933000D01*
X155127000Y-93933000D01*
X155127000Y-93953000D01*
X155147000Y-93953000D01*
X155147000Y-94207000D01*
X155127000Y-94207000D01*
X155127000Y-95400819D01*
X155356892Y-95521486D01*
X155881358Y-95275183D01*
X156271645Y-94846924D01*
X156351589Y-94653911D01*
X156446120Y-95129151D01*
X156757189Y-95594698D01*
X157139275Y-95850000D01*
X156757189Y-96105302D01*
X156446120Y-96570849D01*
X156336887Y-97120000D01*
X156446120Y-97669151D01*
X156757189Y-98134698D01*
X157161703Y-98404986D01*
X156944866Y-98507611D01*
X156595828Y-98892916D01*
X156654093Y-98600000D01*
X156541054Y-98031715D01*
X156219147Y-97549946D01*
X155737378Y-97228039D01*
X155169093Y-97115000D01*
X155110907Y-97115000D01*
X154542622Y-97228039D01*
X154060853Y-97549946D01*
X154060029Y-97551179D01*
X154053162Y-97514683D01*
X153914090Y-97298559D01*
X153701890Y-97153569D01*
X153450000Y-97102560D01*
X151750000Y-97102560D01*
X151514683Y-97146838D01*
X151298559Y-97285910D01*
X151168019Y-97476962D01*
X151168342Y-97106939D01*
X150956110Y-96593297D01*
X150563470Y-96199971D01*
X150355588Y-96113651D01*
X150561403Y-96028610D01*
X150954729Y-95635970D01*
X151167857Y-95122700D01*
X151168342Y-94566939D01*
X151114607Y-94436890D01*
X153558524Y-94436890D01*
X153728355Y-94846924D01*
X154118642Y-95275183D01*
X154643108Y-95521486D01*
X154873000Y-95400819D01*
X154873000Y-94207000D01*
X153679845Y-94207000D01*
X153558524Y-94436890D01*
X151114607Y-94436890D01*
X150956110Y-94053297D01*
X150563470Y-93659971D01*
X150050200Y-93446843D01*
X149494439Y-93446358D01*
X149110000Y-93605205D01*
X149110000Y-75986893D01*
X149189042Y-76179605D01*
X149191734Y-76183632D01*
X149372227Y-76157117D01*
X149602345Y-75927000D01*
X149673055Y-75927000D01*
X149407583Y-76192473D01*
X149407583Y-76192473D01*
G37*
X149407583Y-76192473D02*
X149381068Y-76372966D01*
X149632470Y-76478123D01*
X149904979Y-76479069D01*
X150157105Y-76375658D01*
X150161132Y-76372966D01*
X150134617Y-76192473D01*
X149869145Y-75927000D01*
X149939855Y-75927000D01*
X150169973Y-76157117D01*
X150350466Y-76183632D01*
X150455623Y-75932230D01*
X150455641Y-75927000D01*
X156367343Y-75927000D01*
X156352560Y-76000000D01*
X156352560Y-77600000D01*
X156396838Y-77835317D01*
X156535910Y-78051441D01*
X156748110Y-78196431D01*
X156903089Y-78227815D01*
X156757189Y-78325302D01*
X156446120Y-78790849D01*
X156336887Y-79340000D01*
X156446120Y-79889151D01*
X156757189Y-80354698D01*
X157139275Y-80610000D01*
X156757189Y-80865302D01*
X156446120Y-81330849D01*
X156336887Y-81880000D01*
X156446120Y-82429151D01*
X156757189Y-82894698D01*
X157139275Y-83150000D01*
X156757189Y-83405302D01*
X156446120Y-83870849D01*
X156336887Y-84420000D01*
X156446120Y-84969151D01*
X156757189Y-85434698D01*
X157139275Y-85690000D01*
X156757189Y-85945302D01*
X156446120Y-86410849D01*
X156336887Y-86960000D01*
X156446120Y-87509151D01*
X156757189Y-87974698D01*
X157139275Y-88230000D01*
X156757189Y-88485302D01*
X156497440Y-88874043D01*
X156497440Y-88150000D01*
X156453162Y-87914683D01*
X156314090Y-87698559D01*
X156101890Y-87553569D01*
X155850000Y-87502560D01*
X154150000Y-87502560D01*
X153914683Y-87546838D01*
X153698559Y-87685910D01*
X153553569Y-87898110D01*
X153502560Y-88150000D01*
X153502560Y-89850000D01*
X153546838Y-90085317D01*
X153685910Y-90301441D01*
X153898110Y-90446431D01*
X153965541Y-90460086D01*
X153920853Y-90489946D01*
X153598946Y-90971715D01*
X153485907Y-91540000D01*
X153598946Y-92108285D01*
X153920853Y-92590054D01*
X154261553Y-92817702D01*
X154118642Y-92884817D01*
X153728355Y-93313076D01*
X153558524Y-93723110D01*
X153679845Y-93953000D01*
X154873000Y-93953000D01*
X154873000Y-93933000D01*
X155127000Y-93933000D01*
X155127000Y-93953000D01*
X155147000Y-93953000D01*
X155147000Y-94207000D01*
X155127000Y-94207000D01*
X155127000Y-95400819D01*
X155356892Y-95521486D01*
X155881358Y-95275183D01*
X156271645Y-94846924D01*
X156351589Y-94653911D01*
X156446120Y-95129151D01*
X156757189Y-95594698D01*
X157139275Y-95850000D01*
X156757189Y-96105302D01*
X156446120Y-96570849D01*
X156336887Y-97120000D01*
X156446120Y-97669151D01*
X156757189Y-98134698D01*
X157161703Y-98404986D01*
X156944866Y-98507611D01*
X156595828Y-98892916D01*
X156654093Y-98600000D01*
X156541054Y-98031715D01*
X156219147Y-97549946D01*
X155737378Y-97228039D01*
X155169093Y-97115000D01*
X155110907Y-97115000D01*
X154542622Y-97228039D01*
X154060853Y-97549946D01*
X154060029Y-97551179D01*
X154053162Y-97514683D01*
X153914090Y-97298559D01*
X153701890Y-97153569D01*
X153450000Y-97102560D01*
X151750000Y-97102560D01*
X151514683Y-97146838D01*
X151298559Y-97285910D01*
X151168019Y-97476962D01*
X151168342Y-97106939D01*
X150956110Y-96593297D01*
X150563470Y-96199971D01*
X150355588Y-96113651D01*
X150561403Y-96028610D01*
X150954729Y-95635970D01*
X151167857Y-95122700D01*
X151168342Y-94566939D01*
X151114607Y-94436890D01*
X153558524Y-94436890D01*
X153728355Y-94846924D01*
X154118642Y-95275183D01*
X154643108Y-95521486D01*
X154873000Y-95400819D01*
X154873000Y-94207000D01*
X153679845Y-94207000D01*
X153558524Y-94436890D01*
X151114607Y-94436890D01*
X150956110Y-94053297D01*
X150563470Y-93659971D01*
X150050200Y-93446843D01*
X149494439Y-93446358D01*
X149110000Y-93605205D01*
X149110000Y-75986893D01*
X149189042Y-76179605D01*
X149191734Y-76183632D01*
X149372227Y-76157117D01*
X149602345Y-75927000D01*
X149673055Y-75927000D01*
X149407583Y-76192473D01*
M02*
