M48
;DRILL file {KiCad 4.0.6+dfsg1-1} date Thu Mar 15 12:52:25 2018
;FORMAT={2:4/ absolute / inch / suppress leading zeros}
FMAT,2
INCH,TZ
T1C0.016
T2C0.030
T3C0.031
T4C0.039
T5C0.051
%
G90
G05
M72
T1
X59213Y-32677
X59213Y-33150
X59213Y-33622
X59213Y-34173
X64173Y-33858
T2
X58965Y-37340
X58965Y-38340
X58965Y-39340
X58965Y-40840
X65965Y-29840
X65965Y-37340
X65965Y-38340
X65965Y-39840
X65965Y-40840
T3
X62126Y-30236
X62126Y-31236
X62126Y-32236
X62126Y-33236
X62126Y-34236
X62126Y-35236
X62126Y-36236
X62126Y-37236
X62126Y-38236
X62126Y-39236
X65126Y-30236
X65126Y-31236
X65126Y-32236
X65126Y-33236
X65126Y-34236
X65126Y-35236
X65126Y-36236
X65126Y-37236
X65126Y-38236
X65126Y-39236
T4
X60079Y-38819
X60079Y-39819
X61024Y-35039
X61024Y-36039
X61024Y-37039
X61079Y-38819
X61079Y-39819
T5
X61496Y-27244
X63465Y-27244
T0
M30
