G04 #@! TF.FileFunction,Legend,Bot*
%FSLAX46Y46*%
G04 Gerber Fmt 4.6, Leading zero omitted, Abs format (unit mm)*
G04 Created by KiCad (PCBNEW 4.0.6+dfsg1-1) date Mon Feb 26 15:31:38 2018*
%MOMM*%
%LPD*%
G01*
G04 APERTURE LIST*
%ADD10C,0.100000*%
%ADD11C,0.500000*%
%ADD12C,0.200000*%
%ADD13C,0.010000*%
%ADD14C,0.150000*%
G04 APERTURE END LIST*
D10*
D11*
X58033344Y13364838D02*
X58033344Y15364838D01*
X57176201Y13364838D02*
X57176201Y14412457D01*
X57271439Y14602933D01*
X57461915Y14698171D01*
X57747629Y14698171D01*
X57938105Y14602933D01*
X58033344Y14507695D01*
X56509534Y14698171D02*
X55747629Y14698171D01*
X56223820Y15364838D02*
X56223820Y13650552D01*
X56128581Y13460076D01*
X55938105Y13364838D01*
X55747629Y13364838D01*
X55366677Y14698171D02*
X54604772Y14698171D01*
X55080963Y15364838D02*
X55080963Y13650552D01*
X54985724Y13460076D01*
X54795248Y13364838D01*
X54604772Y13364838D01*
X53938106Y14698171D02*
X53938106Y12698171D01*
X53938106Y14602933D02*
X53747629Y14698171D01*
X53366677Y14698171D01*
X53176201Y14602933D01*
X53080963Y14507695D01*
X52985725Y14317219D01*
X52985725Y13745790D01*
X53080963Y13555314D01*
X53176201Y13460076D01*
X53366677Y13364838D01*
X53747629Y13364838D01*
X53938106Y13460076D01*
X52128582Y13555314D02*
X52033343Y13460076D01*
X52128582Y13364838D01*
X52223820Y13460076D01*
X52128582Y13555314D01*
X52128582Y13364838D01*
X52128582Y14602933D02*
X52033343Y14507695D01*
X52128582Y14412457D01*
X52223820Y14507695D01*
X52128582Y14602933D01*
X52128582Y14412457D01*
X49747629Y15460076D02*
X51461915Y12888648D01*
X47652391Y15460076D02*
X49366677Y12888648D01*
X46223820Y13460076D02*
X46414296Y13364838D01*
X46795248Y13364838D01*
X46985725Y13460076D01*
X47080963Y13650552D01*
X47080963Y14412457D01*
X46985725Y14602933D01*
X46795248Y14698171D01*
X46414296Y14698171D01*
X46223820Y14602933D01*
X46128582Y14412457D01*
X46128582Y14221981D01*
X47080963Y14031505D01*
X44985724Y13364838D02*
X45176200Y13460076D01*
X45271439Y13650552D01*
X45271439Y15364838D01*
X43461915Y13460076D02*
X43652391Y13364838D01*
X44033343Y13364838D01*
X44223820Y13460076D01*
X44319058Y13650552D01*
X44319058Y14412457D01*
X44223820Y14602933D01*
X44033343Y14698171D01*
X43652391Y14698171D01*
X43461915Y14602933D01*
X43366677Y14412457D01*
X43366677Y14221981D01*
X44319058Y14031505D01*
X42509534Y13364838D02*
X42509534Y15364838D01*
X42319057Y14126743D02*
X41747629Y13364838D01*
X41747629Y14698171D02*
X42509534Y13936267D01*
X41176200Y14698171D02*
X40414295Y14698171D01*
X40890486Y15364838D02*
X40890486Y13650552D01*
X40795247Y13460076D01*
X40604771Y13364838D01*
X40414295Y13364838D01*
X39747629Y13364838D02*
X39747629Y14698171D01*
X39747629Y14317219D02*
X39652390Y14507695D01*
X39557152Y14602933D01*
X39366676Y14698171D01*
X39176200Y14698171D01*
X38223819Y13364838D02*
X38414295Y13460076D01*
X38509534Y13555314D01*
X38604772Y13745790D01*
X38604772Y14317219D01*
X38509534Y14507695D01*
X38414295Y14602933D01*
X38223819Y14698171D01*
X37938105Y14698171D01*
X37747629Y14602933D01*
X37652391Y14507695D01*
X37557153Y14317219D01*
X37557153Y13745790D01*
X37652391Y13555314D01*
X37747629Y13460076D01*
X37938105Y13364838D01*
X38223819Y13364838D01*
X36700010Y14698171D02*
X36700010Y12698171D01*
X36700010Y14602933D02*
X36509533Y14698171D01*
X36128581Y14698171D01*
X35938105Y14602933D01*
X35842867Y14507695D01*
X35747629Y14317219D01*
X35747629Y13745790D01*
X35842867Y13555314D01*
X35938105Y13460076D01*
X36128581Y13364838D01*
X36509533Y13364838D01*
X36700010Y13460076D01*
X34890486Y13364838D02*
X34890486Y14698171D01*
X34890486Y15364838D02*
X34985724Y15269600D01*
X34890486Y15174362D01*
X34795247Y15269600D01*
X34890486Y15364838D01*
X34890486Y15174362D01*
X33652390Y13364838D02*
X33842866Y13460076D01*
X33938105Y13555314D01*
X34033343Y13745790D01*
X34033343Y14317219D01*
X33938105Y14507695D01*
X33842866Y14602933D01*
X33652390Y14698171D01*
X33366676Y14698171D01*
X33176200Y14602933D01*
X33080962Y14507695D01*
X32985724Y14317219D01*
X32985724Y13745790D01*
X33080962Y13555314D01*
X33176200Y13460076D01*
X33366676Y13364838D01*
X33652390Y13364838D01*
X32128581Y14698171D02*
X32128581Y13364838D01*
X32128581Y14507695D02*
X32033342Y14602933D01*
X31842866Y14698171D01*
X31557152Y14698171D01*
X31366676Y14602933D01*
X31271438Y14412457D01*
X31271438Y13364838D01*
X29557152Y13460076D02*
X29747628Y13364838D01*
X30128580Y13364838D01*
X30319057Y13460076D01*
X30414295Y13650552D01*
X30414295Y14412457D01*
X30319057Y14602933D01*
X30128580Y14698171D01*
X29747628Y14698171D01*
X29557152Y14602933D01*
X29461914Y14412457D01*
X29461914Y14221981D01*
X30414295Y14031505D01*
X27842866Y13460076D02*
X28033342Y13364838D01*
X28414294Y13364838D01*
X28604771Y13460076D01*
X28700009Y13650552D01*
X28700009Y14412457D01*
X28604771Y14602933D01*
X28414294Y14698171D01*
X28033342Y14698171D01*
X27842866Y14602933D01*
X27747628Y14412457D01*
X27747628Y14221981D01*
X28700009Y14031505D01*
X26890485Y13364838D02*
X26890485Y14698171D01*
X26890485Y14317219D02*
X26795246Y14507695D01*
X26700008Y14602933D01*
X26509532Y14698171D01*
X26319056Y14698171D01*
X25652390Y13555314D02*
X25557151Y13460076D01*
X25652390Y13364838D01*
X25747628Y13460076D01*
X25652390Y13555314D01*
X25652390Y13364838D01*
X23842866Y13460076D02*
X24033342Y13364838D01*
X24414294Y13364838D01*
X24604770Y13460076D01*
X24700009Y13555314D01*
X24795247Y13745790D01*
X24795247Y14317219D01*
X24700009Y14507695D01*
X24604770Y14602933D01*
X24414294Y14698171D01*
X24033342Y14698171D01*
X23842866Y14602933D01*
X22700008Y13364838D02*
X22890484Y13460076D01*
X22985723Y13555314D01*
X23080961Y13745790D01*
X23080961Y14317219D01*
X22985723Y14507695D01*
X22890484Y14602933D01*
X22700008Y14698171D01*
X22414294Y14698171D01*
X22223818Y14602933D01*
X22128580Y14507695D01*
X22033342Y14317219D01*
X22033342Y13745790D01*
X22128580Y13555314D01*
X22223818Y13460076D01*
X22414294Y13364838D01*
X22700008Y13364838D01*
X21176199Y13555314D02*
X21080960Y13460076D01*
X21176199Y13364838D01*
X21271437Y13460076D01*
X21176199Y13555314D01*
X21176199Y13364838D01*
X20223818Y13364838D02*
X20223818Y14698171D01*
X20223818Y14317219D02*
X20128579Y14507695D01*
X20033341Y14602933D01*
X19842865Y14698171D01*
X19652389Y14698171D01*
X19080961Y13460076D02*
X18890484Y13364838D01*
X18509532Y13364838D01*
X18319056Y13460076D01*
X18223818Y13650552D01*
X18223818Y13745790D01*
X18319056Y13936267D01*
X18509532Y14031505D01*
X18795246Y14031505D01*
X18985723Y14126743D01*
X19080961Y14317219D01*
X19080961Y14412457D01*
X18985723Y14602933D01*
X18795246Y14698171D01*
X18509532Y14698171D01*
X18319056Y14602933D01*
X64033345Y9864838D02*
X64033345Y11864838D01*
X63176202Y9864838D02*
X63176202Y10912457D01*
X63271440Y11102933D01*
X63461916Y11198171D01*
X63747630Y11198171D01*
X63938106Y11102933D01*
X64033345Y11007695D01*
X62509535Y11198171D02*
X61747630Y11198171D01*
X62223821Y11864838D02*
X62223821Y10150552D01*
X62128582Y9960076D01*
X61938106Y9864838D01*
X61747630Y9864838D01*
X61366678Y11198171D02*
X60604773Y11198171D01*
X61080964Y11864838D02*
X61080964Y10150552D01*
X60985725Y9960076D01*
X60795249Y9864838D01*
X60604773Y9864838D01*
X59938107Y11198171D02*
X59938107Y9198171D01*
X59938107Y11102933D02*
X59747630Y11198171D01*
X59366678Y11198171D01*
X59176202Y11102933D01*
X59080964Y11007695D01*
X58985726Y10817219D01*
X58985726Y10245790D01*
X59080964Y10055314D01*
X59176202Y9960076D01*
X59366678Y9864838D01*
X59747630Y9864838D01*
X59938107Y9960076D01*
X58223821Y9960076D02*
X58033344Y9864838D01*
X57652392Y9864838D01*
X57461916Y9960076D01*
X57366678Y10150552D01*
X57366678Y10245790D01*
X57461916Y10436267D01*
X57652392Y10531505D01*
X57938106Y10531505D01*
X58128583Y10626743D01*
X58223821Y10817219D01*
X58223821Y10912457D01*
X58128583Y11102933D01*
X57938106Y11198171D01*
X57652392Y11198171D01*
X57461916Y11102933D01*
X56509535Y10055314D02*
X56414296Y9960076D01*
X56509535Y9864838D01*
X56604773Y9960076D01*
X56509535Y10055314D01*
X56509535Y9864838D01*
X56509535Y11102933D02*
X56414296Y11007695D01*
X56509535Y10912457D01*
X56604773Y11007695D01*
X56509535Y11102933D01*
X56509535Y10912457D01*
X54128582Y11960076D02*
X55842868Y9388648D01*
X52033344Y11960076D02*
X53747630Y9388648D01*
X50509535Y11198171D02*
X50509535Y9579124D01*
X50604773Y9388648D01*
X50700011Y9293410D01*
X50890487Y9198171D01*
X51176201Y9198171D01*
X51366678Y9293410D01*
X50509535Y9960076D02*
X50700011Y9864838D01*
X51080963Y9864838D01*
X51271439Y9960076D01*
X51366678Y10055314D01*
X51461916Y10245790D01*
X51461916Y10817219D01*
X51366678Y11007695D01*
X51271439Y11102933D01*
X51080963Y11198171D01*
X50700011Y11198171D01*
X50509535Y11102933D01*
X49557154Y9864838D02*
X49557154Y11198171D01*
X49557154Y11864838D02*
X49652392Y11769600D01*
X49557154Y11674362D01*
X49461915Y11769600D01*
X49557154Y11864838D01*
X49557154Y11674362D01*
X48890487Y11198171D02*
X48128582Y11198171D01*
X48604773Y11864838D02*
X48604773Y10150552D01*
X48509534Y9960076D01*
X48319058Y9864838D01*
X48128582Y9864838D01*
X47461916Y9864838D02*
X47461916Y11864838D01*
X46604773Y9864838D02*
X46604773Y10912457D01*
X46700011Y11102933D01*
X46890487Y11198171D01*
X47176201Y11198171D01*
X47366677Y11102933D01*
X47461916Y11007695D01*
X44795249Y11198171D02*
X44795249Y9864838D01*
X45652392Y11198171D02*
X45652392Y10150552D01*
X45557153Y9960076D01*
X45366677Y9864838D01*
X45080963Y9864838D01*
X44890487Y9960076D01*
X44795249Y10055314D01*
X43842868Y9864838D02*
X43842868Y11864838D01*
X43842868Y11102933D02*
X43652391Y11198171D01*
X43271439Y11198171D01*
X43080963Y11102933D01*
X42985725Y11007695D01*
X42890487Y10817219D01*
X42890487Y10245790D01*
X42985725Y10055314D01*
X43080963Y9960076D01*
X43271439Y9864838D01*
X43652391Y9864838D01*
X43842868Y9960076D01*
X42033344Y10055314D02*
X41938105Y9960076D01*
X42033344Y9864838D01*
X42128582Y9960076D01*
X42033344Y10055314D01*
X42033344Y9864838D01*
X40223820Y9960076D02*
X40414296Y9864838D01*
X40795248Y9864838D01*
X40985724Y9960076D01*
X41080963Y10055314D01*
X41176201Y10245790D01*
X41176201Y10817219D01*
X41080963Y11007695D01*
X40985724Y11102933D01*
X40795248Y11198171D01*
X40414296Y11198171D01*
X40223820Y11102933D01*
X39080962Y9864838D02*
X39271438Y9960076D01*
X39366677Y10055314D01*
X39461915Y10245790D01*
X39461915Y10817219D01*
X39366677Y11007695D01*
X39271438Y11102933D01*
X39080962Y11198171D01*
X38795248Y11198171D01*
X38604772Y11102933D01*
X38509534Y11007695D01*
X38414296Y10817219D01*
X38414296Y10245790D01*
X38509534Y10055314D01*
X38604772Y9960076D01*
X38795248Y9864838D01*
X39080962Y9864838D01*
X37557153Y9864838D02*
X37557153Y11198171D01*
X37557153Y11007695D02*
X37461914Y11102933D01*
X37271438Y11198171D01*
X36985724Y11198171D01*
X36795248Y11102933D01*
X36700010Y10912457D01*
X36700010Y9864838D01*
X36700010Y10912457D02*
X36604772Y11102933D01*
X36414295Y11198171D01*
X36128581Y11198171D01*
X35938105Y11102933D01*
X35842867Y10912457D01*
X35842867Y9864838D01*
X33461914Y11960076D02*
X35176200Y9388648D01*
X32795248Y10912457D02*
X32128581Y10912457D01*
X31842867Y9864838D02*
X32795248Y9864838D01*
X32795248Y11864838D01*
X31842867Y11864838D01*
X30700009Y9864838D02*
X30890485Y9960076D01*
X30985724Y10150552D01*
X30985724Y11864838D01*
X29176200Y9960076D02*
X29366676Y9864838D01*
X29747628Y9864838D01*
X29938105Y9960076D01*
X30033343Y10150552D01*
X30033343Y10912457D01*
X29938105Y11102933D01*
X29747628Y11198171D01*
X29366676Y11198171D01*
X29176200Y11102933D01*
X29080962Y10912457D01*
X29080962Y10721981D01*
X30033343Y10531505D01*
X28223819Y9864838D02*
X28223819Y11864838D01*
X28033342Y10626743D02*
X27461914Y9864838D01*
X27461914Y11198171D02*
X28223819Y10436267D01*
X26890485Y11198171D02*
X26128580Y11198171D01*
X26604771Y11864838D02*
X26604771Y10150552D01*
X26509532Y9960076D01*
X26319056Y9864838D01*
X26128580Y9864838D01*
X25461914Y9864838D02*
X25461914Y11198171D01*
X25461914Y10817219D02*
X25366675Y11007695D01*
X25271437Y11102933D01*
X25080961Y11198171D01*
X24890485Y11198171D01*
X23938104Y9864838D02*
X24128580Y9960076D01*
X24223819Y10055314D01*
X24319057Y10245790D01*
X24319057Y10817219D01*
X24223819Y11007695D01*
X24128580Y11102933D01*
X23938104Y11198171D01*
X23652390Y11198171D01*
X23461914Y11102933D01*
X23366676Y11007695D01*
X23271438Y10817219D01*
X23271438Y10245790D01*
X23366676Y10055314D01*
X23461914Y9960076D01*
X23652390Y9864838D01*
X23938104Y9864838D01*
X22414295Y11198171D02*
X22414295Y9198171D01*
X22414295Y11102933D02*
X22223818Y11198171D01*
X21842866Y11198171D01*
X21652390Y11102933D01*
X21557152Y11007695D01*
X21461914Y10817219D01*
X21461914Y10245790D01*
X21557152Y10055314D01*
X21652390Y9960076D01*
X21842866Y9864838D01*
X22223818Y9864838D01*
X22414295Y9960076D01*
X20604771Y9864838D02*
X20604771Y11198171D01*
X20604771Y11864838D02*
X20700009Y11769600D01*
X20604771Y11674362D01*
X20509532Y11769600D01*
X20604771Y11864838D01*
X20604771Y11674362D01*
X19366675Y9864838D02*
X19557151Y9960076D01*
X19652390Y10055314D01*
X19747628Y10245790D01*
X19747628Y10817219D01*
X19652390Y11007695D01*
X19557151Y11102933D01*
X19366675Y11198171D01*
X19080961Y11198171D01*
X18890485Y11102933D01*
X18795247Y11007695D01*
X18700009Y10817219D01*
X18700009Y10245790D01*
X18795247Y10055314D01*
X18890485Y9960076D01*
X19080961Y9864838D01*
X19366675Y9864838D01*
X17842866Y11198171D02*
X17842866Y9864838D01*
X17842866Y11007695D02*
X17747627Y11102933D01*
X17557151Y11198171D01*
X17271437Y11198171D01*
X17080961Y11102933D01*
X16985723Y10912457D01*
X16985723Y9864838D01*
X15271437Y9960076D02*
X15461913Y9864838D01*
X15842865Y9864838D01*
X16033342Y9960076D01*
X16128580Y10150552D01*
X16128580Y10912457D01*
X16033342Y11102933D01*
X15842865Y11198171D01*
X15461913Y11198171D01*
X15271437Y11102933D01*
X15176199Y10912457D01*
X15176199Y10721981D01*
X16128580Y10531505D01*
X13557151Y9960076D02*
X13747627Y9864838D01*
X14128579Y9864838D01*
X14319056Y9960076D01*
X14414294Y10150552D01*
X14414294Y10912457D01*
X14319056Y11102933D01*
X14128579Y11198171D01*
X13747627Y11198171D01*
X13557151Y11102933D01*
X13461913Y10912457D01*
X13461913Y10721981D01*
X14414294Y10531505D01*
X12604770Y9864838D02*
X12604770Y11198171D01*
X12604770Y10817219D02*
X12509531Y11007695D01*
X12414293Y11102933D01*
X12223817Y11198171D01*
X12033341Y11198171D01*
X53080963Y6936267D02*
X52128582Y6936267D01*
X53271439Y6364838D02*
X52604772Y8364838D01*
X51938105Y6364838D01*
X50414296Y6460076D02*
X50604772Y6364838D01*
X50985724Y6364838D01*
X51176200Y6460076D01*
X51271439Y6555314D01*
X51366677Y6745790D01*
X51366677Y7317219D01*
X51271439Y7507695D01*
X51176200Y7602933D01*
X50985724Y7698171D01*
X50604772Y7698171D01*
X50414296Y7602933D01*
X49842867Y7698171D02*
X49080962Y7698171D01*
X49557153Y8364838D02*
X49557153Y6650552D01*
X49461914Y6460076D01*
X49271438Y6364838D01*
X49080962Y6364838D01*
X47557153Y7698171D02*
X47557153Y6364838D01*
X48414296Y7698171D02*
X48414296Y6650552D01*
X48319057Y6460076D01*
X48128581Y6364838D01*
X47842867Y6364838D01*
X47652391Y6460076D01*
X47557153Y6555314D01*
X45747629Y6364838D02*
X45747629Y7412457D01*
X45842867Y7602933D01*
X46033343Y7698171D01*
X46414295Y7698171D01*
X46604772Y7602933D01*
X45747629Y6460076D02*
X45938105Y6364838D01*
X46414295Y6364838D01*
X46604772Y6460076D01*
X46700010Y6650552D01*
X46700010Y6841029D01*
X46604772Y7031505D01*
X46414295Y7126743D01*
X45938105Y7126743D01*
X45747629Y7221981D01*
X45080962Y7698171D02*
X44319057Y7698171D01*
X44795248Y8364838D02*
X44795248Y6650552D01*
X44700009Y6460076D01*
X44509533Y6364838D01*
X44319057Y6364838D01*
X43366676Y6364838D02*
X43557152Y6460076D01*
X43652391Y6555314D01*
X43747629Y6745790D01*
X43747629Y7317219D01*
X43652391Y7507695D01*
X43557152Y7602933D01*
X43366676Y7698171D01*
X43080962Y7698171D01*
X42890486Y7602933D01*
X42795248Y7507695D01*
X42700010Y7317219D01*
X42700010Y6745790D01*
X42795248Y6555314D01*
X42890486Y6460076D01*
X43080962Y6364838D01*
X43366676Y6364838D01*
X41842867Y6364838D02*
X41842867Y7698171D01*
X41842867Y7317219D02*
X41747628Y7507695D01*
X41652390Y7602933D01*
X41461914Y7698171D01*
X41271438Y7698171D01*
X38414295Y7412457D02*
X38128581Y7317219D01*
X38033342Y7221981D01*
X37938104Y7031505D01*
X37938104Y6745790D01*
X38033342Y6555314D01*
X38128581Y6460076D01*
X38319057Y6364838D01*
X39080962Y6364838D01*
X39080962Y8364838D01*
X38414295Y8364838D01*
X38223819Y8269600D01*
X38128581Y8174362D01*
X38033342Y7983886D01*
X38033342Y7793410D01*
X38128581Y7602933D01*
X38223819Y7507695D01*
X38414295Y7412457D01*
X39080962Y7412457D01*
X36795247Y6364838D02*
X36985723Y6460076D01*
X37080962Y6555314D01*
X37176200Y6745790D01*
X37176200Y7317219D01*
X37080962Y7507695D01*
X36985723Y7602933D01*
X36795247Y7698171D01*
X36509533Y7698171D01*
X36319057Y7602933D01*
X36223819Y7507695D01*
X36128581Y7317219D01*
X36128581Y6745790D01*
X36223819Y6555314D01*
X36319057Y6460076D01*
X36509533Y6364838D01*
X36795247Y6364838D01*
X34414295Y6364838D02*
X34414295Y7412457D01*
X34509533Y7602933D01*
X34700009Y7698171D01*
X35080961Y7698171D01*
X35271438Y7602933D01*
X34414295Y6460076D02*
X34604771Y6364838D01*
X35080961Y6364838D01*
X35271438Y6460076D01*
X35366676Y6650552D01*
X35366676Y6841029D01*
X35271438Y7031505D01*
X35080961Y7126743D01*
X34604771Y7126743D01*
X34414295Y7221981D01*
X33461914Y6364838D02*
X33461914Y7698171D01*
X33461914Y7317219D02*
X33366675Y7507695D01*
X33271437Y7602933D01*
X33080961Y7698171D01*
X32890485Y7698171D01*
X31366676Y6364838D02*
X31366676Y8364838D01*
X31366676Y6460076D02*
X31557152Y6364838D01*
X31938104Y6364838D01*
X32128580Y6460076D01*
X32223819Y6555314D01*
X32319057Y6745790D01*
X32319057Y7317219D01*
X32223819Y7507695D01*
X32128580Y7602933D01*
X31938104Y7698171D01*
X31557152Y7698171D01*
X31366676Y7602933D01*
X29176199Y8364838D02*
X28509532Y6364838D01*
X27842865Y8364838D01*
X26128579Y6364838D02*
X27271437Y6364838D01*
X26700008Y6364838D02*
X26700008Y8364838D01*
X26890484Y8079124D01*
X27080960Y7888648D01*
X27271437Y7793410D01*
X25271437Y6555314D02*
X25176198Y6460076D01*
X25271437Y6364838D01*
X25366675Y6460076D01*
X25271437Y6555314D01*
X25271437Y6364838D01*
X24414294Y8174362D02*
X24319056Y8269600D01*
X24128579Y8364838D01*
X23652389Y8364838D01*
X23461913Y8269600D01*
X23366675Y8174362D01*
X23271436Y7983886D01*
X23271436Y7793410D01*
X23366675Y7507695D01*
X24509532Y6364838D01*
X23271436Y6364838D01*
D12*
X26162000Y57823100D02*
X26162000Y61379100D01*
X26162000Y61379100D02*
X30734000Y61379100D01*
X30734000Y61379100D02*
X30734000Y57823100D01*
X30734000Y57823100D02*
X26162000Y57823100D01*
X24384000Y57823100D02*
X24384000Y61379100D01*
X24384000Y61379100D02*
X19812000Y61379100D01*
X19812000Y61379100D02*
X19812000Y57823100D01*
X19812000Y57823100D02*
X24384000Y57823100D01*
X26162000Y37122100D02*
X26162000Y40678100D01*
X26162000Y40678100D02*
X30734000Y40678100D01*
X30734000Y40678100D02*
X30734000Y37122100D01*
X30734000Y37122100D02*
X26162000Y37122100D01*
X24384000Y37122100D02*
X24384000Y40678100D01*
X24384000Y40678100D02*
X19812000Y40678100D01*
X19812000Y40678100D02*
X19812000Y37122100D01*
X19812000Y37122100D02*
X24384000Y37122100D01*
X49276000Y3975100D02*
X49276000Y419100D01*
X49276000Y419100D02*
X44704000Y419100D01*
X44704000Y419100D02*
X44704000Y3975100D01*
X44704000Y3975100D02*
X49276000Y3975100D01*
X51054000Y3975100D02*
X51054000Y419100D01*
X51054000Y419100D02*
X55626000Y419100D01*
X55626000Y419100D02*
X55626000Y3975100D01*
X55626000Y3975100D02*
X51054000Y3975100D01*
X49022000Y25946100D02*
X49022000Y22390100D01*
X49022000Y22390100D02*
X44450000Y22390100D01*
X44450000Y22390100D02*
X44450000Y25946100D01*
X44450000Y25946100D02*
X49022000Y25946100D01*
X50800000Y25946100D02*
X50800000Y22390100D01*
X50800000Y22390100D02*
X55372000Y22390100D01*
X55372000Y22390100D02*
X55372000Y25946100D01*
X55372000Y25946100D02*
X50800000Y25946100D01*
X49453800Y72910700D02*
X49453800Y69354700D01*
X49453800Y69354700D02*
X44881800Y69354700D01*
X44881800Y69354700D02*
X44881800Y72910700D01*
X44881800Y72910700D02*
X49453800Y72910700D01*
X51231800Y72910700D02*
X51231800Y69354700D01*
X51231800Y69354700D02*
X55803800Y69354700D01*
X55803800Y69354700D02*
X55803800Y72910700D01*
X55803800Y72910700D02*
X51231800Y72910700D01*
X26035000Y16675100D02*
X26035000Y20231100D01*
X26035000Y20231100D02*
X30607000Y20231100D01*
X30607000Y20231100D02*
X30607000Y16675100D01*
X30607000Y16675100D02*
X26035000Y16675100D01*
X24257000Y16675100D02*
X24257000Y20231100D01*
X24257000Y20231100D02*
X19685000Y20231100D01*
X19685000Y20231100D02*
X19685000Y16675100D01*
X19685000Y16675100D02*
X24257000Y16675100D01*
D13*
G36*
X63858173Y77064888D02*
X63741668Y77064273D01*
X63640544Y77063280D01*
X63562015Y77061911D01*
X63513294Y77060164D01*
X63500683Y77058638D01*
X63491088Y77038347D01*
X63466724Y76983553D01*
X63429509Y76898658D01*
X63381360Y76788067D01*
X63324194Y76656181D01*
X63259928Y76507404D01*
X63193867Y76354016D01*
X63124616Y76193207D01*
X63060642Y76045060D01*
X63003862Y75913982D01*
X62956194Y75804385D01*
X62919556Y75720677D01*
X62895865Y75667267D01*
X62887095Y75648604D01*
X62865025Y75640927D01*
X62810773Y75626145D01*
X62733411Y75606654D01*
X62672733Y75592049D01*
X62552919Y75561720D01*
X62417329Y75524355D01*
X62290212Y75486708D01*
X62257195Y75476317D01*
X62049439Y75409728D01*
X61438330Y75867711D01*
X61277481Y75988042D01*
X61146874Y76085065D01*
X61043030Y76161066D01*
X60962469Y76218329D01*
X60901711Y76259140D01*
X60857278Y76285784D01*
X60825690Y76300547D01*
X60803468Y76305713D01*
X60787133Y76303567D01*
X60779724Y76300275D01*
X60747731Y76282093D01*
X60685567Y76245863D01*
X60599416Y76195223D01*
X60495465Y76133812D01*
X60379896Y76065268D01*
X60346404Y76045357D01*
X59960582Y75815859D01*
X59970075Y75735938D01*
X59974495Y75695859D01*
X59982619Y75619337D01*
X59993857Y75512044D01*
X60007618Y75379650D01*
X60023312Y75227827D01*
X60040349Y75062248D01*
X60051053Y74957853D01*
X60122538Y74259690D01*
X59872398Y74005353D01*
X59784128Y73915263D01*
X59701815Y73830628D01*
X59632009Y73758232D01*
X59581262Y73704856D01*
X59561937Y73683949D01*
X59501617Y73616881D01*
X58753295Y73701155D01*
X58580346Y73720436D01*
X58421230Y73737801D01*
X58280711Y73752756D01*
X58163552Y73764812D01*
X58074514Y73773478D01*
X58018361Y73778263D01*
X57999831Y73778806D01*
X57988511Y73759249D01*
X57959487Y73707890D01*
X57915664Y73629907D01*
X57859948Y73530476D01*
X57795245Y73414772D01*
X57749127Y73332184D01*
X57503565Y72892184D01*
X57879406Y72358517D01*
X57976423Y72220658D01*
X58068702Y72089339D01*
X58152546Y71969837D01*
X58224258Y71867426D01*
X58280142Y71787383D01*
X58316500Y71734982D01*
X58323372Y71724965D01*
X58391498Y71625079D01*
X58334292Y71428631D01*
X58304369Y71320693D01*
X58270757Y71191344D01*
X58238573Y71060583D01*
X58222602Y70992089D01*
X58168117Y70751995D01*
X57474909Y70433447D01*
X56781700Y70114899D01*
X56781700Y69089970D01*
X57474909Y68770954D01*
X58168117Y68451937D01*
X58222602Y68212227D01*
X58251652Y68089831D01*
X58285094Y67957234D01*
X58317799Y67834472D01*
X58334292Y67776069D01*
X58391498Y67579621D01*
X58323372Y67479736D01*
X58293998Y67437231D01*
X58243923Y67365406D01*
X58176843Y67269537D01*
X58096457Y67154898D01*
X58006459Y67026765D01*
X57910548Y66890414D01*
X57879406Y66846183D01*
X57503565Y66312517D01*
X57749127Y65872517D01*
X57818160Y65748926D01*
X57880117Y65638200D01*
X57932093Y65545516D01*
X57971182Y65476048D01*
X57994480Y65434973D01*
X57999793Y65425933D01*
X58021245Y65426688D01*
X58079993Y65431764D01*
X58171275Y65440672D01*
X58290328Y65452923D01*
X58432390Y65468027D01*
X58592697Y65485494D01*
X58753257Y65503350D01*
X59501617Y65587351D01*
X59561937Y65520517D01*
X59597202Y65482798D01*
X59655677Y65421749D01*
X59730814Y65344145D01*
X59816060Y65256764D01*
X59872398Y65199347D01*
X60122538Y64945011D01*
X60051053Y64246847D01*
X60033490Y64075701D01*
X60016914Y63914883D01*
X60001913Y63770065D01*
X59989079Y63646918D01*
X59979002Y63551113D01*
X59972272Y63488323D01*
X59970075Y63468762D01*
X59960582Y63388841D01*
X60346404Y63159343D01*
X60464111Y63089459D01*
X60571927Y63025691D01*
X60663669Y62971679D01*
X60733150Y62931060D01*
X60774187Y62907475D01*
X60779724Y62904426D01*
X60794359Y62899350D01*
X60813050Y62900384D01*
X60839276Y62909812D01*
X60876516Y62929919D01*
X60928249Y62962990D01*
X60997956Y63011311D01*
X61089115Y63077167D01*
X61205205Y63162843D01*
X61349707Y63270624D01*
X61438330Y63336989D01*
X62049439Y63794972D01*
X62257195Y63728383D01*
X62376999Y63691976D01*
X62512588Y63653814D01*
X62639712Y63620653D01*
X62672733Y63612651D01*
X62760554Y63591335D01*
X62831381Y63573114D01*
X62876142Y63560381D01*
X62887049Y63556096D01*
X62896621Y63535617D01*
X62920957Y63480641D01*
X62958140Y63395579D01*
X63006253Y63284844D01*
X63063378Y63152845D01*
X63127600Y63003995D01*
X63193385Y62851121D01*
X63262580Y62690372D01*
X63326522Y62542306D01*
X63383292Y62411332D01*
X63430969Y62301858D01*
X63467634Y62218293D01*
X63491368Y62165045D01*
X63500188Y62146557D01*
X63523222Y62143638D01*
X63581296Y62141072D01*
X63667121Y62138896D01*
X63773403Y62137146D01*
X63892853Y62135860D01*
X64018179Y62135075D01*
X64142090Y62134826D01*
X64257295Y62135153D01*
X64356501Y62136090D01*
X64432419Y62137676D01*
X64477757Y62139947D01*
X64487112Y62141557D01*
X64499317Y62162913D01*
X64526114Y62218771D01*
X64565509Y62304682D01*
X64615508Y62416201D01*
X64674115Y62548879D01*
X64739335Y62698271D01*
X64805181Y62850640D01*
X64874435Y63011454D01*
X64938411Y63159607D01*
X64995194Y63290690D01*
X65042864Y63400293D01*
X65079505Y63484008D01*
X65103199Y63537425D01*
X65111973Y63556096D01*
X65134043Y63563774D01*
X65188295Y63578555D01*
X65265656Y63598046D01*
X65326335Y63612651D01*
X65446149Y63642980D01*
X65581739Y63680345D01*
X65708856Y63717992D01*
X65741873Y63728383D01*
X65949629Y63794972D01*
X66560738Y63336989D01*
X66721586Y63216658D01*
X66852193Y63119635D01*
X66956038Y63043635D01*
X67036599Y62986371D01*
X67097357Y62945560D01*
X67141790Y62918916D01*
X67173377Y62904154D01*
X67195599Y62898988D01*
X67211935Y62901133D01*
X67219344Y62904426D01*
X67251336Y62922608D01*
X67313501Y62958838D01*
X67399651Y63009478D01*
X67503603Y63070889D01*
X67619171Y63139432D01*
X67652663Y63159343D01*
X68038485Y63388841D01*
X68028993Y63468762D01*
X68024573Y63508841D01*
X68016448Y63585363D01*
X68005211Y63692657D01*
X67991450Y63825051D01*
X67975755Y63976873D01*
X67958718Y64142452D01*
X67948015Y64246847D01*
X67876529Y64945011D01*
X68126670Y65199347D01*
X68214939Y65289438D01*
X68297253Y65374072D01*
X68367059Y65446468D01*
X68417806Y65499844D01*
X68437131Y65520751D01*
X68497450Y65587819D01*
X69245773Y65503546D01*
X69418722Y65484264D01*
X69577837Y65466900D01*
X69718356Y65451944D01*
X69835516Y65439888D01*
X69924554Y65431222D01*
X69980706Y65426438D01*
X69999237Y65425895D01*
X70010557Y65445452D01*
X70039581Y65496810D01*
X70083404Y65574793D01*
X70139120Y65674225D01*
X70203823Y65789928D01*
X70249940Y65872517D01*
X70495502Y66312517D01*
X70119662Y66846183D01*
X70022645Y66984043D01*
X69930366Y67115361D01*
X69846522Y67234863D01*
X69774810Y67337274D01*
X69718926Y67417318D01*
X69682567Y67469718D01*
X69675695Y67479736D01*
X69607570Y67579621D01*
X69664775Y67776069D01*
X69694698Y67884008D01*
X69728310Y68013356D01*
X69760495Y68144118D01*
X69776466Y68212611D01*
X69830950Y68452706D01*
X70524159Y68771253D01*
X71217367Y69089801D01*
X71217367Y69602350D01*
X68232867Y69602350D01*
X68226021Y69300180D01*
X68204085Y69025031D01*
X68164968Y68763632D01*
X68106574Y68502716D01*
X68026810Y68229012D01*
X68006199Y68165801D01*
X67852064Y67766571D01*
X67661516Y67386506D01*
X67436497Y67028167D01*
X67178944Y66694117D01*
X66890798Y66386919D01*
X66573998Y66109136D01*
X66296117Y65906381D01*
X66148861Y65815044D01*
X65974785Y65718673D01*
X65786532Y65623438D01*
X65596742Y65535507D01*
X65418057Y65461049D01*
X65286403Y65413630D01*
X65086327Y65354847D01*
X64869754Y65302118D01*
X64655333Y65259592D01*
X64473579Y65232765D01*
X64351957Y65222720D01*
X64201508Y65216433D01*
X64035571Y65213909D01*
X63867487Y65215152D01*
X63710593Y65220169D01*
X63578231Y65228963D01*
X63544605Y65232419D01*
X63159637Y65294207D01*
X62790164Y65390665D01*
X62427368Y65524401D01*
X62189784Y65633131D01*
X61933825Y65767568D01*
X61704273Y65907800D01*
X61485436Y66064080D01*
X61296826Y66216604D01*
X60992208Y66502218D01*
X60717525Y66816431D01*
X60474208Y67156542D01*
X60263690Y67519850D01*
X60087401Y67903655D01*
X59946775Y68305256D01*
X59843242Y68721951D01*
X59788372Y69062045D01*
X59780697Y69146563D01*
X59774174Y69261167D01*
X59769305Y69393618D01*
X59766592Y69531673D01*
X59766200Y69602350D01*
X59773047Y69904520D01*
X59794982Y70179670D01*
X59834100Y70441068D01*
X59892494Y70701985D01*
X59972257Y70975688D01*
X59992869Y71038899D01*
X60147004Y71438129D01*
X60337551Y71818195D01*
X60562571Y72176534D01*
X60820123Y72510583D01*
X61108269Y72817781D01*
X61425069Y73095564D01*
X61702950Y73298319D01*
X61849463Y73389214D01*
X62022713Y73485188D01*
X62210122Y73580101D01*
X62399110Y73667811D01*
X62577099Y73742176D01*
X62711244Y73790600D01*
X63115164Y73900089D01*
X63525239Y73968217D01*
X63938602Y73994984D01*
X64352387Y73980390D01*
X64763728Y73924434D01*
X65169757Y73827118D01*
X65287824Y73790600D01*
X65446399Y73732541D01*
X65626743Y73655879D01*
X65816278Y73566756D01*
X66002426Y73471313D01*
X66172607Y73375691D01*
X66296117Y73298319D01*
X66634824Y73046389D01*
X66946456Y72762957D01*
X67229075Y72450586D01*
X67480741Y72111838D01*
X67699515Y71749277D01*
X67883456Y71365464D01*
X68006199Y71038899D01*
X68090942Y70760605D01*
X68153855Y70498015D01*
X68197031Y70237860D01*
X68222565Y69966872D01*
X68232549Y69671781D01*
X68232867Y69602350D01*
X71217367Y69602350D01*
X71217367Y70114899D01*
X70524159Y70433447D01*
X69830950Y70751995D01*
X69776466Y70992089D01*
X69747446Y71114528D01*
X69714037Y71247132D01*
X69681355Y71369903D01*
X69664775Y71428631D01*
X69607570Y71625079D01*
X69675695Y71724965D01*
X69705070Y71767469D01*
X69755145Y71839294D01*
X69822224Y71935163D01*
X69902611Y72049802D01*
X69992608Y72177935D01*
X70088519Y72314286D01*
X70119662Y72358517D01*
X70495502Y72892184D01*
X70249940Y73332184D01*
X70180905Y73455777D01*
X70118944Y73566508D01*
X70066961Y73659200D01*
X70027863Y73728676D01*
X70004556Y73769760D01*
X69999237Y73778806D01*
X69977777Y73778052D01*
X69919023Y73772963D01*
X69827737Y73764029D01*
X69708681Y73751741D01*
X69566620Y73736590D01*
X69406316Y73719067D01*
X69245773Y73701155D01*
X68497450Y73616881D01*
X68437131Y73683949D01*
X68401863Y73721750D01*
X68343383Y73782872D01*
X68268241Y73860533D01*
X68182988Y73947951D01*
X68126670Y74005353D01*
X67876529Y74259690D01*
X67948015Y74957853D01*
X67965577Y75128999D01*
X67982154Y75289817D01*
X67997155Y75434635D01*
X68009989Y75557783D01*
X68020066Y75653587D01*
X68026796Y75716378D01*
X68028993Y75735938D01*
X68038485Y75815859D01*
X67652663Y76045357D01*
X67534957Y76115242D01*
X67427140Y76179009D01*
X67335399Y76233022D01*
X67265917Y76273640D01*
X67224881Y76297226D01*
X67219344Y76300275D01*
X67204708Y76305350D01*
X67186018Y76304316D01*
X67159792Y76294889D01*
X67122552Y76274782D01*
X67070818Y76241710D01*
X67001112Y76193389D01*
X66909953Y76127533D01*
X66793862Y76041857D01*
X66649361Y75934076D01*
X66560738Y75867711D01*
X65949629Y75409728D01*
X65741873Y75476317D01*
X65622069Y75512725D01*
X65486480Y75550886D01*
X65359356Y75584048D01*
X65326335Y75592049D01*
X65238507Y75613366D01*
X65167668Y75631587D01*
X65122891Y75644320D01*
X65111973Y75648604D01*
X65102386Y75669081D01*
X65078027Y75724053D01*
X65040813Y75809111D01*
X64992662Y75919845D01*
X64935491Y76051846D01*
X64871218Y76200706D01*
X64805200Y76354016D01*
X64735955Y76514787D01*
X64671983Y76662862D01*
X64615202Y76793836D01*
X64567529Y76903306D01*
X64530881Y76986871D01*
X64507175Y77040126D01*
X64498385Y77058638D01*
X64476209Y77060662D01*
X64418915Y77062309D01*
X64333718Y77063579D01*
X64227831Y77064472D01*
X64108468Y77064988D01*
X63982844Y77065127D01*
X63858173Y77064888D01*
X63858173Y77064888D01*
G37*
X63858173Y77064888D02*
X63741668Y77064273D01*
X63640544Y77063280D01*
X63562015Y77061911D01*
X63513294Y77060164D01*
X63500683Y77058638D01*
X63491088Y77038347D01*
X63466724Y76983553D01*
X63429509Y76898658D01*
X63381360Y76788067D01*
X63324194Y76656181D01*
X63259928Y76507404D01*
X63193867Y76354016D01*
X63124616Y76193207D01*
X63060642Y76045060D01*
X63003862Y75913982D01*
X62956194Y75804385D01*
X62919556Y75720677D01*
X62895865Y75667267D01*
X62887095Y75648604D01*
X62865025Y75640927D01*
X62810773Y75626145D01*
X62733411Y75606654D01*
X62672733Y75592049D01*
X62552919Y75561720D01*
X62417329Y75524355D01*
X62290212Y75486708D01*
X62257195Y75476317D01*
X62049439Y75409728D01*
X61438330Y75867711D01*
X61277481Y75988042D01*
X61146874Y76085065D01*
X61043030Y76161066D01*
X60962469Y76218329D01*
X60901711Y76259140D01*
X60857278Y76285784D01*
X60825690Y76300547D01*
X60803468Y76305713D01*
X60787133Y76303567D01*
X60779724Y76300275D01*
X60747731Y76282093D01*
X60685567Y76245863D01*
X60599416Y76195223D01*
X60495465Y76133812D01*
X60379896Y76065268D01*
X60346404Y76045357D01*
X59960582Y75815859D01*
X59970075Y75735938D01*
X59974495Y75695859D01*
X59982619Y75619337D01*
X59993857Y75512044D01*
X60007618Y75379650D01*
X60023312Y75227827D01*
X60040349Y75062248D01*
X60051053Y74957853D01*
X60122538Y74259690D01*
X59872398Y74005353D01*
X59784128Y73915263D01*
X59701815Y73830628D01*
X59632009Y73758232D01*
X59581262Y73704856D01*
X59561937Y73683949D01*
X59501617Y73616881D01*
X58753295Y73701155D01*
X58580346Y73720436D01*
X58421230Y73737801D01*
X58280711Y73752756D01*
X58163552Y73764812D01*
X58074514Y73773478D01*
X58018361Y73778263D01*
X57999831Y73778806D01*
X57988511Y73759249D01*
X57959487Y73707890D01*
X57915664Y73629907D01*
X57859948Y73530476D01*
X57795245Y73414772D01*
X57749127Y73332184D01*
X57503565Y72892184D01*
X57879406Y72358517D01*
X57976423Y72220658D01*
X58068702Y72089339D01*
X58152546Y71969837D01*
X58224258Y71867426D01*
X58280142Y71787383D01*
X58316500Y71734982D01*
X58323372Y71724965D01*
X58391498Y71625079D01*
X58334292Y71428631D01*
X58304369Y71320693D01*
X58270757Y71191344D01*
X58238573Y71060583D01*
X58222602Y70992089D01*
X58168117Y70751995D01*
X57474909Y70433447D01*
X56781700Y70114899D01*
X56781700Y69089970D01*
X57474909Y68770954D01*
X58168117Y68451937D01*
X58222602Y68212227D01*
X58251652Y68089831D01*
X58285094Y67957234D01*
X58317799Y67834472D01*
X58334292Y67776069D01*
X58391498Y67579621D01*
X58323372Y67479736D01*
X58293998Y67437231D01*
X58243923Y67365406D01*
X58176843Y67269537D01*
X58096457Y67154898D01*
X58006459Y67026765D01*
X57910548Y66890414D01*
X57879406Y66846183D01*
X57503565Y66312517D01*
X57749127Y65872517D01*
X57818160Y65748926D01*
X57880117Y65638200D01*
X57932093Y65545516D01*
X57971182Y65476048D01*
X57994480Y65434973D01*
X57999793Y65425933D01*
X58021245Y65426688D01*
X58079993Y65431764D01*
X58171275Y65440672D01*
X58290328Y65452923D01*
X58432390Y65468027D01*
X58592697Y65485494D01*
X58753257Y65503350D01*
X59501617Y65587351D01*
X59561937Y65520517D01*
X59597202Y65482798D01*
X59655677Y65421749D01*
X59730814Y65344145D01*
X59816060Y65256764D01*
X59872398Y65199347D01*
X60122538Y64945011D01*
X60051053Y64246847D01*
X60033490Y64075701D01*
X60016914Y63914883D01*
X60001913Y63770065D01*
X59989079Y63646918D01*
X59979002Y63551113D01*
X59972272Y63488323D01*
X59970075Y63468762D01*
X59960582Y63388841D01*
X60346404Y63159343D01*
X60464111Y63089459D01*
X60571927Y63025691D01*
X60663669Y62971679D01*
X60733150Y62931060D01*
X60774187Y62907475D01*
X60779724Y62904426D01*
X60794359Y62899350D01*
X60813050Y62900384D01*
X60839276Y62909812D01*
X60876516Y62929919D01*
X60928249Y62962990D01*
X60997956Y63011311D01*
X61089115Y63077167D01*
X61205205Y63162843D01*
X61349707Y63270624D01*
X61438330Y63336989D01*
X62049439Y63794972D01*
X62257195Y63728383D01*
X62376999Y63691976D01*
X62512588Y63653814D01*
X62639712Y63620653D01*
X62672733Y63612651D01*
X62760554Y63591335D01*
X62831381Y63573114D01*
X62876142Y63560381D01*
X62887049Y63556096D01*
X62896621Y63535617D01*
X62920957Y63480641D01*
X62958140Y63395579D01*
X63006253Y63284844D01*
X63063378Y63152845D01*
X63127600Y63003995D01*
X63193385Y62851121D01*
X63262580Y62690372D01*
X63326522Y62542306D01*
X63383292Y62411332D01*
X63430969Y62301858D01*
X63467634Y62218293D01*
X63491368Y62165045D01*
X63500188Y62146557D01*
X63523222Y62143638D01*
X63581296Y62141072D01*
X63667121Y62138896D01*
X63773403Y62137146D01*
X63892853Y62135860D01*
X64018179Y62135075D01*
X64142090Y62134826D01*
X64257295Y62135153D01*
X64356501Y62136090D01*
X64432419Y62137676D01*
X64477757Y62139947D01*
X64487112Y62141557D01*
X64499317Y62162913D01*
X64526114Y62218771D01*
X64565509Y62304682D01*
X64615508Y62416201D01*
X64674115Y62548879D01*
X64739335Y62698271D01*
X64805181Y62850640D01*
X64874435Y63011454D01*
X64938411Y63159607D01*
X64995194Y63290690D01*
X65042864Y63400293D01*
X65079505Y63484008D01*
X65103199Y63537425D01*
X65111973Y63556096D01*
X65134043Y63563774D01*
X65188295Y63578555D01*
X65265656Y63598046D01*
X65326335Y63612651D01*
X65446149Y63642980D01*
X65581739Y63680345D01*
X65708856Y63717992D01*
X65741873Y63728383D01*
X65949629Y63794972D01*
X66560738Y63336989D01*
X66721586Y63216658D01*
X66852193Y63119635D01*
X66956038Y63043635D01*
X67036599Y62986371D01*
X67097357Y62945560D01*
X67141790Y62918916D01*
X67173377Y62904154D01*
X67195599Y62898988D01*
X67211935Y62901133D01*
X67219344Y62904426D01*
X67251336Y62922608D01*
X67313501Y62958838D01*
X67399651Y63009478D01*
X67503603Y63070889D01*
X67619171Y63139432D01*
X67652663Y63159343D01*
X68038485Y63388841D01*
X68028993Y63468762D01*
X68024573Y63508841D01*
X68016448Y63585363D01*
X68005211Y63692657D01*
X67991450Y63825051D01*
X67975755Y63976873D01*
X67958718Y64142452D01*
X67948015Y64246847D01*
X67876529Y64945011D01*
X68126670Y65199347D01*
X68214939Y65289438D01*
X68297253Y65374072D01*
X68367059Y65446468D01*
X68417806Y65499844D01*
X68437131Y65520751D01*
X68497450Y65587819D01*
X69245773Y65503546D01*
X69418722Y65484264D01*
X69577837Y65466900D01*
X69718356Y65451944D01*
X69835516Y65439888D01*
X69924554Y65431222D01*
X69980706Y65426438D01*
X69999237Y65425895D01*
X70010557Y65445452D01*
X70039581Y65496810D01*
X70083404Y65574793D01*
X70139120Y65674225D01*
X70203823Y65789928D01*
X70249940Y65872517D01*
X70495502Y66312517D01*
X70119662Y66846183D01*
X70022645Y66984043D01*
X69930366Y67115361D01*
X69846522Y67234863D01*
X69774810Y67337274D01*
X69718926Y67417318D01*
X69682567Y67469718D01*
X69675695Y67479736D01*
X69607570Y67579621D01*
X69664775Y67776069D01*
X69694698Y67884008D01*
X69728310Y68013356D01*
X69760495Y68144118D01*
X69776466Y68212611D01*
X69830950Y68452706D01*
X70524159Y68771253D01*
X71217367Y69089801D01*
X71217367Y69602350D01*
X68232867Y69602350D01*
X68226021Y69300180D01*
X68204085Y69025031D01*
X68164968Y68763632D01*
X68106574Y68502716D01*
X68026810Y68229012D01*
X68006199Y68165801D01*
X67852064Y67766571D01*
X67661516Y67386506D01*
X67436497Y67028167D01*
X67178944Y66694117D01*
X66890798Y66386919D01*
X66573998Y66109136D01*
X66296117Y65906381D01*
X66148861Y65815044D01*
X65974785Y65718673D01*
X65786532Y65623438D01*
X65596742Y65535507D01*
X65418057Y65461049D01*
X65286403Y65413630D01*
X65086327Y65354847D01*
X64869754Y65302118D01*
X64655333Y65259592D01*
X64473579Y65232765D01*
X64351957Y65222720D01*
X64201508Y65216433D01*
X64035571Y65213909D01*
X63867487Y65215152D01*
X63710593Y65220169D01*
X63578231Y65228963D01*
X63544605Y65232419D01*
X63159637Y65294207D01*
X62790164Y65390665D01*
X62427368Y65524401D01*
X62189784Y65633131D01*
X61933825Y65767568D01*
X61704273Y65907800D01*
X61485436Y66064080D01*
X61296826Y66216604D01*
X60992208Y66502218D01*
X60717525Y66816431D01*
X60474208Y67156542D01*
X60263690Y67519850D01*
X60087401Y67903655D01*
X59946775Y68305256D01*
X59843242Y68721951D01*
X59788372Y69062045D01*
X59780697Y69146563D01*
X59774174Y69261167D01*
X59769305Y69393618D01*
X59766592Y69531673D01*
X59766200Y69602350D01*
X59773047Y69904520D01*
X59794982Y70179670D01*
X59834100Y70441068D01*
X59892494Y70701985D01*
X59972257Y70975688D01*
X59992869Y71038899D01*
X60147004Y71438129D01*
X60337551Y71818195D01*
X60562571Y72176534D01*
X60820123Y72510583D01*
X61108269Y72817781D01*
X61425069Y73095564D01*
X61702950Y73298319D01*
X61849463Y73389214D01*
X62022713Y73485188D01*
X62210122Y73580101D01*
X62399110Y73667811D01*
X62577099Y73742176D01*
X62711244Y73790600D01*
X63115164Y73900089D01*
X63525239Y73968217D01*
X63938602Y73994984D01*
X64352387Y73980390D01*
X64763728Y73924434D01*
X65169757Y73827118D01*
X65287824Y73790600D01*
X65446399Y73732541D01*
X65626743Y73655879D01*
X65816278Y73566756D01*
X66002426Y73471313D01*
X66172607Y73375691D01*
X66296117Y73298319D01*
X66634824Y73046389D01*
X66946456Y72762957D01*
X67229075Y72450586D01*
X67480741Y72111838D01*
X67699515Y71749277D01*
X67883456Y71365464D01*
X68006199Y71038899D01*
X68090942Y70760605D01*
X68153855Y70498015D01*
X68197031Y70237860D01*
X68222565Y69966872D01*
X68232549Y69671781D01*
X68232867Y69602350D01*
X71217367Y69602350D01*
X71217367Y70114899D01*
X70524159Y70433447D01*
X69830950Y70751995D01*
X69776466Y70992089D01*
X69747446Y71114528D01*
X69714037Y71247132D01*
X69681355Y71369903D01*
X69664775Y71428631D01*
X69607570Y71625079D01*
X69675695Y71724965D01*
X69705070Y71767469D01*
X69755145Y71839294D01*
X69822224Y71935163D01*
X69902611Y72049802D01*
X69992608Y72177935D01*
X70088519Y72314286D01*
X70119662Y72358517D01*
X70495502Y72892184D01*
X70249940Y73332184D01*
X70180905Y73455777D01*
X70118944Y73566508D01*
X70066961Y73659200D01*
X70027863Y73728676D01*
X70004556Y73769760D01*
X69999237Y73778806D01*
X69977777Y73778052D01*
X69919023Y73772963D01*
X69827737Y73764029D01*
X69708681Y73751741D01*
X69566620Y73736590D01*
X69406316Y73719067D01*
X69245773Y73701155D01*
X68497450Y73616881D01*
X68437131Y73683949D01*
X68401863Y73721750D01*
X68343383Y73782872D01*
X68268241Y73860533D01*
X68182988Y73947951D01*
X68126670Y74005353D01*
X67876529Y74259690D01*
X67948015Y74957853D01*
X67965577Y75128999D01*
X67982154Y75289817D01*
X67997155Y75434635D01*
X68009989Y75557783D01*
X68020066Y75653587D01*
X68026796Y75716378D01*
X68028993Y75735938D01*
X68038485Y75815859D01*
X67652663Y76045357D01*
X67534957Y76115242D01*
X67427140Y76179009D01*
X67335399Y76233022D01*
X67265917Y76273640D01*
X67224881Y76297226D01*
X67219344Y76300275D01*
X67204708Y76305350D01*
X67186018Y76304316D01*
X67159792Y76294889D01*
X67122552Y76274782D01*
X67070818Y76241710D01*
X67001112Y76193389D01*
X66909953Y76127533D01*
X66793862Y76041857D01*
X66649361Y75934076D01*
X66560738Y75867711D01*
X65949629Y75409728D01*
X65741873Y75476317D01*
X65622069Y75512725D01*
X65486480Y75550886D01*
X65359356Y75584048D01*
X65326335Y75592049D01*
X65238507Y75613366D01*
X65167668Y75631587D01*
X65122891Y75644320D01*
X65111973Y75648604D01*
X65102386Y75669081D01*
X65078027Y75724053D01*
X65040813Y75809111D01*
X64992662Y75919845D01*
X64935491Y76051846D01*
X64871218Y76200706D01*
X64805200Y76354016D01*
X64735955Y76514787D01*
X64671983Y76662862D01*
X64615202Y76793836D01*
X64567529Y76903306D01*
X64530881Y76986871D01*
X64507175Y77040126D01*
X64498385Y77058638D01*
X64476209Y77060662D01*
X64418915Y77062309D01*
X64333718Y77063579D01*
X64227831Y77064472D01*
X64108468Y77064988D01*
X63982844Y77065127D01*
X63858173Y77064888D01*
G36*
X65914439Y63714828D02*
X65885610Y63698275D01*
X65897929Y63688245D01*
X65926950Y63686267D01*
X65956461Y63694082D01*
X65958022Y63706509D01*
X65930486Y63718040D01*
X65914439Y63714828D01*
X65914439Y63714828D01*
G37*
X65914439Y63714828D02*
X65885610Y63698275D01*
X65897929Y63688245D01*
X65926950Y63686267D01*
X65956461Y63694082D01*
X65958022Y63706509D01*
X65930486Y63718040D01*
X65914439Y63714828D01*
G36*
X65107920Y72385633D02*
X64818567Y72385192D01*
X64567233Y72384390D01*
X64351764Y72383169D01*
X64170003Y72381473D01*
X64019794Y72379246D01*
X63898981Y72376431D01*
X63805407Y72372973D01*
X63736916Y72368814D01*
X63691353Y72363899D01*
X63666561Y72358171D01*
X63660384Y72351574D01*
X63670666Y72344052D01*
X63681366Y72339906D01*
X63690794Y72318214D01*
X63707620Y72260213D01*
X63730584Y72171032D01*
X63758424Y72055801D01*
X63789880Y71919649D01*
X63823691Y71767705D01*
X63836563Y71708433D01*
X63971261Y71084017D01*
X65252193Y71078562D01*
X66533125Y71073108D01*
X66592181Y70803396D01*
X66615077Y70700209D01*
X66635442Y70610983D01*
X66651247Y70544426D01*
X66660465Y70509246D01*
X66661150Y70507225D01*
X66655630Y70498837D01*
X66629474Y70492306D01*
X66578831Y70487441D01*
X66499850Y70484051D01*
X66388678Y70481945D01*
X66241466Y70480931D01*
X66128092Y70480767D01*
X65585121Y70480767D01*
X65168036Y69851058D01*
X65071491Y69705156D01*
X64982454Y69570327D01*
X64903610Y69450657D01*
X64837641Y69350234D01*
X64787233Y69273140D01*
X64755070Y69223464D01*
X64743895Y69205475D01*
X64763024Y69202429D01*
X64820590Y69199574D01*
X64912699Y69196968D01*
X65035453Y69194667D01*
X65184958Y69192728D01*
X65357318Y69191207D01*
X65548637Y69190160D01*
X65755019Y69189645D01*
X65837844Y69189600D01*
X66082375Y69189529D01*
X66287973Y69189239D01*
X66458037Y69188618D01*
X66595964Y69187553D01*
X66705156Y69185929D01*
X66789012Y69183634D01*
X66850930Y69180555D01*
X66894309Y69176578D01*
X66922550Y69171590D01*
X66939052Y69165478D01*
X66947213Y69158128D01*
X66949678Y69152558D01*
X66957006Y69122332D01*
X66971468Y69058518D01*
X66991639Y68967698D01*
X67016095Y68856451D01*
X67043411Y68731358D01*
X67072163Y68598999D01*
X67100925Y68465955D01*
X67128273Y68338806D01*
X67152782Y68224132D01*
X67173028Y68128514D01*
X67187586Y68058531D01*
X67195032Y68020765D01*
X67195700Y68016199D01*
X67175137Y68014084D01*
X67115860Y68012088D01*
X67021489Y68010245D01*
X66895644Y68008589D01*
X66741945Y68007152D01*
X66564010Y68005969D01*
X66365461Y68005071D01*
X66149915Y68004494D01*
X65920994Y68004269D01*
X65898361Y68004267D01*
X64601021Y68004267D01*
X64168060Y67407895D01*
X64065804Y67267324D01*
X63970642Y67137040D01*
X63885617Y67021170D01*
X63813777Y66923841D01*
X63758165Y66849184D01*
X63721828Y66801325D01*
X63708566Y66784990D01*
X63685747Y66756227D01*
X63682034Y66746362D01*
X63702679Y66744502D01*
X63762528Y66742729D01*
X63858451Y66741065D01*
X63987320Y66739532D01*
X64146004Y66738152D01*
X64331375Y66736946D01*
X64540302Y66735937D01*
X64769657Y66735146D01*
X65016310Y66734595D01*
X65277132Y66734306D01*
X65417723Y66734267D01*
X67153411Y66734267D01*
X67253931Y66863077D01*
X67499090Y67211059D01*
X67709983Y67581468D01*
X67884939Y67970200D01*
X68022288Y68373150D01*
X68120359Y68786214D01*
X68168145Y69109391D01*
X68189713Y69432770D01*
X68187646Y69774641D01*
X68162687Y70118887D01*
X68115577Y70449388D01*
X68103544Y70512517D01*
X68034788Y70793326D01*
X67940084Y71084395D01*
X67823707Y71376382D01*
X67689934Y71659947D01*
X67543040Y71925747D01*
X67387302Y72164441D01*
X67287292Y72295808D01*
X67214033Y72385767D01*
X65437450Y72385767D01*
X65107920Y72385633D01*
X65107920Y72385633D01*
G37*
X65107920Y72385633D02*
X64818567Y72385192D01*
X64567233Y72384390D01*
X64351764Y72383169D01*
X64170003Y72381473D01*
X64019794Y72379246D01*
X63898981Y72376431D01*
X63805407Y72372973D01*
X63736916Y72368814D01*
X63691353Y72363899D01*
X63666561Y72358171D01*
X63660384Y72351574D01*
X63670666Y72344052D01*
X63681366Y72339906D01*
X63690794Y72318214D01*
X63707620Y72260213D01*
X63730584Y72171032D01*
X63758424Y72055801D01*
X63789880Y71919649D01*
X63823691Y71767705D01*
X63836563Y71708433D01*
X63971261Y71084017D01*
X65252193Y71078562D01*
X66533125Y71073108D01*
X66592181Y70803396D01*
X66615077Y70700209D01*
X66635442Y70610983D01*
X66651247Y70544426D01*
X66660465Y70509246D01*
X66661150Y70507225D01*
X66655630Y70498837D01*
X66629474Y70492306D01*
X66578831Y70487441D01*
X66499850Y70484051D01*
X66388678Y70481945D01*
X66241466Y70480931D01*
X66128092Y70480767D01*
X65585121Y70480767D01*
X65168036Y69851058D01*
X65071491Y69705156D01*
X64982454Y69570327D01*
X64903610Y69450657D01*
X64837641Y69350234D01*
X64787233Y69273140D01*
X64755070Y69223464D01*
X64743895Y69205475D01*
X64763024Y69202429D01*
X64820590Y69199574D01*
X64912699Y69196968D01*
X65035453Y69194667D01*
X65184958Y69192728D01*
X65357318Y69191207D01*
X65548637Y69190160D01*
X65755019Y69189645D01*
X65837844Y69189600D01*
X66082375Y69189529D01*
X66287973Y69189239D01*
X66458037Y69188618D01*
X66595964Y69187553D01*
X66705156Y69185929D01*
X66789012Y69183634D01*
X66850930Y69180555D01*
X66894309Y69176578D01*
X66922550Y69171590D01*
X66939052Y69165478D01*
X66947213Y69158128D01*
X66949678Y69152558D01*
X66957006Y69122332D01*
X66971468Y69058518D01*
X66991639Y68967698D01*
X67016095Y68856451D01*
X67043411Y68731358D01*
X67072163Y68598999D01*
X67100925Y68465955D01*
X67128273Y68338806D01*
X67152782Y68224132D01*
X67173028Y68128514D01*
X67187586Y68058531D01*
X67195032Y68020765D01*
X67195700Y68016199D01*
X67175137Y68014084D01*
X67115860Y68012088D01*
X67021489Y68010245D01*
X66895644Y68008589D01*
X66741945Y68007152D01*
X66564010Y68005969D01*
X66365461Y68005071D01*
X66149915Y68004494D01*
X65920994Y68004269D01*
X65898361Y68004267D01*
X64601021Y68004267D01*
X64168060Y67407895D01*
X64065804Y67267324D01*
X63970642Y67137040D01*
X63885617Y67021170D01*
X63813777Y66923841D01*
X63758165Y66849184D01*
X63721828Y66801325D01*
X63708566Y66784990D01*
X63685747Y66756227D01*
X63682034Y66746362D01*
X63702679Y66744502D01*
X63762528Y66742729D01*
X63858451Y66741065D01*
X63987320Y66739532D01*
X64146004Y66738152D01*
X64331375Y66736946D01*
X64540302Y66735937D01*
X64769657Y66735146D01*
X65016310Y66734595D01*
X65277132Y66734306D01*
X65417723Y66734267D01*
X67153411Y66734267D01*
X67253931Y66863077D01*
X67499090Y67211059D01*
X67709983Y67581468D01*
X67884939Y67970200D01*
X68022288Y68373150D01*
X68120359Y68786214D01*
X68168145Y69109391D01*
X68189713Y69432770D01*
X68187646Y69774641D01*
X68162687Y70118887D01*
X68115577Y70449388D01*
X68103544Y70512517D01*
X68034788Y70793326D01*
X67940084Y71084395D01*
X67823707Y71376382D01*
X67689934Y71659947D01*
X67543040Y71925747D01*
X67387302Y72164441D01*
X67287292Y72295808D01*
X67214033Y72385767D01*
X65437450Y72385767D01*
X65107920Y72385633D01*
G36*
X60711775Y72295808D02*
X60549017Y72073627D01*
X60393388Y71818173D01*
X60248978Y71538395D01*
X60119878Y71243245D01*
X60010178Y70941673D01*
X59923968Y70642630D01*
X59891992Y70501933D01*
X59865984Y70354737D01*
X59853159Y70220880D01*
X59853915Y70088731D01*
X59868648Y69946660D01*
X59897755Y69783036D01*
X59920074Y69679471D01*
X59988450Y69375591D01*
X61459534Y68575756D01*
X61689929Y68450600D01*
X61909400Y68331594D01*
X62115134Y68220251D01*
X62304319Y68118082D01*
X62474142Y68026600D01*
X62621791Y67947315D01*
X62744454Y67881741D01*
X62839319Y67831389D01*
X62903573Y67797771D01*
X62934403Y67782399D01*
X62936766Y67781590D01*
X62933555Y67802390D01*
X62922459Y67859075D01*
X62904652Y67946174D01*
X62881309Y68058220D01*
X62853604Y68189743D01*
X62822712Y68335275D01*
X62789808Y68489347D01*
X62756066Y68646490D01*
X62722660Y68801236D01*
X62690766Y68948115D01*
X62661557Y69081660D01*
X62636209Y69196401D01*
X62615897Y69286869D01*
X62601793Y69347596D01*
X62595074Y69373113D01*
X62594846Y69373526D01*
X62576182Y69384504D01*
X62524929Y69413860D01*
X62445363Y69459164D01*
X62341760Y69517989D01*
X62218398Y69587903D01*
X62079554Y69666480D01*
X61967052Y69730076D01*
X61818591Y69814145D01*
X61681770Y69891976D01*
X61560991Y69961037D01*
X61460655Y70018797D01*
X61385165Y70062724D01*
X61338923Y70090288D01*
X61326134Y70098650D01*
X61317659Y70122892D01*
X61302639Y70182427D01*
X61282401Y70270952D01*
X61258270Y70382165D01*
X61231574Y70509763D01*
X61203636Y70647445D01*
X61175785Y70788906D01*
X61149345Y70927846D01*
X61133290Y71015225D01*
X61118949Y71094600D01*
X61903075Y71094600D01*
X62106690Y71094473D01*
X62271928Y71093971D01*
X62402744Y71092919D01*
X62503093Y71091137D01*
X62576931Y71088450D01*
X62628213Y71084678D01*
X62660894Y71079645D01*
X62678931Y71073173D01*
X62686278Y71065084D01*
X62687200Y71059399D01*
X62691621Y71033610D01*
X62704393Y70969851D01*
X62724782Y70871501D01*
X62752056Y70741935D01*
X62785479Y70584532D01*
X62824318Y70402668D01*
X62867839Y70199722D01*
X62915308Y69979070D01*
X62965992Y69744090D01*
X63019156Y69498160D01*
X63074067Y69244656D01*
X63129990Y68986956D01*
X63186192Y68728437D01*
X63241939Y68472477D01*
X63296497Y68222453D01*
X63349132Y67981742D01*
X63399110Y67753721D01*
X63445698Y67541769D01*
X63488161Y67349262D01*
X63525765Y67179578D01*
X63557778Y67036094D01*
X63583464Y66922188D01*
X63602090Y66841236D01*
X63612922Y66796616D01*
X63615104Y66789176D01*
X63623707Y66783501D01*
X63640859Y66793156D01*
X63668814Y66820940D01*
X63709829Y66869654D01*
X63766156Y66942095D01*
X63840052Y67041064D01*
X63933771Y67169360D01*
X64041339Y67318343D01*
X64142862Y67459178D01*
X64239396Y67592562D01*
X64327410Y67713656D01*
X64403375Y67817626D01*
X64463763Y67899634D01*
X64505044Y67954843D01*
X64518732Y67972544D01*
X64586406Y68057237D01*
X63630248Y72385767D01*
X60785035Y72385767D01*
X60711775Y72295808D01*
X60711775Y72295808D01*
G37*
X60711775Y72295808D02*
X60549017Y72073627D01*
X60393388Y71818173D01*
X60248978Y71538395D01*
X60119878Y71243245D01*
X60010178Y70941673D01*
X59923968Y70642630D01*
X59891992Y70501933D01*
X59865984Y70354737D01*
X59853159Y70220880D01*
X59853915Y70088731D01*
X59868648Y69946660D01*
X59897755Y69783036D01*
X59920074Y69679471D01*
X59988450Y69375591D01*
X61459534Y68575756D01*
X61689929Y68450600D01*
X61909400Y68331594D01*
X62115134Y68220251D01*
X62304319Y68118082D01*
X62474142Y68026600D01*
X62621791Y67947315D01*
X62744454Y67881741D01*
X62839319Y67831389D01*
X62903573Y67797771D01*
X62934403Y67782399D01*
X62936766Y67781590D01*
X62933555Y67802390D01*
X62922459Y67859075D01*
X62904652Y67946174D01*
X62881309Y68058220D01*
X62853604Y68189743D01*
X62822712Y68335275D01*
X62789808Y68489347D01*
X62756066Y68646490D01*
X62722660Y68801236D01*
X62690766Y68948115D01*
X62661557Y69081660D01*
X62636209Y69196401D01*
X62615897Y69286869D01*
X62601793Y69347596D01*
X62595074Y69373113D01*
X62594846Y69373526D01*
X62576182Y69384504D01*
X62524929Y69413860D01*
X62445363Y69459164D01*
X62341760Y69517989D01*
X62218398Y69587903D01*
X62079554Y69666480D01*
X61967052Y69730076D01*
X61818591Y69814145D01*
X61681770Y69891976D01*
X61560991Y69961037D01*
X61460655Y70018797D01*
X61385165Y70062724D01*
X61338923Y70090288D01*
X61326134Y70098650D01*
X61317659Y70122892D01*
X61302639Y70182427D01*
X61282401Y70270952D01*
X61258270Y70382165D01*
X61231574Y70509763D01*
X61203636Y70647445D01*
X61175785Y70788906D01*
X61149345Y70927846D01*
X61133290Y71015225D01*
X61118949Y71094600D01*
X61903075Y71094600D01*
X62106690Y71094473D01*
X62271928Y71093971D01*
X62402744Y71092919D01*
X62503093Y71091137D01*
X62576931Y71088450D01*
X62628213Y71084678D01*
X62660894Y71079645D01*
X62678931Y71073173D01*
X62686278Y71065084D01*
X62687200Y71059399D01*
X62691621Y71033610D01*
X62704393Y70969851D01*
X62724782Y70871501D01*
X62752056Y70741935D01*
X62785479Y70584532D01*
X62824318Y70402668D01*
X62867839Y70199722D01*
X62915308Y69979070D01*
X62965992Y69744090D01*
X63019156Y69498160D01*
X63074067Y69244656D01*
X63129990Y68986956D01*
X63186192Y68728437D01*
X63241939Y68472477D01*
X63296497Y68222453D01*
X63349132Y67981742D01*
X63399110Y67753721D01*
X63445698Y67541769D01*
X63488161Y67349262D01*
X63525765Y67179578D01*
X63557778Y67036094D01*
X63583464Y66922188D01*
X63602090Y66841236D01*
X63612922Y66796616D01*
X63615104Y66789176D01*
X63623707Y66783501D01*
X63640859Y66793156D01*
X63668814Y66820940D01*
X63709829Y66869654D01*
X63766156Y66942095D01*
X63840052Y67041064D01*
X63933771Y67169360D01*
X64041339Y67318343D01*
X64142862Y67459178D01*
X64239396Y67592562D01*
X64327410Y67713656D01*
X64403375Y67817626D01*
X64463763Y67899634D01*
X64505044Y67954843D01*
X64518732Y67972544D01*
X64586406Y68057237D01*
X63630248Y72385767D01*
X60785035Y72385767D01*
X60711775Y72295808D01*
G36*
X37287955Y36726225D02*
X37123215Y36714561D01*
X36500059Y36631702D01*
X35905016Y36491912D01*
X35337763Y36295039D01*
X34797975Y36040926D01*
X34285328Y35729419D01*
X33799498Y35360365D01*
X33340160Y34933609D01*
X33302575Y34894926D01*
X33014491Y34578456D01*
X32769078Y34267268D01*
X32551492Y33940427D01*
X32346890Y33576997D01*
X32291477Y33468950D01*
X32038972Y32899718D01*
X31848668Y32319043D01*
X31720727Y31729028D01*
X31655311Y31131781D01*
X31652584Y30529404D01*
X31712707Y29924004D01*
X31835845Y29317686D01*
X31942126Y28947794D01*
X32152368Y28392877D01*
X32418623Y27863950D01*
X32737404Y27364823D01*
X33105224Y26899308D01*
X33518594Y26471216D01*
X33974027Y26084358D01*
X34468037Y25742545D01*
X34997134Y25449588D01*
X35250222Y25332768D01*
X35488269Y25237262D01*
X35679848Y25178737D01*
X35829970Y25156995D01*
X35943645Y25171840D01*
X36025883Y25223074D01*
X36077193Y25300208D01*
X36089043Y25360542D01*
X36098482Y25484102D01*
X36105504Y25670659D01*
X36110102Y25919985D01*
X36112267Y26231852D01*
X36112450Y26369549D01*
X36113118Y26670455D01*
X36115314Y26914993D01*
X36119325Y27110279D01*
X36125440Y27263433D01*
X36133946Y27381573D01*
X36145131Y27471818D01*
X36159282Y27541287D01*
X36159924Y27543773D01*
X36233770Y27765828D01*
X36328556Y27954768D01*
X36421133Y28078808D01*
X36500579Y28163641D01*
X36346202Y28185461D01*
X35890203Y28269006D01*
X35486516Y28384047D01*
X35131443Y28532158D01*
X34821289Y28714917D01*
X34552354Y28933898D01*
X34522777Y28962586D01*
X34400331Y29089041D01*
X34307130Y29201927D01*
X34227663Y29323103D01*
X34146423Y29474430D01*
X34115930Y29536043D01*
X34011907Y29765019D01*
X33933445Y29979579D01*
X33877465Y30194892D01*
X33840890Y30426125D01*
X33820641Y30688447D01*
X33813640Y30997024D01*
X33813557Y31026100D01*
X33813844Y31231195D01*
X33816372Y31386137D01*
X33822530Y31504270D01*
X33833708Y31598934D01*
X33851293Y31683472D01*
X33876674Y31771227D01*
X33897813Y31835725D01*
X34017893Y32126631D01*
X34175533Y32407372D01*
X34303291Y32586383D01*
X34359311Y32664417D01*
X34378680Y32723838D01*
X34368807Y32791762D01*
X34364010Y32808633D01*
X34309348Y33079480D01*
X34291909Y33379737D01*
X34311094Y33687808D01*
X34366302Y33982097D01*
X34399774Y34095454D01*
X34437383Y34202734D01*
X34467826Y34262906D01*
X34502658Y34289542D01*
X34553434Y34296212D01*
X34570831Y34296351D01*
X34783811Y34274634D01*
X35030956Y34212089D01*
X35301363Y34112621D01*
X35584131Y33980137D01*
X35817414Y33849701D01*
X36094277Y33683072D01*
X36445579Y33752478D01*
X37023604Y33835357D01*
X37618169Y33860149D01*
X38220680Y33827082D01*
X38822545Y33736383D01*
X39065200Y33683054D01*
X39097231Y33696737D01*
X39172013Y33736763D01*
X39277901Y33796711D01*
X39385899Y33859858D01*
X39648340Y34003346D01*
X39906550Y34121929D01*
X40150631Y34212196D01*
X40370684Y34270737D01*
X40556812Y34294143D01*
X40637868Y34291187D01*
X40685416Y34281597D01*
X40719740Y34257256D01*
X40749041Y34205402D01*
X40781522Y34113274D01*
X40808009Y34026475D01*
X40849267Y33842589D01*
X40875890Y33627653D01*
X40887455Y33400689D01*
X40883541Y33180720D01*
X40863727Y32986766D01*
X40833929Y32856139D01*
X40783794Y32701803D01*
X40913773Y32538639D01*
X41041948Y32349125D01*
X41161197Y32120500D01*
X41260381Y31877113D01*
X41328362Y31643316D01*
X41332739Y31622752D01*
X41364830Y31397414D01*
X41379683Y31132565D01*
X41377271Y30849817D01*
X41357567Y30570781D01*
X41334209Y30393752D01*
X41249021Y30000589D01*
X41127049Y29654269D01*
X40964825Y29347578D01*
X40758884Y29073303D01*
X40638853Y28946475D01*
X40365439Y28717302D01*
X40050355Y28527928D01*
X39690284Y28376831D01*
X39281907Y28262488D01*
X39049325Y28217044D01*
X38915483Y28193528D01*
X38807397Y28173092D01*
X38738809Y28158421D01*
X38721716Y28153081D01*
X38733678Y28124734D01*
X38775126Y28061995D01*
X38818812Y28002644D01*
X38889742Y27889200D01*
X38954103Y27752373D01*
X38981883Y27674086D01*
X39016671Y27561002D01*
X39048708Y27463602D01*
X39066099Y27415788D01*
X39122515Y27354222D01*
X39232129Y27302611D01*
X39385063Y27263596D01*
X39571437Y27239817D01*
X39747825Y27233554D01*
X39898830Y27237002D01*
X40009325Y27248910D01*
X40102162Y27273571D01*
X40200194Y27315274D01*
X40211159Y27320544D01*
X40407112Y27446083D01*
X40600504Y27630094D01*
X40786229Y27867600D01*
X40812576Y27906723D01*
X40985150Y28123596D01*
X41181094Y28291390D01*
X41393656Y28405847D01*
X41616084Y28462712D01*
X41703422Y28468353D01*
X41849280Y28458286D01*
X41936376Y28425066D01*
X41964670Y28369710D01*
X41934122Y28293231D01*
X41844692Y28196647D01*
X41718172Y28096488D01*
X41566512Y27976467D01*
X41439286Y27848043D01*
X41325191Y27696871D01*
X41212927Y27508609D01*
X41132209Y27352776D01*
X41027115Y27152653D01*
X40931713Y26999817D01*
X40835698Y26881285D01*
X40728765Y26784074D01*
X40620014Y26707500D01*
X40383031Y26587667D01*
X40110769Y26510943D01*
X39799274Y26476689D01*
X39444589Y26484268D01*
X39311263Y26496497D01*
X39065200Y26523018D01*
X39065200Y25935370D01*
X39065413Y25728815D01*
X39066845Y25575814D01*
X39070689Y25466422D01*
X39078139Y25390693D01*
X39090387Y25338682D01*
X39108627Y25300442D01*
X39134050Y25266028D01*
X39147398Y25250037D01*
X39219239Y25186957D01*
X39307560Y25156212D01*
X39421293Y25158164D01*
X39569372Y25193179D01*
X39760730Y25261619D01*
X39798058Y25276544D01*
X40329214Y25519643D01*
X40819590Y25804488D01*
X41280416Y26138329D01*
X41693903Y26500648D01*
X42109687Y26938646D01*
X42473067Y27408776D01*
X42783641Y27906733D01*
X43041009Y28428208D01*
X43244770Y28968896D01*
X43394524Y29524489D01*
X43489869Y30090680D01*
X43530406Y30663164D01*
X43515733Y31237632D01*
X43445450Y31809778D01*
X43319156Y32375296D01*
X43136451Y32929878D01*
X42896933Y33469218D01*
X42600202Y33989009D01*
X42415831Y34260338D01*
X42038686Y34731103D01*
X41619496Y35157570D01*
X41162724Y35537670D01*
X40672833Y35869332D01*
X40154287Y36150488D01*
X39611550Y36379068D01*
X39049084Y36553001D01*
X38471354Y36670218D01*
X37882823Y36728650D01*
X37287955Y36726225D01*
X37287955Y36726225D01*
G37*
X37287955Y36726225D02*
X37123215Y36714561D01*
X36500059Y36631702D01*
X35905016Y36491912D01*
X35337763Y36295039D01*
X34797975Y36040926D01*
X34285328Y35729419D01*
X33799498Y35360365D01*
X33340160Y34933609D01*
X33302575Y34894926D01*
X33014491Y34578456D01*
X32769078Y34267268D01*
X32551492Y33940427D01*
X32346890Y33576997D01*
X32291477Y33468950D01*
X32038972Y32899718D01*
X31848668Y32319043D01*
X31720727Y31729028D01*
X31655311Y31131781D01*
X31652584Y30529404D01*
X31712707Y29924004D01*
X31835845Y29317686D01*
X31942126Y28947794D01*
X32152368Y28392877D01*
X32418623Y27863950D01*
X32737404Y27364823D01*
X33105224Y26899308D01*
X33518594Y26471216D01*
X33974027Y26084358D01*
X34468037Y25742545D01*
X34997134Y25449588D01*
X35250222Y25332768D01*
X35488269Y25237262D01*
X35679848Y25178737D01*
X35829970Y25156995D01*
X35943645Y25171840D01*
X36025883Y25223074D01*
X36077193Y25300208D01*
X36089043Y25360542D01*
X36098482Y25484102D01*
X36105504Y25670659D01*
X36110102Y25919985D01*
X36112267Y26231852D01*
X36112450Y26369549D01*
X36113118Y26670455D01*
X36115314Y26914993D01*
X36119325Y27110279D01*
X36125440Y27263433D01*
X36133946Y27381573D01*
X36145131Y27471818D01*
X36159282Y27541287D01*
X36159924Y27543773D01*
X36233770Y27765828D01*
X36328556Y27954768D01*
X36421133Y28078808D01*
X36500579Y28163641D01*
X36346202Y28185461D01*
X35890203Y28269006D01*
X35486516Y28384047D01*
X35131443Y28532158D01*
X34821289Y28714917D01*
X34552354Y28933898D01*
X34522777Y28962586D01*
X34400331Y29089041D01*
X34307130Y29201927D01*
X34227663Y29323103D01*
X34146423Y29474430D01*
X34115930Y29536043D01*
X34011907Y29765019D01*
X33933445Y29979579D01*
X33877465Y30194892D01*
X33840890Y30426125D01*
X33820641Y30688447D01*
X33813640Y30997024D01*
X33813557Y31026100D01*
X33813844Y31231195D01*
X33816372Y31386137D01*
X33822530Y31504270D01*
X33833708Y31598934D01*
X33851293Y31683472D01*
X33876674Y31771227D01*
X33897813Y31835725D01*
X34017893Y32126631D01*
X34175533Y32407372D01*
X34303291Y32586383D01*
X34359311Y32664417D01*
X34378680Y32723838D01*
X34368807Y32791762D01*
X34364010Y32808633D01*
X34309348Y33079480D01*
X34291909Y33379737D01*
X34311094Y33687808D01*
X34366302Y33982097D01*
X34399774Y34095454D01*
X34437383Y34202734D01*
X34467826Y34262906D01*
X34502658Y34289542D01*
X34553434Y34296212D01*
X34570831Y34296351D01*
X34783811Y34274634D01*
X35030956Y34212089D01*
X35301363Y34112621D01*
X35584131Y33980137D01*
X35817414Y33849701D01*
X36094277Y33683072D01*
X36445579Y33752478D01*
X37023604Y33835357D01*
X37618169Y33860149D01*
X38220680Y33827082D01*
X38822545Y33736383D01*
X39065200Y33683054D01*
X39097231Y33696737D01*
X39172013Y33736763D01*
X39277901Y33796711D01*
X39385899Y33859858D01*
X39648340Y34003346D01*
X39906550Y34121929D01*
X40150631Y34212196D01*
X40370684Y34270737D01*
X40556812Y34294143D01*
X40637868Y34291187D01*
X40685416Y34281597D01*
X40719740Y34257256D01*
X40749041Y34205402D01*
X40781522Y34113274D01*
X40808009Y34026475D01*
X40849267Y33842589D01*
X40875890Y33627653D01*
X40887455Y33400689D01*
X40883541Y33180720D01*
X40863727Y32986766D01*
X40833929Y32856139D01*
X40783794Y32701803D01*
X40913773Y32538639D01*
X41041948Y32349125D01*
X41161197Y32120500D01*
X41260381Y31877113D01*
X41328362Y31643316D01*
X41332739Y31622752D01*
X41364830Y31397414D01*
X41379683Y31132565D01*
X41377271Y30849817D01*
X41357567Y30570781D01*
X41334209Y30393752D01*
X41249021Y30000589D01*
X41127049Y29654269D01*
X40964825Y29347578D01*
X40758884Y29073303D01*
X40638853Y28946475D01*
X40365439Y28717302D01*
X40050355Y28527928D01*
X39690284Y28376831D01*
X39281907Y28262488D01*
X39049325Y28217044D01*
X38915483Y28193528D01*
X38807397Y28173092D01*
X38738809Y28158421D01*
X38721716Y28153081D01*
X38733678Y28124734D01*
X38775126Y28061995D01*
X38818812Y28002644D01*
X38889742Y27889200D01*
X38954103Y27752373D01*
X38981883Y27674086D01*
X39016671Y27561002D01*
X39048708Y27463602D01*
X39066099Y27415788D01*
X39122515Y27354222D01*
X39232129Y27302611D01*
X39385063Y27263596D01*
X39571437Y27239817D01*
X39747825Y27233554D01*
X39898830Y27237002D01*
X40009325Y27248910D01*
X40102162Y27273571D01*
X40200194Y27315274D01*
X40211159Y27320544D01*
X40407112Y27446083D01*
X40600504Y27630094D01*
X40786229Y27867600D01*
X40812576Y27906723D01*
X40985150Y28123596D01*
X41181094Y28291390D01*
X41393656Y28405847D01*
X41616084Y28462712D01*
X41703422Y28468353D01*
X41849280Y28458286D01*
X41936376Y28425066D01*
X41964670Y28369710D01*
X41934122Y28293231D01*
X41844692Y28196647D01*
X41718172Y28096488D01*
X41566512Y27976467D01*
X41439286Y27848043D01*
X41325191Y27696871D01*
X41212927Y27508609D01*
X41132209Y27352776D01*
X41027115Y27152653D01*
X40931713Y26999817D01*
X40835698Y26881285D01*
X40728765Y26784074D01*
X40620014Y26707500D01*
X40383031Y26587667D01*
X40110769Y26510943D01*
X39799274Y26476689D01*
X39444589Y26484268D01*
X39311263Y26496497D01*
X39065200Y26523018D01*
X39065200Y25935370D01*
X39065413Y25728815D01*
X39066845Y25575814D01*
X39070689Y25466422D01*
X39078139Y25390693D01*
X39090387Y25338682D01*
X39108627Y25300442D01*
X39134050Y25266028D01*
X39147398Y25250037D01*
X39219239Y25186957D01*
X39307560Y25156212D01*
X39421293Y25158164D01*
X39569372Y25193179D01*
X39760730Y25261619D01*
X39798058Y25276544D01*
X40329214Y25519643D01*
X40819590Y25804488D01*
X41280416Y26138329D01*
X41693903Y26500648D01*
X42109687Y26938646D01*
X42473067Y27408776D01*
X42783641Y27906733D01*
X43041009Y28428208D01*
X43244770Y28968896D01*
X43394524Y29524489D01*
X43489869Y30090680D01*
X43530406Y30663164D01*
X43515733Y31237632D01*
X43445450Y31809778D01*
X43319156Y32375296D01*
X43136451Y32929878D01*
X42896933Y33469218D01*
X42600202Y33989009D01*
X42415831Y34260338D01*
X42038686Y34731103D01*
X41619496Y35157570D01*
X41162724Y35537670D01*
X40672833Y35869332D01*
X40154287Y36150488D01*
X39611550Y36379068D01*
X39049084Y36553001D01*
X38471354Y36670218D01*
X37882823Y36728650D01*
X37287955Y36726225D01*
G36*
X39623740Y27101700D02*
X39579128Y27064633D01*
X39585643Y27019565D01*
X39635375Y26981873D01*
X39692523Y26968026D01*
X39764368Y26967937D01*
X39792366Y26993017D01*
X39795450Y27021449D01*
X39768867Y27080999D01*
X39703629Y27110849D01*
X39623740Y27101700D01*
X39623740Y27101700D01*
G37*
X39623740Y27101700D02*
X39579128Y27064633D01*
X39585643Y27019565D01*
X39635375Y26981873D01*
X39692523Y26968026D01*
X39764368Y26967937D01*
X39792366Y26993017D01*
X39795450Y27021449D01*
X39768867Y27080999D01*
X39703629Y27110849D01*
X39623740Y27101700D01*
G36*
X39160450Y27152600D02*
X39107635Y27119018D01*
X39107204Y27087738D01*
X39146843Y27043743D01*
X39216968Y27000272D01*
X39300135Y27010593D01*
X39311263Y27014878D01*
X39348166Y27054542D01*
X39336596Y27108833D01*
X39287450Y27152600D01*
X39206261Y27169216D01*
X39160450Y27152600D01*
X39160450Y27152600D01*
G37*
X39160450Y27152600D02*
X39107635Y27119018D01*
X39107204Y27087738D01*
X39146843Y27043743D01*
X39216968Y27000272D01*
X39300135Y27010593D01*
X39311263Y27014878D01*
X39348166Y27054542D01*
X39336596Y27108833D01*
X39287450Y27152600D01*
X39206261Y27169216D01*
X39160450Y27152600D01*
G36*
X40122193Y27165880D02*
X40071091Y27122168D01*
X40059178Y27070764D01*
X40064466Y27058741D01*
X40114195Y27029921D01*
X40188247Y27030247D01*
X40255590Y27057748D01*
X40270546Y27071835D01*
X40293394Y27130663D01*
X40260548Y27171685D01*
X40194339Y27184350D01*
X40122193Y27165880D01*
X40122193Y27165880D01*
G37*
X40122193Y27165880D02*
X40071091Y27122168D01*
X40059178Y27070764D01*
X40064466Y27058741D01*
X40114195Y27029921D01*
X40188247Y27030247D01*
X40255590Y27057748D01*
X40270546Y27071835D01*
X40293394Y27130663D01*
X40260548Y27171685D01*
X40194339Y27184350D01*
X40122193Y27165880D01*
G36*
X40565691Y27416786D02*
X40511651Y27366589D01*
X40479397Y27309499D01*
X40481273Y27274426D01*
X40528129Y27249835D01*
X40596135Y27256799D01*
X40646350Y27285950D01*
X40681826Y27348388D01*
X40676667Y27406507D01*
X40634417Y27437435D01*
X40622751Y27438350D01*
X40565691Y27416786D01*
X40565691Y27416786D01*
G37*
X40565691Y27416786D02*
X40511651Y27366589D01*
X40479397Y27309499D01*
X40481273Y27274426D01*
X40528129Y27249835D01*
X40596135Y27256799D01*
X40646350Y27285950D01*
X40681826Y27348388D01*
X40676667Y27406507D01*
X40634417Y27437435D01*
X40622751Y27438350D01*
X40565691Y27416786D01*
G36*
X40842552Y27762057D02*
X40802430Y27704770D01*
X40790222Y27644755D01*
X40795981Y27628194D01*
X40844775Y27598617D01*
X40907734Y27616780D01*
X40938115Y27644321D01*
X40962084Y27707244D01*
X40943945Y27763649D01*
X40892939Y27787600D01*
X40842552Y27762057D01*
X40842552Y27762057D01*
G37*
X40842552Y27762057D02*
X40802430Y27704770D01*
X40790222Y27644755D01*
X40795981Y27628194D01*
X40844775Y27598617D01*
X40907734Y27616780D01*
X40938115Y27644321D01*
X40962084Y27707244D01*
X40943945Y27763649D01*
X40892939Y27787600D01*
X40842552Y27762057D01*
G36*
X41095028Y28074572D02*
X41051957Y28037403D01*
X41039723Y27986527D01*
X41071650Y27931758D01*
X41124045Y27931294D01*
X41159487Y27960764D01*
X41184432Y28023890D01*
X41180599Y28058440D01*
X41145693Y28085558D01*
X41095028Y28074572D01*
X41095028Y28074572D01*
G37*
X41095028Y28074572D02*
X41051957Y28037403D01*
X41039723Y27986527D01*
X41071650Y27931758D01*
X41124045Y27931294D01*
X41159487Y27960764D01*
X41184432Y28023890D01*
X41180599Y28058440D01*
X41145693Y28085558D01*
X41095028Y28074572D01*
G36*
X41300345Y28252579D02*
X41300760Y28204980D01*
X41301866Y28203117D01*
X41345946Y28170474D01*
X41400222Y28200082D01*
X41414389Y28215850D01*
X41435554Y28257635D01*
X41401238Y28283191D01*
X41400267Y28283566D01*
X41340770Y28284706D01*
X41300345Y28252579D01*
X41300345Y28252579D01*
G37*
X41300345Y28252579D02*
X41300760Y28204980D01*
X41301866Y28203117D01*
X41345946Y28170474D01*
X41400222Y28200082D01*
X41414389Y28215850D01*
X41435554Y28257635D01*
X41401238Y28283191D01*
X41400267Y28283566D01*
X41340770Y28284706D01*
X41300345Y28252579D01*
D14*
X28638476Y59386719D02*
X29114667Y59386719D01*
X29162286Y58910529D01*
X29114667Y58958148D01*
X29019429Y59005767D01*
X28781333Y59005767D01*
X28686095Y58958148D01*
X28638476Y58910529D01*
X28590857Y58815290D01*
X28590857Y58577195D01*
X28638476Y58481957D01*
X28686095Y58434338D01*
X28781333Y58386719D01*
X29019429Y58386719D01*
X29114667Y58434338D01*
X29162286Y58481957D01*
X28305143Y59386719D02*
X27971810Y58386719D01*
X27638476Y59386719D01*
X22717047Y58386719D02*
X23288476Y58386719D01*
X23002762Y58386719D02*
X23002762Y59386719D01*
X23098000Y59243862D01*
X23193238Y59148624D01*
X23288476Y59101005D01*
X22336095Y59291481D02*
X22288476Y59339100D01*
X22193238Y59386719D01*
X21955142Y59386719D01*
X21859904Y59339100D01*
X21812285Y59291481D01*
X21764666Y59196243D01*
X21764666Y59101005D01*
X21812285Y58958148D01*
X22383714Y58386719D01*
X21764666Y58386719D01*
X21478952Y59386719D02*
X21145619Y58386719D01*
X20812285Y59386719D01*
X28638476Y38685719D02*
X29114667Y38685719D01*
X29162286Y38209529D01*
X29114667Y38257148D01*
X29019429Y38304767D01*
X28781333Y38304767D01*
X28686095Y38257148D01*
X28638476Y38209529D01*
X28590857Y38114290D01*
X28590857Y37876195D01*
X28638476Y37780957D01*
X28686095Y37733338D01*
X28781333Y37685719D01*
X29019429Y37685719D01*
X29114667Y37733338D01*
X29162286Y37780957D01*
X28305143Y38685719D02*
X27971810Y37685719D01*
X27638476Y38685719D01*
X22717047Y37685719D02*
X23288476Y37685719D01*
X23002762Y37685719D02*
X23002762Y38685719D01*
X23098000Y38542862D01*
X23193238Y38447624D01*
X23288476Y38400005D01*
X22336095Y38590481D02*
X22288476Y38638100D01*
X22193238Y38685719D01*
X21955142Y38685719D01*
X21859904Y38638100D01*
X21812285Y38590481D01*
X21764666Y38495243D01*
X21764666Y38400005D01*
X21812285Y38257148D01*
X22383714Y37685719D01*
X21764666Y37685719D01*
X21478952Y38685719D02*
X21145619Y37685719D01*
X20812285Y38685719D01*
X47180476Y3506719D02*
X47656667Y3506719D01*
X47704286Y3030529D01*
X47656667Y3078148D01*
X47561429Y3125767D01*
X47323333Y3125767D01*
X47228095Y3078148D01*
X47180476Y3030529D01*
X47132857Y2935290D01*
X47132857Y2697195D01*
X47180476Y2601957D01*
X47228095Y2554338D01*
X47323333Y2506719D01*
X47561429Y2506719D01*
X47656667Y2554338D01*
X47704286Y2601957D01*
X46847143Y3506719D02*
X46513810Y2506719D01*
X46180476Y3506719D01*
X53959047Y2506719D02*
X54530476Y2506719D01*
X54244762Y2506719D02*
X54244762Y3506719D01*
X54340000Y3363862D01*
X54435238Y3268624D01*
X54530476Y3221005D01*
X53578095Y3411481D02*
X53530476Y3459100D01*
X53435238Y3506719D01*
X53197142Y3506719D01*
X53101904Y3459100D01*
X53054285Y3411481D01*
X53006666Y3316243D01*
X53006666Y3221005D01*
X53054285Y3078148D01*
X53625714Y2506719D01*
X53006666Y2506719D01*
X52720952Y3506719D02*
X52387619Y2506719D01*
X52054285Y3506719D01*
X46926476Y25477719D02*
X47402667Y25477719D01*
X47450286Y25001529D01*
X47402667Y25049148D01*
X47307429Y25096767D01*
X47069333Y25096767D01*
X46974095Y25049148D01*
X46926476Y25001529D01*
X46878857Y24906290D01*
X46878857Y24668195D01*
X46926476Y24572957D01*
X46974095Y24525338D01*
X47069333Y24477719D01*
X47307429Y24477719D01*
X47402667Y24525338D01*
X47450286Y24572957D01*
X46593143Y25477719D02*
X46259810Y24477719D01*
X45926476Y25477719D01*
X53705047Y24477719D02*
X54276476Y24477719D01*
X53990762Y24477719D02*
X53990762Y25477719D01*
X54086000Y25334862D01*
X54181238Y25239624D01*
X54276476Y25192005D01*
X53324095Y25382481D02*
X53276476Y25430100D01*
X53181238Y25477719D01*
X52943142Y25477719D01*
X52847904Y25430100D01*
X52800285Y25382481D01*
X52752666Y25287243D01*
X52752666Y25192005D01*
X52800285Y25049148D01*
X53371714Y24477719D01*
X52752666Y24477719D01*
X52466952Y25477719D02*
X52133619Y24477719D01*
X51800285Y25477719D01*
X47358276Y72442319D02*
X47834467Y72442319D01*
X47882086Y71966129D01*
X47834467Y72013748D01*
X47739229Y72061367D01*
X47501133Y72061367D01*
X47405895Y72013748D01*
X47358276Y71966129D01*
X47310657Y71870890D01*
X47310657Y71632795D01*
X47358276Y71537557D01*
X47405895Y71489938D01*
X47501133Y71442319D01*
X47739229Y71442319D01*
X47834467Y71489938D01*
X47882086Y71537557D01*
X47024943Y72442319D02*
X46691610Y71442319D01*
X46358276Y72442319D01*
X54136847Y71442319D02*
X54708276Y71442319D01*
X54422562Y71442319D02*
X54422562Y72442319D01*
X54517800Y72299462D01*
X54613038Y72204224D01*
X54708276Y72156605D01*
X53755895Y72347081D02*
X53708276Y72394700D01*
X53613038Y72442319D01*
X53374942Y72442319D01*
X53279704Y72394700D01*
X53232085Y72347081D01*
X53184466Y72251843D01*
X53184466Y72156605D01*
X53232085Y72013748D01*
X53803514Y71442319D01*
X53184466Y71442319D01*
X52898752Y72442319D02*
X52565419Y71442319D01*
X52232085Y72442319D01*
X28511476Y18238719D02*
X28987667Y18238719D01*
X29035286Y17762529D01*
X28987667Y17810148D01*
X28892429Y17857767D01*
X28654333Y17857767D01*
X28559095Y17810148D01*
X28511476Y17762529D01*
X28463857Y17667290D01*
X28463857Y17429195D01*
X28511476Y17333957D01*
X28559095Y17286338D01*
X28654333Y17238719D01*
X28892429Y17238719D01*
X28987667Y17286338D01*
X29035286Y17333957D01*
X28178143Y18238719D02*
X27844810Y17238719D01*
X27511476Y18238719D01*
X22590047Y17238719D02*
X23161476Y17238719D01*
X22875762Y17238719D02*
X22875762Y18238719D01*
X22971000Y18095862D01*
X23066238Y18000624D01*
X23161476Y17953005D01*
X22209095Y18143481D02*
X22161476Y18191100D01*
X22066238Y18238719D01*
X21828142Y18238719D01*
X21732904Y18191100D01*
X21685285Y18143481D01*
X21637666Y18048243D01*
X21637666Y17953005D01*
X21685285Y17810148D01*
X22256714Y17238719D01*
X21637666Y17238719D01*
X21351952Y18238719D02*
X21018619Y17238719D01*
X20685285Y18238719D01*
M02*
