M48
;DRILL file {KiCad 4.0.6+dfsg1-1} date Mon Feb 26 15:32:40 2018
;FORMAT={2:4/ absolute / inch / suppress leading zeros}
FMAT,2
INCH,TZ
T1C0.016
T2C0.020
T3C0.030
T4C0.031
T5C0.039
T6C0.051
T7C0.126
%
G90
G05
M72
T1
X9280Y10285
X10720Y2705
X10834Y29425
X15650Y7835
X15705Y8765
X16290Y19425
X16330Y18465
X16330Y12335
X17805Y9940
X17930Y16865
X18030Y12865
X19340Y22085
X19800Y32265
X20440Y14535
X20570Y31775
X23505Y15940
X25680Y15785
T2
X1785Y20165
X1785Y12165
X1785Y4165
X2062Y20833
X2062Y19497
X2062Y12833
X2062Y11497
X2062Y4833
X2062Y3497
X2730Y21110
X2730Y19220
X2730Y13110
X2730Y11220
X2730Y5110
X2730Y3220
X3255Y29875
X3398Y20833
X3398Y19497
X3398Y12833
X3398Y11497
X3398Y4833
X3398Y3497
X3532Y30543
X3532Y29207
X3675Y20165
X3675Y12165
X3675Y4165
X4200Y30820
X4200Y28930
X4868Y30543
X4868Y29207
X5145Y29875
X26785Y31165
X26785Y21165
X26785Y12165
X26785Y4165
X27062Y31833
X27062Y30497
X27062Y21833
X27062Y20497
X27062Y12833
X27062Y11497
X27062Y4833
X27062Y3497
X27730Y32110
X27730Y30220
X27730Y22110
X27730Y20220
X27730Y13110
X27730Y11220
X27730Y5110
X27730Y3220
X28398Y31833
X28398Y30497
X28398Y21833
X28398Y20497
X28398Y12833
X28398Y11497
X28398Y4833
X28398Y3497
X28675Y31165
X28675Y21165
X28675Y12165
X28675Y4165
T3
X650Y7565
X650Y565
X700Y23765
X700Y16765
X700Y15615
X700Y8615
X7150Y565
X7200Y16765
X7200Y8615
X8150Y7565
X8150Y565
X8200Y23765
X8200Y16765
X8200Y15615
X8200Y8615
X9150Y7565
X9150Y565
X9200Y23765
X9200Y16765
X9200Y15615
X9200Y8615
X10150Y565
X10200Y16765
X10200Y8615
X10650Y7565
X10700Y23765
X10700Y15615
X11650Y7565
X11650Y565
X11700Y23765
X11700Y16765
X11700Y15615
X11700Y8615
X17900Y16215
X17900Y9215
X18000Y7565
X18000Y565
X18070Y34705
X18070Y27705
X18900Y9215
X19000Y565
X19070Y27705
X19400Y16215
X19500Y7565
X19570Y34705
X20400Y16215
X20400Y9215
X20500Y7565
X20500Y565
X20570Y34705
X20570Y27705
X21400Y16215
X21400Y9215
X21500Y7565
X21500Y565
X21570Y34705
X21570Y27705
X22400Y16215
X22500Y7565
X22570Y34705
X28900Y16215
X28900Y9215
X29000Y7565
X29000Y565
X29070Y34705
X29070Y27705
T4
X6716Y28035
X7700Y28035
X9620Y33499
X9620Y32515
X13830Y23765
X13830Y17765
X14590Y28519
X14590Y27535
X14830Y23765
X14830Y17765
X15830Y23765
X15830Y17765
X16830Y23765
X16830Y17765
X17830Y23765
X17830Y17765
X18830Y23765
X18830Y17765
X19830Y23765
X19830Y17765
X20830Y23765
X20830Y17765
X21830Y23765
X21830Y17765
X22830Y23765
X22830Y17765
X23830Y23765
X23830Y17765
X24830Y23765
X24830Y17765
X25830Y23765
X25830Y17765
X26830Y23765
X26830Y17765
X27830Y23765
X27830Y17765
T5
X13455Y15365
X13830Y34665
X13830Y33665
X13830Y32565
X13830Y31565
X13830Y30365
X14455Y15365
X14830Y34665
X14830Y33665
X14830Y32565
X14830Y31565
X14830Y30365
X15455Y15365
X15830Y34665
X15830Y33665
X15830Y32565
X15830Y31565
X15830Y30365
X16830Y34665
X16830Y33665
X16830Y32565
X16830Y31565
X16830Y30365
X17800Y25055
X18800Y25055
T6
X1950Y34175
X1950Y32206
X1960Y27575
X1960Y25606
T7
X2730Y20165
X2730Y12165
X2730Y4165
X4200Y29875
X27730Y31165
X27730Y21165
X27730Y12165
X27730Y4165
T0
M30
