G04 #@! TF.FileFunction,Legend,Top*
%FSLAX46Y46*%
G04 Gerber Fmt 4.6, Leading zero omitted, Abs format (unit mm)*
G04 Created by KiCad (PCBNEW 4.0.6+dfsg1-1) date Mon Feb 26 15:31:38 2018*
%MOMM*%
%LPD*%
G01*
G04 APERTURE LIST*
%ADD10C,0.100000*%
%ADD11C,0.500000*%
%ADD12C,0.200000*%
%ADD13C,0.250000*%
%ADD14C,0.225000*%
%ADD15C,0.300000*%
%ADD16C,0.150000*%
%ADD17C,0.120000*%
%ADD18C,0.010000*%
G04 APERTURE END LIST*
D10*
D11*
X44786043Y54589157D02*
X44786043Y52160586D01*
X44928900Y51874871D01*
X45071757Y51732014D01*
X45357471Y51589157D01*
X45928900Y51589157D01*
X46214614Y51732014D01*
X46357471Y51874871D01*
X46500328Y52160586D01*
X46500328Y54589157D01*
X47786043Y51732014D02*
X48214614Y51589157D01*
X48928900Y51589157D01*
X49214614Y51732014D01*
X49357471Y51874871D01*
X49500328Y52160586D01*
X49500328Y52446300D01*
X49357471Y52732014D01*
X49214614Y52874871D01*
X48928900Y53017729D01*
X48357471Y53160586D01*
X48071757Y53303443D01*
X47928900Y53446300D01*
X47786043Y53732014D01*
X47786043Y54017729D01*
X47928900Y54303443D01*
X48071757Y54446300D01*
X48357471Y54589157D01*
X49071757Y54589157D01*
X49500328Y54446300D01*
X51786043Y53160586D02*
X52214614Y53017729D01*
X52357471Y52874871D01*
X52500328Y52589157D01*
X52500328Y52160586D01*
X52357471Y51874871D01*
X52214614Y51732014D01*
X51928900Y51589157D01*
X50786043Y51589157D01*
X50786043Y54589157D01*
X51786043Y54589157D01*
X52071757Y54446300D01*
X52214614Y54303443D01*
X52357471Y54017729D01*
X52357471Y53732014D01*
X52214614Y53446300D01*
X52071757Y53303443D01*
X51786043Y53160586D01*
X50786043Y53160586D01*
X56071757Y52732014D02*
X58357471Y52732014D01*
X59786043Y53589157D02*
X62071757Y52732014D01*
X59786043Y51874871D01*
D12*
X74803000Y20586700D02*
X74853800Y20586700D01*
X74803000Y42379900D02*
X74803000Y20586700D01*
X74701400Y42481500D02*
X74803000Y42379900D01*
X74955400Y42481500D02*
X74701400Y42481500D01*
X74955400Y42430700D02*
X74955400Y42481500D01*
X74955400Y215900D02*
X74955400Y42430700D01*
X381000Y61633100D02*
X736600Y61633100D01*
X381000Y165100D02*
X381000Y61633100D01*
D13*
X49194295Y13628576D02*
X49480010Y13533338D01*
X49956200Y13533338D01*
X50146676Y13628576D01*
X50241914Y13723814D01*
X50337153Y13914290D01*
X50337153Y14104767D01*
X50241914Y14295243D01*
X50146676Y14390481D01*
X49956200Y14485719D01*
X49575248Y14580957D01*
X49384772Y14676195D01*
X49289533Y14771433D01*
X49194295Y14961910D01*
X49194295Y15152386D01*
X49289533Y15342862D01*
X49384772Y15438100D01*
X49575248Y15533338D01*
X50051438Y15533338D01*
X50337153Y15438100D01*
X51194295Y13533338D02*
X51194295Y15533338D01*
X53194296Y15438100D02*
X53003819Y15533338D01*
X52718105Y15533338D01*
X52432391Y15438100D01*
X52241915Y15247624D01*
X52146676Y15057148D01*
X52051438Y14676195D01*
X52051438Y14390481D01*
X52146676Y14009529D01*
X52241915Y13819052D01*
X52432391Y13628576D01*
X52718105Y13533338D01*
X52908581Y13533338D01*
X53194296Y13628576D01*
X53289534Y13723814D01*
X53289534Y14390481D01*
X52908581Y14390481D01*
X55670486Y14295243D02*
X57194296Y14295243D01*
X59670486Y13533338D02*
X59670486Y15533338D01*
X60146677Y15533338D01*
X60432391Y15438100D01*
X60622867Y15247624D01*
X60718106Y15057148D01*
X60813344Y14676195D01*
X60813344Y14390481D01*
X60718106Y14009529D01*
X60622867Y13819052D01*
X60432391Y13628576D01*
X60146677Y13533338D01*
X59670486Y13533338D01*
X62527629Y15533338D02*
X62146677Y15533338D01*
X61956201Y15438100D01*
X61860963Y15342862D01*
X61670486Y15057148D01*
X61575248Y14676195D01*
X61575248Y13914290D01*
X61670486Y13723814D01*
X61765725Y13628576D01*
X61956201Y13533338D01*
X62337153Y13533338D01*
X62527629Y13628576D01*
X62622867Y13723814D01*
X62718106Y13914290D01*
X62718106Y14390481D01*
X62622867Y14580957D01*
X62527629Y14676195D01*
X62337153Y14771433D01*
X61956201Y14771433D01*
X61765725Y14676195D01*
X61670486Y14580957D01*
X61575248Y14390481D01*
X48956199Y10378576D02*
X49241914Y10283338D01*
X49718104Y10283338D01*
X49908580Y10378576D01*
X50003818Y10473814D01*
X50099057Y10664290D01*
X50099057Y10854767D01*
X50003818Y11045243D01*
X49908580Y11140481D01*
X49718104Y11235719D01*
X49337152Y11330957D01*
X49146676Y11426195D01*
X49051437Y11521433D01*
X48956199Y11711910D01*
X48956199Y11902386D01*
X49051437Y12092862D01*
X49146676Y12188100D01*
X49337152Y12283338D01*
X49813342Y12283338D01*
X50099057Y12188100D01*
X52003819Y10283338D02*
X50860961Y10283338D01*
X51432390Y10283338D02*
X51432390Y12283338D01*
X51241914Y11997624D01*
X51051438Y11807148D01*
X50860961Y11711910D01*
X55908581Y11045243D02*
X57432391Y11045243D01*
X59908581Y10283338D02*
X59908581Y12283338D01*
X60384772Y12283338D01*
X60670486Y12188100D01*
X60860962Y11997624D01*
X60956201Y11807148D01*
X61051439Y11426195D01*
X61051439Y11140481D01*
X60956201Y10759529D01*
X60860962Y10569052D01*
X60670486Y10378576D01*
X60384772Y10283338D01*
X59908581Y10283338D01*
X61718105Y12283338D02*
X63051439Y12283338D01*
X62194296Y10283338D01*
X48956199Y7128576D02*
X49241914Y7033338D01*
X49718104Y7033338D01*
X49908580Y7128576D01*
X50003818Y7223814D01*
X50099057Y7414290D01*
X50099057Y7604767D01*
X50003818Y7795243D01*
X49908580Y7890481D01*
X49718104Y7985719D01*
X49337152Y8080957D01*
X49146676Y8176195D01*
X49051437Y8271433D01*
X48956199Y8461910D01*
X48956199Y8652386D01*
X49051437Y8842862D01*
X49146676Y8938100D01*
X49337152Y9033338D01*
X49813342Y9033338D01*
X50099057Y8938100D01*
X50860961Y8842862D02*
X50956199Y8938100D01*
X51146676Y9033338D01*
X51622866Y9033338D01*
X51813342Y8938100D01*
X51908580Y8842862D01*
X52003819Y8652386D01*
X52003819Y8461910D01*
X51908580Y8176195D01*
X50765723Y7033338D01*
X52003819Y7033338D01*
X55908581Y7795243D02*
X57432391Y7795243D01*
X59908581Y7033338D02*
X59908581Y9033338D01*
X60384772Y9033338D01*
X60670486Y8938100D01*
X60860962Y8747624D01*
X60956201Y8557148D01*
X61051439Y8176195D01*
X61051439Y7890481D01*
X60956201Y7509529D01*
X60860962Y7319052D01*
X60670486Y7128576D01*
X60384772Y7033338D01*
X59908581Y7033338D01*
X62194296Y8176195D02*
X62003820Y8271433D01*
X61908581Y8366671D01*
X61813343Y8557148D01*
X61813343Y8652386D01*
X61908581Y8842862D01*
X62003820Y8938100D01*
X62194296Y9033338D01*
X62575248Y9033338D01*
X62765724Y8938100D01*
X62860962Y8842862D01*
X62956201Y8652386D01*
X62956201Y8557148D01*
X62860962Y8366671D01*
X62765724Y8271433D01*
X62575248Y8176195D01*
X62194296Y8176195D01*
X62003820Y8080957D01*
X61908581Y7985719D01*
X61813343Y7795243D01*
X61813343Y7414290D01*
X61908581Y7223814D01*
X62003820Y7128576D01*
X62194296Y7033338D01*
X62575248Y7033338D01*
X62765724Y7128576D01*
X62860962Y7223814D01*
X62956201Y7414290D01*
X62956201Y7795243D01*
X62860962Y7985719D01*
X62765724Y8080957D01*
X62575248Y8176195D01*
X48956199Y3878576D02*
X49241914Y3783338D01*
X49718104Y3783338D01*
X49908580Y3878576D01*
X50003818Y3973814D01*
X50099057Y4164290D01*
X50099057Y4354767D01*
X50003818Y4545243D01*
X49908580Y4640481D01*
X49718104Y4735719D01*
X49337152Y4830957D01*
X49146676Y4926195D01*
X49051437Y5021433D01*
X48956199Y5211910D01*
X48956199Y5402386D01*
X49051437Y5592862D01*
X49146676Y5688100D01*
X49337152Y5783338D01*
X49813342Y5783338D01*
X50099057Y5688100D01*
X50765723Y5783338D02*
X52003819Y5783338D01*
X51337152Y5021433D01*
X51622866Y5021433D01*
X51813342Y4926195D01*
X51908580Y4830957D01*
X52003819Y4640481D01*
X52003819Y4164290D01*
X51908580Y3973814D01*
X51813342Y3878576D01*
X51622866Y3783338D01*
X51051438Y3783338D01*
X50860961Y3878576D01*
X50765723Y3973814D01*
X55908581Y4545243D02*
X57432391Y4545243D01*
X59908581Y3783338D02*
X59908581Y5783338D01*
X60384772Y5783338D01*
X60670486Y5688100D01*
X60860962Y5497624D01*
X60956201Y5307148D01*
X61051439Y4926195D01*
X61051439Y4640481D01*
X60956201Y4259529D01*
X60860962Y4069052D01*
X60670486Y3878576D01*
X60384772Y3783338D01*
X59908581Y3783338D01*
X62003820Y3783338D02*
X62384772Y3783338D01*
X62575248Y3878576D01*
X62670486Y3973814D01*
X62860962Y4259529D01*
X62956201Y4640481D01*
X62956201Y5402386D01*
X62860962Y5592862D01*
X62765724Y5688100D01*
X62575248Y5783338D01*
X62194296Y5783338D01*
X62003820Y5688100D01*
X61908581Y5592862D01*
X61813343Y5402386D01*
X61813343Y4926195D01*
X61908581Y4735719D01*
X62003820Y4640481D01*
X62194296Y4545243D01*
X62575248Y4545243D01*
X62765724Y4640481D01*
X62860962Y4735719D01*
X62956201Y4926195D01*
X49511914Y35599576D02*
X49797629Y35504338D01*
X50273819Y35504338D01*
X50464295Y35599576D01*
X50559533Y35694814D01*
X50654772Y35885290D01*
X50654772Y36075767D01*
X50559533Y36266243D01*
X50464295Y36361481D01*
X50273819Y36456719D01*
X49892867Y36551957D01*
X49702391Y36647195D01*
X49607152Y36742433D01*
X49511914Y36932910D01*
X49511914Y37123386D01*
X49607152Y37313862D01*
X49702391Y37409100D01*
X49892867Y37504338D01*
X50369057Y37504338D01*
X50654772Y37409100D01*
X51511914Y35504338D02*
X51511914Y37504338D01*
X53511915Y37409100D02*
X53321438Y37504338D01*
X53035724Y37504338D01*
X52750010Y37409100D01*
X52559534Y37218624D01*
X52464295Y37028148D01*
X52369057Y36647195D01*
X52369057Y36361481D01*
X52464295Y35980529D01*
X52559534Y35790052D01*
X52750010Y35599576D01*
X53035724Y35504338D01*
X53226200Y35504338D01*
X53511915Y35599576D01*
X53607153Y35694814D01*
X53607153Y36361481D01*
X53226200Y36361481D01*
X55988105Y36266243D02*
X57511915Y36266243D01*
X59988105Y35504338D02*
X59988105Y37504338D01*
X60464296Y37504338D01*
X60750010Y37409100D01*
X60940486Y37218624D01*
X61035725Y37028148D01*
X61130963Y36647195D01*
X61130963Y36361481D01*
X61035725Y35980529D01*
X60940486Y35790052D01*
X60750010Y35599576D01*
X60464296Y35504338D01*
X59988105Y35504338D01*
X63035725Y35504338D02*
X61892867Y35504338D01*
X62464296Y35504338D02*
X62464296Y37504338D01*
X62273820Y37218624D01*
X62083344Y37028148D01*
X61892867Y36932910D01*
X64273820Y37504338D02*
X64464296Y37504338D01*
X64654772Y37409100D01*
X64750010Y37313862D01*
X64845248Y37123386D01*
X64940487Y36742433D01*
X64940487Y36266243D01*
X64845248Y35885290D01*
X64750010Y35694814D01*
X64654772Y35599576D01*
X64464296Y35504338D01*
X64273820Y35504338D01*
X64083344Y35599576D01*
X63988106Y35694814D01*
X63892867Y35885290D01*
X63797629Y36266243D01*
X63797629Y36742433D01*
X63892867Y37123386D01*
X63988106Y37313862D01*
X64083344Y37409100D01*
X64273820Y37504338D01*
X49273818Y32349576D02*
X49559533Y32254338D01*
X50035723Y32254338D01*
X50226199Y32349576D01*
X50321437Y32444814D01*
X50416676Y32635290D01*
X50416676Y32825767D01*
X50321437Y33016243D01*
X50226199Y33111481D01*
X50035723Y33206719D01*
X49654771Y33301957D01*
X49464295Y33397195D01*
X49369056Y33492433D01*
X49273818Y33682910D01*
X49273818Y33873386D01*
X49369056Y34063862D01*
X49464295Y34159100D01*
X49654771Y34254338D01*
X50130961Y34254338D01*
X50416676Y34159100D01*
X52321438Y32254338D02*
X51178580Y32254338D01*
X51750009Y32254338D02*
X51750009Y34254338D01*
X51559533Y33968624D01*
X51369057Y33778148D01*
X51178580Y33682910D01*
X56226200Y33016243D02*
X57750010Y33016243D01*
X60226200Y32254338D02*
X60226200Y34254338D01*
X60702391Y34254338D01*
X60988105Y34159100D01*
X61178581Y33968624D01*
X61273820Y33778148D01*
X61369058Y33397195D01*
X61369058Y33111481D01*
X61273820Y32730529D01*
X61178581Y32540052D01*
X60988105Y32349576D01*
X60702391Y32254338D01*
X60226200Y32254338D01*
X63273820Y32254338D02*
X62130962Y32254338D01*
X62702391Y32254338D02*
X62702391Y34254338D01*
X62511915Y33968624D01*
X62321439Y33778148D01*
X62130962Y33682910D01*
X65178582Y32254338D02*
X64035724Y32254338D01*
X64607153Y32254338D02*
X64607153Y34254338D01*
X64416677Y33968624D01*
X64226201Y33778148D01*
X64035724Y33682910D01*
X49273818Y29099576D02*
X49559533Y29004338D01*
X50035723Y29004338D01*
X50226199Y29099576D01*
X50321437Y29194814D01*
X50416676Y29385290D01*
X50416676Y29575767D01*
X50321437Y29766243D01*
X50226199Y29861481D01*
X50035723Y29956719D01*
X49654771Y30051957D01*
X49464295Y30147195D01*
X49369056Y30242433D01*
X49273818Y30432910D01*
X49273818Y30623386D01*
X49369056Y30813862D01*
X49464295Y30909100D01*
X49654771Y31004338D01*
X50130961Y31004338D01*
X50416676Y30909100D01*
X51178580Y30813862D02*
X51273818Y30909100D01*
X51464295Y31004338D01*
X51940485Y31004338D01*
X52130961Y30909100D01*
X52226199Y30813862D01*
X52321438Y30623386D01*
X52321438Y30432910D01*
X52226199Y30147195D01*
X51083342Y29004338D01*
X52321438Y29004338D01*
X56226200Y29766243D02*
X57750010Y29766243D01*
X60226200Y29004338D02*
X60226200Y31004338D01*
X60702391Y31004338D01*
X60988105Y30909100D01*
X61178581Y30718624D01*
X61273820Y30528148D01*
X61369058Y30147195D01*
X61369058Y29861481D01*
X61273820Y29480529D01*
X61178581Y29290052D01*
X60988105Y29099576D01*
X60702391Y29004338D01*
X60226200Y29004338D01*
X63273820Y29004338D02*
X62130962Y29004338D01*
X62702391Y29004338D02*
X62702391Y31004338D01*
X62511915Y30718624D01*
X62321439Y30528148D01*
X62130962Y30432910D01*
X64035724Y30813862D02*
X64130962Y30909100D01*
X64321439Y31004338D01*
X64797629Y31004338D01*
X64988105Y30909100D01*
X65083343Y30813862D01*
X65178582Y30623386D01*
X65178582Y30432910D01*
X65083343Y30147195D01*
X63940486Y29004338D01*
X65178582Y29004338D01*
X50369056Y25849576D02*
X50654771Y25754338D01*
X51130961Y25754338D01*
X51321437Y25849576D01*
X51416675Y25944814D01*
X51511914Y26135290D01*
X51511914Y26325767D01*
X51416675Y26516243D01*
X51321437Y26611481D01*
X51130961Y26706719D01*
X50750009Y26801957D01*
X50559533Y26897195D01*
X50464294Y26992433D01*
X50369056Y27182910D01*
X50369056Y27373386D01*
X50464294Y27563862D01*
X50559533Y27659100D01*
X50750009Y27754338D01*
X51226199Y27754338D01*
X51511914Y27659100D01*
X52178580Y27754338D02*
X53416676Y27754338D01*
X52750009Y26992433D01*
X53035723Y26992433D01*
X53226199Y26897195D01*
X53321437Y26801957D01*
X53416676Y26611481D01*
X53416676Y26135290D01*
X53321437Y25944814D01*
X53226199Y25849576D01*
X53035723Y25754338D01*
X52464295Y25754338D01*
X52273818Y25849576D01*
X52178580Y25944814D01*
X57321438Y26516243D02*
X58845248Y26516243D01*
X61226200Y26325767D02*
X62178581Y26325767D01*
X61035724Y25754338D02*
X61702391Y27754338D01*
X62369058Y25754338D01*
X63416677Y27754338D02*
X63607153Y27754338D01*
X63797629Y27659100D01*
X63892867Y27563862D01*
X63988105Y27373386D01*
X64083344Y26992433D01*
X64083344Y26516243D01*
X63988105Y26135290D01*
X63892867Y25944814D01*
X63797629Y25849576D01*
X63607153Y25754338D01*
X63416677Y25754338D01*
X63226201Y25849576D01*
X63130963Y25944814D01*
X63035724Y26135290D01*
X62940486Y26516243D01*
X62940486Y26992433D01*
X63035724Y27373386D01*
X63130963Y27563862D01*
X63226201Y27659100D01*
X63416677Y27754338D01*
X14539152Y10023576D02*
X14824867Y9928338D01*
X15301057Y9928338D01*
X15491533Y10023576D01*
X15586771Y10118814D01*
X15682010Y10309290D01*
X15682010Y10499767D01*
X15586771Y10690243D01*
X15491533Y10785481D01*
X15301057Y10880719D01*
X14920105Y10975957D01*
X14729629Y11071195D01*
X14634390Y11166433D01*
X14539152Y11356910D01*
X14539152Y11547386D01*
X14634390Y11737862D01*
X14729629Y11833100D01*
X14920105Y11928338D01*
X15396295Y11928338D01*
X15682010Y11833100D01*
X16539152Y9928338D02*
X16539152Y11928338D01*
X18539153Y11833100D02*
X18348676Y11928338D01*
X18062962Y11928338D01*
X17777248Y11833100D01*
X17586772Y11642624D01*
X17491533Y11452148D01*
X17396295Y11071195D01*
X17396295Y10785481D01*
X17491533Y10404529D01*
X17586772Y10214052D01*
X17777248Y10023576D01*
X18062962Y9928338D01*
X18253438Y9928338D01*
X18539153Y10023576D01*
X18634391Y10118814D01*
X18634391Y10785481D01*
X18253438Y10785481D01*
X21015343Y10690243D02*
X22539153Y10690243D01*
X24920105Y10499767D02*
X25872486Y10499767D01*
X24729629Y9928338D02*
X25396296Y11928338D01*
X26062963Y9928338D01*
X27586772Y11261671D02*
X27586772Y9928338D01*
X27110582Y12023576D02*
X26634391Y10595005D01*
X27872487Y10595005D01*
X14142295Y35726576D02*
X14428010Y35631338D01*
X14904200Y35631338D01*
X15094676Y35726576D01*
X15189914Y35821814D01*
X15285153Y36012290D01*
X15285153Y36202767D01*
X15189914Y36393243D01*
X15094676Y36488481D01*
X14904200Y36583719D01*
X14523248Y36678957D01*
X14332772Y36774195D01*
X14237533Y36869433D01*
X14142295Y37059910D01*
X14142295Y37250386D01*
X14237533Y37440862D01*
X14332772Y37536100D01*
X14523248Y37631338D01*
X14999438Y37631338D01*
X15285153Y37536100D01*
X16142295Y35631338D02*
X16142295Y37631338D01*
X18142296Y37536100D02*
X17951819Y37631338D01*
X17666105Y37631338D01*
X17380391Y37536100D01*
X17189915Y37345624D01*
X17094676Y37155148D01*
X16999438Y36774195D01*
X16999438Y36488481D01*
X17094676Y36107529D01*
X17189915Y35917052D01*
X17380391Y35726576D01*
X17666105Y35631338D01*
X17856581Y35631338D01*
X18142296Y35726576D01*
X18237534Y35821814D01*
X18237534Y36488481D01*
X17856581Y36488481D01*
X20618486Y36393243D02*
X22142296Y36393243D01*
X24618486Y35631338D02*
X24618486Y37631338D01*
X25094677Y37631338D01*
X25380391Y37536100D01*
X25570867Y37345624D01*
X25666106Y37155148D01*
X25761344Y36774195D01*
X25761344Y36488481D01*
X25666106Y36107529D01*
X25570867Y35917052D01*
X25380391Y35726576D01*
X25094677Y35631338D01*
X24618486Y35631338D01*
X26523248Y37440862D02*
X26618486Y37536100D01*
X26808963Y37631338D01*
X27285153Y37631338D01*
X27475629Y37536100D01*
X27570867Y37440862D01*
X27666106Y37250386D01*
X27666106Y37059910D01*
X27570867Y36774195D01*
X26428010Y35631338D01*
X27666106Y35631338D01*
X13904199Y32476576D02*
X14189914Y32381338D01*
X14666104Y32381338D01*
X14856580Y32476576D01*
X14951818Y32571814D01*
X15047057Y32762290D01*
X15047057Y32952767D01*
X14951818Y33143243D01*
X14856580Y33238481D01*
X14666104Y33333719D01*
X14285152Y33428957D01*
X14094676Y33524195D01*
X13999437Y33619433D01*
X13904199Y33809910D01*
X13904199Y34000386D01*
X13999437Y34190862D01*
X14094676Y34286100D01*
X14285152Y34381338D01*
X14761342Y34381338D01*
X15047057Y34286100D01*
X16951819Y32381338D02*
X15808961Y32381338D01*
X16380390Y32381338D02*
X16380390Y34381338D01*
X16189914Y34095624D01*
X15999438Y33905148D01*
X15808961Y33809910D01*
X20856581Y33143243D02*
X22380391Y33143243D01*
X24856581Y32381338D02*
X24856581Y34381338D01*
X25332772Y34381338D01*
X25618486Y34286100D01*
X25808962Y34095624D01*
X25904201Y33905148D01*
X25999439Y33524195D01*
X25999439Y33238481D01*
X25904201Y32857529D01*
X25808962Y32667052D01*
X25618486Y32476576D01*
X25332772Y32381338D01*
X24856581Y32381338D01*
X26666105Y34381338D02*
X27904201Y34381338D01*
X27237534Y33619433D01*
X27523248Y33619433D01*
X27713724Y33524195D01*
X27808962Y33428957D01*
X27904201Y33238481D01*
X27904201Y32762290D01*
X27808962Y32571814D01*
X27713724Y32476576D01*
X27523248Y32381338D01*
X26951820Y32381338D01*
X26761343Y32476576D01*
X26666105Y32571814D01*
X13904199Y29226576D02*
X14189914Y29131338D01*
X14666104Y29131338D01*
X14856580Y29226576D01*
X14951818Y29321814D01*
X15047057Y29512290D01*
X15047057Y29702767D01*
X14951818Y29893243D01*
X14856580Y29988481D01*
X14666104Y30083719D01*
X14285152Y30178957D01*
X14094676Y30274195D01*
X13999437Y30369433D01*
X13904199Y30559910D01*
X13904199Y30750386D01*
X13999437Y30940862D01*
X14094676Y31036100D01*
X14285152Y31131338D01*
X14761342Y31131338D01*
X15047057Y31036100D01*
X15808961Y30940862D02*
X15904199Y31036100D01*
X16094676Y31131338D01*
X16570866Y31131338D01*
X16761342Y31036100D01*
X16856580Y30940862D01*
X16951819Y30750386D01*
X16951819Y30559910D01*
X16856580Y30274195D01*
X15713723Y29131338D01*
X16951819Y29131338D01*
X20856581Y29893243D02*
X22380391Y29893243D01*
X24856581Y29131338D02*
X24856581Y31131338D01*
X25332772Y31131338D01*
X25618486Y31036100D01*
X25808962Y30845624D01*
X25904201Y30655148D01*
X25999439Y30274195D01*
X25999439Y29988481D01*
X25904201Y29607529D01*
X25808962Y29417052D01*
X25618486Y29226576D01*
X25332772Y29131338D01*
X24856581Y29131338D01*
X27713724Y30464671D02*
X27713724Y29131338D01*
X27237534Y31226576D02*
X26761343Y29798005D01*
X27999439Y29798005D01*
X13904199Y25976576D02*
X14189914Y25881338D01*
X14666104Y25881338D01*
X14856580Y25976576D01*
X14951818Y26071814D01*
X15047057Y26262290D01*
X15047057Y26452767D01*
X14951818Y26643243D01*
X14856580Y26738481D01*
X14666104Y26833719D01*
X14285152Y26928957D01*
X14094676Y27024195D01*
X13999437Y27119433D01*
X13904199Y27309910D01*
X13904199Y27500386D01*
X13999437Y27690862D01*
X14094676Y27786100D01*
X14285152Y27881338D01*
X14761342Y27881338D01*
X15047057Y27786100D01*
X15713723Y27881338D02*
X16951819Y27881338D01*
X16285152Y27119433D01*
X16570866Y27119433D01*
X16761342Y27024195D01*
X16856580Y26928957D01*
X16951819Y26738481D01*
X16951819Y26262290D01*
X16856580Y26071814D01*
X16761342Y25976576D01*
X16570866Y25881338D01*
X15999438Y25881338D01*
X15808961Y25976576D01*
X15713723Y26071814D01*
X20856581Y26643243D02*
X22380391Y26643243D01*
X24856581Y25881338D02*
X24856581Y27881338D01*
X25332772Y27881338D01*
X25618486Y27786100D01*
X25808962Y27595624D01*
X25904201Y27405148D01*
X25999439Y27024195D01*
X25999439Y26738481D01*
X25904201Y26357529D01*
X25808962Y26167052D01*
X25618486Y25976576D01*
X25332772Y25881338D01*
X24856581Y25881338D01*
X27808962Y27881338D02*
X26856581Y27881338D01*
X26761343Y26928957D01*
X26856581Y27024195D01*
X27047058Y27119433D01*
X27523248Y27119433D01*
X27713724Y27024195D01*
X27808962Y26928957D01*
X27904201Y26738481D01*
X27904201Y26262290D01*
X27808962Y26071814D01*
X27713724Y25976576D01*
X27523248Y25881338D01*
X27047058Y25881338D01*
X26856581Y25976576D01*
X26761343Y26071814D01*
X14285152Y51171576D02*
X14570867Y51076338D01*
X15047057Y51076338D01*
X15237533Y51171576D01*
X15332771Y51266814D01*
X15428010Y51457290D01*
X15428010Y51647767D01*
X15332771Y51838243D01*
X15237533Y51933481D01*
X15047057Y52028719D01*
X14666105Y52123957D01*
X14475629Y52219195D01*
X14380390Y52314433D01*
X14285152Y52504910D01*
X14285152Y52695386D01*
X14380390Y52885862D01*
X14475629Y52981100D01*
X14666105Y53076338D01*
X15142295Y53076338D01*
X15428010Y52981100D01*
X16285152Y51076338D02*
X16285152Y53076338D01*
X18285153Y52981100D02*
X18094676Y53076338D01*
X17808962Y53076338D01*
X17523248Y52981100D01*
X17332772Y52790624D01*
X17237533Y52600148D01*
X17142295Y52219195D01*
X17142295Y51933481D01*
X17237533Y51552529D01*
X17332772Y51362052D01*
X17523248Y51171576D01*
X17808962Y51076338D01*
X17999438Y51076338D01*
X18285153Y51171576D01*
X18380391Y51266814D01*
X18380391Y51933481D01*
X17999438Y51933481D01*
X20761343Y51838243D02*
X22285153Y51838243D01*
X24666105Y51647767D02*
X25618486Y51647767D01*
X24475629Y51076338D02*
X25142296Y53076338D01*
X25808963Y51076338D01*
X27428010Y53076338D02*
X26475629Y53076338D01*
X26380391Y52123957D01*
X26475629Y52219195D01*
X26666106Y52314433D01*
X27142296Y52314433D01*
X27332772Y52219195D01*
X27428010Y52123957D01*
X27523249Y51933481D01*
X27523249Y51457290D01*
X27428010Y51266814D01*
X27332772Y51171576D01*
X27142296Y51076338D01*
X26666106Y51076338D01*
X26475629Y51171576D01*
X26380391Y51266814D01*
X50607152Y81091576D02*
X50892867Y80996338D01*
X51369057Y80996338D01*
X51559533Y81091576D01*
X51654771Y81186814D01*
X51750010Y81377290D01*
X51750010Y81567767D01*
X51654771Y81758243D01*
X51559533Y81853481D01*
X51369057Y81948719D01*
X50988105Y82043957D01*
X50797629Y82139195D01*
X50702390Y82234433D01*
X50607152Y82424910D01*
X50607152Y82615386D01*
X50702390Y82805862D01*
X50797629Y82901100D01*
X50988105Y82996338D01*
X51464295Y82996338D01*
X51750010Y82901100D01*
X52607152Y80996338D02*
X52607152Y82996338D01*
X54607153Y82901100D02*
X54416676Y82996338D01*
X54130962Y82996338D01*
X53845248Y82901100D01*
X53654772Y82710624D01*
X53559533Y82520148D01*
X53464295Y82139195D01*
X53464295Y81853481D01*
X53559533Y81472529D01*
X53654772Y81282052D01*
X53845248Y81091576D01*
X54130962Y80996338D01*
X54321438Y80996338D01*
X54607153Y81091576D01*
X54702391Y81186814D01*
X54702391Y81853481D01*
X54321438Y81853481D01*
X57083343Y81758243D02*
X58607153Y81758243D01*
X60988105Y81567767D02*
X61940486Y81567767D01*
X60797629Y80996338D02*
X61464296Y82996338D01*
X62130963Y80996338D01*
X63845249Y80996338D02*
X62702391Y80996338D01*
X63273820Y80996338D02*
X63273820Y82996338D01*
X63083344Y82710624D01*
X62892868Y82520148D01*
X62702391Y82424910D01*
X50369056Y77841576D02*
X50654771Y77746338D01*
X51130961Y77746338D01*
X51321437Y77841576D01*
X51416675Y77936814D01*
X51511914Y78127290D01*
X51511914Y78317767D01*
X51416675Y78508243D01*
X51321437Y78603481D01*
X51130961Y78698719D01*
X50750009Y78793957D01*
X50559533Y78889195D01*
X50464294Y78984433D01*
X50369056Y79174910D01*
X50369056Y79365386D01*
X50464294Y79555862D01*
X50559533Y79651100D01*
X50750009Y79746338D01*
X51226199Y79746338D01*
X51511914Y79651100D01*
X53416676Y77746338D02*
X52273818Y77746338D01*
X52845247Y77746338D02*
X52845247Y79746338D01*
X52654771Y79460624D01*
X52464295Y79270148D01*
X52273818Y79174910D01*
X57321438Y78508243D02*
X58845248Y78508243D01*
X61226200Y78317767D02*
X62178581Y78317767D01*
X61035724Y77746338D02*
X61702391Y79746338D01*
X62369058Y77746338D01*
X62940486Y79555862D02*
X63035724Y79651100D01*
X63226201Y79746338D01*
X63702391Y79746338D01*
X63892867Y79651100D01*
X63988105Y79555862D01*
X64083344Y79365386D01*
X64083344Y79174910D01*
X63988105Y78889195D01*
X62845248Y77746338D01*
X64083344Y77746338D01*
X50369056Y74591576D02*
X50654771Y74496338D01*
X51130961Y74496338D01*
X51321437Y74591576D01*
X51416675Y74686814D01*
X51511914Y74877290D01*
X51511914Y75067767D01*
X51416675Y75258243D01*
X51321437Y75353481D01*
X51130961Y75448719D01*
X50750009Y75543957D01*
X50559533Y75639195D01*
X50464294Y75734433D01*
X50369056Y75924910D01*
X50369056Y76115386D01*
X50464294Y76305862D01*
X50559533Y76401100D01*
X50750009Y76496338D01*
X51226199Y76496338D01*
X51511914Y76401100D01*
X52273818Y76305862D02*
X52369056Y76401100D01*
X52559533Y76496338D01*
X53035723Y76496338D01*
X53226199Y76401100D01*
X53321437Y76305862D01*
X53416676Y76115386D01*
X53416676Y75924910D01*
X53321437Y75639195D01*
X52178580Y74496338D01*
X53416676Y74496338D01*
X57321438Y75258243D02*
X58845248Y75258243D01*
X61226200Y75067767D02*
X62178581Y75067767D01*
X61035724Y74496338D02*
X61702391Y76496338D01*
X62369058Y74496338D01*
X62845248Y76496338D02*
X64083344Y76496338D01*
X63416677Y75734433D01*
X63702391Y75734433D01*
X63892867Y75639195D01*
X63988105Y75543957D01*
X64083344Y75353481D01*
X64083344Y74877290D01*
X63988105Y74686814D01*
X63892867Y74591576D01*
X63702391Y74496338D01*
X63130963Y74496338D01*
X62940486Y74591576D01*
X62845248Y74686814D01*
X39025534Y41368719D02*
X38692200Y41844910D01*
X38454105Y41368719D02*
X38454105Y42368719D01*
X38835058Y42368719D01*
X38930296Y42321100D01*
X38977915Y42273481D01*
X39025534Y42178243D01*
X39025534Y42035386D01*
X38977915Y41940148D01*
X38930296Y41892529D01*
X38835058Y41844910D01*
X38454105Y41844910D01*
X39358867Y42368719D02*
X40025534Y41368719D01*
X40025534Y42368719D02*
X39358867Y41368719D01*
X35890295Y42368719D02*
X36461724Y42368719D01*
X36176009Y41368719D02*
X36176009Y42368719D01*
X36699819Y42368719D02*
X37366486Y41368719D01*
X37366486Y42368719D02*
X36699819Y41368719D01*
X33350296Y42321100D02*
X33255058Y42368719D01*
X33112201Y42368719D01*
X32969343Y42321100D01*
X32874105Y42225862D01*
X32826486Y42130624D01*
X32778867Y41940148D01*
X32778867Y41797290D01*
X32826486Y41606814D01*
X32874105Y41511576D01*
X32969343Y41416338D01*
X33112201Y41368719D01*
X33207439Y41368719D01*
X33350296Y41416338D01*
X33397915Y41463957D01*
X33397915Y41797290D01*
X33207439Y41797290D01*
X33826486Y41368719D02*
X33826486Y42368719D01*
X34397915Y41368719D01*
X34397915Y42368719D01*
X34874105Y41368719D02*
X34874105Y42368719D01*
X35112200Y42368719D01*
X35255058Y42321100D01*
X35350296Y42225862D01*
X35397915Y42130624D01*
X35445534Y41940148D01*
X35445534Y41797290D01*
X35397915Y41606814D01*
X35350296Y41511576D01*
X35255058Y41416338D01*
X35112200Y41368719D01*
X34874105Y41368719D01*
D12*
X32524700Y43345100D02*
X32524700Y37439600D01*
X32778700Y43345100D02*
X32524700Y43345100D01*
X40906700Y43345100D02*
X32778700Y43345100D01*
X40906700Y37439600D02*
X40906700Y43345100D01*
X32524700Y37439600D02*
X40906700Y37439600D01*
D14*
X44179629Y66015386D02*
X44308200Y65972529D01*
X44351057Y65929671D01*
X44393914Y65843957D01*
X44393914Y65715386D01*
X44351057Y65629671D01*
X44308200Y65586814D01*
X44222486Y65543957D01*
X43879629Y65543957D01*
X43879629Y66443957D01*
X44179629Y66443957D01*
X44265343Y66401100D01*
X44308200Y66358243D01*
X44351057Y66272529D01*
X44351057Y66186814D01*
X44308200Y66101100D01*
X44265343Y66058243D01*
X44179629Y66015386D01*
X43879629Y66015386D01*
X44736772Y65801100D02*
X45165343Y65801100D01*
X44651057Y65543957D02*
X44951057Y66443957D01*
X45251057Y65543957D01*
X45422486Y66443957D02*
X45936772Y66443957D01*
X45679629Y65543957D02*
X45679629Y66443957D01*
X46922486Y65543957D02*
X46922486Y66443957D01*
X47222486Y65801100D01*
X47522486Y66443957D01*
X47522486Y65543957D01*
X47908200Y65801100D02*
X48336771Y65801100D01*
X47822485Y65543957D02*
X48122485Y66443957D01*
X48422485Y65543957D01*
X48722486Y65543957D02*
X48722486Y66443957D01*
X49236771Y65543957D01*
X49236771Y66443957D01*
D12*
X43510200Y67094100D02*
X43510200Y62014100D01*
X49479200Y67094100D02*
X43510200Y67094100D01*
X49479200Y62014100D02*
X49479200Y67094100D01*
X43510200Y62014100D02*
X49479200Y62014100D01*
D13*
X36116581Y6866859D02*
X35116581Y6866859D01*
X36116581Y7295431D02*
X35592771Y7295431D01*
X35497533Y7247812D01*
X35449914Y7152574D01*
X35449914Y7009716D01*
X35497533Y6914478D01*
X35545152Y6866859D01*
X35449914Y7628764D02*
X35449914Y8009716D01*
X35116581Y7771621D02*
X35973724Y7771621D01*
X36068962Y7819240D01*
X36116581Y7914478D01*
X36116581Y8009716D01*
X35449914Y8200193D02*
X35449914Y8581145D01*
X35116581Y8343050D02*
X35973724Y8343050D01*
X36068962Y8390669D01*
X36116581Y8485907D01*
X36116581Y8581145D01*
X35449914Y8914479D02*
X36449914Y8914479D01*
X35497533Y8914479D02*
X35449914Y9009717D01*
X35449914Y9200194D01*
X35497533Y9295432D01*
X35545152Y9343051D01*
X35640390Y9390670D01*
X35926105Y9390670D01*
X36021343Y9343051D01*
X36068962Y9295432D01*
X36116581Y9200194D01*
X36116581Y9009717D01*
X36068962Y8914479D01*
X36021343Y9819241D02*
X36068962Y9866860D01*
X36116581Y9819241D01*
X36068962Y9771622D01*
X36021343Y9819241D01*
X36116581Y9819241D01*
X35497533Y9819241D02*
X35545152Y9866860D01*
X35592771Y9819241D01*
X35545152Y9771622D01*
X35497533Y9819241D01*
X35592771Y9819241D01*
X35068962Y11009717D02*
X36354676Y10152574D01*
X35068962Y12057336D02*
X36354676Y11200193D01*
X36068962Y12771622D02*
X36116581Y12676384D01*
X36116581Y12485907D01*
X36068962Y12390669D01*
X35973724Y12343050D01*
X35592771Y12343050D01*
X35497533Y12390669D01*
X35449914Y12485907D01*
X35449914Y12676384D01*
X35497533Y12771622D01*
X35592771Y12819241D01*
X35688010Y12819241D01*
X35783248Y12343050D01*
X36116581Y13390669D02*
X36068962Y13295431D01*
X35973724Y13247812D01*
X35116581Y13247812D01*
X36068962Y14152575D02*
X36116581Y14057337D01*
X36116581Y13866860D01*
X36068962Y13771622D01*
X35973724Y13724003D01*
X35592771Y13724003D01*
X35497533Y13771622D01*
X35449914Y13866860D01*
X35449914Y14057337D01*
X35497533Y14152575D01*
X35592771Y14200194D01*
X35688010Y14200194D01*
X35783248Y13724003D01*
X36116581Y14628765D02*
X35116581Y14628765D01*
X35735629Y14724003D02*
X36116581Y15009718D01*
X35449914Y15009718D02*
X35830867Y14628765D01*
X35449914Y15295432D02*
X35449914Y15676384D01*
X35116581Y15438289D02*
X35973724Y15438289D01*
X36068962Y15485908D01*
X36116581Y15581146D01*
X36116581Y15676384D01*
X36116581Y16009718D02*
X35449914Y16009718D01*
X35640390Y16009718D02*
X35545152Y16057337D01*
X35497533Y16104956D01*
X35449914Y16200194D01*
X35449914Y16295433D01*
X36116581Y16771623D02*
X36068962Y16676385D01*
X36021343Y16628766D01*
X35926105Y16581147D01*
X35640390Y16581147D01*
X35545152Y16628766D01*
X35497533Y16676385D01*
X35449914Y16771623D01*
X35449914Y16914481D01*
X35497533Y17009719D01*
X35545152Y17057338D01*
X35640390Y17104957D01*
X35926105Y17104957D01*
X36021343Y17057338D01*
X36068962Y17009719D01*
X36116581Y16914481D01*
X36116581Y16771623D01*
X35449914Y17533528D02*
X36449914Y17533528D01*
X35497533Y17533528D02*
X35449914Y17628766D01*
X35449914Y17819243D01*
X35497533Y17914481D01*
X35545152Y17962100D01*
X35640390Y18009719D01*
X35926105Y18009719D01*
X36021343Y17962100D01*
X36068962Y17914481D01*
X36116581Y17819243D01*
X36116581Y17628766D01*
X36068962Y17533528D01*
X36116581Y18438290D02*
X35449914Y18438290D01*
X35116581Y18438290D02*
X35164200Y18390671D01*
X35211819Y18438290D01*
X35164200Y18485909D01*
X35116581Y18438290D01*
X35211819Y18438290D01*
X36116581Y19057337D02*
X36068962Y18962099D01*
X36021343Y18914480D01*
X35926105Y18866861D01*
X35640390Y18866861D01*
X35545152Y18914480D01*
X35497533Y18962099D01*
X35449914Y19057337D01*
X35449914Y19200195D01*
X35497533Y19295433D01*
X35545152Y19343052D01*
X35640390Y19390671D01*
X35926105Y19390671D01*
X36021343Y19343052D01*
X36068962Y19295433D01*
X36116581Y19200195D01*
X36116581Y19057337D01*
X35449914Y19819242D02*
X36116581Y19819242D01*
X35545152Y19819242D02*
X35497533Y19866861D01*
X35449914Y19962099D01*
X35449914Y20104957D01*
X35497533Y20200195D01*
X35592771Y20247814D01*
X36116581Y20247814D01*
X36068962Y21104957D02*
X36116581Y21009719D01*
X36116581Y20819242D01*
X36068962Y20724004D01*
X35973724Y20676385D01*
X35592771Y20676385D01*
X35497533Y20724004D01*
X35449914Y20819242D01*
X35449914Y21009719D01*
X35497533Y21104957D01*
X35592771Y21152576D01*
X35688010Y21152576D01*
X35783248Y20676385D01*
X36068962Y21962100D02*
X36116581Y21866862D01*
X36116581Y21676385D01*
X36068962Y21581147D01*
X35973724Y21533528D01*
X35592771Y21533528D01*
X35497533Y21581147D01*
X35449914Y21676385D01*
X35449914Y21866862D01*
X35497533Y21962100D01*
X35592771Y22009719D01*
X35688010Y22009719D01*
X35783248Y21533528D01*
X36116581Y22438290D02*
X35449914Y22438290D01*
X35640390Y22438290D02*
X35545152Y22485909D01*
X35497533Y22533528D01*
X35449914Y22628766D01*
X35449914Y22724005D01*
X36021343Y23057338D02*
X36068962Y23104957D01*
X36116581Y23057338D01*
X36068962Y23009719D01*
X36021343Y23057338D01*
X36116581Y23057338D01*
X36068962Y23962100D02*
X36116581Y23866862D01*
X36116581Y23676385D01*
X36068962Y23581147D01*
X36021343Y23533528D01*
X35926105Y23485909D01*
X35640390Y23485909D01*
X35545152Y23533528D01*
X35497533Y23581147D01*
X35449914Y23676385D01*
X35449914Y23866862D01*
X35497533Y23962100D01*
X36116581Y24533528D02*
X36068962Y24438290D01*
X36021343Y24390671D01*
X35926105Y24343052D01*
X35640390Y24343052D01*
X35545152Y24390671D01*
X35497533Y24438290D01*
X35449914Y24533528D01*
X35449914Y24676386D01*
X35497533Y24771624D01*
X35545152Y24819243D01*
X35640390Y24866862D01*
X35926105Y24866862D01*
X36021343Y24819243D01*
X36068962Y24771624D01*
X36116581Y24676386D01*
X36116581Y24533528D01*
X36021343Y25295433D02*
X36068962Y25343052D01*
X36116581Y25295433D01*
X36068962Y25247814D01*
X36021343Y25295433D01*
X36116581Y25295433D01*
X36116581Y25771623D02*
X35449914Y25771623D01*
X35640390Y25771623D02*
X35545152Y25819242D01*
X35497533Y25866861D01*
X35449914Y25962099D01*
X35449914Y26057338D01*
X36068962Y26343052D02*
X36116581Y26438290D01*
X36116581Y26628766D01*
X36068962Y26724005D01*
X35973724Y26771624D01*
X35926105Y26771624D01*
X35830867Y26724005D01*
X35783248Y26628766D01*
X35783248Y26485909D01*
X35735629Y26390671D01*
X35640390Y26343052D01*
X35592771Y26343052D01*
X35497533Y26390671D01*
X35449914Y26485909D01*
X35449914Y26628766D01*
X35497533Y26724005D01*
X37866581Y866859D02*
X36866581Y866859D01*
X37866581Y1295431D02*
X37342771Y1295431D01*
X37247533Y1247812D01*
X37199914Y1152574D01*
X37199914Y1009716D01*
X37247533Y914478D01*
X37295152Y866859D01*
X37199914Y1628764D02*
X37199914Y2009716D01*
X36866581Y1771621D02*
X37723724Y1771621D01*
X37818962Y1819240D01*
X37866581Y1914478D01*
X37866581Y2009716D01*
X37199914Y2200193D02*
X37199914Y2581145D01*
X36866581Y2343050D02*
X37723724Y2343050D01*
X37818962Y2390669D01*
X37866581Y2485907D01*
X37866581Y2581145D01*
X37199914Y2914479D02*
X38199914Y2914479D01*
X37247533Y2914479D02*
X37199914Y3009717D01*
X37199914Y3200194D01*
X37247533Y3295432D01*
X37295152Y3343051D01*
X37390390Y3390670D01*
X37676105Y3390670D01*
X37771343Y3343051D01*
X37818962Y3295432D01*
X37866581Y3200194D01*
X37866581Y3009717D01*
X37818962Y2914479D01*
X37818962Y3771622D02*
X37866581Y3866860D01*
X37866581Y4057336D01*
X37818962Y4152575D01*
X37723724Y4200194D01*
X37676105Y4200194D01*
X37580867Y4152575D01*
X37533248Y4057336D01*
X37533248Y3914479D01*
X37485629Y3819241D01*
X37390390Y3771622D01*
X37342771Y3771622D01*
X37247533Y3819241D01*
X37199914Y3914479D01*
X37199914Y4057336D01*
X37247533Y4152575D01*
X37771343Y4628765D02*
X37818962Y4676384D01*
X37866581Y4628765D01*
X37818962Y4581146D01*
X37771343Y4628765D01*
X37866581Y4628765D01*
X37247533Y4628765D02*
X37295152Y4676384D01*
X37342771Y4628765D01*
X37295152Y4581146D01*
X37247533Y4628765D01*
X37342771Y4628765D01*
X36818962Y5819241D02*
X38104676Y4962098D01*
X36818962Y6866860D02*
X38104676Y6009717D01*
X37199914Y7628765D02*
X38009438Y7628765D01*
X38104676Y7581146D01*
X38152295Y7533527D01*
X38199914Y7438288D01*
X38199914Y7295431D01*
X38152295Y7200193D01*
X37818962Y7628765D02*
X37866581Y7533527D01*
X37866581Y7343050D01*
X37818962Y7247812D01*
X37771343Y7200193D01*
X37676105Y7152574D01*
X37390390Y7152574D01*
X37295152Y7200193D01*
X37247533Y7247812D01*
X37199914Y7343050D01*
X37199914Y7533527D01*
X37247533Y7628765D01*
X37866581Y8104955D02*
X37199914Y8104955D01*
X36866581Y8104955D02*
X36914200Y8057336D01*
X36961819Y8104955D01*
X36914200Y8152574D01*
X36866581Y8104955D01*
X36961819Y8104955D01*
X37199914Y8438288D02*
X37199914Y8819240D01*
X36866581Y8581145D02*
X37723724Y8581145D01*
X37818962Y8628764D01*
X37866581Y8724002D01*
X37866581Y8819240D01*
X37866581Y9152574D02*
X36866581Y9152574D01*
X37866581Y9581146D02*
X37342771Y9581146D01*
X37247533Y9533527D01*
X37199914Y9438289D01*
X37199914Y9295431D01*
X37247533Y9200193D01*
X37295152Y9152574D01*
X37199914Y10485908D02*
X37866581Y10485908D01*
X37199914Y10057336D02*
X37723724Y10057336D01*
X37818962Y10104955D01*
X37866581Y10200193D01*
X37866581Y10343051D01*
X37818962Y10438289D01*
X37771343Y10485908D01*
X37866581Y10962098D02*
X36866581Y10962098D01*
X37247533Y10962098D02*
X37199914Y11057336D01*
X37199914Y11247813D01*
X37247533Y11343051D01*
X37295152Y11390670D01*
X37390390Y11438289D01*
X37676105Y11438289D01*
X37771343Y11390670D01*
X37818962Y11343051D01*
X37866581Y11247813D01*
X37866581Y11057336D01*
X37818962Y10962098D01*
X37771343Y11866860D02*
X37818962Y11914479D01*
X37866581Y11866860D01*
X37818962Y11819241D01*
X37771343Y11866860D01*
X37866581Y11866860D01*
X37818962Y12771622D02*
X37866581Y12676384D01*
X37866581Y12485907D01*
X37818962Y12390669D01*
X37771343Y12343050D01*
X37676105Y12295431D01*
X37390390Y12295431D01*
X37295152Y12343050D01*
X37247533Y12390669D01*
X37199914Y12485907D01*
X37199914Y12676384D01*
X37247533Y12771622D01*
X37866581Y13343050D02*
X37818962Y13247812D01*
X37771343Y13200193D01*
X37676105Y13152574D01*
X37390390Y13152574D01*
X37295152Y13200193D01*
X37247533Y13247812D01*
X37199914Y13343050D01*
X37199914Y13485908D01*
X37247533Y13581146D01*
X37295152Y13628765D01*
X37390390Y13676384D01*
X37676105Y13676384D01*
X37771343Y13628765D01*
X37818962Y13581146D01*
X37866581Y13485908D01*
X37866581Y13343050D01*
X37866581Y14104955D02*
X37199914Y14104955D01*
X37295152Y14104955D02*
X37247533Y14152574D01*
X37199914Y14247812D01*
X37199914Y14390670D01*
X37247533Y14485908D01*
X37342771Y14533527D01*
X37866581Y14533527D01*
X37342771Y14533527D02*
X37247533Y14581146D01*
X37199914Y14676384D01*
X37199914Y14819241D01*
X37247533Y14914479D01*
X37342771Y14962098D01*
X37866581Y14962098D01*
X36818962Y16152574D02*
X38104676Y15295431D01*
X37342771Y16485907D02*
X37342771Y16819241D01*
X37866581Y16962098D02*
X37866581Y16485907D01*
X36866581Y16485907D01*
X36866581Y16962098D01*
X37866581Y17533526D02*
X37818962Y17438288D01*
X37723724Y17390669D01*
X36866581Y17390669D01*
X37818962Y18295432D02*
X37866581Y18200194D01*
X37866581Y18009717D01*
X37818962Y17914479D01*
X37723724Y17866860D01*
X37342771Y17866860D01*
X37247533Y17914479D01*
X37199914Y18009717D01*
X37199914Y18200194D01*
X37247533Y18295432D01*
X37342771Y18343051D01*
X37438010Y18343051D01*
X37533248Y17866860D01*
X37866581Y18771622D02*
X36866581Y18771622D01*
X37485629Y18866860D02*
X37866581Y19152575D01*
X37199914Y19152575D02*
X37580867Y18771622D01*
X37199914Y19438289D02*
X37199914Y19819241D01*
X36866581Y19581146D02*
X37723724Y19581146D01*
X37818962Y19628765D01*
X37866581Y19724003D01*
X37866581Y19819241D01*
X37866581Y20152575D02*
X37199914Y20152575D01*
X37390390Y20152575D02*
X37295152Y20200194D01*
X37247533Y20247813D01*
X37199914Y20343051D01*
X37199914Y20438290D01*
X37866581Y20914480D02*
X37818962Y20819242D01*
X37771343Y20771623D01*
X37676105Y20724004D01*
X37390390Y20724004D01*
X37295152Y20771623D01*
X37247533Y20819242D01*
X37199914Y20914480D01*
X37199914Y21057338D01*
X37247533Y21152576D01*
X37295152Y21200195D01*
X37390390Y21247814D01*
X37676105Y21247814D01*
X37771343Y21200195D01*
X37818962Y21152576D01*
X37866581Y21057338D01*
X37866581Y20914480D01*
X37199914Y21676385D02*
X38199914Y21676385D01*
X37247533Y21676385D02*
X37199914Y21771623D01*
X37199914Y21962100D01*
X37247533Y22057338D01*
X37295152Y22104957D01*
X37390390Y22152576D01*
X37676105Y22152576D01*
X37771343Y22104957D01*
X37818962Y22057338D01*
X37866581Y21962100D01*
X37866581Y21771623D01*
X37818962Y21676385D01*
X37866581Y22581147D02*
X37199914Y22581147D01*
X36866581Y22581147D02*
X36914200Y22533528D01*
X36961819Y22581147D01*
X36914200Y22628766D01*
X36866581Y22581147D01*
X36961819Y22581147D01*
X37866581Y23200194D02*
X37818962Y23104956D01*
X37771343Y23057337D01*
X37676105Y23009718D01*
X37390390Y23009718D01*
X37295152Y23057337D01*
X37247533Y23104956D01*
X37199914Y23200194D01*
X37199914Y23343052D01*
X37247533Y23438290D01*
X37295152Y23485909D01*
X37390390Y23533528D01*
X37676105Y23533528D01*
X37771343Y23485909D01*
X37818962Y23438290D01*
X37866581Y23343052D01*
X37866581Y23200194D01*
X37199914Y23962099D02*
X37866581Y23962099D01*
X37295152Y23962099D02*
X37247533Y24009718D01*
X37199914Y24104956D01*
X37199914Y24247814D01*
X37247533Y24343052D01*
X37342771Y24390671D01*
X37866581Y24390671D01*
X37818962Y25247814D02*
X37866581Y25152576D01*
X37866581Y24962099D01*
X37818962Y24866861D01*
X37723724Y24819242D01*
X37342771Y24819242D01*
X37247533Y24866861D01*
X37199914Y24962099D01*
X37199914Y25152576D01*
X37247533Y25247814D01*
X37342771Y25295433D01*
X37438010Y25295433D01*
X37533248Y24819242D01*
X37818962Y26104957D02*
X37866581Y26009719D01*
X37866581Y25819242D01*
X37818962Y25724004D01*
X37723724Y25676385D01*
X37342771Y25676385D01*
X37247533Y25724004D01*
X37199914Y25819242D01*
X37199914Y26009719D01*
X37247533Y26104957D01*
X37342771Y26152576D01*
X37438010Y26152576D01*
X37533248Y25676385D01*
X37866581Y26581147D02*
X37199914Y26581147D01*
X37390390Y26581147D02*
X37295152Y26628766D01*
X37247533Y26676385D01*
X37199914Y26771623D01*
X37199914Y26866862D01*
X39330867Y11866859D02*
X39330867Y12343050D01*
X39616581Y11771621D02*
X38616581Y12104954D01*
X39616581Y12438288D01*
X39568962Y13200193D02*
X39616581Y13104955D01*
X39616581Y12914478D01*
X39568962Y12819240D01*
X39521343Y12771621D01*
X39426105Y12724002D01*
X39140390Y12724002D01*
X39045152Y12771621D01*
X38997533Y12819240D01*
X38949914Y12914478D01*
X38949914Y13104955D01*
X38997533Y13200193D01*
X38949914Y13485907D02*
X38949914Y13866859D01*
X38616581Y13628764D02*
X39473724Y13628764D01*
X39568962Y13676383D01*
X39616581Y13771621D01*
X39616581Y13866859D01*
X38949914Y14628765D02*
X39616581Y14628765D01*
X38949914Y14200193D02*
X39473724Y14200193D01*
X39568962Y14247812D01*
X39616581Y14343050D01*
X39616581Y14485908D01*
X39568962Y14581146D01*
X39521343Y14628765D01*
X39616581Y15533527D02*
X39092771Y15533527D01*
X38997533Y15485908D01*
X38949914Y15390670D01*
X38949914Y15200193D01*
X38997533Y15104955D01*
X39568962Y15533527D02*
X39616581Y15438289D01*
X39616581Y15200193D01*
X39568962Y15104955D01*
X39473724Y15057336D01*
X39378486Y15057336D01*
X39283248Y15104955D01*
X39235629Y15200193D01*
X39235629Y15438289D01*
X39188010Y15533527D01*
X38949914Y15866860D02*
X38949914Y16247812D01*
X38616581Y16009717D02*
X39473724Y16009717D01*
X39568962Y16057336D01*
X39616581Y16152574D01*
X39616581Y16247812D01*
X39616581Y16724003D02*
X39568962Y16628765D01*
X39521343Y16581146D01*
X39426105Y16533527D01*
X39140390Y16533527D01*
X39045152Y16581146D01*
X38997533Y16628765D01*
X38949914Y16724003D01*
X38949914Y16866861D01*
X38997533Y16962099D01*
X39045152Y17009718D01*
X39140390Y17057337D01*
X39426105Y17057337D01*
X39521343Y17009718D01*
X39568962Y16962099D01*
X39616581Y16866861D01*
X39616581Y16724003D01*
X39616581Y17485908D02*
X38949914Y17485908D01*
X39140390Y17485908D02*
X39045152Y17533527D01*
X38997533Y17581146D01*
X38949914Y17676384D01*
X38949914Y17771623D01*
X39092771Y19200195D02*
X39140390Y19343052D01*
X39188010Y19390671D01*
X39283248Y19438290D01*
X39426105Y19438290D01*
X39521343Y19390671D01*
X39568962Y19343052D01*
X39616581Y19247814D01*
X39616581Y18866861D01*
X38616581Y18866861D01*
X38616581Y19200195D01*
X38664200Y19295433D01*
X38711819Y19343052D01*
X38807057Y19390671D01*
X38902295Y19390671D01*
X38997533Y19343052D01*
X39045152Y19295433D01*
X39092771Y19200195D01*
X39092771Y18866861D01*
X39616581Y20009718D02*
X39568962Y19914480D01*
X39521343Y19866861D01*
X39426105Y19819242D01*
X39140390Y19819242D01*
X39045152Y19866861D01*
X38997533Y19914480D01*
X38949914Y20009718D01*
X38949914Y20152576D01*
X38997533Y20247814D01*
X39045152Y20295433D01*
X39140390Y20343052D01*
X39426105Y20343052D01*
X39521343Y20295433D01*
X39568962Y20247814D01*
X39616581Y20152576D01*
X39616581Y20009718D01*
X39616581Y21200195D02*
X39092771Y21200195D01*
X38997533Y21152576D01*
X38949914Y21057338D01*
X38949914Y20866861D01*
X38997533Y20771623D01*
X39568962Y21200195D02*
X39616581Y21104957D01*
X39616581Y20866861D01*
X39568962Y20771623D01*
X39473724Y20724004D01*
X39378486Y20724004D01*
X39283248Y20771623D01*
X39235629Y20866861D01*
X39235629Y21104957D01*
X39188010Y21200195D01*
X39616581Y21676385D02*
X38949914Y21676385D01*
X39140390Y21676385D02*
X39045152Y21724004D01*
X38997533Y21771623D01*
X38949914Y21866861D01*
X38949914Y21962100D01*
X39616581Y22724005D02*
X38616581Y22724005D01*
X39568962Y22724005D02*
X39616581Y22628767D01*
X39616581Y22438290D01*
X39568962Y22343052D01*
X39521343Y22295433D01*
X39426105Y22247814D01*
X39140390Y22247814D01*
X39045152Y22295433D01*
X38997533Y22343052D01*
X38949914Y22438290D01*
X38949914Y22628767D01*
X38997533Y22724005D01*
X38616581Y23819243D02*
X39616581Y24152576D01*
X38616581Y24485910D01*
X39616581Y25343053D02*
X39616581Y24771624D01*
X39616581Y25057338D02*
X38616581Y25057338D01*
X38759438Y24962100D01*
X38854676Y24866862D01*
X38902295Y24771624D01*
X39521343Y25771624D02*
X39568962Y25819243D01*
X39616581Y25771624D01*
X39568962Y25724005D01*
X39521343Y25771624D01*
X39616581Y25771624D01*
X38711819Y26200195D02*
X38664200Y26247814D01*
X38616581Y26343052D01*
X38616581Y26581148D01*
X38664200Y26676386D01*
X38711819Y26724005D01*
X38807057Y26771624D01*
X38902295Y26771624D01*
X39045152Y26724005D01*
X39616581Y26152576D01*
X39616581Y26771624D01*
D15*
X12510200Y71157957D02*
X12581629Y71300814D01*
X12581629Y71515100D01*
X12510200Y71729385D01*
X12367343Y71872243D01*
X12224486Y71943671D01*
X11938771Y72015100D01*
X11724486Y72015100D01*
X11438771Y71943671D01*
X11295914Y71872243D01*
X11153057Y71729385D01*
X11081629Y71515100D01*
X11081629Y71372243D01*
X11153057Y71157957D01*
X11224486Y71086528D01*
X11724486Y71086528D01*
X11724486Y71372243D01*
X11081629Y70443671D02*
X12581629Y70443671D01*
X11081629Y69586528D01*
X12581629Y69586528D01*
X11081629Y68872242D02*
X12581629Y68872242D01*
X12581629Y68515099D01*
X12510200Y68300814D01*
X12367343Y68157956D01*
X12224486Y68086528D01*
X11938771Y68015099D01*
X11724486Y68015099D01*
X11438771Y68086528D01*
X11295914Y68157956D01*
X11153057Y68300814D01*
X11081629Y68515099D01*
X11081629Y68872242D01*
X11081629Y65863671D02*
X11081629Y66720814D01*
X11081629Y66292242D02*
X12581629Y66292242D01*
X12367343Y66435099D01*
X12224486Y66577957D01*
X12153057Y66720814D01*
X12438771Y65292243D02*
X12510200Y65220814D01*
X12581629Y65077957D01*
X12581629Y64720814D01*
X12510200Y64577957D01*
X12438771Y64506528D01*
X12295914Y64435100D01*
X12153057Y64435100D01*
X11938771Y64506528D01*
X11081629Y65363671D01*
X11081629Y64435100D01*
X12581629Y64006529D02*
X11081629Y63506529D01*
X12581629Y63006529D01*
X12510200Y87667957D02*
X12581629Y87810814D01*
X12581629Y88025100D01*
X12510200Y88239385D01*
X12367343Y88382243D01*
X12224486Y88453671D01*
X11938771Y88525100D01*
X11724486Y88525100D01*
X11438771Y88453671D01*
X11295914Y88382243D01*
X11153057Y88239385D01*
X11081629Y88025100D01*
X11081629Y87882243D01*
X11153057Y87667957D01*
X11224486Y87596528D01*
X11724486Y87596528D01*
X11724486Y87882243D01*
X11081629Y86953671D02*
X12581629Y86953671D01*
X11081629Y86096528D01*
X12581629Y86096528D01*
X11081629Y85382242D02*
X12581629Y85382242D01*
X12581629Y85025099D01*
X12510200Y84810814D01*
X12367343Y84667956D01*
X12224486Y84596528D01*
X11938771Y84525099D01*
X11724486Y84525099D01*
X11438771Y84596528D01*
X11295914Y84667956D01*
X11153057Y84810814D01*
X11081629Y85025099D01*
X11081629Y85382242D01*
X12581629Y82734813D02*
X12581629Y83449099D01*
X11867343Y83520528D01*
X11938771Y83449099D01*
X12010200Y83306242D01*
X12010200Y82949099D01*
X11938771Y82806242D01*
X11867343Y82734813D01*
X11724486Y82663385D01*
X11367343Y82663385D01*
X11224486Y82734813D01*
X11153057Y82806242D01*
X11081629Y82949099D01*
X11081629Y83306242D01*
X11153057Y83449099D01*
X11224486Y83520528D01*
X12581629Y82234814D02*
X11081629Y81734814D01*
X12581629Y81234814D01*
X11081629Y80734814D02*
X12581629Y80734814D01*
X12581629Y80377671D01*
X12510200Y80163386D01*
X12367343Y80020528D01*
X12224486Y79949100D01*
X11938771Y79877671D01*
X11724486Y79877671D01*
X11438771Y79949100D01*
X11295914Y80020528D01*
X11153057Y80163386D01*
X11081629Y80377671D01*
X11081629Y80734814D01*
D13*
X32786629Y84866386D02*
X32786629Y85628291D01*
X33167581Y85247339D02*
X32405676Y85247339D01*
X32167581Y86580672D02*
X32167581Y86104481D01*
X32643771Y86056862D01*
X32596152Y86104481D01*
X32548533Y86199719D01*
X32548533Y86437815D01*
X32596152Y86533053D01*
X32643771Y86580672D01*
X32739010Y86628291D01*
X32977105Y86628291D01*
X33072343Y86580672D01*
X33119962Y86533053D01*
X33167581Y86437815D01*
X33167581Y86199719D01*
X33119962Y86104481D01*
X33072343Y86056862D01*
X32167581Y86914005D02*
X33167581Y87247338D01*
X32167581Y87580672D01*
X33167581Y87914005D02*
X32167581Y87914005D01*
X32167581Y88152100D01*
X32215200Y88294958D01*
X32310438Y88390196D01*
X32405676Y88437815D01*
X32596152Y88485434D01*
X32739010Y88485434D01*
X32929486Y88437815D01*
X33024724Y88390196D01*
X33119962Y88294958D01*
X33167581Y88152100D01*
X33167581Y87914005D01*
X32786629Y79683195D02*
X32786629Y80445100D01*
X33167581Y80064148D02*
X32405676Y80064148D01*
X33167581Y81445100D02*
X33167581Y80873671D01*
X33167581Y81159385D02*
X32167581Y81159385D01*
X32310438Y81064147D01*
X32405676Y80968909D01*
X32453295Y80873671D01*
X32262819Y81826052D02*
X32215200Y81873671D01*
X32167581Y81968909D01*
X32167581Y82207005D01*
X32215200Y82302243D01*
X32262819Y82349862D01*
X32358057Y82397481D01*
X32453295Y82397481D01*
X32596152Y82349862D01*
X33167581Y81778433D01*
X33167581Y82397481D01*
X32167581Y82683195D02*
X33167581Y83016528D01*
X32167581Y83349862D01*
X32215200Y76365196D02*
X32167581Y76269958D01*
X32167581Y76127101D01*
X32215200Y75984243D01*
X32310438Y75889005D01*
X32405676Y75841386D01*
X32596152Y75793767D01*
X32739010Y75793767D01*
X32929486Y75841386D01*
X33024724Y75889005D01*
X33119962Y75984243D01*
X33167581Y76127101D01*
X33167581Y76222339D01*
X33119962Y76365196D01*
X33072343Y76412815D01*
X32739010Y76412815D01*
X32739010Y76222339D01*
X33167581Y76841386D02*
X32167581Y76841386D01*
X33167581Y77412815D01*
X32167581Y77412815D01*
X33167581Y77889005D02*
X32167581Y77889005D01*
X32167581Y78127100D01*
X32215200Y78269958D01*
X32310438Y78365196D01*
X32405676Y78412815D01*
X32596152Y78460434D01*
X32739010Y78460434D01*
X32929486Y78412815D01*
X33024724Y78365196D01*
X33119962Y78269958D01*
X33167581Y78127100D01*
X33167581Y77889005D01*
D12*
X44399200Y78651100D02*
X33604200Y78651100D01*
X33604200Y84112100D02*
X44399200Y84112100D01*
X44526200Y89573100D02*
X44526200Y89319100D01*
X44272200Y89573100D02*
X44526200Y89573100D01*
X33604200Y89573100D02*
X44272200Y89573100D01*
X33604200Y75603100D02*
X44272200Y75603100D01*
X33604200Y89573100D02*
X33604200Y75603100D01*
X30988000Y41313100D02*
X30988000Y61633100D01*
X30988000Y61633100D02*
X508000Y61633100D01*
X508000Y61633100D02*
X508000Y41313100D01*
X508000Y41313100D02*
X30988000Y41313100D01*
X30988000Y20612100D02*
X30988000Y40932100D01*
X30988000Y40932100D02*
X508000Y40932100D01*
X508000Y40932100D02*
X508000Y20612100D01*
X508000Y20612100D02*
X30988000Y20612100D01*
D16*
X43369200Y70932600D02*
X43369200Y69732600D01*
X41619200Y69732600D02*
X41619200Y70932600D01*
X15494000Y86118700D02*
X15494000Y89293700D01*
X15494000Y89293700D02*
X13716000Y89293700D01*
X13716000Y89293700D02*
X13716000Y86118700D01*
X20066000Y86118700D02*
X20066000Y89293700D01*
X20066000Y89293700D02*
X18288000Y89293700D01*
X18288000Y89293700D02*
X18288000Y86118700D01*
X13462000Y80022700D02*
X13462000Y86118700D01*
X13462000Y86118700D02*
X20320000Y86118700D01*
X20320000Y86118700D02*
X20320000Y78244700D01*
X20320000Y78117700D02*
X13462000Y78117700D01*
X13462000Y78244700D02*
X13462000Y80022700D01*
X19528340Y66481960D02*
X19528340Y66131440D01*
X19528340Y62981840D02*
X19528340Y63332360D01*
X15478760Y66481960D02*
X15478760Y66131440D01*
X19979640Y66481960D02*
X19979640Y66131440D01*
X19979640Y62981840D02*
X19979640Y63332360D01*
X15478760Y62981840D02*
X15478760Y63332360D01*
X19979640Y66481960D02*
X15478760Y66481960D01*
X19979640Y62981840D02*
X15478760Y62981840D01*
X41744200Y75425100D02*
X41744200Y72725100D01*
X43244200Y75425100D02*
X43244200Y72725100D01*
X42344200Y73925100D02*
X42594200Y73925100D01*
X42594200Y73925100D02*
X42444200Y74075100D01*
X42844200Y74175100D02*
X42144200Y74175100D01*
X42494200Y73825100D02*
X42494200Y73475100D01*
X42494200Y74175100D02*
X42844200Y73825100D01*
X42844200Y73825100D02*
X42144200Y73825100D01*
X42144200Y73825100D02*
X42494200Y74175100D01*
X28790200Y87363100D02*
X28790200Y84663100D01*
X30290200Y87363100D02*
X30290200Y84663100D01*
X29390200Y85863100D02*
X29640200Y85863100D01*
X29640200Y85863100D02*
X29490200Y86013100D01*
X29890200Y86113100D02*
X29190200Y86113100D01*
X29540200Y85763100D02*
X29540200Y85413100D01*
X29540200Y86113100D02*
X29890200Y85763100D01*
X29890200Y85763100D02*
X29190200Y85763100D01*
X29190200Y85763100D02*
X29540200Y86113100D01*
X30415200Y82807100D02*
X30415200Y81607100D01*
X28665200Y81607100D02*
X28665200Y82807100D01*
X29184600Y68364100D02*
X29184600Y65189100D01*
X29184600Y65189100D02*
X30962600Y65189100D01*
X30962600Y65189100D02*
X30962600Y68364100D01*
X24612600Y68364100D02*
X24612600Y65189100D01*
X24612600Y65189100D02*
X26390600Y65189100D01*
X26390600Y65189100D02*
X26390600Y68364100D01*
X31216600Y74460100D02*
X31216600Y68364100D01*
X31216600Y68364100D02*
X24358600Y68364100D01*
X24358600Y68364100D02*
X24358600Y76238100D01*
X24358600Y76365100D02*
X31216600Y76365100D01*
X31216600Y76238100D02*
X31216600Y74460100D01*
D17*
X36398200Y46393100D02*
X33858200Y46393100D01*
X33858200Y46393100D02*
X33858200Y43723100D01*
X36398200Y43723100D02*
X74628200Y43723100D01*
X31188200Y43723100D02*
X33858200Y43723100D01*
X33858200Y59093100D02*
X33858200Y61763100D01*
X33858200Y59093100D02*
X71958200Y59093100D01*
X71958200Y59093100D02*
X71958200Y61763100D01*
X36398200Y46393100D02*
X36398200Y43723100D01*
X36398200Y46393100D02*
X71958200Y46393100D01*
X71958200Y46393100D02*
X71958200Y43723100D01*
X74628200Y43723100D02*
X74628200Y61763100D01*
X74628200Y61763100D02*
X31188200Y61763100D01*
X31188200Y61763100D02*
X31188200Y43723100D01*
D16*
X878400Y67540500D02*
X378400Y67540500D01*
X6878400Y65040500D02*
G75*
G03X6878400Y65040500I-2000000J0D01*
G01*
X6878400Y70040500D02*
G75*
G03X6878400Y70040500I-2000000J0D01*
G01*
X2378400Y72540500D02*
X2378400Y62540500D01*
X7278400Y72540500D02*
X7278400Y62540500D01*
X878400Y72540500D02*
X878400Y62540500D01*
X378400Y72540500D02*
X378400Y62540500D01*
X378400Y62540500D02*
X10178400Y62540500D01*
X10178400Y62540500D02*
X10178400Y72540500D01*
X10178400Y72540500D02*
X378400Y72540500D01*
X853000Y84304500D02*
X353000Y84304500D01*
X6853000Y81804500D02*
G75*
G03X6853000Y81804500I-2000000J0D01*
G01*
X6853000Y86804500D02*
G75*
G03X6853000Y86804500I-2000000J0D01*
G01*
X2353000Y89304500D02*
X2353000Y79304500D01*
X7253000Y89304500D02*
X7253000Y79304500D01*
X853000Y89304500D02*
X853000Y79304500D01*
X353000Y89304500D02*
X353000Y79304500D01*
X353000Y79304500D02*
X10153000Y79304500D01*
X10153000Y79304500D02*
X10153000Y89304500D01*
X10153000Y89304500D02*
X353000Y89304500D01*
D17*
X46482000Y62249700D02*
X49142000Y62249700D01*
X49142000Y62249700D02*
X49142000Y65029700D01*
X49142000Y65029700D02*
X46482000Y65029700D01*
X46482000Y65029700D02*
X46482000Y62249700D01*
X45212000Y62249700D02*
X43822000Y62249700D01*
X43822000Y62249700D02*
X43822000Y63639700D01*
X27734800Y87158100D02*
X25554800Y87158100D01*
X21134800Y87158100D02*
X23314800Y87158100D01*
X26974800Y80558100D02*
X25554800Y80558100D01*
X21894800Y80558100D02*
X23314800Y80558100D01*
X27734800Y87158100D02*
X27734800Y81318100D01*
X27734800Y81318100D02*
X26974800Y80558100D01*
X21894800Y80558100D02*
X21134800Y81318100D01*
X21134800Y81318100D02*
X21134800Y87158100D01*
X14988000Y74458100D02*
X14988000Y72278100D01*
X14988000Y67858100D02*
X14988000Y70038100D01*
X21588000Y73698100D02*
X21588000Y72278100D01*
X21588000Y68618100D02*
X21588000Y70038100D01*
X14988000Y74458100D02*
X20828000Y74458100D01*
X20828000Y74458100D02*
X21588000Y73698100D01*
X21588000Y68618100D02*
X20828000Y67858100D01*
X20828000Y67858100D02*
X14988000Y67858100D01*
X40409400Y74407300D02*
X38229400Y74407300D01*
X33809400Y74407300D02*
X35989400Y74407300D01*
X39649400Y67807300D02*
X38229400Y67807300D01*
X34569400Y67807300D02*
X35989400Y67807300D01*
X40409400Y74407300D02*
X40409400Y68567300D01*
X40409400Y68567300D02*
X39649400Y67807300D01*
X34569400Y67807300D02*
X33809400Y68567300D01*
X33809400Y68567300D02*
X33809400Y74407300D01*
D12*
X44450000Y20485100D02*
X44450000Y165100D01*
X44450000Y165100D02*
X74930000Y165100D01*
X74930000Y165100D02*
X74930000Y20485100D01*
X74930000Y20485100D02*
X44450000Y20485100D01*
X44196000Y42456100D02*
X44196000Y22136100D01*
X44196000Y22136100D02*
X74676000Y22136100D01*
X74676000Y22136100D02*
X74676000Y42456100D01*
X74676000Y42456100D02*
X44196000Y42456100D01*
X44627800Y89420700D02*
X44627800Y69100700D01*
X44627800Y69100700D02*
X75107800Y69100700D01*
X75107800Y69100700D02*
X75107800Y89420700D01*
X75107800Y89420700D02*
X44627800Y89420700D01*
X30861000Y165100D02*
X30861000Y20485100D01*
X30861000Y20485100D02*
X381000Y20485100D01*
X381000Y20485100D02*
X381000Y165100D01*
X381000Y165100D02*
X30861000Y165100D01*
D17*
X22148000Y71208900D02*
G75*
G03X22148000Y71208900I-3840000J0D01*
G01*
X18308000Y67408900D02*
X18308000Y75008900D01*
X18268000Y67408900D02*
X18268000Y75008900D01*
X18228000Y67408900D02*
X18228000Y75008900D01*
X18188000Y67409900D02*
X18188000Y75007900D01*
X18148000Y67411900D02*
X18148000Y75005900D01*
X18108000Y67413900D02*
X18108000Y75003900D01*
X18068000Y67415900D02*
X18068000Y75001900D01*
X18028000Y67418900D02*
X18028000Y70228900D01*
X18028000Y72188900D02*
X18028000Y74998900D01*
X17988000Y67421900D02*
X17988000Y70228900D01*
X17988000Y72188900D02*
X17988000Y74995900D01*
X17948000Y67424900D02*
X17948000Y70228900D01*
X17948000Y72188900D02*
X17948000Y74992900D01*
X17908000Y67428900D02*
X17908000Y70228900D01*
X17908000Y72188900D02*
X17908000Y74988900D01*
X17868000Y67433900D02*
X17868000Y70228900D01*
X17868000Y72188900D02*
X17868000Y74983900D01*
X17828000Y67438900D02*
X17828000Y70228900D01*
X17828000Y72188900D02*
X17828000Y74978900D01*
X17788000Y67443900D02*
X17788000Y70228900D01*
X17788000Y72188900D02*
X17788000Y74973900D01*
X17748000Y67449900D02*
X17748000Y70228900D01*
X17748000Y72188900D02*
X17748000Y74967900D01*
X17708000Y67455900D02*
X17708000Y70228900D01*
X17708000Y72188900D02*
X17708000Y74961900D01*
X17668000Y67461900D02*
X17668000Y70228900D01*
X17668000Y72188900D02*
X17668000Y74955900D01*
X17628000Y67468900D02*
X17628000Y70228900D01*
X17628000Y72188900D02*
X17628000Y74948900D01*
X17587000Y67476900D02*
X17587000Y70228900D01*
X17587000Y72188900D02*
X17587000Y74940900D01*
X17547000Y67483900D02*
X17547000Y70228900D01*
X17547000Y72188900D02*
X17547000Y74933900D01*
X17507000Y67492900D02*
X17507000Y70228900D01*
X17507000Y72188900D02*
X17507000Y74924900D01*
X17467000Y67501900D02*
X17467000Y70228900D01*
X17467000Y72188900D02*
X17467000Y74915900D01*
X17427000Y67510900D02*
X17427000Y70228900D01*
X17427000Y72188900D02*
X17427000Y74906900D01*
X17387000Y67519900D02*
X17387000Y70228900D01*
X17387000Y72188900D02*
X17387000Y74897900D01*
X17347000Y67529900D02*
X17347000Y70228900D01*
X17347000Y72188900D02*
X17347000Y74887900D01*
X17307000Y67540900D02*
X17307000Y70228900D01*
X17307000Y72188900D02*
X17307000Y74876900D01*
X17267000Y67551900D02*
X17267000Y70228900D01*
X17267000Y72188900D02*
X17267000Y74865900D01*
X17227000Y67563900D02*
X17227000Y70228900D01*
X17227000Y72188900D02*
X17227000Y74853900D01*
X17187000Y67574900D02*
X17187000Y70228900D01*
X17187000Y72188900D02*
X17187000Y74842900D01*
X17147000Y67587900D02*
X17147000Y70228900D01*
X17147000Y72188900D02*
X17147000Y74829900D01*
X17107000Y67600900D02*
X17107000Y70228900D01*
X17107000Y72188900D02*
X17107000Y74816900D01*
X17067000Y67613900D02*
X17067000Y70228900D01*
X17067000Y72188900D02*
X17067000Y74803900D01*
X17027000Y67627900D02*
X17027000Y70228900D01*
X17027000Y72188900D02*
X17027000Y74789900D01*
X16987000Y67642900D02*
X16987000Y70228900D01*
X16987000Y72188900D02*
X16987000Y74774900D01*
X16947000Y67656900D02*
X16947000Y70228900D01*
X16947000Y72188900D02*
X16947000Y74760900D01*
X16907000Y67672900D02*
X16907000Y70228900D01*
X16907000Y72188900D02*
X16907000Y74744900D01*
X16867000Y67688900D02*
X16867000Y70228900D01*
X16867000Y72188900D02*
X16867000Y74728900D01*
X16827000Y67704900D02*
X16827000Y70228900D01*
X16827000Y72188900D02*
X16827000Y74712900D01*
X16787000Y67721900D02*
X16787000Y70228900D01*
X16787000Y72188900D02*
X16787000Y74695900D01*
X16747000Y67739900D02*
X16747000Y70228900D01*
X16747000Y72188900D02*
X16747000Y74677900D01*
X16707000Y67757900D02*
X16707000Y70228900D01*
X16707000Y72188900D02*
X16707000Y74659900D01*
X16667000Y67775900D02*
X16667000Y70228900D01*
X16667000Y72188900D02*
X16667000Y74641900D01*
X16627000Y67795900D02*
X16627000Y70228900D01*
X16627000Y72188900D02*
X16627000Y74621900D01*
X16587000Y67814900D02*
X16587000Y70228900D01*
X16587000Y72188900D02*
X16587000Y74602900D01*
X16547000Y67835900D02*
X16547000Y70228900D01*
X16547000Y72188900D02*
X16547000Y74581900D01*
X16507000Y67856900D02*
X16507000Y70228900D01*
X16507000Y72188900D02*
X16507000Y74560900D01*
X16467000Y67877900D02*
X16467000Y70228900D01*
X16467000Y72188900D02*
X16467000Y74539900D01*
X16427000Y67899900D02*
X16427000Y70228900D01*
X16427000Y72188900D02*
X16427000Y74517900D01*
X16387000Y67922900D02*
X16387000Y70228900D01*
X16387000Y72188900D02*
X16387000Y74494900D01*
X16347000Y67945900D02*
X16347000Y70228900D01*
X16347000Y72188900D02*
X16347000Y74471900D01*
X16307000Y67969900D02*
X16307000Y70228900D01*
X16307000Y72188900D02*
X16307000Y74447900D01*
X16267000Y67994900D02*
X16267000Y70228900D01*
X16267000Y72188900D02*
X16267000Y74422900D01*
X16227000Y68020900D02*
X16227000Y70228900D01*
X16227000Y72188900D02*
X16227000Y74396900D01*
X16187000Y68046900D02*
X16187000Y70228900D01*
X16187000Y72188900D02*
X16187000Y74370900D01*
X16147000Y68073900D02*
X16147000Y70228900D01*
X16147000Y72188900D02*
X16147000Y74343900D01*
X16107000Y68100900D02*
X16107000Y70228900D01*
X16107000Y72188900D02*
X16107000Y74316900D01*
X16067000Y68129900D02*
X16067000Y74287900D01*
X16027000Y68158900D02*
X16027000Y74258900D01*
X15987000Y68188900D02*
X15987000Y74228900D01*
X15947000Y68218900D02*
X15947000Y74198900D01*
X15907000Y68250900D02*
X15907000Y74166900D01*
X15867000Y68282900D02*
X15867000Y74134900D01*
X15827000Y68316900D02*
X15827000Y74100900D01*
X15787000Y68350900D02*
X15787000Y74066900D01*
X15747000Y68385900D02*
X15747000Y74031900D01*
X15707000Y68422900D02*
X15707000Y73994900D01*
X15667000Y68459900D02*
X15667000Y73957900D01*
X15627000Y68497900D02*
X15627000Y73919900D01*
X15587000Y68537900D02*
X15587000Y73879900D01*
X15547000Y68578900D02*
X15547000Y73838900D01*
X15507000Y68620900D02*
X15507000Y73796900D01*
X15467000Y68663900D02*
X15467000Y73753900D01*
X15427000Y68708900D02*
X15427000Y73708900D01*
X15387000Y68754900D02*
X15387000Y73662900D01*
X15347000Y68801900D02*
X15347000Y73615900D01*
X15307000Y68851900D02*
X15307000Y73565900D01*
X15267000Y68901900D02*
X15267000Y73515900D01*
X15227000Y68954900D02*
X15227000Y73462900D01*
X15187000Y69009900D02*
X15187000Y73407900D01*
X15147000Y69066900D02*
X15147000Y73350900D01*
X15107000Y69125900D02*
X15107000Y73291900D01*
X15067000Y69186900D02*
X15067000Y73230900D01*
X15027000Y69251900D02*
X15027000Y73165900D01*
X14987000Y69318900D02*
X14987000Y73098900D01*
X14947000Y69388900D02*
X14947000Y73028900D01*
X14907000Y69463900D02*
X14907000Y72953900D01*
X14867000Y69541900D02*
X14867000Y72875900D01*
X14827000Y69624900D02*
X14827000Y72792900D01*
X14787000Y69713900D02*
X14787000Y72703900D01*
X14747000Y69808900D02*
X14747000Y72608900D01*
X14707000Y69911900D02*
X14707000Y72505900D01*
X14667000Y70024900D02*
X14667000Y72392900D01*
X14627000Y70151900D02*
X14627000Y72265900D01*
X14587000Y70295900D02*
X14587000Y72121900D01*
X14547000Y70468900D02*
X14547000Y71948900D01*
X14507000Y70695900D02*
X14507000Y71721900D01*
X21758000Y71208900D02*
X20558000Y71208900D01*
X21158000Y70558900D02*
X21158000Y71858900D01*
X28274800Y83838100D02*
G75*
G03X28274800Y83838100I-3840000J0D01*
G01*
X20634800Y83838100D02*
X28234800Y83838100D01*
X20634800Y83878100D02*
X28234800Y83878100D01*
X20634800Y83918100D02*
X28234800Y83918100D01*
X20635800Y83958100D02*
X28233800Y83958100D01*
X20637800Y83998100D02*
X28231800Y83998100D01*
X20639800Y84038100D02*
X28229800Y84038100D01*
X20641800Y84078100D02*
X28227800Y84078100D01*
X20644800Y84118100D02*
X23454800Y84118100D01*
X25414800Y84118100D02*
X28224800Y84118100D01*
X20647800Y84158100D02*
X23454800Y84158100D01*
X25414800Y84158100D02*
X28221800Y84158100D01*
X20650800Y84198100D02*
X23454800Y84198100D01*
X25414800Y84198100D02*
X28218800Y84198100D01*
X20654800Y84238100D02*
X23454800Y84238100D01*
X25414800Y84238100D02*
X28214800Y84238100D01*
X20659800Y84278100D02*
X23454800Y84278100D01*
X25414800Y84278100D02*
X28209800Y84278100D01*
X20664800Y84318100D02*
X23454800Y84318100D01*
X25414800Y84318100D02*
X28204800Y84318100D01*
X20669800Y84358100D02*
X23454800Y84358100D01*
X25414800Y84358100D02*
X28199800Y84358100D01*
X20675800Y84398100D02*
X23454800Y84398100D01*
X25414800Y84398100D02*
X28193800Y84398100D01*
X20681800Y84438100D02*
X23454800Y84438100D01*
X25414800Y84438100D02*
X28187800Y84438100D01*
X20687800Y84478100D02*
X23454800Y84478100D01*
X25414800Y84478100D02*
X28181800Y84478100D01*
X20694800Y84518100D02*
X23454800Y84518100D01*
X25414800Y84518100D02*
X28174800Y84518100D01*
X20702800Y84559100D02*
X23454800Y84559100D01*
X25414800Y84559100D02*
X28166800Y84559100D01*
X20709800Y84599100D02*
X23454800Y84599100D01*
X25414800Y84599100D02*
X28159800Y84599100D01*
X20718800Y84639100D02*
X23454800Y84639100D01*
X25414800Y84639100D02*
X28150800Y84639100D01*
X20727800Y84679100D02*
X23454800Y84679100D01*
X25414800Y84679100D02*
X28141800Y84679100D01*
X20736800Y84719100D02*
X23454800Y84719100D01*
X25414800Y84719100D02*
X28132800Y84719100D01*
X20745800Y84759100D02*
X23454800Y84759100D01*
X25414800Y84759100D02*
X28123800Y84759100D01*
X20755800Y84799100D02*
X23454800Y84799100D01*
X25414800Y84799100D02*
X28113800Y84799100D01*
X20766800Y84839100D02*
X23454800Y84839100D01*
X25414800Y84839100D02*
X28102800Y84839100D01*
X20777800Y84879100D02*
X23454800Y84879100D01*
X25414800Y84879100D02*
X28091800Y84879100D01*
X20789800Y84919100D02*
X23454800Y84919100D01*
X25414800Y84919100D02*
X28079800Y84919100D01*
X20800800Y84959100D02*
X23454800Y84959100D01*
X25414800Y84959100D02*
X28068800Y84959100D01*
X20813800Y84999100D02*
X23454800Y84999100D01*
X25414800Y84999100D02*
X28055800Y84999100D01*
X20826800Y85039100D02*
X23454800Y85039100D01*
X25414800Y85039100D02*
X28042800Y85039100D01*
X20839800Y85079100D02*
X23454800Y85079100D01*
X25414800Y85079100D02*
X28029800Y85079100D01*
X20853800Y85119100D02*
X23454800Y85119100D01*
X25414800Y85119100D02*
X28015800Y85119100D01*
X20868800Y85159100D02*
X23454800Y85159100D01*
X25414800Y85159100D02*
X28000800Y85159100D01*
X20882800Y85199100D02*
X23454800Y85199100D01*
X25414800Y85199100D02*
X27986800Y85199100D01*
X20898800Y85239100D02*
X23454800Y85239100D01*
X25414800Y85239100D02*
X27970800Y85239100D01*
X20914800Y85279100D02*
X23454800Y85279100D01*
X25414800Y85279100D02*
X27954800Y85279100D01*
X20930800Y85319100D02*
X23454800Y85319100D01*
X25414800Y85319100D02*
X27938800Y85319100D01*
X20947800Y85359100D02*
X23454800Y85359100D01*
X25414800Y85359100D02*
X27921800Y85359100D01*
X20965800Y85399100D02*
X23454800Y85399100D01*
X25414800Y85399100D02*
X27903800Y85399100D01*
X20983800Y85439100D02*
X23454800Y85439100D01*
X25414800Y85439100D02*
X27885800Y85439100D01*
X21001800Y85479100D02*
X23454800Y85479100D01*
X25414800Y85479100D02*
X27867800Y85479100D01*
X21021800Y85519100D02*
X23454800Y85519100D01*
X25414800Y85519100D02*
X27847800Y85519100D01*
X21040800Y85559100D02*
X23454800Y85559100D01*
X25414800Y85559100D02*
X27828800Y85559100D01*
X21061800Y85599100D02*
X23454800Y85599100D01*
X25414800Y85599100D02*
X27807800Y85599100D01*
X21082800Y85639100D02*
X23454800Y85639100D01*
X25414800Y85639100D02*
X27786800Y85639100D01*
X21103800Y85679100D02*
X23454800Y85679100D01*
X25414800Y85679100D02*
X27765800Y85679100D01*
X21125800Y85719100D02*
X23454800Y85719100D01*
X25414800Y85719100D02*
X27743800Y85719100D01*
X21148800Y85759100D02*
X23454800Y85759100D01*
X25414800Y85759100D02*
X27720800Y85759100D01*
X21171800Y85799100D02*
X23454800Y85799100D01*
X25414800Y85799100D02*
X27697800Y85799100D01*
X21195800Y85839100D02*
X23454800Y85839100D01*
X25414800Y85839100D02*
X27673800Y85839100D01*
X21220800Y85879100D02*
X23454800Y85879100D01*
X25414800Y85879100D02*
X27648800Y85879100D01*
X21246800Y85919100D02*
X23454800Y85919100D01*
X25414800Y85919100D02*
X27622800Y85919100D01*
X21272800Y85959100D02*
X23454800Y85959100D01*
X25414800Y85959100D02*
X27596800Y85959100D01*
X21299800Y85999100D02*
X23454800Y85999100D01*
X25414800Y85999100D02*
X27569800Y85999100D01*
X21326800Y86039100D02*
X23454800Y86039100D01*
X25414800Y86039100D02*
X27542800Y86039100D01*
X21355800Y86079100D02*
X27513800Y86079100D01*
X21384800Y86119100D02*
X27484800Y86119100D01*
X21414800Y86159100D02*
X27454800Y86159100D01*
X21444800Y86199100D02*
X27424800Y86199100D01*
X21476800Y86239100D02*
X27392800Y86239100D01*
X21508800Y86279100D02*
X27360800Y86279100D01*
X21542800Y86319100D02*
X27326800Y86319100D01*
X21576800Y86359100D02*
X27292800Y86359100D01*
X21611800Y86399100D02*
X27257800Y86399100D01*
X21648800Y86439100D02*
X27220800Y86439100D01*
X21685800Y86479100D02*
X27183800Y86479100D01*
X21723800Y86519100D02*
X27145800Y86519100D01*
X21763800Y86559100D02*
X27105800Y86559100D01*
X21804800Y86599100D02*
X27064800Y86599100D01*
X21846800Y86639100D02*
X27022800Y86639100D01*
X21889800Y86679100D02*
X26979800Y86679100D01*
X21934800Y86719100D02*
X26934800Y86719100D01*
X21980800Y86759100D02*
X26888800Y86759100D01*
X22027800Y86799100D02*
X26841800Y86799100D01*
X22077800Y86839100D02*
X26791800Y86839100D01*
X22127800Y86879100D02*
X26741800Y86879100D01*
X22180800Y86919100D02*
X26688800Y86919100D01*
X22235800Y86959100D02*
X26633800Y86959100D01*
X22292800Y86999100D02*
X26576800Y86999100D01*
X22351800Y87039100D02*
X26517800Y87039100D01*
X22412800Y87079100D02*
X26456800Y87079100D01*
X22477800Y87119100D02*
X26391800Y87119100D01*
X22544800Y87159100D02*
X26324800Y87159100D01*
X22614800Y87199100D02*
X26254800Y87199100D01*
X22689800Y87239100D02*
X26179800Y87239100D01*
X22767800Y87279100D02*
X26101800Y87279100D01*
X22850800Y87319100D02*
X26018800Y87319100D01*
X22939800Y87359100D02*
X25929800Y87359100D01*
X23034800Y87399100D02*
X25834800Y87399100D01*
X23137800Y87439100D02*
X25731800Y87439100D01*
X23250800Y87479100D02*
X25618800Y87479100D01*
X23377800Y87519100D02*
X25491800Y87519100D01*
X23521800Y87559100D02*
X25347800Y87559100D01*
X23694800Y87599100D02*
X25174800Y87599100D01*
X23921800Y87639100D02*
X24947800Y87639100D01*
X24434800Y80388100D02*
X24434800Y81588100D01*
X23784800Y80988100D02*
X25084800Y80988100D01*
X40898600Y71188900D02*
G75*
G03X40898600Y71188900I-3840000J0D01*
G01*
X33258600Y71188900D02*
X40858600Y71188900D01*
X33258600Y71228900D02*
X40858600Y71228900D01*
X33258600Y71268900D02*
X40858600Y71268900D01*
X33259600Y71308900D02*
X40857600Y71308900D01*
X33261600Y71348900D02*
X40855600Y71348900D01*
X33263600Y71388900D02*
X40853600Y71388900D01*
X33265600Y71428900D02*
X40851600Y71428900D01*
X33268600Y71468900D02*
X36078600Y71468900D01*
X38038600Y71468900D02*
X40848600Y71468900D01*
X33271600Y71508900D02*
X36078600Y71508900D01*
X38038600Y71508900D02*
X40845600Y71508900D01*
X33274600Y71548900D02*
X36078600Y71548900D01*
X38038600Y71548900D02*
X40842600Y71548900D01*
X33278600Y71588900D02*
X36078600Y71588900D01*
X38038600Y71588900D02*
X40838600Y71588900D01*
X33283600Y71628900D02*
X36078600Y71628900D01*
X38038600Y71628900D02*
X40833600Y71628900D01*
X33288600Y71668900D02*
X36078600Y71668900D01*
X38038600Y71668900D02*
X40828600Y71668900D01*
X33293600Y71708900D02*
X36078600Y71708900D01*
X38038600Y71708900D02*
X40823600Y71708900D01*
X33299600Y71748900D02*
X36078600Y71748900D01*
X38038600Y71748900D02*
X40817600Y71748900D01*
X33305600Y71788900D02*
X36078600Y71788900D01*
X38038600Y71788900D02*
X40811600Y71788900D01*
X33311600Y71828900D02*
X36078600Y71828900D01*
X38038600Y71828900D02*
X40805600Y71828900D01*
X33318600Y71868900D02*
X36078600Y71868900D01*
X38038600Y71868900D02*
X40798600Y71868900D01*
X33326600Y71909900D02*
X36078600Y71909900D01*
X38038600Y71909900D02*
X40790600Y71909900D01*
X33333600Y71949900D02*
X36078600Y71949900D01*
X38038600Y71949900D02*
X40783600Y71949900D01*
X33342600Y71989900D02*
X36078600Y71989900D01*
X38038600Y71989900D02*
X40774600Y71989900D01*
X33351600Y72029900D02*
X36078600Y72029900D01*
X38038600Y72029900D02*
X40765600Y72029900D01*
X33360600Y72069900D02*
X36078600Y72069900D01*
X38038600Y72069900D02*
X40756600Y72069900D01*
X33369600Y72109900D02*
X36078600Y72109900D01*
X38038600Y72109900D02*
X40747600Y72109900D01*
X33379600Y72149900D02*
X36078600Y72149900D01*
X38038600Y72149900D02*
X40737600Y72149900D01*
X33390600Y72189900D02*
X36078600Y72189900D01*
X38038600Y72189900D02*
X40726600Y72189900D01*
X33401600Y72229900D02*
X36078600Y72229900D01*
X38038600Y72229900D02*
X40715600Y72229900D01*
X33413600Y72269900D02*
X36078600Y72269900D01*
X38038600Y72269900D02*
X40703600Y72269900D01*
X33424600Y72309900D02*
X36078600Y72309900D01*
X38038600Y72309900D02*
X40692600Y72309900D01*
X33437600Y72349900D02*
X36078600Y72349900D01*
X38038600Y72349900D02*
X40679600Y72349900D01*
X33450600Y72389900D02*
X36078600Y72389900D01*
X38038600Y72389900D02*
X40666600Y72389900D01*
X33463600Y72429900D02*
X36078600Y72429900D01*
X38038600Y72429900D02*
X40653600Y72429900D01*
X33477600Y72469900D02*
X36078600Y72469900D01*
X38038600Y72469900D02*
X40639600Y72469900D01*
X33492600Y72509900D02*
X36078600Y72509900D01*
X38038600Y72509900D02*
X40624600Y72509900D01*
X33506600Y72549900D02*
X36078600Y72549900D01*
X38038600Y72549900D02*
X40610600Y72549900D01*
X33522600Y72589900D02*
X36078600Y72589900D01*
X38038600Y72589900D02*
X40594600Y72589900D01*
X33538600Y72629900D02*
X36078600Y72629900D01*
X38038600Y72629900D02*
X40578600Y72629900D01*
X33554600Y72669900D02*
X36078600Y72669900D01*
X38038600Y72669900D02*
X40562600Y72669900D01*
X33571600Y72709900D02*
X36078600Y72709900D01*
X38038600Y72709900D02*
X40545600Y72709900D01*
X33589600Y72749900D02*
X36078600Y72749900D01*
X38038600Y72749900D02*
X40527600Y72749900D01*
X33607600Y72789900D02*
X36078600Y72789900D01*
X38038600Y72789900D02*
X40509600Y72789900D01*
X33625600Y72829900D02*
X36078600Y72829900D01*
X38038600Y72829900D02*
X40491600Y72829900D01*
X33645600Y72869900D02*
X36078600Y72869900D01*
X38038600Y72869900D02*
X40471600Y72869900D01*
X33664600Y72909900D02*
X36078600Y72909900D01*
X38038600Y72909900D02*
X40452600Y72909900D01*
X33685600Y72949900D02*
X36078600Y72949900D01*
X38038600Y72949900D02*
X40431600Y72949900D01*
X33706600Y72989900D02*
X36078600Y72989900D01*
X38038600Y72989900D02*
X40410600Y72989900D01*
X33727600Y73029900D02*
X36078600Y73029900D01*
X38038600Y73029900D02*
X40389600Y73029900D01*
X33749600Y73069900D02*
X36078600Y73069900D01*
X38038600Y73069900D02*
X40367600Y73069900D01*
X33772600Y73109900D02*
X36078600Y73109900D01*
X38038600Y73109900D02*
X40344600Y73109900D01*
X33795600Y73149900D02*
X36078600Y73149900D01*
X38038600Y73149900D02*
X40321600Y73149900D01*
X33819600Y73189900D02*
X36078600Y73189900D01*
X38038600Y73189900D02*
X40297600Y73189900D01*
X33844600Y73229900D02*
X36078600Y73229900D01*
X38038600Y73229900D02*
X40272600Y73229900D01*
X33870600Y73269900D02*
X36078600Y73269900D01*
X38038600Y73269900D02*
X40246600Y73269900D01*
X33896600Y73309900D02*
X36078600Y73309900D01*
X38038600Y73309900D02*
X40220600Y73309900D01*
X33923600Y73349900D02*
X36078600Y73349900D01*
X38038600Y73349900D02*
X40193600Y73349900D01*
X33950600Y73389900D02*
X36078600Y73389900D01*
X38038600Y73389900D02*
X40166600Y73389900D01*
X33979600Y73429900D02*
X40137600Y73429900D01*
X34008600Y73469900D02*
X40108600Y73469900D01*
X34038600Y73509900D02*
X40078600Y73509900D01*
X34068600Y73549900D02*
X40048600Y73549900D01*
X34100600Y73589900D02*
X40016600Y73589900D01*
X34132600Y73629900D02*
X39984600Y73629900D01*
X34166600Y73669900D02*
X39950600Y73669900D01*
X34200600Y73709900D02*
X39916600Y73709900D01*
X34235600Y73749900D02*
X39881600Y73749900D01*
X34272600Y73789900D02*
X39844600Y73789900D01*
X34309600Y73829900D02*
X39807600Y73829900D01*
X34347600Y73869900D02*
X39769600Y73869900D01*
X34387600Y73909900D02*
X39729600Y73909900D01*
X34428600Y73949900D02*
X39688600Y73949900D01*
X34470600Y73989900D02*
X39646600Y73989900D01*
X34513600Y74029900D02*
X39603600Y74029900D01*
X34558600Y74069900D02*
X39558600Y74069900D01*
X34604600Y74109900D02*
X39512600Y74109900D01*
X34651600Y74149900D02*
X39465600Y74149900D01*
X34701600Y74189900D02*
X39415600Y74189900D01*
X34751600Y74229900D02*
X39365600Y74229900D01*
X34804600Y74269900D02*
X39312600Y74269900D01*
X34859600Y74309900D02*
X39257600Y74309900D01*
X34916600Y74349900D02*
X39200600Y74349900D01*
X34975600Y74389900D02*
X39141600Y74389900D01*
X35036600Y74429900D02*
X39080600Y74429900D01*
X35101600Y74469900D02*
X39015600Y74469900D01*
X35168600Y74509900D02*
X38948600Y74509900D01*
X35238600Y74549900D02*
X38878600Y74549900D01*
X35313600Y74589900D02*
X38803600Y74589900D01*
X35391600Y74629900D02*
X38725600Y74629900D01*
X35474600Y74669900D02*
X38642600Y74669900D01*
X35563600Y74709900D02*
X38553600Y74709900D01*
X35658600Y74749900D02*
X38458600Y74749900D01*
X35761600Y74789900D02*
X38355600Y74789900D01*
X35874600Y74829900D02*
X38242600Y74829900D01*
X36001600Y74869900D02*
X38115600Y74869900D01*
X36145600Y74909900D02*
X37971600Y74909900D01*
X36318600Y74949900D02*
X37798600Y74949900D01*
X36545600Y74989900D02*
X37571600Y74989900D01*
X37058600Y67738900D02*
X37058600Y68938900D01*
X36408600Y68338900D02*
X37708600Y68338900D01*
X36398200Y78785100D02*
X44138200Y78785100D01*
X44138200Y78785100D02*
X44138200Y84105100D01*
X44138200Y84105100D02*
X33738200Y84105100D01*
X33738200Y84105100D02*
X33738200Y81445100D01*
X33738200Y81445100D02*
X36398200Y81445100D01*
X36398200Y81445100D02*
X36398200Y78785100D01*
X35128200Y78785100D02*
X33738200Y78785100D01*
X33738200Y78785100D02*
X33738200Y80175100D01*
X36398200Y84119100D02*
X44138200Y84119100D01*
X44138200Y84119100D02*
X44138200Y89439100D01*
X44138200Y89439100D02*
X33738200Y89439100D01*
X33738200Y89439100D02*
X33738200Y86779100D01*
X33738200Y86779100D02*
X36398200Y86779100D01*
X36398200Y86779100D02*
X36398200Y84119100D01*
X35128200Y84119100D02*
X33738200Y84119100D01*
X33738200Y84119100D02*
X33738200Y85509100D01*
X36398200Y75737100D02*
X44138200Y75737100D01*
X44138200Y75737100D02*
X44138200Y78517100D01*
X44138200Y78517100D02*
X36398200Y78517100D01*
X36398200Y78517100D02*
X36398200Y75737100D01*
X35128200Y75737100D02*
X33738200Y75737100D01*
X33738200Y75737100D02*
X33738200Y77127100D01*
X35445700Y37637100D02*
X40645700Y37637100D01*
X40645700Y37637100D02*
X40645700Y40417100D01*
X40645700Y40417100D02*
X35445700Y40417100D01*
X35445700Y40417100D02*
X35445700Y37637100D01*
X34175700Y37637100D02*
X32785700Y37637100D01*
X32785700Y37637100D02*
X32785700Y39027100D01*
D18*
G36*
X42430700Y36804600D02*
X42430700Y27406600D01*
X40144700Y27406600D01*
X40144700Y27914600D01*
X41922700Y27914600D01*
X41922700Y29692600D01*
X40144700Y29692600D01*
X40144700Y27914600D01*
X40144700Y27406600D01*
X38874700Y27406600D01*
X38874700Y27914600D01*
X39890700Y27914600D01*
X39890700Y28676600D01*
X39636700Y28676600D01*
X39636700Y28930600D01*
X39890700Y28930600D01*
X39890700Y29184600D01*
X39636700Y29184600D01*
X39636700Y28930600D01*
X39636700Y28676600D01*
X39636700Y28168600D01*
X39128700Y28168600D01*
X39128700Y28422600D01*
X39382700Y28422600D01*
X39382700Y28930600D01*
X38874700Y28930600D01*
X38874700Y28676600D01*
X39128700Y28676600D01*
X39128700Y28422600D01*
X39128700Y28168600D01*
X38874700Y28168600D01*
X38874700Y27914600D01*
X38874700Y27406600D01*
X38366700Y27406600D01*
X38366700Y27914600D01*
X38620700Y27914600D01*
X38620700Y28168600D01*
X38874700Y28168600D01*
X38874700Y28422600D01*
X38366700Y28422600D01*
X38366700Y27914600D01*
X38366700Y27406600D01*
X37858700Y27406600D01*
X37858700Y27914600D01*
X38112700Y27914600D01*
X38112700Y28168600D01*
X37858700Y28168600D01*
X37858700Y27914600D01*
X37858700Y27406600D01*
X37096700Y27406600D01*
X37096700Y27914600D01*
X37604700Y27914600D01*
X37604700Y28168600D01*
X37350700Y28168600D01*
X37350700Y28422600D01*
X38366700Y28422600D01*
X38366700Y28930600D01*
X38874700Y28930600D01*
X38874700Y29184600D01*
X39128700Y29184600D01*
X39128700Y29438600D01*
X39382700Y29438600D01*
X39382700Y29692600D01*
X39636700Y29692600D01*
X39636700Y29438600D01*
X39890700Y29438600D01*
X39890700Y29946600D01*
X40398700Y29946600D01*
X40398700Y30200600D01*
X40652700Y30200600D01*
X40652700Y29946600D01*
X41160700Y29946600D01*
X41160700Y30200600D01*
X41414700Y30200600D01*
X41414700Y30454600D01*
X41922700Y30454600D01*
X41922700Y30708600D01*
X41668700Y30708600D01*
X41668700Y30962600D01*
X41414700Y30962600D01*
X41414700Y31216600D01*
X41160700Y31216600D01*
X41160700Y31470600D01*
X41668700Y31470600D01*
X41668700Y31216600D01*
X41922700Y31216600D01*
X41922700Y31724600D01*
X41668700Y31724600D01*
X41668700Y32232600D01*
X41922700Y32232600D01*
X41922700Y32994600D01*
X41668700Y32994600D01*
X41668700Y33248600D01*
X41668700Y33502600D01*
X41922700Y33502600D01*
X41922700Y34772600D01*
X41668700Y34772600D01*
X41668700Y35026600D01*
X41922700Y35026600D01*
X41922700Y35280600D01*
X41668700Y35280600D01*
X41668700Y35026600D01*
X41668700Y34772600D01*
X41414700Y34772600D01*
X41414700Y34264600D01*
X41668700Y34264600D01*
X41668700Y33502600D01*
X41668700Y33248600D01*
X41414700Y33248600D01*
X41414700Y33502600D01*
X40652700Y33502600D01*
X40652700Y32740600D01*
X40906700Y32740600D01*
X40906700Y33248600D01*
X41160700Y33248600D01*
X41160700Y32486600D01*
X40398700Y32486600D01*
X40398700Y32994600D01*
X40144700Y32994600D01*
X40144700Y33248600D01*
X40398700Y33248600D01*
X40398700Y33756600D01*
X41160700Y33756600D01*
X41160700Y34010600D01*
X40906700Y34010600D01*
X40906700Y34772600D01*
X41160700Y34772600D01*
X41160700Y35026600D01*
X41414700Y35026600D01*
X41414700Y35280600D01*
X41160700Y35280600D01*
X41160700Y35026600D01*
X40906700Y35026600D01*
X40906700Y35534600D01*
X40652700Y35534600D01*
X40652700Y35788600D01*
X41414700Y35788600D01*
X41414700Y35534600D01*
X41922700Y35534600D01*
X41922700Y35788600D01*
X41668700Y35788600D01*
X41668700Y36296600D01*
X41160700Y36296600D01*
X41160700Y36042600D01*
X40906700Y36042600D01*
X40906700Y36296600D01*
X40398700Y36296600D01*
X40398700Y35788600D01*
X40144700Y35788600D01*
X40144700Y36042600D01*
X39890700Y36042600D01*
X39890700Y35534600D01*
X39636700Y35534600D01*
X39636700Y36296600D01*
X39128700Y36296600D01*
X39128700Y35788600D01*
X38874700Y35788600D01*
X38874700Y36042600D01*
X38366700Y36042600D01*
X38366700Y36296600D01*
X37858700Y36296600D01*
X37858700Y36042600D01*
X37604700Y36042600D01*
X37604700Y35788600D01*
X37350700Y35788600D01*
X37350700Y36042600D01*
X37604700Y36042600D01*
X37604700Y36296600D01*
X37350700Y36296600D01*
X37350700Y36042600D01*
X37350700Y35788600D01*
X37350700Y35534600D01*
X37096700Y35534600D01*
X37096700Y36042600D01*
X36842700Y36042600D01*
X36842700Y35534600D01*
X36588700Y35534600D01*
X36588700Y35788600D01*
X36334700Y35788600D01*
X36334700Y35534600D01*
X36080700Y35534600D01*
X36080700Y35788600D01*
X36334700Y35788600D01*
X36334700Y36296600D01*
X36080700Y36296600D01*
X36080700Y35788600D01*
X36080700Y35534600D01*
X35826700Y35534600D01*
X35826700Y35788600D01*
X35572700Y35788600D01*
X35572700Y35280600D01*
X35826700Y35280600D01*
X35826700Y34772600D01*
X36080700Y34772600D01*
X36080700Y34518600D01*
X35826700Y34518600D01*
X35826700Y34264600D01*
X35064700Y34264600D01*
X35064700Y34010600D01*
X34810700Y34010600D01*
X34810700Y34264600D01*
X34556700Y34264600D01*
X34556700Y34010600D01*
X34048700Y34010600D01*
X34048700Y33248600D01*
X34302700Y33248600D01*
X34302700Y32994600D01*
X33794700Y32994600D01*
X33794700Y33756600D01*
X33540700Y33756600D01*
X33540700Y34010600D01*
X33794700Y34010600D01*
X33794700Y34264600D01*
X33540700Y34264600D01*
X33540700Y34518600D01*
X35318700Y34518600D01*
X35318700Y36296600D01*
X33540700Y36296600D01*
X33540700Y34518600D01*
X33540700Y34264600D01*
X33540700Y34010600D01*
X33540700Y33756600D01*
X33540700Y32486600D01*
X33794700Y32486600D01*
X33794700Y32740600D01*
X34556700Y32740600D01*
X34556700Y32486600D01*
X34810700Y32486600D01*
X34810700Y32232600D01*
X35064700Y32232600D01*
X35064700Y31978600D01*
X34302700Y31978600D01*
X34302700Y32232600D01*
X34556700Y32232600D01*
X34556700Y32486600D01*
X34302700Y32486600D01*
X34302700Y32232600D01*
X34302700Y31978600D01*
X34048700Y31978600D01*
X34048700Y31724600D01*
X33540700Y31724600D01*
X33540700Y31978600D01*
X34048700Y31978600D01*
X34048700Y32232600D01*
X33540700Y32232600D01*
X33540700Y31978600D01*
X33540700Y31724600D01*
X33540700Y31470600D01*
X34048700Y31470600D01*
X34048700Y31216600D01*
X33794700Y31216600D01*
X33794700Y30962600D01*
X33540700Y30962600D01*
X33540700Y30200600D01*
X34048700Y30200600D01*
X34048700Y30962600D01*
X34556700Y30962600D01*
X34556700Y31216600D01*
X35064700Y31216600D01*
X35064700Y30962600D01*
X35318700Y30962600D01*
X35318700Y30708600D01*
X34810700Y30708600D01*
X34810700Y30454600D01*
X35572700Y30454600D01*
X35572700Y30200600D01*
X36080700Y30200600D01*
X36080700Y29946600D01*
X35572700Y29946600D01*
X35572700Y29438600D01*
X35826700Y29438600D01*
X35826700Y29692600D01*
X36080700Y29692600D01*
X36080700Y29184600D01*
X35572700Y29184600D01*
X35572700Y28676600D01*
X35826700Y28676600D01*
X35826700Y28930600D01*
X36588700Y28930600D01*
X36588700Y28676600D01*
X36842700Y28676600D01*
X36842700Y28930600D01*
X37096700Y28930600D01*
X37096700Y27914600D01*
X37096700Y27406600D01*
X36334700Y27406600D01*
X36334700Y27914600D01*
X36842700Y27914600D01*
X36842700Y28422600D01*
X36588700Y28422600D01*
X36588700Y28168600D01*
X36334700Y28168600D01*
X36334700Y27914600D01*
X36334700Y27406600D01*
X35826700Y27406600D01*
X35826700Y27914600D01*
X36080700Y27914600D01*
X36080700Y28676600D01*
X35826700Y28676600D01*
X35826700Y27914600D01*
X35826700Y27406600D01*
X33540700Y27406600D01*
X33540700Y27914600D01*
X35318700Y27914600D01*
X35318700Y29692600D01*
X35064700Y29692600D01*
X35064700Y29946600D01*
X35318700Y29946600D01*
X35318700Y30200600D01*
X35064700Y30200600D01*
X35064700Y29946600D01*
X35064700Y29692600D01*
X34048700Y29692600D01*
X34048700Y29946600D01*
X34556700Y29946600D01*
X34556700Y30200600D01*
X34048700Y30200600D01*
X34048700Y29946600D01*
X34048700Y29692600D01*
X33540700Y29692600D01*
X33540700Y27914600D01*
X33540700Y27406600D01*
X33032700Y27406600D01*
X33032700Y36804600D01*
X42430700Y36804600D01*
X42430700Y36804600D01*
G37*
X42430700Y36804600D02*
X42430700Y27406600D01*
X40144700Y27406600D01*
X40144700Y27914600D01*
X41922700Y27914600D01*
X41922700Y29692600D01*
X40144700Y29692600D01*
X40144700Y27914600D01*
X40144700Y27406600D01*
X38874700Y27406600D01*
X38874700Y27914600D01*
X39890700Y27914600D01*
X39890700Y28676600D01*
X39636700Y28676600D01*
X39636700Y28930600D01*
X39890700Y28930600D01*
X39890700Y29184600D01*
X39636700Y29184600D01*
X39636700Y28930600D01*
X39636700Y28676600D01*
X39636700Y28168600D01*
X39128700Y28168600D01*
X39128700Y28422600D01*
X39382700Y28422600D01*
X39382700Y28930600D01*
X38874700Y28930600D01*
X38874700Y28676600D01*
X39128700Y28676600D01*
X39128700Y28422600D01*
X39128700Y28168600D01*
X38874700Y28168600D01*
X38874700Y27914600D01*
X38874700Y27406600D01*
X38366700Y27406600D01*
X38366700Y27914600D01*
X38620700Y27914600D01*
X38620700Y28168600D01*
X38874700Y28168600D01*
X38874700Y28422600D01*
X38366700Y28422600D01*
X38366700Y27914600D01*
X38366700Y27406600D01*
X37858700Y27406600D01*
X37858700Y27914600D01*
X38112700Y27914600D01*
X38112700Y28168600D01*
X37858700Y28168600D01*
X37858700Y27914600D01*
X37858700Y27406600D01*
X37096700Y27406600D01*
X37096700Y27914600D01*
X37604700Y27914600D01*
X37604700Y28168600D01*
X37350700Y28168600D01*
X37350700Y28422600D01*
X38366700Y28422600D01*
X38366700Y28930600D01*
X38874700Y28930600D01*
X38874700Y29184600D01*
X39128700Y29184600D01*
X39128700Y29438600D01*
X39382700Y29438600D01*
X39382700Y29692600D01*
X39636700Y29692600D01*
X39636700Y29438600D01*
X39890700Y29438600D01*
X39890700Y29946600D01*
X40398700Y29946600D01*
X40398700Y30200600D01*
X40652700Y30200600D01*
X40652700Y29946600D01*
X41160700Y29946600D01*
X41160700Y30200600D01*
X41414700Y30200600D01*
X41414700Y30454600D01*
X41922700Y30454600D01*
X41922700Y30708600D01*
X41668700Y30708600D01*
X41668700Y30962600D01*
X41414700Y30962600D01*
X41414700Y31216600D01*
X41160700Y31216600D01*
X41160700Y31470600D01*
X41668700Y31470600D01*
X41668700Y31216600D01*
X41922700Y31216600D01*
X41922700Y31724600D01*
X41668700Y31724600D01*
X41668700Y32232600D01*
X41922700Y32232600D01*
X41922700Y32994600D01*
X41668700Y32994600D01*
X41668700Y33248600D01*
X41668700Y33502600D01*
X41922700Y33502600D01*
X41922700Y34772600D01*
X41668700Y34772600D01*
X41668700Y35026600D01*
X41922700Y35026600D01*
X41922700Y35280600D01*
X41668700Y35280600D01*
X41668700Y35026600D01*
X41668700Y34772600D01*
X41414700Y34772600D01*
X41414700Y34264600D01*
X41668700Y34264600D01*
X41668700Y33502600D01*
X41668700Y33248600D01*
X41414700Y33248600D01*
X41414700Y33502600D01*
X40652700Y33502600D01*
X40652700Y32740600D01*
X40906700Y32740600D01*
X40906700Y33248600D01*
X41160700Y33248600D01*
X41160700Y32486600D01*
X40398700Y32486600D01*
X40398700Y32994600D01*
X40144700Y32994600D01*
X40144700Y33248600D01*
X40398700Y33248600D01*
X40398700Y33756600D01*
X41160700Y33756600D01*
X41160700Y34010600D01*
X40906700Y34010600D01*
X40906700Y34772600D01*
X41160700Y34772600D01*
X41160700Y35026600D01*
X41414700Y35026600D01*
X41414700Y35280600D01*
X41160700Y35280600D01*
X41160700Y35026600D01*
X40906700Y35026600D01*
X40906700Y35534600D01*
X40652700Y35534600D01*
X40652700Y35788600D01*
X41414700Y35788600D01*
X41414700Y35534600D01*
X41922700Y35534600D01*
X41922700Y35788600D01*
X41668700Y35788600D01*
X41668700Y36296600D01*
X41160700Y36296600D01*
X41160700Y36042600D01*
X40906700Y36042600D01*
X40906700Y36296600D01*
X40398700Y36296600D01*
X40398700Y35788600D01*
X40144700Y35788600D01*
X40144700Y36042600D01*
X39890700Y36042600D01*
X39890700Y35534600D01*
X39636700Y35534600D01*
X39636700Y36296600D01*
X39128700Y36296600D01*
X39128700Y35788600D01*
X38874700Y35788600D01*
X38874700Y36042600D01*
X38366700Y36042600D01*
X38366700Y36296600D01*
X37858700Y36296600D01*
X37858700Y36042600D01*
X37604700Y36042600D01*
X37604700Y35788600D01*
X37350700Y35788600D01*
X37350700Y36042600D01*
X37604700Y36042600D01*
X37604700Y36296600D01*
X37350700Y36296600D01*
X37350700Y36042600D01*
X37350700Y35788600D01*
X37350700Y35534600D01*
X37096700Y35534600D01*
X37096700Y36042600D01*
X36842700Y36042600D01*
X36842700Y35534600D01*
X36588700Y35534600D01*
X36588700Y35788600D01*
X36334700Y35788600D01*
X36334700Y35534600D01*
X36080700Y35534600D01*
X36080700Y35788600D01*
X36334700Y35788600D01*
X36334700Y36296600D01*
X36080700Y36296600D01*
X36080700Y35788600D01*
X36080700Y35534600D01*
X35826700Y35534600D01*
X35826700Y35788600D01*
X35572700Y35788600D01*
X35572700Y35280600D01*
X35826700Y35280600D01*
X35826700Y34772600D01*
X36080700Y34772600D01*
X36080700Y34518600D01*
X35826700Y34518600D01*
X35826700Y34264600D01*
X35064700Y34264600D01*
X35064700Y34010600D01*
X34810700Y34010600D01*
X34810700Y34264600D01*
X34556700Y34264600D01*
X34556700Y34010600D01*
X34048700Y34010600D01*
X34048700Y33248600D01*
X34302700Y33248600D01*
X34302700Y32994600D01*
X33794700Y32994600D01*
X33794700Y33756600D01*
X33540700Y33756600D01*
X33540700Y34010600D01*
X33794700Y34010600D01*
X33794700Y34264600D01*
X33540700Y34264600D01*
X33540700Y34518600D01*
X35318700Y34518600D01*
X35318700Y36296600D01*
X33540700Y36296600D01*
X33540700Y34518600D01*
X33540700Y34264600D01*
X33540700Y34010600D01*
X33540700Y33756600D01*
X33540700Y32486600D01*
X33794700Y32486600D01*
X33794700Y32740600D01*
X34556700Y32740600D01*
X34556700Y32486600D01*
X34810700Y32486600D01*
X34810700Y32232600D01*
X35064700Y32232600D01*
X35064700Y31978600D01*
X34302700Y31978600D01*
X34302700Y32232600D01*
X34556700Y32232600D01*
X34556700Y32486600D01*
X34302700Y32486600D01*
X34302700Y32232600D01*
X34302700Y31978600D01*
X34048700Y31978600D01*
X34048700Y31724600D01*
X33540700Y31724600D01*
X33540700Y31978600D01*
X34048700Y31978600D01*
X34048700Y32232600D01*
X33540700Y32232600D01*
X33540700Y31978600D01*
X33540700Y31724600D01*
X33540700Y31470600D01*
X34048700Y31470600D01*
X34048700Y31216600D01*
X33794700Y31216600D01*
X33794700Y30962600D01*
X33540700Y30962600D01*
X33540700Y30200600D01*
X34048700Y30200600D01*
X34048700Y30962600D01*
X34556700Y30962600D01*
X34556700Y31216600D01*
X35064700Y31216600D01*
X35064700Y30962600D01*
X35318700Y30962600D01*
X35318700Y30708600D01*
X34810700Y30708600D01*
X34810700Y30454600D01*
X35572700Y30454600D01*
X35572700Y30200600D01*
X36080700Y30200600D01*
X36080700Y29946600D01*
X35572700Y29946600D01*
X35572700Y29438600D01*
X35826700Y29438600D01*
X35826700Y29692600D01*
X36080700Y29692600D01*
X36080700Y29184600D01*
X35572700Y29184600D01*
X35572700Y28676600D01*
X35826700Y28676600D01*
X35826700Y28930600D01*
X36588700Y28930600D01*
X36588700Y28676600D01*
X36842700Y28676600D01*
X36842700Y28930600D01*
X37096700Y28930600D01*
X37096700Y27914600D01*
X37096700Y27406600D01*
X36334700Y27406600D01*
X36334700Y27914600D01*
X36842700Y27914600D01*
X36842700Y28422600D01*
X36588700Y28422600D01*
X36588700Y28168600D01*
X36334700Y28168600D01*
X36334700Y27914600D01*
X36334700Y27406600D01*
X35826700Y27406600D01*
X35826700Y27914600D01*
X36080700Y27914600D01*
X36080700Y28676600D01*
X35826700Y28676600D01*
X35826700Y27914600D01*
X35826700Y27406600D01*
X33540700Y27406600D01*
X33540700Y27914600D01*
X35318700Y27914600D01*
X35318700Y29692600D01*
X35064700Y29692600D01*
X35064700Y29946600D01*
X35318700Y29946600D01*
X35318700Y30200600D01*
X35064700Y30200600D01*
X35064700Y29946600D01*
X35064700Y29692600D01*
X34048700Y29692600D01*
X34048700Y29946600D01*
X34556700Y29946600D01*
X34556700Y30200600D01*
X34048700Y30200600D01*
X34048700Y29946600D01*
X34048700Y29692600D01*
X33540700Y29692600D01*
X33540700Y27914600D01*
X33540700Y27406600D01*
X33032700Y27406600D01*
X33032700Y36804600D01*
X42430700Y36804600D01*
G36*
X41668700Y29438600D02*
X41668700Y28168600D01*
X40652700Y28168600D01*
X40652700Y28422600D01*
X41414700Y28422600D01*
X41414700Y29184600D01*
X40652700Y29184600D01*
X40652700Y28422600D01*
X40652700Y28168600D01*
X40398700Y28168600D01*
X40398700Y29438600D01*
X41668700Y29438600D01*
X41668700Y29438600D01*
G37*
X41668700Y29438600D02*
X41668700Y28168600D01*
X40652700Y28168600D01*
X40652700Y28422600D01*
X41414700Y28422600D01*
X41414700Y29184600D01*
X40652700Y29184600D01*
X40652700Y28422600D01*
X40652700Y28168600D01*
X40398700Y28168600D01*
X40398700Y29438600D01*
X41668700Y29438600D01*
G36*
X41414700Y30962600D02*
X41414700Y30708600D01*
X41160700Y30708600D01*
X41160700Y30962600D01*
X41414700Y30962600D01*
X41414700Y30962600D01*
G37*
X41414700Y30962600D02*
X41414700Y30708600D01*
X41160700Y30708600D01*
X41160700Y30962600D01*
X41414700Y30962600D01*
G36*
X38366700Y36042600D02*
X38366700Y35788600D01*
X38112700Y35788600D01*
X38112700Y36042600D01*
X38366700Y36042600D01*
X38366700Y36042600D01*
G37*
X38366700Y36042600D02*
X38366700Y35788600D01*
X38112700Y35788600D01*
X38112700Y36042600D01*
X38366700Y36042600D01*
G36*
X38112700Y35788600D02*
X38112700Y35534600D01*
X37604700Y35534600D01*
X37604700Y35788600D01*
X38112700Y35788600D01*
X38112700Y35788600D01*
G37*
X38112700Y35788600D02*
X38112700Y35534600D01*
X37604700Y35534600D01*
X37604700Y35788600D01*
X38112700Y35788600D01*
G36*
X37858700Y35026600D02*
X37858700Y34772600D01*
X37604700Y34772600D01*
X37604700Y35026600D01*
X37858700Y35026600D01*
X37858700Y35026600D01*
G37*
X37858700Y35026600D02*
X37858700Y34772600D01*
X37604700Y34772600D01*
X37604700Y35026600D01*
X37858700Y35026600D01*
G36*
X37350700Y35280600D02*
X37350700Y35534600D01*
X37604700Y35534600D01*
X37604700Y35026600D01*
X37096700Y35026600D01*
X37096700Y35280600D01*
X37350700Y35280600D01*
X37350700Y35280600D01*
G37*
X37350700Y35280600D02*
X37350700Y35534600D01*
X37604700Y35534600D01*
X37604700Y35026600D01*
X37096700Y35026600D01*
X37096700Y35280600D01*
X37350700Y35280600D01*
G36*
X37096700Y35534600D02*
X37096700Y35280600D01*
X36842700Y35280600D01*
X36842700Y35534600D01*
X37096700Y35534600D01*
X37096700Y35534600D01*
G37*
X37096700Y35534600D02*
X37096700Y35280600D01*
X36842700Y35280600D01*
X36842700Y35534600D01*
X37096700Y35534600D01*
G36*
X39128700Y34518600D02*
X39382700Y34518600D01*
X39382700Y34772600D01*
X39128700Y34772600D01*
X39128700Y35026600D01*
X39382700Y35026600D01*
X39382700Y35280600D01*
X39128700Y35280600D01*
X39128700Y35534600D01*
X39636700Y35534600D01*
X39636700Y34010600D01*
X40144700Y34010600D01*
X40144700Y33756600D01*
X39890700Y33756600D01*
X39890700Y33502600D01*
X40144700Y33502600D01*
X40144700Y33248600D01*
X39890700Y33248600D01*
X39890700Y32994600D01*
X40144700Y32994600D01*
X40144700Y32740600D01*
X39636700Y32740600D01*
X39636700Y32486600D01*
X39890700Y32486600D01*
X39890700Y32232600D01*
X40144700Y32232600D01*
X40144700Y32486600D01*
X40398700Y32486600D01*
X40398700Y32232600D01*
X41160700Y32232600D01*
X41160700Y32486600D01*
X41414700Y32486600D01*
X41414700Y32740600D01*
X41668700Y32740600D01*
X41668700Y32232600D01*
X41414700Y32232600D01*
X41414700Y31724600D01*
X41160700Y31724600D01*
X41160700Y31978600D01*
X40652700Y31978600D01*
X40652700Y31724600D01*
X40906700Y31724600D01*
X40906700Y31470600D01*
X40398700Y31470600D01*
X40398700Y31216600D01*
X40652700Y31216600D01*
X40652700Y30962600D01*
X40906700Y30962600D01*
X40906700Y30708600D01*
X41160700Y30708600D01*
X41160700Y30454600D01*
X40906700Y30454600D01*
X40906700Y30200600D01*
X40652700Y30200600D01*
X40652700Y30708600D01*
X40398700Y30708600D01*
X40398700Y30454600D01*
X40144700Y30454600D01*
X40144700Y30200600D01*
X39890700Y30200600D01*
X39890700Y29946600D01*
X39636700Y29946600D01*
X39636700Y30200600D01*
X39890700Y30200600D01*
X39890700Y30708600D01*
X40398700Y30708600D01*
X40398700Y31216600D01*
X40144700Y31216600D01*
X40144700Y30962600D01*
X39890700Y30962600D01*
X39890700Y31216600D01*
X39890700Y31724600D01*
X40398700Y31724600D01*
X40398700Y31978600D01*
X39890700Y31978600D01*
X39890700Y31724600D01*
X39890700Y31216600D01*
X39636700Y31216600D01*
X39636700Y30962600D01*
X39382700Y30962600D01*
X39382700Y31216600D01*
X39636700Y31216600D01*
X39636700Y31724600D01*
X39636700Y31978600D01*
X39890700Y31978600D01*
X39890700Y32232600D01*
X39636700Y32232600D01*
X39636700Y31978600D01*
X39636700Y31724600D01*
X39382700Y31724600D01*
X39382700Y31216600D01*
X39382700Y30962600D01*
X39382700Y30708600D01*
X39636700Y30708600D01*
X39636700Y30200600D01*
X39636700Y29946600D01*
X39382700Y29946600D01*
X39382700Y29692600D01*
X39128700Y29692600D01*
X39128700Y29438600D01*
X38874700Y29438600D01*
X38874700Y29692600D01*
X38620700Y29692600D01*
X38620700Y29438600D01*
X38366700Y29438600D01*
X38366700Y29184600D01*
X38112700Y29184600D01*
X38112700Y28930600D01*
X37858700Y28930600D01*
X37858700Y29184600D01*
X38112700Y29184600D01*
X38112700Y29438600D01*
X38366700Y29438600D01*
X38366700Y29692600D01*
X38366700Y29946600D01*
X39128700Y29946600D01*
X39128700Y30200600D01*
X39382700Y30200600D01*
X39382700Y30708600D01*
X39128700Y30708600D01*
X39128700Y31724600D01*
X39382700Y31724600D01*
X39382700Y32740600D01*
X39636700Y32740600D01*
X39636700Y33248600D01*
X39382700Y33248600D01*
X39382700Y32740600D01*
X39128700Y32740600D01*
X39128700Y31724600D01*
X39128700Y30708600D01*
X39128700Y30200600D01*
X38874700Y30200600D01*
X38874700Y30454600D01*
X38874700Y33502600D01*
X39636700Y33502600D01*
X39636700Y33756600D01*
X39128700Y33756600D01*
X39128700Y34010600D01*
X39382700Y34010600D01*
X39382700Y34264600D01*
X39128700Y34264600D01*
X39128700Y34010600D01*
X39128700Y33756600D01*
X38874700Y33756600D01*
X38874700Y33502600D01*
X38874700Y30454600D01*
X38481000Y30454600D01*
X38481000Y31011381D01*
X38480805Y31625165D01*
X38480578Y31747905D01*
X38480004Y31863040D01*
X38479119Y31968047D01*
X38477963Y32060406D01*
X38476574Y32137594D01*
X38474989Y32197090D01*
X38473248Y32236372D01*
X38471388Y32252919D01*
X38471280Y32253125D01*
X38457177Y32258864D01*
X38420957Y32269170D01*
X38365359Y32283381D01*
X38293122Y32300840D01*
X38206987Y32320888D01*
X38109692Y32342866D01*
X38003977Y32366114D01*
X37979350Y32371445D01*
X37871538Y32394750D01*
X37770979Y32416562D01*
X37680504Y32436262D01*
X37602947Y32453229D01*
X37541139Y32466844D01*
X37497914Y32476487D01*
X37476102Y32481536D01*
X37474525Y32481950D01*
X37465765Y32486826D01*
X37459640Y32498210D01*
X37455691Y32520020D01*
X37453459Y32556177D01*
X37452483Y32610597D01*
X37452300Y32671605D01*
X37452865Y32747598D01*
X37454724Y32801010D01*
X37458119Y32834638D01*
X37463293Y32851280D01*
X37468175Y32854319D01*
X37487326Y32851613D01*
X37524403Y32844919D01*
X37572478Y32835509D01*
X37589241Y32832094D01*
X37694433Y32810450D01*
X37779741Y32658952D01*
X37865050Y32507455D01*
X38039983Y32469819D01*
X38103261Y32456714D01*
X38157253Y32446498D01*
X38197331Y32439972D01*
X38218868Y32437938D01*
X38221165Y32438432D01*
X38216660Y32450314D01*
X38201723Y32481113D01*
X38178148Y32527479D01*
X38147727Y32586064D01*
X38112252Y32653518D01*
X38073516Y32726493D01*
X38033312Y32801640D01*
X37993432Y32875610D01*
X37955669Y32945055D01*
X37921816Y33006625D01*
X37893665Y33056971D01*
X37873010Y33092746D01*
X37861641Y33110599D01*
X37860872Y33111499D01*
X37846430Y33116716D01*
X37810857Y33126300D01*
X37757871Y33139346D01*
X37691189Y33154950D01*
X37614528Y33172208D01*
X37581609Y33179436D01*
X37482003Y33200686D01*
X37403621Y33215988D01*
X37350700Y33224289D01*
X37350700Y33756600D01*
X37604700Y33756600D01*
X37604700Y34010600D01*
X37350700Y34010600D01*
X37350700Y33756600D01*
X37350700Y33224289D01*
X37343031Y33225493D01*
X37296799Y33229353D01*
X37261494Y33227720D01*
X37233682Y33220743D01*
X37209931Y33208575D01*
X37193238Y33196544D01*
X37160200Y33170556D01*
X37160200Y32262901D01*
X37639625Y32157922D01*
X37747227Y32134349D01*
X37847744Y32112306D01*
X37938306Y32092424D01*
X38016044Y32075333D01*
X38078088Y32061665D01*
X38121571Y32052051D01*
X38143623Y32047121D01*
X38145089Y32046781D01*
X38165303Y32050015D01*
X38199455Y32066937D01*
X38249300Y32098558D01*
X38314250Y32144190D01*
X38366286Y32181149D01*
X38410745Y32211408D01*
X38443770Y32232443D01*
X38461506Y32241730D01*
X38463346Y32241786D01*
X38455838Y32232680D01*
X38431101Y32211862D01*
X38392721Y32182174D01*
X38344286Y32146454D01*
X38329442Y32135781D01*
X38189563Y32035750D01*
X38189231Y31726293D01*
X38189032Y31629805D01*
X38188520Y31555826D01*
X38187473Y31501463D01*
X38185669Y31463827D01*
X38182886Y31440025D01*
X38178902Y31427166D01*
X38173495Y31422359D01*
X38166442Y31422713D01*
X38165928Y31422844D01*
X38143738Y31427931D01*
X38103609Y31436509D01*
X38052513Y31447100D01*
X38026228Y31452447D01*
X37909500Y31476042D01*
X37909500Y31735029D01*
X37909285Y31823245D01*
X37908493Y31889033D01*
X37906906Y31935366D01*
X37904301Y31965214D01*
X37900461Y31981547D01*
X37895163Y31987338D01*
X37890848Y31986860D01*
X37873592Y31977323D01*
X37840038Y31956494D01*
X37794894Y31927365D01*
X37742865Y31892927D01*
X37738448Y31889967D01*
X37604700Y31800231D01*
X37604700Y31673515D01*
X37604166Y31620268D01*
X37602729Y31578046D01*
X37600630Y31552234D01*
X37598975Y31546800D01*
X37584323Y31549245D01*
X37553059Y31555505D01*
X37529125Y31560552D01*
X37465000Y31574304D01*
X37465000Y32177601D01*
X37334825Y32205976D01*
X37278345Y32218423D01*
X37229564Y32229426D01*
X37194849Y32237533D01*
X37182425Y32240681D01*
X37176707Y32241044D01*
X37172060Y32236988D01*
X37168375Y32226171D01*
X37165540Y32206253D01*
X37163445Y32174891D01*
X37161979Y32129743D01*
X37161032Y32068468D01*
X37160494Y31988724D01*
X37160253Y31888170D01*
X37160200Y31769905D01*
X37160465Y31662649D01*
X37161222Y31563811D01*
X37162409Y31476165D01*
X37163968Y31402486D01*
X37165836Y31345547D01*
X37167955Y31308122D01*
X37170264Y31292986D01*
X37170555Y31292800D01*
X37184655Y31290185D01*
X37221161Y31282684D01*
X37277660Y31270811D01*
X37351740Y31255082D01*
X37440986Y31236009D01*
X37542986Y31214108D01*
X37655327Y31189893D01*
X37775596Y31163878D01*
X37796030Y31159449D01*
X37918399Y31132926D01*
X38034066Y31107863D01*
X38140489Y31084810D01*
X38235127Y31064320D01*
X38315435Y31046940D01*
X38378873Y31033223D01*
X38422897Y31023718D01*
X38444966Y31018975D01*
X38446075Y31018740D01*
X38481000Y31011381D01*
X38481000Y30454600D01*
X38112700Y30454600D01*
X38112700Y30708600D01*
X37858700Y30708600D01*
X37858700Y30454600D01*
X37604700Y30454600D01*
X37604700Y30200600D01*
X38366700Y30200600D01*
X38366700Y29946600D01*
X38366700Y29692600D01*
X38112700Y29692600D01*
X38112700Y29438600D01*
X37858700Y29438600D01*
X37858700Y29184600D01*
X37858700Y28930600D01*
X37858700Y28676600D01*
X37604700Y28676600D01*
X37604700Y29438600D01*
X37858700Y29438600D01*
X37858700Y29692600D01*
X37604700Y29692600D01*
X37604700Y29438600D01*
X37350700Y29438600D01*
X37350700Y28930600D01*
X37096700Y28930600D01*
X37096700Y29184600D01*
X37096700Y29438600D01*
X37350700Y29438600D01*
X37350700Y29692600D01*
X37350700Y29946600D01*
X37604700Y29946600D01*
X37604700Y30200600D01*
X37350700Y30200600D01*
X37350700Y29946600D01*
X37350700Y29692600D01*
X37096700Y29692600D01*
X37096700Y29438600D01*
X37096700Y29184600D01*
X36588700Y29184600D01*
X36588700Y29438600D01*
X36842700Y29438600D01*
X36842700Y29692600D01*
X36588700Y29692600D01*
X36588700Y29438600D01*
X36334700Y29438600D01*
X36334700Y29692600D01*
X36588700Y29692600D01*
X36588700Y29946600D01*
X37096700Y29946600D01*
X37096700Y30200600D01*
X36588700Y30200600D01*
X36588700Y29946600D01*
X36334700Y29946600D01*
X36334700Y30200600D01*
X36588700Y30200600D01*
X36588700Y30454600D01*
X37350700Y30454600D01*
X37350700Y30708600D01*
X36588700Y30708600D01*
X36588700Y30454600D01*
X36334700Y30454600D01*
X36334700Y30200600D01*
X36080700Y30200600D01*
X36080700Y30454600D01*
X36334700Y30454600D01*
X36334700Y30708600D01*
X36080700Y30708600D01*
X36080700Y30454600D01*
X35826700Y30454600D01*
X35826700Y30708600D01*
X35826700Y30962600D01*
X36334700Y30962600D01*
X36334700Y31470600D01*
X36080700Y31470600D01*
X36080700Y31216600D01*
X35826700Y31216600D01*
X35826700Y30962600D01*
X35826700Y30708600D01*
X35572700Y30708600D01*
X35572700Y30962600D01*
X35572700Y31216600D01*
X35826700Y31216600D01*
X35826700Y31724600D01*
X35826700Y31978600D01*
X36080700Y31978600D01*
X36080700Y32486600D01*
X35826700Y32486600D01*
X35826700Y32740600D01*
X36334700Y32740600D01*
X36334700Y32994600D01*
X35826700Y32994600D01*
X35826700Y32740600D01*
X35826700Y32486600D01*
X35572700Y32486600D01*
X35572700Y32232600D01*
X35826700Y32232600D01*
X35826700Y31978600D01*
X35826700Y31724600D01*
X35572700Y31724600D01*
X35572700Y31216600D01*
X35572700Y30962600D01*
X35318700Y30962600D01*
X35318700Y31216600D01*
X35064700Y31216600D01*
X35064700Y31470600D01*
X35318700Y31470600D01*
X35318700Y31724600D01*
X35064700Y31724600D01*
X35064700Y31470600D01*
X34556700Y31470600D01*
X34556700Y31724600D01*
X35064700Y31724600D01*
X35064700Y31978600D01*
X35572700Y31978600D01*
X35572700Y32232600D01*
X35064700Y32232600D01*
X35064700Y32486600D01*
X35572700Y32486600D01*
X35572700Y32740600D01*
X35064700Y32740600D01*
X35064700Y32486600D01*
X34810700Y32486600D01*
X34810700Y32740600D01*
X35064700Y32740600D01*
X35064700Y32994600D01*
X35826700Y32994600D01*
X35826700Y33248600D01*
X36080700Y33248600D01*
X36080700Y33502600D01*
X36588700Y33502600D01*
X36588700Y33756600D01*
X37096700Y33756600D01*
X37096700Y34010600D01*
X37096700Y34264600D01*
X37350700Y34264600D01*
X37350700Y34518600D01*
X37096700Y34518600D01*
X37096700Y34264600D01*
X37096700Y34010600D01*
X36588700Y34010600D01*
X36588700Y34264600D01*
X36334700Y34264600D01*
X36334700Y34010600D01*
X35826700Y34010600D01*
X35826700Y33756600D01*
X35064700Y33756600D01*
X35064700Y33502600D01*
X34810700Y33502600D01*
X34810700Y32740600D01*
X34556700Y32740600D01*
X34556700Y33502600D01*
X34302700Y33502600D01*
X34302700Y33756600D01*
X35064700Y33756600D01*
X35064700Y34010600D01*
X35826700Y34010600D01*
X35826700Y34264600D01*
X36334700Y34264600D01*
X36334700Y34772600D01*
X36588700Y34772600D01*
X36588700Y34518600D01*
X36842700Y34518600D01*
X36842700Y34772600D01*
X37604700Y34772600D01*
X37604700Y34518600D01*
X38112700Y34518600D01*
X38112700Y34264600D01*
X37604700Y34264600D01*
X37604700Y34010600D01*
X38112700Y34010600D01*
X38112700Y33756600D01*
X37604700Y33756600D01*
X37604700Y33502600D01*
X38620700Y33502600D01*
X38620700Y33756600D01*
X38874700Y33756600D01*
X38874700Y34264600D01*
X39128700Y34264600D01*
X39128700Y34518600D01*
X39128700Y34518600D01*
G37*
X39128700Y34518600D02*
X39382700Y34518600D01*
X39382700Y34772600D01*
X39128700Y34772600D01*
X39128700Y35026600D01*
X39382700Y35026600D01*
X39382700Y35280600D01*
X39128700Y35280600D01*
X39128700Y35534600D01*
X39636700Y35534600D01*
X39636700Y34010600D01*
X40144700Y34010600D01*
X40144700Y33756600D01*
X39890700Y33756600D01*
X39890700Y33502600D01*
X40144700Y33502600D01*
X40144700Y33248600D01*
X39890700Y33248600D01*
X39890700Y32994600D01*
X40144700Y32994600D01*
X40144700Y32740600D01*
X39636700Y32740600D01*
X39636700Y32486600D01*
X39890700Y32486600D01*
X39890700Y32232600D01*
X40144700Y32232600D01*
X40144700Y32486600D01*
X40398700Y32486600D01*
X40398700Y32232600D01*
X41160700Y32232600D01*
X41160700Y32486600D01*
X41414700Y32486600D01*
X41414700Y32740600D01*
X41668700Y32740600D01*
X41668700Y32232600D01*
X41414700Y32232600D01*
X41414700Y31724600D01*
X41160700Y31724600D01*
X41160700Y31978600D01*
X40652700Y31978600D01*
X40652700Y31724600D01*
X40906700Y31724600D01*
X40906700Y31470600D01*
X40398700Y31470600D01*
X40398700Y31216600D01*
X40652700Y31216600D01*
X40652700Y30962600D01*
X40906700Y30962600D01*
X40906700Y30708600D01*
X41160700Y30708600D01*
X41160700Y30454600D01*
X40906700Y30454600D01*
X40906700Y30200600D01*
X40652700Y30200600D01*
X40652700Y30708600D01*
X40398700Y30708600D01*
X40398700Y30454600D01*
X40144700Y30454600D01*
X40144700Y30200600D01*
X39890700Y30200600D01*
X39890700Y29946600D01*
X39636700Y29946600D01*
X39636700Y30200600D01*
X39890700Y30200600D01*
X39890700Y30708600D01*
X40398700Y30708600D01*
X40398700Y31216600D01*
X40144700Y31216600D01*
X40144700Y30962600D01*
X39890700Y30962600D01*
X39890700Y31216600D01*
X39890700Y31724600D01*
X40398700Y31724600D01*
X40398700Y31978600D01*
X39890700Y31978600D01*
X39890700Y31724600D01*
X39890700Y31216600D01*
X39636700Y31216600D01*
X39636700Y30962600D01*
X39382700Y30962600D01*
X39382700Y31216600D01*
X39636700Y31216600D01*
X39636700Y31724600D01*
X39636700Y31978600D01*
X39890700Y31978600D01*
X39890700Y32232600D01*
X39636700Y32232600D01*
X39636700Y31978600D01*
X39636700Y31724600D01*
X39382700Y31724600D01*
X39382700Y31216600D01*
X39382700Y30962600D01*
X39382700Y30708600D01*
X39636700Y30708600D01*
X39636700Y30200600D01*
X39636700Y29946600D01*
X39382700Y29946600D01*
X39382700Y29692600D01*
X39128700Y29692600D01*
X39128700Y29438600D01*
X38874700Y29438600D01*
X38874700Y29692600D01*
X38620700Y29692600D01*
X38620700Y29438600D01*
X38366700Y29438600D01*
X38366700Y29184600D01*
X38112700Y29184600D01*
X38112700Y28930600D01*
X37858700Y28930600D01*
X37858700Y29184600D01*
X38112700Y29184600D01*
X38112700Y29438600D01*
X38366700Y29438600D01*
X38366700Y29692600D01*
X38366700Y29946600D01*
X39128700Y29946600D01*
X39128700Y30200600D01*
X39382700Y30200600D01*
X39382700Y30708600D01*
X39128700Y30708600D01*
X39128700Y31724600D01*
X39382700Y31724600D01*
X39382700Y32740600D01*
X39636700Y32740600D01*
X39636700Y33248600D01*
X39382700Y33248600D01*
X39382700Y32740600D01*
X39128700Y32740600D01*
X39128700Y31724600D01*
X39128700Y30708600D01*
X39128700Y30200600D01*
X38874700Y30200600D01*
X38874700Y30454600D01*
X38874700Y33502600D01*
X39636700Y33502600D01*
X39636700Y33756600D01*
X39128700Y33756600D01*
X39128700Y34010600D01*
X39382700Y34010600D01*
X39382700Y34264600D01*
X39128700Y34264600D01*
X39128700Y34010600D01*
X39128700Y33756600D01*
X38874700Y33756600D01*
X38874700Y33502600D01*
X38874700Y30454600D01*
X38481000Y30454600D01*
X38481000Y31011381D01*
X38480805Y31625165D01*
X38480578Y31747905D01*
X38480004Y31863040D01*
X38479119Y31968047D01*
X38477963Y32060406D01*
X38476574Y32137594D01*
X38474989Y32197090D01*
X38473248Y32236372D01*
X38471388Y32252919D01*
X38471280Y32253125D01*
X38457177Y32258864D01*
X38420957Y32269170D01*
X38365359Y32283381D01*
X38293122Y32300840D01*
X38206987Y32320888D01*
X38109692Y32342866D01*
X38003977Y32366114D01*
X37979350Y32371445D01*
X37871538Y32394750D01*
X37770979Y32416562D01*
X37680504Y32436262D01*
X37602947Y32453229D01*
X37541139Y32466844D01*
X37497914Y32476487D01*
X37476102Y32481536D01*
X37474525Y32481950D01*
X37465765Y32486826D01*
X37459640Y32498210D01*
X37455691Y32520020D01*
X37453459Y32556177D01*
X37452483Y32610597D01*
X37452300Y32671605D01*
X37452865Y32747598D01*
X37454724Y32801010D01*
X37458119Y32834638D01*
X37463293Y32851280D01*
X37468175Y32854319D01*
X37487326Y32851613D01*
X37524403Y32844919D01*
X37572478Y32835509D01*
X37589241Y32832094D01*
X37694433Y32810450D01*
X37779741Y32658952D01*
X37865050Y32507455D01*
X38039983Y32469819D01*
X38103261Y32456714D01*
X38157253Y32446498D01*
X38197331Y32439972D01*
X38218868Y32437938D01*
X38221165Y32438432D01*
X38216660Y32450314D01*
X38201723Y32481113D01*
X38178148Y32527479D01*
X38147727Y32586064D01*
X38112252Y32653518D01*
X38073516Y32726493D01*
X38033312Y32801640D01*
X37993432Y32875610D01*
X37955669Y32945055D01*
X37921816Y33006625D01*
X37893665Y33056971D01*
X37873010Y33092746D01*
X37861641Y33110599D01*
X37860872Y33111499D01*
X37846430Y33116716D01*
X37810857Y33126300D01*
X37757871Y33139346D01*
X37691189Y33154950D01*
X37614528Y33172208D01*
X37581609Y33179436D01*
X37482003Y33200686D01*
X37403621Y33215988D01*
X37350700Y33224289D01*
X37350700Y33756600D01*
X37604700Y33756600D01*
X37604700Y34010600D01*
X37350700Y34010600D01*
X37350700Y33756600D01*
X37350700Y33224289D01*
X37343031Y33225493D01*
X37296799Y33229353D01*
X37261494Y33227720D01*
X37233682Y33220743D01*
X37209931Y33208575D01*
X37193238Y33196544D01*
X37160200Y33170556D01*
X37160200Y32262901D01*
X37639625Y32157922D01*
X37747227Y32134349D01*
X37847744Y32112306D01*
X37938306Y32092424D01*
X38016044Y32075333D01*
X38078088Y32061665D01*
X38121571Y32052051D01*
X38143623Y32047121D01*
X38145089Y32046781D01*
X38165303Y32050015D01*
X38199455Y32066937D01*
X38249300Y32098558D01*
X38314250Y32144190D01*
X38366286Y32181149D01*
X38410745Y32211408D01*
X38443770Y32232443D01*
X38461506Y32241730D01*
X38463346Y32241786D01*
X38455838Y32232680D01*
X38431101Y32211862D01*
X38392721Y32182174D01*
X38344286Y32146454D01*
X38329442Y32135781D01*
X38189563Y32035750D01*
X38189231Y31726293D01*
X38189032Y31629805D01*
X38188520Y31555826D01*
X38187473Y31501463D01*
X38185669Y31463827D01*
X38182886Y31440025D01*
X38178902Y31427166D01*
X38173495Y31422359D01*
X38166442Y31422713D01*
X38165928Y31422844D01*
X38143738Y31427931D01*
X38103609Y31436509D01*
X38052513Y31447100D01*
X38026228Y31452447D01*
X37909500Y31476042D01*
X37909500Y31735029D01*
X37909285Y31823245D01*
X37908493Y31889033D01*
X37906906Y31935366D01*
X37904301Y31965214D01*
X37900461Y31981547D01*
X37895163Y31987338D01*
X37890848Y31986860D01*
X37873592Y31977323D01*
X37840038Y31956494D01*
X37794894Y31927365D01*
X37742865Y31892927D01*
X37738448Y31889967D01*
X37604700Y31800231D01*
X37604700Y31673515D01*
X37604166Y31620268D01*
X37602729Y31578046D01*
X37600630Y31552234D01*
X37598975Y31546800D01*
X37584323Y31549245D01*
X37553059Y31555505D01*
X37529125Y31560552D01*
X37465000Y31574304D01*
X37465000Y32177601D01*
X37334825Y32205976D01*
X37278345Y32218423D01*
X37229564Y32229426D01*
X37194849Y32237533D01*
X37182425Y32240681D01*
X37176707Y32241044D01*
X37172060Y32236988D01*
X37168375Y32226171D01*
X37165540Y32206253D01*
X37163445Y32174891D01*
X37161979Y32129743D01*
X37161032Y32068468D01*
X37160494Y31988724D01*
X37160253Y31888170D01*
X37160200Y31769905D01*
X37160465Y31662649D01*
X37161222Y31563811D01*
X37162409Y31476165D01*
X37163968Y31402486D01*
X37165836Y31345547D01*
X37167955Y31308122D01*
X37170264Y31292986D01*
X37170555Y31292800D01*
X37184655Y31290185D01*
X37221161Y31282684D01*
X37277660Y31270811D01*
X37351740Y31255082D01*
X37440986Y31236009D01*
X37542986Y31214108D01*
X37655327Y31189893D01*
X37775596Y31163878D01*
X37796030Y31159449D01*
X37918399Y31132926D01*
X38034066Y31107863D01*
X38140489Y31084810D01*
X38235127Y31064320D01*
X38315435Y31046940D01*
X38378873Y31033223D01*
X38422897Y31023718D01*
X38444966Y31018975D01*
X38446075Y31018740D01*
X38481000Y31011381D01*
X38481000Y30454600D01*
X38112700Y30454600D01*
X38112700Y30708600D01*
X37858700Y30708600D01*
X37858700Y30454600D01*
X37604700Y30454600D01*
X37604700Y30200600D01*
X38366700Y30200600D01*
X38366700Y29946600D01*
X38366700Y29692600D01*
X38112700Y29692600D01*
X38112700Y29438600D01*
X37858700Y29438600D01*
X37858700Y29184600D01*
X37858700Y28930600D01*
X37858700Y28676600D01*
X37604700Y28676600D01*
X37604700Y29438600D01*
X37858700Y29438600D01*
X37858700Y29692600D01*
X37604700Y29692600D01*
X37604700Y29438600D01*
X37350700Y29438600D01*
X37350700Y28930600D01*
X37096700Y28930600D01*
X37096700Y29184600D01*
X37096700Y29438600D01*
X37350700Y29438600D01*
X37350700Y29692600D01*
X37350700Y29946600D01*
X37604700Y29946600D01*
X37604700Y30200600D01*
X37350700Y30200600D01*
X37350700Y29946600D01*
X37350700Y29692600D01*
X37096700Y29692600D01*
X37096700Y29438600D01*
X37096700Y29184600D01*
X36588700Y29184600D01*
X36588700Y29438600D01*
X36842700Y29438600D01*
X36842700Y29692600D01*
X36588700Y29692600D01*
X36588700Y29438600D01*
X36334700Y29438600D01*
X36334700Y29692600D01*
X36588700Y29692600D01*
X36588700Y29946600D01*
X37096700Y29946600D01*
X37096700Y30200600D01*
X36588700Y30200600D01*
X36588700Y29946600D01*
X36334700Y29946600D01*
X36334700Y30200600D01*
X36588700Y30200600D01*
X36588700Y30454600D01*
X37350700Y30454600D01*
X37350700Y30708600D01*
X36588700Y30708600D01*
X36588700Y30454600D01*
X36334700Y30454600D01*
X36334700Y30200600D01*
X36080700Y30200600D01*
X36080700Y30454600D01*
X36334700Y30454600D01*
X36334700Y30708600D01*
X36080700Y30708600D01*
X36080700Y30454600D01*
X35826700Y30454600D01*
X35826700Y30708600D01*
X35826700Y30962600D01*
X36334700Y30962600D01*
X36334700Y31470600D01*
X36080700Y31470600D01*
X36080700Y31216600D01*
X35826700Y31216600D01*
X35826700Y30962600D01*
X35826700Y30708600D01*
X35572700Y30708600D01*
X35572700Y30962600D01*
X35572700Y31216600D01*
X35826700Y31216600D01*
X35826700Y31724600D01*
X35826700Y31978600D01*
X36080700Y31978600D01*
X36080700Y32486600D01*
X35826700Y32486600D01*
X35826700Y32740600D01*
X36334700Y32740600D01*
X36334700Y32994600D01*
X35826700Y32994600D01*
X35826700Y32740600D01*
X35826700Y32486600D01*
X35572700Y32486600D01*
X35572700Y32232600D01*
X35826700Y32232600D01*
X35826700Y31978600D01*
X35826700Y31724600D01*
X35572700Y31724600D01*
X35572700Y31216600D01*
X35572700Y30962600D01*
X35318700Y30962600D01*
X35318700Y31216600D01*
X35064700Y31216600D01*
X35064700Y31470600D01*
X35318700Y31470600D01*
X35318700Y31724600D01*
X35064700Y31724600D01*
X35064700Y31470600D01*
X34556700Y31470600D01*
X34556700Y31724600D01*
X35064700Y31724600D01*
X35064700Y31978600D01*
X35572700Y31978600D01*
X35572700Y32232600D01*
X35064700Y32232600D01*
X35064700Y32486600D01*
X35572700Y32486600D01*
X35572700Y32740600D01*
X35064700Y32740600D01*
X35064700Y32486600D01*
X34810700Y32486600D01*
X34810700Y32740600D01*
X35064700Y32740600D01*
X35064700Y32994600D01*
X35826700Y32994600D01*
X35826700Y33248600D01*
X36080700Y33248600D01*
X36080700Y33502600D01*
X36588700Y33502600D01*
X36588700Y33756600D01*
X37096700Y33756600D01*
X37096700Y34010600D01*
X37096700Y34264600D01*
X37350700Y34264600D01*
X37350700Y34518600D01*
X37096700Y34518600D01*
X37096700Y34264600D01*
X37096700Y34010600D01*
X36588700Y34010600D01*
X36588700Y34264600D01*
X36334700Y34264600D01*
X36334700Y34010600D01*
X35826700Y34010600D01*
X35826700Y33756600D01*
X35064700Y33756600D01*
X35064700Y33502600D01*
X34810700Y33502600D01*
X34810700Y32740600D01*
X34556700Y32740600D01*
X34556700Y33502600D01*
X34302700Y33502600D01*
X34302700Y33756600D01*
X35064700Y33756600D01*
X35064700Y34010600D01*
X35826700Y34010600D01*
X35826700Y34264600D01*
X36334700Y34264600D01*
X36334700Y34772600D01*
X36588700Y34772600D01*
X36588700Y34518600D01*
X36842700Y34518600D01*
X36842700Y34772600D01*
X37604700Y34772600D01*
X37604700Y34518600D01*
X38112700Y34518600D01*
X38112700Y34264600D01*
X37604700Y34264600D01*
X37604700Y34010600D01*
X38112700Y34010600D01*
X38112700Y33756600D01*
X37604700Y33756600D01*
X37604700Y33502600D01*
X38620700Y33502600D01*
X38620700Y33756600D01*
X38874700Y33756600D01*
X38874700Y34264600D01*
X39128700Y34264600D01*
X39128700Y34518600D01*
G36*
X40652700Y35026600D02*
X40652700Y34264600D01*
X40144700Y34264600D01*
X40144700Y34518600D01*
X40398700Y34518600D01*
X40398700Y34772600D01*
X40144700Y34772600D01*
X40144700Y34518600D01*
X40144700Y34264600D01*
X39890700Y34264600D01*
X39890700Y35026600D01*
X40652700Y35026600D01*
X40652700Y35026600D01*
G37*
X40652700Y35026600D02*
X40652700Y34264600D01*
X40144700Y34264600D01*
X40144700Y34518600D01*
X40398700Y34518600D01*
X40398700Y34772600D01*
X40144700Y34772600D01*
X40144700Y34518600D01*
X40144700Y34264600D01*
X39890700Y34264600D01*
X39890700Y35026600D01*
X40652700Y35026600D01*
G36*
X38874700Y35280600D02*
X38874700Y34518600D01*
X38620700Y34518600D01*
X38620700Y35026600D01*
X38366700Y35026600D01*
X38366700Y35280600D01*
X38874700Y35280600D01*
X38874700Y35280600D01*
G37*
X38874700Y35280600D02*
X38874700Y34518600D01*
X38620700Y34518600D01*
X38620700Y35026600D01*
X38366700Y35026600D01*
X38366700Y35280600D01*
X38874700Y35280600D01*
G36*
X38620700Y34518600D02*
X38620700Y34264600D01*
X38366700Y34264600D01*
X38366700Y34518600D01*
X38620700Y34518600D01*
X38620700Y34518600D01*
G37*
X38620700Y34518600D02*
X38620700Y34264600D01*
X38366700Y34264600D01*
X38366700Y34518600D01*
X38620700Y34518600D01*
G36*
X38366700Y35026600D02*
X38366700Y34772600D01*
X38112700Y34772600D01*
X38112700Y35026600D01*
X38366700Y35026600D01*
X38366700Y35026600D01*
G37*
X38366700Y35026600D02*
X38366700Y34772600D01*
X38112700Y34772600D01*
X38112700Y35026600D01*
X38366700Y35026600D01*
G36*
X38874700Y35788600D02*
X38874700Y35534600D01*
X38620700Y35534600D01*
X38620700Y35788600D01*
X38874700Y35788600D01*
X38874700Y35788600D01*
G37*
X38874700Y35788600D02*
X38874700Y35534600D01*
X38620700Y35534600D01*
X38620700Y35788600D01*
X38874700Y35788600D01*
G36*
X36588700Y35534600D02*
X36588700Y35280600D01*
X36334700Y35280600D01*
X36334700Y35534600D01*
X36588700Y35534600D01*
X36588700Y35534600D01*
G37*
X36588700Y35534600D02*
X36588700Y35280600D01*
X36334700Y35280600D01*
X36334700Y35534600D01*
X36588700Y35534600D01*
G36*
X36334700Y35280600D02*
X36334700Y35026600D01*
X36080700Y35026600D01*
X36080700Y35280600D01*
X36334700Y35280600D01*
X36334700Y35280600D01*
G37*
X36334700Y35280600D02*
X36334700Y35026600D01*
X36080700Y35026600D01*
X36080700Y35280600D01*
X36334700Y35280600D01*
G36*
X34302700Y31724600D02*
X34302700Y31470600D01*
X34048700Y31470600D01*
X34048700Y31724600D01*
X34302700Y31724600D01*
X34302700Y31724600D01*
G37*
X34302700Y31724600D02*
X34302700Y31470600D01*
X34048700Y31470600D01*
X34048700Y31724600D01*
X34302700Y31724600D01*
G36*
X35064700Y29438600D02*
X35064700Y28168600D01*
X34048700Y28168600D01*
X34048700Y28422600D01*
X34810700Y28422600D01*
X34810700Y29184600D01*
X34048700Y29184600D01*
X34048700Y28422600D01*
X34048700Y28168600D01*
X33794700Y28168600D01*
X33794700Y29438600D01*
X35064700Y29438600D01*
X35064700Y29438600D01*
G37*
X35064700Y29438600D02*
X35064700Y28168600D01*
X34048700Y28168600D01*
X34048700Y28422600D01*
X34810700Y28422600D01*
X34810700Y29184600D01*
X34048700Y29184600D01*
X34048700Y28422600D01*
X34048700Y28168600D01*
X33794700Y28168600D01*
X33794700Y29438600D01*
X35064700Y29438600D01*
G36*
X35064700Y36042600D02*
X35064700Y34772600D01*
X34048700Y34772600D01*
X34048700Y35026600D01*
X34810700Y35026600D01*
X34810700Y35788600D01*
X34048700Y35788600D01*
X34048700Y35026600D01*
X34048700Y34772600D01*
X33794700Y34772600D01*
X33794700Y36042600D01*
X35064700Y36042600D01*
X35064700Y36042600D01*
G37*
X35064700Y36042600D02*
X35064700Y34772600D01*
X34048700Y34772600D01*
X34048700Y35026600D01*
X34810700Y35026600D01*
X34810700Y35788600D01*
X34048700Y35788600D01*
X34048700Y35026600D01*
X34048700Y34772600D01*
X33794700Y34772600D01*
X33794700Y36042600D01*
X35064700Y36042600D01*
G36*
X39890700Y30962600D02*
X39890700Y30708600D01*
X39636700Y30708600D01*
X39636700Y30962600D01*
X39890700Y30962600D01*
X39890700Y30962600D01*
G37*
X39890700Y30962600D02*
X39890700Y30708600D01*
X39636700Y30708600D01*
X39636700Y30962600D01*
X39890700Y30962600D01*
G36*
X36588700Y34010600D02*
X36588700Y33756600D01*
X36334700Y33756600D01*
X36334700Y34010600D01*
X36588700Y34010600D01*
X36588700Y34010600D01*
G37*
X36588700Y34010600D02*
X36588700Y33756600D01*
X36334700Y33756600D01*
X36334700Y34010600D01*
X36588700Y34010600D01*
G36*
X35826700Y33502600D02*
X35826700Y33248600D01*
X35064700Y33248600D01*
X35064700Y33502600D01*
X35826700Y33502600D01*
X35826700Y33502600D01*
G37*
X35826700Y33502600D02*
X35826700Y33248600D01*
X35064700Y33248600D01*
X35064700Y33502600D01*
X35826700Y33502600D01*
D16*
X30170381Y51298576D02*
X29170381Y51298576D01*
X29884667Y51631910D01*
X29170381Y51965243D01*
X30170381Y51965243D01*
X29170381Y52870005D02*
X29170381Y52679528D01*
X29218000Y52584290D01*
X29265619Y52536671D01*
X29408476Y52441433D01*
X29598952Y52393814D01*
X29979905Y52393814D01*
X30075143Y52441433D01*
X30122762Y52489052D01*
X30170381Y52584290D01*
X30170381Y52774767D01*
X30122762Y52870005D01*
X30075143Y52917624D01*
X29979905Y52965243D01*
X29741810Y52965243D01*
X29646571Y52917624D01*
X29598952Y52870005D01*
X29551333Y52774767D01*
X29551333Y52584290D01*
X29598952Y52489052D01*
X29646571Y52441433D01*
X29741810Y52393814D01*
X30170381Y30597576D02*
X29170381Y30597576D01*
X29884667Y30930910D01*
X29170381Y31264243D01*
X30170381Y31264243D01*
X30170381Y32264243D02*
X30170381Y31692814D01*
X30170381Y31978528D02*
X29170381Y31978528D01*
X29313238Y31883290D01*
X29408476Y31788052D01*
X29456095Y31692814D01*
X44360267Y70203234D02*
X44026933Y69969900D01*
X44360267Y69803234D02*
X43660267Y69803234D01*
X43660267Y70069900D01*
X43693600Y70136567D01*
X43726933Y70169900D01*
X43793600Y70203234D01*
X43893600Y70203234D01*
X43960267Y70169900D01*
X43993600Y70136567D01*
X44026933Y70069900D01*
X44026933Y69803234D01*
X44360267Y70536567D02*
X44360267Y70669900D01*
X44326933Y70736567D01*
X44293600Y70769900D01*
X44193600Y70836567D01*
X44060267Y70869900D01*
X43793600Y70869900D01*
X43726933Y70836567D01*
X43693600Y70803234D01*
X43660267Y70736567D01*
X43660267Y70603234D01*
X43693600Y70536567D01*
X43726933Y70503234D01*
X43793600Y70469900D01*
X43960267Y70469900D01*
X44026933Y70503234D01*
X44060267Y70536567D01*
X44093600Y70603234D01*
X44093600Y70736567D01*
X44060267Y70803234D01*
X44026933Y70836567D01*
X43960267Y70869900D01*
X17463619Y87697462D02*
X17416000Y87602224D01*
X17320762Y87506986D01*
X17177905Y87364129D01*
X17130286Y87268890D01*
X17130286Y87173652D01*
X17368381Y87221271D02*
X17320762Y87126033D01*
X17225524Y87030795D01*
X17035048Y86983176D01*
X16701714Y86983176D01*
X16511238Y87030795D01*
X16416000Y87126033D01*
X16368381Y87221271D01*
X16368381Y87411748D01*
X16416000Y87506986D01*
X16511238Y87602224D01*
X16701714Y87649843D01*
X17035048Y87649843D01*
X17225524Y87602224D01*
X17320762Y87506986D01*
X17368381Y87411748D01*
X17368381Y87221271D01*
X16368381Y88554605D02*
X16368381Y88078414D01*
X16844571Y88030795D01*
X16796952Y88078414D01*
X16749333Y88173652D01*
X16749333Y88411748D01*
X16796952Y88506986D01*
X16844571Y88554605D01*
X16939810Y88602224D01*
X17177905Y88602224D01*
X17273143Y88554605D01*
X17320762Y88506986D01*
X17368381Y88411748D01*
X17368381Y88173652D01*
X17320762Y88078414D01*
X17273143Y88030795D01*
X21391105Y64279519D02*
X21391105Y65279519D01*
X21629200Y65279519D01*
X21772058Y65231900D01*
X21867296Y65136662D01*
X21914915Y65041424D01*
X21962534Y64850948D01*
X21962534Y64708090D01*
X21914915Y64517614D01*
X21867296Y64422376D01*
X21772058Y64327138D01*
X21629200Y64279519D01*
X21391105Y64279519D01*
X22343486Y65184281D02*
X22391105Y65231900D01*
X22486343Y65279519D01*
X22724439Y65279519D01*
X22819677Y65231900D01*
X22867296Y65184281D01*
X22914915Y65089043D01*
X22914915Y64993805D01*
X22867296Y64850948D01*
X22295867Y64279519D01*
X22914915Y64279519D01*
X20467295Y66179519D02*
X20467295Y67179519D01*
X21038724Y66179519D02*
X20610152Y66750948D01*
X21038724Y67179519D02*
X20467295Y66608090D01*
X14591105Y66365233D02*
X15067296Y66365233D01*
X14495867Y66079519D02*
X14829200Y67079519D01*
X15162534Y66079519D01*
X41574981Y73722005D02*
X40574981Y73722005D01*
X40574981Y73960100D01*
X40622600Y74102958D01*
X40717838Y74198196D01*
X40813076Y74245815D01*
X41003552Y74293434D01*
X41146410Y74293434D01*
X41336886Y74245815D01*
X41432124Y74198196D01*
X41527362Y74102958D01*
X41574981Y73960100D01*
X41574981Y73722005D01*
X40574981Y74626767D02*
X40574981Y75245815D01*
X40955933Y74912481D01*
X40955933Y75055339D01*
X41003552Y75150577D01*
X41051171Y75198196D01*
X41146410Y75245815D01*
X41384505Y75245815D01*
X41479743Y75198196D01*
X41527362Y75150577D01*
X41574981Y75055339D01*
X41574981Y74769624D01*
X41527362Y74674386D01*
X41479743Y74626767D01*
X28802105Y87850719D02*
X28802105Y88850719D01*
X29040200Y88850719D01*
X29183058Y88803100D01*
X29278296Y88707862D01*
X29325915Y88612624D01*
X29373534Y88422148D01*
X29373534Y88279290D01*
X29325915Y88088814D01*
X29278296Y87993576D01*
X29183058Y87898338D01*
X29040200Y87850719D01*
X28802105Y87850719D01*
X29706867Y88850719D02*
X30373534Y88850719D01*
X29944962Y87850719D01*
X29405343Y79214719D02*
X29072009Y79690910D01*
X28833914Y79214719D02*
X28833914Y80214719D01*
X29214867Y80214719D01*
X29310105Y80167100D01*
X29357724Y80119481D01*
X29405343Y80024243D01*
X29405343Y79881386D01*
X29357724Y79786148D01*
X29310105Y79738529D01*
X29214867Y79690910D01*
X28833914Y79690910D01*
X30357724Y79214719D02*
X29786295Y79214719D01*
X30072009Y79214719D02*
X30072009Y80214719D01*
X29976771Y80071862D01*
X29881533Y79976624D01*
X29786295Y79929005D01*
X30976771Y80214719D02*
X31072010Y80214719D01*
X31167248Y80167100D01*
X31214867Y80119481D01*
X31262486Y80024243D01*
X31310105Y79833767D01*
X31310105Y79595671D01*
X31262486Y79405195D01*
X31214867Y79309957D01*
X31167248Y79262338D01*
X31072010Y79214719D01*
X30976771Y79214719D01*
X30881533Y79262338D01*
X30833914Y79309957D01*
X30786295Y79405195D01*
X30738676Y79595671D01*
X30738676Y79833767D01*
X30786295Y80024243D01*
X30833914Y80119481D01*
X30881533Y80167100D01*
X30976771Y80214719D01*
X27025695Y67387719D02*
X27025695Y66578195D01*
X27073314Y66482957D01*
X27120933Y66435338D01*
X27216171Y66387719D01*
X27406648Y66387719D01*
X27501886Y66435338D01*
X27549505Y66482957D01*
X27597124Y66578195D01*
X27597124Y67387719D01*
X28501886Y67054386D02*
X28501886Y66387719D01*
X28263790Y67435338D02*
X28025695Y66721052D01*
X28644743Y66721052D01*
X1052581Y67141767D02*
X1766867Y67141767D01*
X1909724Y67094147D01*
X2004962Y66998909D01*
X2052581Y66856052D01*
X2052581Y66760814D01*
X1147819Y67570338D02*
X1100200Y67617957D01*
X1052581Y67713195D01*
X1052581Y67951291D01*
X1100200Y68046529D01*
X1147819Y68094148D01*
X1243057Y68141767D01*
X1338295Y68141767D01*
X1481152Y68094148D01*
X2052581Y67522719D01*
X2052581Y68141767D01*
X1052581Y83905767D02*
X1766867Y83905767D01*
X1909724Y83858147D01*
X2004962Y83762909D01*
X2052581Y83620052D01*
X2052581Y83524814D01*
X1052581Y84286719D02*
X1052581Y84905767D01*
X1433533Y84572433D01*
X1433533Y84715291D01*
X1481152Y84810529D01*
X1528771Y84858148D01*
X1624010Y84905767D01*
X1862105Y84905767D01*
X1957343Y84858148D01*
X2004962Y84810529D01*
X2052581Y84715291D01*
X2052581Y84429576D01*
X2004962Y84334338D01*
X1957343Y84286719D01*
X21515343Y88136434D02*
X21562962Y88088815D01*
X21610581Y87945958D01*
X21610581Y87850720D01*
X21562962Y87707862D01*
X21467724Y87612624D01*
X21372486Y87565005D01*
X21182010Y87517386D01*
X21039152Y87517386D01*
X20848676Y87565005D01*
X20753438Y87612624D01*
X20658200Y87707862D01*
X20610581Y87850720D01*
X20610581Y87945958D01*
X20658200Y88088815D01*
X20705819Y88136434D01*
X20610581Y88469767D02*
X20610581Y89088815D01*
X20991533Y88755481D01*
X20991533Y88898339D01*
X21039152Y88993577D01*
X21086771Y89041196D01*
X21182010Y89088815D01*
X21420105Y89088815D01*
X21515343Y89041196D01*
X21562962Y88993577D01*
X21610581Y88898339D01*
X21610581Y88612624D01*
X21562962Y88517386D01*
X21515343Y88469767D01*
X27466229Y79197148D02*
X27466229Y79959053D01*
X27847181Y79578101D02*
X27085276Y79578101D01*
X14895534Y74737957D02*
X14847915Y74690338D01*
X14705058Y74642719D01*
X14609820Y74642719D01*
X14466962Y74690338D01*
X14371724Y74785576D01*
X14324105Y74880814D01*
X14276486Y75071290D01*
X14276486Y75214148D01*
X14324105Y75404624D01*
X14371724Y75499862D01*
X14466962Y75595100D01*
X14609820Y75642719D01*
X14705058Y75642719D01*
X14847915Y75595100D01*
X14895534Y75547481D01*
X15752677Y75309386D02*
X15752677Y74642719D01*
X15514581Y75690338D02*
X15276486Y74976052D01*
X15895534Y74976052D01*
X22187048Y74046671D02*
X22948953Y74046671D01*
X22568001Y73665719D02*
X22568001Y74427624D01*
X33199343Y68324434D02*
X33246962Y68276815D01*
X33294581Y68133958D01*
X33294581Y68038720D01*
X33246962Y67895862D01*
X33151724Y67800624D01*
X33056486Y67753005D01*
X32866010Y67705386D01*
X32723152Y67705386D01*
X32532676Y67753005D01*
X32437438Y67800624D01*
X32342200Y67895862D01*
X32294581Y68038720D01*
X32294581Y68133958D01*
X32342200Y68276815D01*
X32389819Y68324434D01*
X32723152Y68895862D02*
X32675533Y68800624D01*
X32627914Y68753005D01*
X32532676Y68705386D01*
X32485057Y68705386D01*
X32389819Y68753005D01*
X32342200Y68800624D01*
X32294581Y68895862D01*
X32294581Y69086339D01*
X32342200Y69181577D01*
X32389819Y69229196D01*
X32485057Y69276815D01*
X32532676Y69276815D01*
X32627914Y69229196D01*
X32675533Y69181577D01*
X32723152Y69086339D01*
X32723152Y68895862D01*
X32770771Y68800624D01*
X32818390Y68753005D01*
X32913629Y68705386D01*
X33104105Y68705386D01*
X33199343Y68753005D01*
X33246962Y68800624D01*
X33294581Y68895862D01*
X33294581Y69086339D01*
X33246962Y69181577D01*
X33199343Y69229196D01*
X33104105Y69276815D01*
X32913629Y69276815D01*
X32818390Y69229196D01*
X32770771Y69181577D01*
X32723152Y69086339D01*
X40140829Y66446348D02*
X40140829Y67208253D01*
X40521781Y66827301D02*
X39759876Y66827301D01*
X46172381Y8880576D02*
X45172381Y8880576D01*
X45886667Y9213910D01*
X45172381Y9547243D01*
X46172381Y9547243D01*
X45267619Y9975814D02*
X45220000Y10023433D01*
X45172381Y10118671D01*
X45172381Y10356767D01*
X45220000Y10452005D01*
X45267619Y10499624D01*
X45362857Y10547243D01*
X45458095Y10547243D01*
X45600952Y10499624D01*
X46172381Y9928195D01*
X46172381Y10547243D01*
X45918381Y30851576D02*
X44918381Y30851576D01*
X45632667Y31184910D01*
X44918381Y31518243D01*
X45918381Y31518243D01*
X44918381Y31899195D02*
X44918381Y32518243D01*
X45299333Y32184909D01*
X45299333Y32327767D01*
X45346952Y32423005D01*
X45394571Y32470624D01*
X45489810Y32518243D01*
X45727905Y32518243D01*
X45823143Y32470624D01*
X45870762Y32423005D01*
X45918381Y32327767D01*
X45918381Y32042052D01*
X45870762Y31946814D01*
X45823143Y31899195D01*
X46350181Y77816176D02*
X45350181Y77816176D01*
X46064467Y78149510D01*
X45350181Y78482843D01*
X46350181Y78482843D01*
X45683514Y79387605D02*
X46350181Y79387605D01*
X45302562Y79149509D02*
X46016848Y78911414D01*
X46016848Y79530462D01*
X30043381Y10150576D02*
X29043381Y10150576D01*
X29757667Y10483910D01*
X29043381Y10817243D01*
X30043381Y10817243D01*
X29043381Y11769624D02*
X29043381Y11293433D01*
X29519571Y11245814D01*
X29471952Y11293433D01*
X29424333Y11388671D01*
X29424333Y11626767D01*
X29471952Y11722005D01*
X29519571Y11769624D01*
X29614810Y11817243D01*
X29852905Y11817243D01*
X29948143Y11769624D01*
X29995762Y11722005D01*
X30043381Y11626767D01*
X30043381Y11388671D01*
X29995762Y11293433D01*
X29948143Y11245814D01*
X14276343Y68324434D02*
X14323962Y68276815D01*
X14371581Y68133958D01*
X14371581Y68038720D01*
X14323962Y67895862D01*
X14228724Y67800624D01*
X14133486Y67753005D01*
X13943010Y67705386D01*
X13800152Y67705386D01*
X13609676Y67753005D01*
X13514438Y67800624D01*
X13419200Y67895862D01*
X13371581Y68038720D01*
X13371581Y68133958D01*
X13419200Y68276815D01*
X13466819Y68324434D01*
X13371581Y69229196D02*
X13371581Y68753005D01*
X13847771Y68705386D01*
X13800152Y68753005D01*
X13752533Y68848243D01*
X13752533Y69086339D01*
X13800152Y69181577D01*
X13847771Y69229196D01*
X13943010Y69276815D01*
X14181105Y69276815D01*
X14276343Y69229196D01*
X14323962Y69181577D01*
X14371581Y69086339D01*
X14371581Y68848243D01*
X14323962Y68753005D01*
X14276343Y68705386D01*
X21769343Y79246434D02*
X21816962Y79198815D01*
X21864581Y79055958D01*
X21864581Y78960720D01*
X21816962Y78817862D01*
X21721724Y78722624D01*
X21626486Y78675005D01*
X21436010Y78627386D01*
X21293152Y78627386D01*
X21102676Y78675005D01*
X21007438Y78722624D01*
X20912200Y78817862D01*
X20864581Y78960720D01*
X20864581Y79055958D01*
X20912200Y79198815D01*
X20959819Y79246434D01*
X20864581Y80103577D02*
X20864581Y79913100D01*
X20912200Y79817862D01*
X20959819Y79770243D01*
X21102676Y79675005D01*
X21293152Y79627386D01*
X21674105Y79627386D01*
X21769343Y79675005D01*
X21816962Y79722624D01*
X21864581Y79817862D01*
X21864581Y80008339D01*
X21816962Y80103577D01*
X21769343Y80151196D01*
X21674105Y80198815D01*
X21436010Y80198815D01*
X21340771Y80151196D01*
X21293152Y80103577D01*
X21245533Y80008339D01*
X21245533Y79817862D01*
X21293152Y79722624D01*
X21340771Y79675005D01*
X21436010Y79627386D01*
X33199343Y73658434D02*
X33246962Y73610815D01*
X33294581Y73467958D01*
X33294581Y73372720D01*
X33246962Y73229862D01*
X33151724Y73134624D01*
X33056486Y73087005D01*
X32866010Y73039386D01*
X32723152Y73039386D01*
X32532676Y73087005D01*
X32437438Y73134624D01*
X32342200Y73229862D01*
X32294581Y73372720D01*
X32294581Y73467958D01*
X32342200Y73610815D01*
X32389819Y73658434D01*
X32294581Y73991767D02*
X32294581Y74658434D01*
X33294581Y74229862D01*
M02*
