G04 #@! TF.FileFunction,Copper,L2,Bot,Signal*
%FSLAX46Y46*%
G04 Gerber Fmt 4.6, Leading zero omitted, Abs format (unit mm)*
G04 Created by KiCad (PCBNEW 4.0.6+dfsg1-1) date Mon Feb 26 15:31:38 2018*
%MOMM*%
%LPD*%
G01*
G04 APERTURE LIST*
%ADD10C,0.100000*%
%ADD11C,1.524000*%
%ADD12R,1.600000X1.600000*%
%ADD13O,1.600000X1.600000*%
%ADD14R,2.500000X2.500000*%
%ADD15C,2.500000*%
%ADD16R,1.700000X1.700000*%
%ADD17O,1.700000X1.700000*%
%ADD18C,1.600000*%
%ADD19C,6.400000*%
%ADD20C,0.600000*%
%ADD21C,1.000000*%
%ADD22C,2.000000*%
%ADD23C,0.250000*%
%ADD24C,0.500000*%
%ADD25C,0.254000*%
G04 APERTURE END LIST*
D10*
D11*
X29718000Y60363100D03*
X27178000Y60363100D03*
X23368000Y60363100D03*
X20828000Y60363100D03*
X29718000Y42583100D03*
X1778000Y42583100D03*
X1778000Y60363100D03*
X25908000Y42583100D03*
X23368000Y42583100D03*
X20828000Y42583100D03*
X18288000Y42583100D03*
X29718000Y39662100D03*
X27178000Y39662100D03*
X23368000Y39662100D03*
X20828000Y39662100D03*
X29718000Y21882100D03*
X1778000Y21882100D03*
X1778000Y39662100D03*
X25908000Y21882100D03*
X23368000Y21882100D03*
X20828000Y21882100D03*
X18288000Y21882100D03*
D12*
X35128200Y45123100D03*
D13*
X68148200Y60363100D03*
X37668200Y45123100D03*
X65608200Y60363100D03*
X40208200Y45123100D03*
X63068200Y60363100D03*
X42748200Y45123100D03*
X60528200Y60363100D03*
X45288200Y45123100D03*
X57988200Y60363100D03*
X47828200Y45123100D03*
X55448200Y60363100D03*
X50368200Y45123100D03*
X52908200Y60363100D03*
X52908200Y45123100D03*
X50368200Y60363100D03*
X55448200Y45123100D03*
X47828200Y60363100D03*
X57988200Y45123100D03*
X45288200Y60363100D03*
X60528200Y45123100D03*
X42748200Y60363100D03*
X63068200Y45123100D03*
X40208200Y60363100D03*
X65608200Y45123100D03*
X37668200Y60363100D03*
X68148200Y45123100D03*
X35128200Y60363100D03*
X70688200Y45123100D03*
X70688200Y60363100D03*
D14*
X4978400Y70040500D03*
D15*
X4978400Y65040500D03*
D14*
X4953000Y86804500D03*
D15*
X4953000Y81804500D03*
D16*
X45212000Y63639700D03*
D17*
X47752000Y63639700D03*
D11*
X45720000Y1435100D03*
X48260000Y1435100D03*
X52070000Y1435100D03*
X54610000Y1435100D03*
X45720000Y19215100D03*
X73660000Y19215100D03*
X73660000Y1435100D03*
X49530000Y19215100D03*
X52070000Y19215100D03*
X54610000Y19215100D03*
X57150000Y19215100D03*
X45466000Y23406100D03*
X48006000Y23406100D03*
X51816000Y23406100D03*
X54356000Y23406100D03*
X45466000Y41186100D03*
X73406000Y41186100D03*
X73406000Y23406100D03*
X49276000Y41186100D03*
X51816000Y41186100D03*
X54356000Y41186100D03*
X56896000Y41186100D03*
X45897800Y70370700D03*
X48437800Y70370700D03*
X52247800Y70370700D03*
X54787800Y70370700D03*
X45897800Y88150700D03*
X73837800Y88150700D03*
X73837800Y70370700D03*
X49707800Y88150700D03*
X52247800Y88150700D03*
X54787800Y88150700D03*
X57327800Y88150700D03*
X29591000Y19215100D03*
X27051000Y19215100D03*
X23241000Y19215100D03*
X20701000Y19215100D03*
X29591000Y1435100D03*
X1651000Y1435100D03*
X1651000Y19215100D03*
X25781000Y1435100D03*
X23241000Y1435100D03*
X20701000Y1435100D03*
X18161000Y1435100D03*
D12*
X19558000Y71208900D03*
D18*
X17058000Y71208900D03*
D12*
X24434800Y82588100D03*
D18*
X24434800Y85088100D03*
D12*
X37058600Y69938900D03*
D18*
X37058600Y72438900D03*
D16*
X35128200Y80175100D03*
D17*
X35128200Y82715100D03*
X37668200Y80175100D03*
X37668200Y82715100D03*
X40208200Y80175100D03*
X40208200Y82715100D03*
X42748200Y80175100D03*
X42748200Y82715100D03*
D16*
X35128200Y85509100D03*
D17*
X35128200Y88049100D03*
X37668200Y85509100D03*
X37668200Y88049100D03*
X40208200Y85509100D03*
X40208200Y88049100D03*
X42748200Y85509100D03*
X42748200Y88049100D03*
D16*
X35128200Y77127100D03*
D17*
X37668200Y77127100D03*
X40208200Y77127100D03*
X42748200Y77127100D03*
D16*
X34175700Y39027100D03*
D17*
X36715700Y39027100D03*
X39255700Y39027100D03*
D19*
X10668000Y75882500D03*
D20*
X13068000Y75882500D03*
X12365056Y74185444D03*
X10668000Y73482500D03*
X8970944Y74185444D03*
X8268000Y75882500D03*
X8970944Y77579556D03*
X10668000Y78282500D03*
X12365056Y77579556D03*
D19*
X70434200Y10579100D03*
D20*
X72834200Y10579100D03*
X72131256Y8882044D03*
X70434200Y8179100D03*
X68737144Y8882044D03*
X68034200Y10579100D03*
X68737144Y12276156D03*
X70434200Y12979100D03*
X72131256Y12276156D03*
D19*
X70434200Y30899100D03*
D20*
X72834200Y30899100D03*
X72131256Y29202044D03*
X70434200Y28499100D03*
X68737144Y29202044D03*
X68034200Y30899100D03*
X68737144Y32596156D03*
X70434200Y33299100D03*
X72131256Y32596156D03*
D19*
X6934200Y10579100D03*
D20*
X9334200Y10579100D03*
X8631256Y8882044D03*
X6934200Y8179100D03*
X5237144Y8882044D03*
X4534200Y10579100D03*
X5237144Y12276156D03*
X6934200Y12979100D03*
X8631256Y12276156D03*
D19*
X6934200Y30899100D03*
D20*
X9334200Y30899100D03*
X8631256Y29202044D03*
X6934200Y28499100D03*
X5237144Y29202044D03*
X4534200Y30899100D03*
X5237144Y32596156D03*
X6934200Y33299100D03*
X8631256Y32596156D03*
D19*
X6934200Y51219100D03*
D20*
X9334200Y51219100D03*
X8631256Y49522044D03*
X6934200Y48819100D03*
X5237144Y49522044D03*
X4534200Y51219100D03*
X5237144Y52916156D03*
X6934200Y53619100D03*
X8631256Y52916156D03*
D19*
X70434200Y79159100D03*
D20*
X72834200Y79159100D03*
X72131256Y77462044D03*
X70434200Y76759100D03*
X68737144Y77462044D03*
X68034200Y79159100D03*
X68737144Y80856156D03*
X70434200Y81559100D03*
X72131256Y80856156D03*
D19*
X70434200Y53759100D03*
D20*
X72834200Y53759100D03*
X72131256Y52062044D03*
X70434200Y51359100D03*
X68737144Y52062044D03*
X68034200Y53759100D03*
X68737144Y55456156D03*
X70434200Y56159100D03*
X72131256Y55456156D03*
X27517998Y74739500D03*
X27228800Y6870700D03*
X50292000Y81953100D03*
X52247800Y80708500D03*
X23571200Y26123900D03*
X39890700Y22263100D03*
X45224700Y25247600D03*
X59702700Y40487600D03*
X45796200Y32677100D03*
X45542200Y42837100D03*
X39751000Y19900900D03*
X41478200Y31330900D03*
X49123600Y56095900D03*
X41376600Y49339500D03*
X41478200Y46901100D03*
X65227200Y40093900D03*
X51917600Y36918900D03*
D21*
X37058600Y72438900D02*
X38978200Y72438900D01*
X37668200Y61785500D02*
X37668200Y60363100D01*
X39801800Y63919100D02*
X37668200Y61785500D01*
X39801800Y71615300D02*
X39801800Y63919100D01*
X38978200Y72438900D02*
X39801800Y71615300D01*
D22*
X17058000Y71208900D02*
X17058000Y62511300D01*
X14909800Y60363100D02*
X1778000Y60363100D01*
X17058000Y62511300D02*
X14909800Y60363100D01*
X17058000Y74917300D02*
X27340198Y74917300D01*
X27340198Y74917300D02*
X27517998Y74739500D01*
X24434800Y85088100D02*
X21626200Y85088100D01*
X17058000Y80519900D02*
X17058000Y74917300D01*
X17058000Y74917300D02*
X17058000Y71208900D01*
X21626200Y85088100D02*
X17058000Y80519900D01*
X49276000Y6769100D02*
X54610000Y1435100D01*
X27330400Y6769100D02*
X49276000Y6769100D01*
X27228800Y6870700D02*
X27330400Y6769100D01*
D23*
X54356000Y41186100D02*
X54356000Y43675300D01*
X63068200Y54800500D02*
X63068200Y60363100D01*
X54178200Y45910500D02*
X63068200Y54800500D01*
X54178200Y43853100D02*
X54178200Y45910500D01*
X54356000Y43675300D02*
X54178200Y43853100D01*
D24*
X49707800Y88150700D02*
X49707800Y82537300D01*
X49707800Y82537300D02*
X50292000Y81953100D01*
X52247800Y80708500D02*
X52247800Y88150700D01*
X50368200Y45123100D02*
X50368200Y44310300D01*
X23876000Y26428700D02*
X23571200Y26123900D01*
X41402000Y26428700D02*
X23876000Y26428700D01*
X46863000Y31889700D02*
X41402000Y26428700D01*
X46863000Y42075100D02*
X46863000Y31889700D01*
X48285400Y43497500D02*
X46863000Y42075100D01*
X49555400Y43497500D02*
X48285400Y43497500D01*
X50368200Y44310300D02*
X49555400Y43497500D01*
X52908200Y45123100D02*
X52908200Y43548300D01*
X24282400Y25336500D02*
X20828000Y21882100D01*
X41503600Y25336500D02*
X24282400Y25336500D01*
X47752000Y31584900D02*
X41503600Y25336500D01*
X47752000Y41770300D02*
X47752000Y31584900D01*
X48641000Y42659300D02*
X47752000Y41770300D01*
X52019200Y42659300D02*
X48641000Y42659300D01*
X52908200Y43548300D02*
X52019200Y42659300D01*
X27876500Y23850600D02*
X25908000Y21882100D01*
X30556200Y23850600D02*
X27876500Y23850600D01*
X32397700Y22009100D02*
X30556200Y23850600D01*
X39636700Y22009100D02*
X32397700Y22009100D01*
X39890700Y22263100D02*
X39636700Y22009100D01*
X45986700Y25247600D02*
X45224700Y25247600D01*
X59639200Y38900100D02*
X45986700Y25247600D01*
X59639200Y40424100D02*
X59639200Y38900100D01*
X59702700Y40487600D02*
X59639200Y40424100D01*
X55448200Y45123100D02*
X55575200Y45123100D01*
X45796200Y37503100D02*
X45796200Y32677100D01*
X43256200Y40043100D02*
X45796200Y37503100D01*
X43256200Y42583100D02*
X43256200Y40043100D01*
X43510200Y42837100D02*
X43256200Y42583100D01*
X45542200Y42837100D02*
X43510200Y42837100D01*
X49923700Y19608800D02*
X49530000Y19215100D01*
D22*
X29591000Y19215100D02*
X39065200Y19215100D01*
X39065200Y19215100D02*
X39751000Y19900900D01*
X27051000Y19215100D02*
X27051000Y18630900D01*
X27051000Y18630900D02*
X25095200Y16675100D01*
X15570200Y18986500D02*
X15570200Y39230300D01*
X17881600Y16675100D02*
X15570200Y18986500D01*
X25095200Y16675100D02*
X17881600Y16675100D01*
X27051000Y19215100D02*
X29591000Y19215100D01*
X27178000Y39662100D02*
X29718000Y39662100D01*
X27178000Y39662100D02*
X27178000Y38722300D01*
X29718000Y57899300D02*
X29718000Y60363100D01*
X15570200Y43751500D02*
X29718000Y57899300D01*
X15570200Y39230300D02*
X15570200Y43751500D01*
X17272000Y37528500D02*
X15570200Y39230300D01*
X25984200Y37528500D02*
X17272000Y37528500D01*
X27178000Y38722300D02*
X25984200Y37528500D01*
X27178000Y60363100D02*
X29718000Y60363100D01*
X24434800Y82588100D02*
X24765000Y82588100D01*
X24765000Y82588100D02*
X29718000Y77635100D01*
X29718000Y77635100D02*
X29718000Y60363100D01*
X42748200Y85509100D02*
X45821600Y85509100D01*
X45542200Y85229700D02*
X45542200Y70726300D01*
X45821600Y85509100D02*
X45542200Y85229700D01*
X45542200Y70726300D02*
X45897800Y70370700D01*
D24*
X45720000Y19215100D02*
X45720000Y19227800D01*
X45720000Y19227800D02*
X43256200Y21691600D01*
X43256200Y21691600D02*
X43256200Y24930100D01*
X43256200Y24930100D02*
X57670700Y39344600D01*
X57670700Y39344600D02*
X58750200Y40424100D01*
X58750200Y40424100D02*
X58750200Y41884600D01*
X58750200Y41884600D02*
X57988200Y42646600D01*
X57988200Y42646600D02*
X57988200Y45123100D01*
X57988200Y45123100D02*
X57988200Y44615100D01*
D23*
X41198800Y43040300D02*
X41198800Y43980100D01*
D21*
X41478200Y31330900D02*
X41148000Y31661100D01*
X41148000Y31661100D02*
X41148000Y41211500D01*
X41148000Y41211500D02*
X41198800Y41262300D01*
X41198800Y41262300D02*
X41198800Y43040300D01*
D23*
X48133000Y56095900D02*
X49123600Y56095900D01*
X41376600Y49339500D02*
X48133000Y56095900D01*
X41478200Y44259500D02*
X41478200Y46901100D01*
X41198800Y43980100D02*
X41478200Y44259500D01*
D21*
X29718000Y42583100D02*
X29718000Y45732700D01*
X50368200Y51676300D02*
X50368200Y60363100D01*
X46863000Y48171100D02*
X50368200Y51676300D01*
X32156400Y48171100D02*
X46863000Y48171100D01*
X29718000Y45732700D02*
X32156400Y48171100D01*
D24*
X60528200Y45123100D02*
X60528200Y24218900D01*
X55727600Y22542500D02*
X52400200Y19215100D01*
X58851800Y22542500D02*
X55727600Y22542500D01*
X60528200Y24218900D02*
X58851800Y22542500D01*
X52400200Y19215100D02*
X52070000Y19215100D01*
X54610000Y19215100D02*
X54610000Y20104100D01*
X63068200Y24980900D02*
X63068200Y45123100D01*
X59461400Y21374100D02*
X63068200Y24980900D01*
X55880000Y21374100D02*
X59461400Y21374100D01*
X54610000Y20104100D02*
X55880000Y21374100D01*
X65608200Y45123100D02*
X65608200Y40474900D01*
X65608200Y40474900D02*
X65227200Y40093900D01*
X51816000Y37020500D02*
X51816000Y41186100D01*
X51917600Y36918900D02*
X51816000Y37020500D01*
X51816000Y41186100D02*
X51816000Y40601900D01*
D25*
G36*
X20037697Y61548110D02*
X19644371Y61155470D01*
X19431243Y60642200D01*
X19430758Y60086439D01*
X19642990Y59572797D01*
X20035630Y59179471D01*
X20548900Y58966343D01*
X21104661Y58965858D01*
X21618303Y59178090D01*
X22011629Y59570730D01*
X22097949Y59778612D01*
X22182990Y59572797D01*
X22575630Y59179471D01*
X23088900Y58966343D01*
X23644661Y58965858D01*
X24158303Y59178090D01*
X24551629Y59570730D01*
X24764757Y60084000D01*
X24765242Y60639761D01*
X24553010Y61153403D01*
X24160370Y61546729D01*
X23647100Y61759857D01*
X23368647Y61760100D01*
X26382383Y61760100D01*
X26021880Y61519220D01*
X25667457Y60988787D01*
X25543000Y60363100D01*
X25667457Y59737413D01*
X26021880Y59206980D01*
X26552313Y58852557D01*
X27178000Y58728100D01*
X28083000Y58728100D01*
X28083000Y58576539D01*
X14414080Y44907620D01*
X14059657Y44377188D01*
X13935199Y43751500D01*
X13935200Y43751495D01*
X13935200Y39230305D01*
X13935199Y39230300D01*
X13935200Y39230295D01*
X13935200Y18986505D01*
X13935199Y18986500D01*
X14059657Y18360812D01*
X14414080Y17830380D01*
X16725478Y15518983D01*
X16725480Y15518980D01*
X17043451Y15306519D01*
X17255912Y15164557D01*
X17881600Y15040100D01*
X25095195Y15040100D01*
X25095200Y15040099D01*
X25720888Y15164557D01*
X26251320Y15518980D01*
X28207120Y17474780D01*
X28277493Y17580100D01*
X39065195Y17580100D01*
X39065200Y17580099D01*
X39690888Y17704557D01*
X40221320Y18058980D01*
X40907120Y18744781D01*
X41261543Y19275213D01*
X41386001Y19900900D01*
X41261543Y20526588D01*
X40907120Y21057020D01*
X40376688Y21411443D01*
X40310047Y21424699D01*
X40419643Y21469983D01*
X40682892Y21732773D01*
X40825538Y22076301D01*
X40825862Y22448267D01*
X40683817Y22792043D01*
X40421027Y23055292D01*
X40077499Y23197938D01*
X39705533Y23198262D01*
X39361757Y23056217D01*
X39199357Y22894100D01*
X32764279Y22894100D01*
X31206880Y24451500D01*
X41503595Y24451500D01*
X41503600Y24451499D01*
X41786084Y24507690D01*
X41842275Y24518867D01*
X42129390Y24710710D01*
X42376766Y24958086D01*
X42371199Y24930100D01*
X42371200Y24930095D01*
X42371200Y21691605D01*
X42371199Y21691600D01*
X42426927Y21411443D01*
X42438567Y21352925D01*
X42455263Y21327938D01*
X42630410Y21065810D01*
X44323137Y19373083D01*
X44322758Y18938439D01*
X44534990Y18424797D01*
X44927630Y18031471D01*
X45440900Y17818343D01*
X45996661Y17817858D01*
X46510303Y18030090D01*
X46903629Y18422730D01*
X47116757Y18936000D01*
X47117242Y19491761D01*
X46905010Y20005403D01*
X46512370Y20398729D01*
X45999100Y20611857D01*
X45587163Y20612216D01*
X44141200Y22058180D01*
X44141200Y22954116D01*
X44280990Y22615797D01*
X44673630Y22222471D01*
X45186900Y22009343D01*
X45742661Y22008858D01*
X46256303Y22221090D01*
X46649629Y22613730D01*
X46735949Y22821612D01*
X46820990Y22615797D01*
X47213630Y22222471D01*
X47726900Y22009343D01*
X48282661Y22008858D01*
X48796303Y22221090D01*
X49189629Y22613730D01*
X49402757Y23127000D01*
X49403242Y23682761D01*
X49191010Y24196403D01*
X48798370Y24589729D01*
X48285100Y24802857D01*
X47729339Y24803342D01*
X47215697Y24591110D01*
X46822371Y24198470D01*
X46736051Y23990588D01*
X46651010Y24196403D01*
X46380851Y24467034D01*
X46612490Y24621810D01*
X59643200Y37652521D01*
X59643200Y24585479D01*
X58485220Y23427500D01*
X55753019Y23427500D01*
X55753242Y23682761D01*
X55541010Y24196403D01*
X55148370Y24589729D01*
X54635100Y24802857D01*
X54079339Y24803342D01*
X53565697Y24591110D01*
X53172371Y24198470D01*
X53086051Y23990588D01*
X53001010Y24196403D01*
X52608370Y24589729D01*
X52095100Y24802857D01*
X51539339Y24803342D01*
X51025697Y24591110D01*
X50632371Y24198470D01*
X50419243Y23685200D01*
X50418758Y23129439D01*
X50630990Y22615797D01*
X51023630Y22222471D01*
X51536900Y22009343D01*
X52092661Y22008858D01*
X52606303Y22221090D01*
X52999629Y22613730D01*
X53085949Y22821612D01*
X53170990Y22615797D01*
X53563630Y22222471D01*
X53982190Y22048670D01*
X52487789Y20554269D01*
X52349100Y20611857D01*
X51793339Y20612342D01*
X51279697Y20400110D01*
X50886371Y20007470D01*
X50800051Y19799588D01*
X50743550Y19936332D01*
X50741333Y19947475D01*
X50735076Y19956839D01*
X50715010Y20005403D01*
X50677560Y20042918D01*
X50549490Y20234590D01*
X50359493Y20361541D01*
X50322370Y20398729D01*
X50273413Y20419058D01*
X50262375Y20426433D01*
X50249468Y20429000D01*
X49809100Y20611857D01*
X49253339Y20612342D01*
X48739697Y20400110D01*
X48346371Y20007470D01*
X48133243Y19494200D01*
X48132758Y18938439D01*
X48344990Y18424797D01*
X48737630Y18031471D01*
X49250900Y17818343D01*
X49806661Y17817858D01*
X50320303Y18030090D01*
X50713629Y18422730D01*
X50799949Y18630612D01*
X50884990Y18424797D01*
X51277630Y18031471D01*
X51790900Y17818343D01*
X52346661Y17817858D01*
X52860303Y18030090D01*
X53253629Y18422730D01*
X53339949Y18630612D01*
X53424990Y18424797D01*
X53817630Y18031471D01*
X54330900Y17818343D01*
X54886661Y17817858D01*
X55400303Y18030090D01*
X55793629Y18422730D01*
X55879949Y18630612D01*
X55964990Y18424797D01*
X56357630Y18031471D01*
X56870900Y17818343D01*
X57426661Y17817858D01*
X57940303Y18030090D01*
X58333629Y18422730D01*
X58546757Y18936000D01*
X58547181Y19422798D01*
X72250856Y19422798D01*
X72278638Y18867732D01*
X72437603Y18483957D01*
X72679787Y18414492D01*
X73480395Y19215100D01*
X72679787Y20015708D01*
X72437603Y19946243D01*
X72250856Y19422798D01*
X58547181Y19422798D01*
X58547242Y19491761D01*
X58335010Y20005403D01*
X57942370Y20398729D01*
X57724732Y20489100D01*
X59461395Y20489100D01*
X59461400Y20489099D01*
X59743884Y20545290D01*
X59800075Y20556467D01*
X60087190Y20748310D01*
X62952677Y23613798D01*
X71996856Y23613798D01*
X72024638Y23058732D01*
X72183603Y22674957D01*
X72425787Y22605492D01*
X73226395Y23406100D01*
X72425787Y24206708D01*
X72183603Y24137243D01*
X71996856Y23613798D01*
X62952677Y23613798D01*
X63693987Y24355108D01*
X63693990Y24355110D01*
X63885833Y24642225D01*
X63953200Y24980900D01*
X63953200Y30139618D01*
X66598536Y30139618D01*
X67181150Y28729585D01*
X68259011Y27649841D01*
X69668025Y27064767D01*
X71193682Y27063436D01*
X72603715Y27646050D01*
X73683459Y28723911D01*
X74268533Y30132925D01*
X74269864Y31658582D01*
X73687250Y33068615D01*
X72609389Y34148359D01*
X71200375Y34733433D01*
X69674718Y34734764D01*
X68264685Y34152150D01*
X67184941Y33074289D01*
X66599867Y31665275D01*
X66598536Y30139618D01*
X63953200Y30139618D01*
X63953200Y43993627D01*
X64082898Y44080289D01*
X64338200Y44462375D01*
X64593502Y44080289D01*
X64723200Y43993627D01*
X64723200Y40897323D01*
X64698257Y40887017D01*
X64435008Y40624227D01*
X64292362Y40280699D01*
X64292038Y39908733D01*
X64434083Y39564957D01*
X64696873Y39301708D01*
X65040401Y39159062D01*
X65412367Y39158738D01*
X65756143Y39300783D01*
X66019392Y39563573D01*
X66069766Y39684887D01*
X66233987Y39849108D01*
X66233990Y39849110D01*
X66425833Y40136225D01*
X66493200Y40474900D01*
X66493200Y41393798D01*
X71996856Y41393798D01*
X72024638Y40838732D01*
X72183603Y40454957D01*
X72425787Y40385492D01*
X73226395Y41186100D01*
X72425787Y41986708D01*
X72183603Y41917243D01*
X71996856Y41393798D01*
X66493200Y41393798D01*
X66493200Y43993627D01*
X66622898Y44080289D01*
X66878200Y44462375D01*
X67133502Y44080289D01*
X67599049Y43769220D01*
X68148200Y43659987D01*
X68697351Y43769220D01*
X69162898Y44080289D01*
X69418200Y44462375D01*
X69673502Y44080289D01*
X70139049Y43769220D01*
X70688200Y43659987D01*
X71237351Y43769220D01*
X71702898Y44080289D01*
X71892056Y44363383D01*
X71934614Y44260385D01*
X72363229Y43831021D01*
X72923528Y43598365D01*
X73530211Y43597835D01*
X74090915Y43829514D01*
X74364200Y44102322D01*
X74364200Y42238744D01*
X74321618Y42281326D01*
X74206607Y42166315D01*
X74137143Y42408497D01*
X73613698Y42595244D01*
X73058632Y42567462D01*
X72674857Y42408497D01*
X72605392Y42166313D01*
X73406000Y41365705D01*
X73420143Y41379847D01*
X73599748Y41200242D01*
X73585605Y41186100D01*
X73599748Y41171957D01*
X73420143Y40992352D01*
X73406000Y41006495D01*
X72605392Y40205887D01*
X72674857Y39963703D01*
X73198302Y39776956D01*
X73753368Y39804738D01*
X74137143Y39963703D01*
X74206607Y40205885D01*
X74321618Y40090874D01*
X74364200Y40133456D01*
X74364200Y24458744D01*
X74321618Y24501326D01*
X74206607Y24386315D01*
X74137143Y24628497D01*
X73613698Y24815244D01*
X73058632Y24787462D01*
X72674857Y24628497D01*
X72605392Y24386313D01*
X73406000Y23585705D01*
X73420143Y23599847D01*
X73599748Y23420242D01*
X73585605Y23406100D01*
X73599748Y23391957D01*
X73420143Y23212352D01*
X73406000Y23226495D01*
X72605392Y22425887D01*
X72674857Y22183703D01*
X73198302Y21996956D01*
X73753368Y22024738D01*
X74137143Y22183703D01*
X74206607Y22425885D01*
X74321618Y22310874D01*
X74364200Y22353456D01*
X74364200Y20447109D01*
X73867698Y20624244D01*
X73312632Y20596462D01*
X72928857Y20437497D01*
X72859392Y20195313D01*
X73660000Y19394705D01*
X73674143Y19408847D01*
X73853748Y19229242D01*
X73839605Y19215100D01*
X73853748Y19200957D01*
X73674143Y19021352D01*
X73660000Y19035495D01*
X72859392Y18234887D01*
X72928857Y17992703D01*
X73452302Y17805956D01*
X74007368Y17833738D01*
X74364200Y17981543D01*
X74364200Y2667109D01*
X73867698Y2844244D01*
X73312632Y2816462D01*
X72928857Y2657497D01*
X72859392Y2415313D01*
X73660000Y1614705D01*
X73674143Y1628847D01*
X73853748Y1449242D01*
X73839605Y1435100D01*
X73853748Y1420957D01*
X73674143Y1241352D01*
X73660000Y1255495D01*
X73645858Y1241352D01*
X73466253Y1420957D01*
X73480395Y1435100D01*
X72679787Y2235708D01*
X72437603Y2166243D01*
X72250856Y1642798D01*
X72278638Y1087732D01*
X72402336Y789100D01*
X56106971Y789100D01*
X56120543Y809412D01*
X56245000Y1435100D01*
X56120543Y2060788D01*
X55766119Y2591220D01*
X50432120Y7925220D01*
X49901688Y8279643D01*
X49276000Y8404101D01*
X49275995Y8404100D01*
X27739579Y8404100D01*
X27228800Y8505701D01*
X26603112Y8381243D01*
X26072680Y8026820D01*
X25718257Y7496388D01*
X25593799Y6870700D01*
X25718257Y6245012D01*
X26072680Y5714580D01*
X26174280Y5612980D01*
X26704712Y5258557D01*
X27330400Y5134099D01*
X27330405Y5134100D01*
X48598760Y5134100D01*
X51196151Y2536710D01*
X50886371Y2227470D01*
X50673243Y1714200D01*
X50672758Y1158439D01*
X50825365Y789100D01*
X49504407Y789100D01*
X49656757Y1156000D01*
X49657242Y1711761D01*
X49445010Y2225403D01*
X49052370Y2618729D01*
X48539100Y2831857D01*
X47983339Y2832342D01*
X47469697Y2620110D01*
X47076371Y2227470D01*
X46990051Y2019588D01*
X46905010Y2225403D01*
X46512370Y2618729D01*
X45999100Y2831857D01*
X45443339Y2832342D01*
X44929697Y2620110D01*
X44536371Y2227470D01*
X44323243Y1714200D01*
X44322758Y1158439D01*
X44475365Y789100D01*
X30835407Y789100D01*
X30987757Y1156000D01*
X30988242Y1711761D01*
X30776010Y2225403D01*
X30383370Y2618729D01*
X29870100Y2831857D01*
X29314339Y2832342D01*
X28800697Y2620110D01*
X28407371Y2227470D01*
X28194243Y1714200D01*
X28193758Y1158439D01*
X28346365Y789100D01*
X27025407Y789100D01*
X27177757Y1156000D01*
X27178242Y1711761D01*
X26966010Y2225403D01*
X26573370Y2618729D01*
X26060100Y2831857D01*
X25504339Y2832342D01*
X24990697Y2620110D01*
X24597371Y2227470D01*
X24511051Y2019588D01*
X24426010Y2225403D01*
X24033370Y2618729D01*
X23520100Y2831857D01*
X22964339Y2832342D01*
X22450697Y2620110D01*
X22057371Y2227470D01*
X21971051Y2019588D01*
X21886010Y2225403D01*
X21493370Y2618729D01*
X20980100Y2831857D01*
X20424339Y2832342D01*
X19910697Y2620110D01*
X19517371Y2227470D01*
X19431051Y2019588D01*
X19346010Y2225403D01*
X18953370Y2618729D01*
X18440100Y2831857D01*
X17884339Y2832342D01*
X17370697Y2620110D01*
X16977371Y2227470D01*
X16764243Y1714200D01*
X16763758Y1158439D01*
X16916365Y789100D01*
X2903773Y789100D01*
X3060144Y1227402D01*
X3032362Y1782468D01*
X2873397Y2166243D01*
X2631213Y2235708D01*
X1830605Y1435100D01*
X1844748Y1420957D01*
X1665143Y1241352D01*
X1651000Y1255495D01*
X1636858Y1241352D01*
X1457253Y1420957D01*
X1471395Y1435100D01*
X1457253Y1449242D01*
X1636858Y1628847D01*
X1651000Y1614705D01*
X2451608Y2415313D01*
X2382143Y2657497D01*
X1858698Y2844244D01*
X1303632Y2816462D01*
X919857Y2657497D01*
X850393Y2415315D01*
X784200Y2481508D01*
X784200Y9819618D01*
X3098536Y9819618D01*
X3681150Y8409585D01*
X4759011Y7329841D01*
X6168025Y6744767D01*
X7693682Y6743436D01*
X9103715Y7326050D01*
X10183459Y8403911D01*
X10768533Y9812925D01*
X10768538Y9819618D01*
X66598536Y9819618D01*
X67181150Y8409585D01*
X68259011Y7329841D01*
X69668025Y6744767D01*
X71193682Y6743436D01*
X72603715Y7326050D01*
X73683459Y8403911D01*
X74268533Y9812925D01*
X74269864Y11338582D01*
X73687250Y12748615D01*
X72609389Y13828359D01*
X71200375Y14413433D01*
X69674718Y14414764D01*
X68264685Y13832150D01*
X67184941Y12754289D01*
X66599867Y11345275D01*
X66598536Y9819618D01*
X10768538Y9819618D01*
X10769864Y11338582D01*
X10187250Y12748615D01*
X9109389Y13828359D01*
X7700375Y14413433D01*
X6174718Y14414764D01*
X4764685Y13832150D01*
X3684941Y12754289D01*
X3099867Y11345275D01*
X3098536Y9819618D01*
X784200Y9819618D01*
X784200Y18168692D01*
X850393Y18234885D01*
X919857Y17992703D01*
X1443302Y17805956D01*
X1998368Y17833738D01*
X2382143Y17992703D01*
X2451608Y18234887D01*
X1651000Y19035495D01*
X1636858Y19021352D01*
X1457253Y19200957D01*
X1471395Y19215100D01*
X1830605Y19215100D01*
X2631213Y18414492D01*
X2873397Y18483957D01*
X3060144Y19007402D01*
X3032362Y19562468D01*
X2873397Y19946243D01*
X2631213Y20015708D01*
X1830605Y19215100D01*
X1471395Y19215100D01*
X1457253Y19229242D01*
X1636858Y19408847D01*
X1651000Y19394705D01*
X2451608Y20195313D01*
X2382143Y20437497D01*
X2162162Y20515979D01*
X2509143Y20659703D01*
X2578608Y20901887D01*
X1778000Y21702495D01*
X1763858Y21688352D01*
X1584253Y21867957D01*
X1598395Y21882100D01*
X1957605Y21882100D01*
X2758213Y21081492D01*
X3000397Y21150957D01*
X3187144Y21674402D01*
X3159362Y22229468D01*
X3000397Y22613243D01*
X2758213Y22682708D01*
X1957605Y21882100D01*
X1598395Y21882100D01*
X1584253Y21896242D01*
X1763858Y22075847D01*
X1778000Y22061705D01*
X2578608Y22862313D01*
X2509143Y23104497D01*
X1985698Y23291244D01*
X1430632Y23263462D01*
X1046857Y23104497D01*
X977393Y22862315D01*
X862382Y22977326D01*
X784200Y22899144D01*
X784200Y30139618D01*
X3098536Y30139618D01*
X3681150Y28729585D01*
X4759011Y27649841D01*
X6168025Y27064767D01*
X7693682Y27063436D01*
X9103715Y27646050D01*
X10183459Y28723911D01*
X10768533Y30132925D01*
X10769864Y31658582D01*
X10187250Y33068615D01*
X9109389Y34148359D01*
X7700375Y34733433D01*
X6174718Y34734764D01*
X4764685Y34152150D01*
X3684941Y33074289D01*
X3099867Y31665275D01*
X3098536Y30139618D01*
X784200Y30139618D01*
X784200Y38645056D01*
X862382Y38566874D01*
X977393Y38681885D01*
X1046857Y38439703D01*
X1570302Y38252956D01*
X2125368Y38280738D01*
X2509143Y38439703D01*
X2578608Y38681887D01*
X1778000Y39482495D01*
X1763858Y39468352D01*
X1584253Y39647957D01*
X1598395Y39662100D01*
X1957605Y39662100D01*
X2758213Y38861492D01*
X3000397Y38930957D01*
X3187144Y39454402D01*
X3159362Y40009468D01*
X3000397Y40393243D01*
X2758213Y40462708D01*
X1957605Y39662100D01*
X1598395Y39662100D01*
X1584253Y39676242D01*
X1763858Y39855847D01*
X1778000Y39841705D01*
X2578608Y40642313D01*
X2509143Y40884497D01*
X1985698Y41071244D01*
X1430632Y41043462D01*
X1046857Y40884497D01*
X977393Y40642315D01*
X862382Y40757326D01*
X784200Y40679144D01*
X784200Y41566056D01*
X862382Y41487874D01*
X977393Y41602885D01*
X1046857Y41360703D01*
X1570302Y41173956D01*
X2125368Y41201738D01*
X2509143Y41360703D01*
X2578608Y41602887D01*
X1778000Y42403495D01*
X1763858Y42389352D01*
X1584253Y42568957D01*
X1598395Y42583100D01*
X1957605Y42583100D01*
X2758213Y41782492D01*
X3000397Y41851957D01*
X3187144Y42375402D01*
X3159362Y42930468D01*
X3000397Y43314243D01*
X2758213Y43383708D01*
X1957605Y42583100D01*
X1598395Y42583100D01*
X1584253Y42597242D01*
X1763858Y42776847D01*
X1778000Y42762705D01*
X2578608Y43563313D01*
X2509143Y43805497D01*
X1985698Y43992244D01*
X1430632Y43964462D01*
X1046857Y43805497D01*
X977393Y43563315D01*
X862382Y43678326D01*
X784200Y43600144D01*
X784200Y50459618D01*
X3098536Y50459618D01*
X3681150Y49049585D01*
X4759011Y47969841D01*
X6168025Y47384767D01*
X7693682Y47383436D01*
X9103715Y47966050D01*
X10183459Y49043911D01*
X10768533Y50452925D01*
X10769864Y51978582D01*
X10187250Y53388615D01*
X9109389Y54468359D01*
X7700375Y55053433D01*
X6174718Y55054764D01*
X4764685Y54472150D01*
X3684941Y53394289D01*
X3099867Y51985275D01*
X3098536Y50459618D01*
X784200Y50459618D01*
X784200Y59346056D01*
X862382Y59267874D01*
X977393Y59382885D01*
X1046857Y59140703D01*
X1570302Y58953956D01*
X2125368Y58981738D01*
X2509143Y59140703D01*
X2578608Y59382887D01*
X1778000Y60183495D01*
X1763858Y60169352D01*
X1584253Y60348957D01*
X1598395Y60363100D01*
X1957605Y60363100D01*
X2758213Y59562492D01*
X3000397Y59631957D01*
X3187144Y60155402D01*
X3159362Y60710468D01*
X3000397Y61094243D01*
X2758213Y61163708D01*
X1957605Y60363100D01*
X1598395Y60363100D01*
X1584253Y60377242D01*
X1763858Y60556847D01*
X1778000Y60542705D01*
X2578608Y61343313D01*
X2509143Y61585497D01*
X2019737Y61760100D01*
X20550753Y61760100D01*
X20037697Y61548110D01*
X20037697Y61548110D01*
G37*
X20037697Y61548110D02*
X19644371Y61155470D01*
X19431243Y60642200D01*
X19430758Y60086439D01*
X19642990Y59572797D01*
X20035630Y59179471D01*
X20548900Y58966343D01*
X21104661Y58965858D01*
X21618303Y59178090D01*
X22011629Y59570730D01*
X22097949Y59778612D01*
X22182990Y59572797D01*
X22575630Y59179471D01*
X23088900Y58966343D01*
X23644661Y58965858D01*
X24158303Y59178090D01*
X24551629Y59570730D01*
X24764757Y60084000D01*
X24765242Y60639761D01*
X24553010Y61153403D01*
X24160370Y61546729D01*
X23647100Y61759857D01*
X23368647Y61760100D01*
X26382383Y61760100D01*
X26021880Y61519220D01*
X25667457Y60988787D01*
X25543000Y60363100D01*
X25667457Y59737413D01*
X26021880Y59206980D01*
X26552313Y58852557D01*
X27178000Y58728100D01*
X28083000Y58728100D01*
X28083000Y58576539D01*
X14414080Y44907620D01*
X14059657Y44377188D01*
X13935199Y43751500D01*
X13935200Y43751495D01*
X13935200Y39230305D01*
X13935199Y39230300D01*
X13935200Y39230295D01*
X13935200Y18986505D01*
X13935199Y18986500D01*
X14059657Y18360812D01*
X14414080Y17830380D01*
X16725478Y15518983D01*
X16725480Y15518980D01*
X17043451Y15306519D01*
X17255912Y15164557D01*
X17881600Y15040100D01*
X25095195Y15040100D01*
X25095200Y15040099D01*
X25720888Y15164557D01*
X26251320Y15518980D01*
X28207120Y17474780D01*
X28277493Y17580100D01*
X39065195Y17580100D01*
X39065200Y17580099D01*
X39690888Y17704557D01*
X40221320Y18058980D01*
X40907120Y18744781D01*
X41261543Y19275213D01*
X41386001Y19900900D01*
X41261543Y20526588D01*
X40907120Y21057020D01*
X40376688Y21411443D01*
X40310047Y21424699D01*
X40419643Y21469983D01*
X40682892Y21732773D01*
X40825538Y22076301D01*
X40825862Y22448267D01*
X40683817Y22792043D01*
X40421027Y23055292D01*
X40077499Y23197938D01*
X39705533Y23198262D01*
X39361757Y23056217D01*
X39199357Y22894100D01*
X32764279Y22894100D01*
X31206880Y24451500D01*
X41503595Y24451500D01*
X41503600Y24451499D01*
X41786084Y24507690D01*
X41842275Y24518867D01*
X42129390Y24710710D01*
X42376766Y24958086D01*
X42371199Y24930100D01*
X42371200Y24930095D01*
X42371200Y21691605D01*
X42371199Y21691600D01*
X42426927Y21411443D01*
X42438567Y21352925D01*
X42455263Y21327938D01*
X42630410Y21065810D01*
X44323137Y19373083D01*
X44322758Y18938439D01*
X44534990Y18424797D01*
X44927630Y18031471D01*
X45440900Y17818343D01*
X45996661Y17817858D01*
X46510303Y18030090D01*
X46903629Y18422730D01*
X47116757Y18936000D01*
X47117242Y19491761D01*
X46905010Y20005403D01*
X46512370Y20398729D01*
X45999100Y20611857D01*
X45587163Y20612216D01*
X44141200Y22058180D01*
X44141200Y22954116D01*
X44280990Y22615797D01*
X44673630Y22222471D01*
X45186900Y22009343D01*
X45742661Y22008858D01*
X46256303Y22221090D01*
X46649629Y22613730D01*
X46735949Y22821612D01*
X46820990Y22615797D01*
X47213630Y22222471D01*
X47726900Y22009343D01*
X48282661Y22008858D01*
X48796303Y22221090D01*
X49189629Y22613730D01*
X49402757Y23127000D01*
X49403242Y23682761D01*
X49191010Y24196403D01*
X48798370Y24589729D01*
X48285100Y24802857D01*
X47729339Y24803342D01*
X47215697Y24591110D01*
X46822371Y24198470D01*
X46736051Y23990588D01*
X46651010Y24196403D01*
X46380851Y24467034D01*
X46612490Y24621810D01*
X59643200Y37652521D01*
X59643200Y24585479D01*
X58485220Y23427500D01*
X55753019Y23427500D01*
X55753242Y23682761D01*
X55541010Y24196403D01*
X55148370Y24589729D01*
X54635100Y24802857D01*
X54079339Y24803342D01*
X53565697Y24591110D01*
X53172371Y24198470D01*
X53086051Y23990588D01*
X53001010Y24196403D01*
X52608370Y24589729D01*
X52095100Y24802857D01*
X51539339Y24803342D01*
X51025697Y24591110D01*
X50632371Y24198470D01*
X50419243Y23685200D01*
X50418758Y23129439D01*
X50630990Y22615797D01*
X51023630Y22222471D01*
X51536900Y22009343D01*
X52092661Y22008858D01*
X52606303Y22221090D01*
X52999629Y22613730D01*
X53085949Y22821612D01*
X53170990Y22615797D01*
X53563630Y22222471D01*
X53982190Y22048670D01*
X52487789Y20554269D01*
X52349100Y20611857D01*
X51793339Y20612342D01*
X51279697Y20400110D01*
X50886371Y20007470D01*
X50800051Y19799588D01*
X50743550Y19936332D01*
X50741333Y19947475D01*
X50735076Y19956839D01*
X50715010Y20005403D01*
X50677560Y20042918D01*
X50549490Y20234590D01*
X50359493Y20361541D01*
X50322370Y20398729D01*
X50273413Y20419058D01*
X50262375Y20426433D01*
X50249468Y20429000D01*
X49809100Y20611857D01*
X49253339Y20612342D01*
X48739697Y20400110D01*
X48346371Y20007470D01*
X48133243Y19494200D01*
X48132758Y18938439D01*
X48344990Y18424797D01*
X48737630Y18031471D01*
X49250900Y17818343D01*
X49806661Y17817858D01*
X50320303Y18030090D01*
X50713629Y18422730D01*
X50799949Y18630612D01*
X50884990Y18424797D01*
X51277630Y18031471D01*
X51790900Y17818343D01*
X52346661Y17817858D01*
X52860303Y18030090D01*
X53253629Y18422730D01*
X53339949Y18630612D01*
X53424990Y18424797D01*
X53817630Y18031471D01*
X54330900Y17818343D01*
X54886661Y17817858D01*
X55400303Y18030090D01*
X55793629Y18422730D01*
X55879949Y18630612D01*
X55964990Y18424797D01*
X56357630Y18031471D01*
X56870900Y17818343D01*
X57426661Y17817858D01*
X57940303Y18030090D01*
X58333629Y18422730D01*
X58546757Y18936000D01*
X58547181Y19422798D01*
X72250856Y19422798D01*
X72278638Y18867732D01*
X72437603Y18483957D01*
X72679787Y18414492D01*
X73480395Y19215100D01*
X72679787Y20015708D01*
X72437603Y19946243D01*
X72250856Y19422798D01*
X58547181Y19422798D01*
X58547242Y19491761D01*
X58335010Y20005403D01*
X57942370Y20398729D01*
X57724732Y20489100D01*
X59461395Y20489100D01*
X59461400Y20489099D01*
X59743884Y20545290D01*
X59800075Y20556467D01*
X60087190Y20748310D01*
X62952677Y23613798D01*
X71996856Y23613798D01*
X72024638Y23058732D01*
X72183603Y22674957D01*
X72425787Y22605492D01*
X73226395Y23406100D01*
X72425787Y24206708D01*
X72183603Y24137243D01*
X71996856Y23613798D01*
X62952677Y23613798D01*
X63693987Y24355108D01*
X63693990Y24355110D01*
X63885833Y24642225D01*
X63953200Y24980900D01*
X63953200Y30139618D01*
X66598536Y30139618D01*
X67181150Y28729585D01*
X68259011Y27649841D01*
X69668025Y27064767D01*
X71193682Y27063436D01*
X72603715Y27646050D01*
X73683459Y28723911D01*
X74268533Y30132925D01*
X74269864Y31658582D01*
X73687250Y33068615D01*
X72609389Y34148359D01*
X71200375Y34733433D01*
X69674718Y34734764D01*
X68264685Y34152150D01*
X67184941Y33074289D01*
X66599867Y31665275D01*
X66598536Y30139618D01*
X63953200Y30139618D01*
X63953200Y43993627D01*
X64082898Y44080289D01*
X64338200Y44462375D01*
X64593502Y44080289D01*
X64723200Y43993627D01*
X64723200Y40897323D01*
X64698257Y40887017D01*
X64435008Y40624227D01*
X64292362Y40280699D01*
X64292038Y39908733D01*
X64434083Y39564957D01*
X64696873Y39301708D01*
X65040401Y39159062D01*
X65412367Y39158738D01*
X65756143Y39300783D01*
X66019392Y39563573D01*
X66069766Y39684887D01*
X66233987Y39849108D01*
X66233990Y39849110D01*
X66425833Y40136225D01*
X66493200Y40474900D01*
X66493200Y41393798D01*
X71996856Y41393798D01*
X72024638Y40838732D01*
X72183603Y40454957D01*
X72425787Y40385492D01*
X73226395Y41186100D01*
X72425787Y41986708D01*
X72183603Y41917243D01*
X71996856Y41393798D01*
X66493200Y41393798D01*
X66493200Y43993627D01*
X66622898Y44080289D01*
X66878200Y44462375D01*
X67133502Y44080289D01*
X67599049Y43769220D01*
X68148200Y43659987D01*
X68697351Y43769220D01*
X69162898Y44080289D01*
X69418200Y44462375D01*
X69673502Y44080289D01*
X70139049Y43769220D01*
X70688200Y43659987D01*
X71237351Y43769220D01*
X71702898Y44080289D01*
X71892056Y44363383D01*
X71934614Y44260385D01*
X72363229Y43831021D01*
X72923528Y43598365D01*
X73530211Y43597835D01*
X74090915Y43829514D01*
X74364200Y44102322D01*
X74364200Y42238744D01*
X74321618Y42281326D01*
X74206607Y42166315D01*
X74137143Y42408497D01*
X73613698Y42595244D01*
X73058632Y42567462D01*
X72674857Y42408497D01*
X72605392Y42166313D01*
X73406000Y41365705D01*
X73420143Y41379847D01*
X73599748Y41200242D01*
X73585605Y41186100D01*
X73599748Y41171957D01*
X73420143Y40992352D01*
X73406000Y41006495D01*
X72605392Y40205887D01*
X72674857Y39963703D01*
X73198302Y39776956D01*
X73753368Y39804738D01*
X74137143Y39963703D01*
X74206607Y40205885D01*
X74321618Y40090874D01*
X74364200Y40133456D01*
X74364200Y24458744D01*
X74321618Y24501326D01*
X74206607Y24386315D01*
X74137143Y24628497D01*
X73613698Y24815244D01*
X73058632Y24787462D01*
X72674857Y24628497D01*
X72605392Y24386313D01*
X73406000Y23585705D01*
X73420143Y23599847D01*
X73599748Y23420242D01*
X73585605Y23406100D01*
X73599748Y23391957D01*
X73420143Y23212352D01*
X73406000Y23226495D01*
X72605392Y22425887D01*
X72674857Y22183703D01*
X73198302Y21996956D01*
X73753368Y22024738D01*
X74137143Y22183703D01*
X74206607Y22425885D01*
X74321618Y22310874D01*
X74364200Y22353456D01*
X74364200Y20447109D01*
X73867698Y20624244D01*
X73312632Y20596462D01*
X72928857Y20437497D01*
X72859392Y20195313D01*
X73660000Y19394705D01*
X73674143Y19408847D01*
X73853748Y19229242D01*
X73839605Y19215100D01*
X73853748Y19200957D01*
X73674143Y19021352D01*
X73660000Y19035495D01*
X72859392Y18234887D01*
X72928857Y17992703D01*
X73452302Y17805956D01*
X74007368Y17833738D01*
X74364200Y17981543D01*
X74364200Y2667109D01*
X73867698Y2844244D01*
X73312632Y2816462D01*
X72928857Y2657497D01*
X72859392Y2415313D01*
X73660000Y1614705D01*
X73674143Y1628847D01*
X73853748Y1449242D01*
X73839605Y1435100D01*
X73853748Y1420957D01*
X73674143Y1241352D01*
X73660000Y1255495D01*
X73645858Y1241352D01*
X73466253Y1420957D01*
X73480395Y1435100D01*
X72679787Y2235708D01*
X72437603Y2166243D01*
X72250856Y1642798D01*
X72278638Y1087732D01*
X72402336Y789100D01*
X56106971Y789100D01*
X56120543Y809412D01*
X56245000Y1435100D01*
X56120543Y2060788D01*
X55766119Y2591220D01*
X50432120Y7925220D01*
X49901688Y8279643D01*
X49276000Y8404101D01*
X49275995Y8404100D01*
X27739579Y8404100D01*
X27228800Y8505701D01*
X26603112Y8381243D01*
X26072680Y8026820D01*
X25718257Y7496388D01*
X25593799Y6870700D01*
X25718257Y6245012D01*
X26072680Y5714580D01*
X26174280Y5612980D01*
X26704712Y5258557D01*
X27330400Y5134099D01*
X27330405Y5134100D01*
X48598760Y5134100D01*
X51196151Y2536710D01*
X50886371Y2227470D01*
X50673243Y1714200D01*
X50672758Y1158439D01*
X50825365Y789100D01*
X49504407Y789100D01*
X49656757Y1156000D01*
X49657242Y1711761D01*
X49445010Y2225403D01*
X49052370Y2618729D01*
X48539100Y2831857D01*
X47983339Y2832342D01*
X47469697Y2620110D01*
X47076371Y2227470D01*
X46990051Y2019588D01*
X46905010Y2225403D01*
X46512370Y2618729D01*
X45999100Y2831857D01*
X45443339Y2832342D01*
X44929697Y2620110D01*
X44536371Y2227470D01*
X44323243Y1714200D01*
X44322758Y1158439D01*
X44475365Y789100D01*
X30835407Y789100D01*
X30987757Y1156000D01*
X30988242Y1711761D01*
X30776010Y2225403D01*
X30383370Y2618729D01*
X29870100Y2831857D01*
X29314339Y2832342D01*
X28800697Y2620110D01*
X28407371Y2227470D01*
X28194243Y1714200D01*
X28193758Y1158439D01*
X28346365Y789100D01*
X27025407Y789100D01*
X27177757Y1156000D01*
X27178242Y1711761D01*
X26966010Y2225403D01*
X26573370Y2618729D01*
X26060100Y2831857D01*
X25504339Y2832342D01*
X24990697Y2620110D01*
X24597371Y2227470D01*
X24511051Y2019588D01*
X24426010Y2225403D01*
X24033370Y2618729D01*
X23520100Y2831857D01*
X22964339Y2832342D01*
X22450697Y2620110D01*
X22057371Y2227470D01*
X21971051Y2019588D01*
X21886010Y2225403D01*
X21493370Y2618729D01*
X20980100Y2831857D01*
X20424339Y2832342D01*
X19910697Y2620110D01*
X19517371Y2227470D01*
X19431051Y2019588D01*
X19346010Y2225403D01*
X18953370Y2618729D01*
X18440100Y2831857D01*
X17884339Y2832342D01*
X17370697Y2620110D01*
X16977371Y2227470D01*
X16764243Y1714200D01*
X16763758Y1158439D01*
X16916365Y789100D01*
X2903773Y789100D01*
X3060144Y1227402D01*
X3032362Y1782468D01*
X2873397Y2166243D01*
X2631213Y2235708D01*
X1830605Y1435100D01*
X1844748Y1420957D01*
X1665143Y1241352D01*
X1651000Y1255495D01*
X1636858Y1241352D01*
X1457253Y1420957D01*
X1471395Y1435100D01*
X1457253Y1449242D01*
X1636858Y1628847D01*
X1651000Y1614705D01*
X2451608Y2415313D01*
X2382143Y2657497D01*
X1858698Y2844244D01*
X1303632Y2816462D01*
X919857Y2657497D01*
X850393Y2415315D01*
X784200Y2481508D01*
X784200Y9819618D01*
X3098536Y9819618D01*
X3681150Y8409585D01*
X4759011Y7329841D01*
X6168025Y6744767D01*
X7693682Y6743436D01*
X9103715Y7326050D01*
X10183459Y8403911D01*
X10768533Y9812925D01*
X10768538Y9819618D01*
X66598536Y9819618D01*
X67181150Y8409585D01*
X68259011Y7329841D01*
X69668025Y6744767D01*
X71193682Y6743436D01*
X72603715Y7326050D01*
X73683459Y8403911D01*
X74268533Y9812925D01*
X74269864Y11338582D01*
X73687250Y12748615D01*
X72609389Y13828359D01*
X71200375Y14413433D01*
X69674718Y14414764D01*
X68264685Y13832150D01*
X67184941Y12754289D01*
X66599867Y11345275D01*
X66598536Y9819618D01*
X10768538Y9819618D01*
X10769864Y11338582D01*
X10187250Y12748615D01*
X9109389Y13828359D01*
X7700375Y14413433D01*
X6174718Y14414764D01*
X4764685Y13832150D01*
X3684941Y12754289D01*
X3099867Y11345275D01*
X3098536Y9819618D01*
X784200Y9819618D01*
X784200Y18168692D01*
X850393Y18234885D01*
X919857Y17992703D01*
X1443302Y17805956D01*
X1998368Y17833738D01*
X2382143Y17992703D01*
X2451608Y18234887D01*
X1651000Y19035495D01*
X1636858Y19021352D01*
X1457253Y19200957D01*
X1471395Y19215100D01*
X1830605Y19215100D01*
X2631213Y18414492D01*
X2873397Y18483957D01*
X3060144Y19007402D01*
X3032362Y19562468D01*
X2873397Y19946243D01*
X2631213Y20015708D01*
X1830605Y19215100D01*
X1471395Y19215100D01*
X1457253Y19229242D01*
X1636858Y19408847D01*
X1651000Y19394705D01*
X2451608Y20195313D01*
X2382143Y20437497D01*
X2162162Y20515979D01*
X2509143Y20659703D01*
X2578608Y20901887D01*
X1778000Y21702495D01*
X1763858Y21688352D01*
X1584253Y21867957D01*
X1598395Y21882100D01*
X1957605Y21882100D01*
X2758213Y21081492D01*
X3000397Y21150957D01*
X3187144Y21674402D01*
X3159362Y22229468D01*
X3000397Y22613243D01*
X2758213Y22682708D01*
X1957605Y21882100D01*
X1598395Y21882100D01*
X1584253Y21896242D01*
X1763858Y22075847D01*
X1778000Y22061705D01*
X2578608Y22862313D01*
X2509143Y23104497D01*
X1985698Y23291244D01*
X1430632Y23263462D01*
X1046857Y23104497D01*
X977393Y22862315D01*
X862382Y22977326D01*
X784200Y22899144D01*
X784200Y30139618D01*
X3098536Y30139618D01*
X3681150Y28729585D01*
X4759011Y27649841D01*
X6168025Y27064767D01*
X7693682Y27063436D01*
X9103715Y27646050D01*
X10183459Y28723911D01*
X10768533Y30132925D01*
X10769864Y31658582D01*
X10187250Y33068615D01*
X9109389Y34148359D01*
X7700375Y34733433D01*
X6174718Y34734764D01*
X4764685Y34152150D01*
X3684941Y33074289D01*
X3099867Y31665275D01*
X3098536Y30139618D01*
X784200Y30139618D01*
X784200Y38645056D01*
X862382Y38566874D01*
X977393Y38681885D01*
X1046857Y38439703D01*
X1570302Y38252956D01*
X2125368Y38280738D01*
X2509143Y38439703D01*
X2578608Y38681887D01*
X1778000Y39482495D01*
X1763858Y39468352D01*
X1584253Y39647957D01*
X1598395Y39662100D01*
X1957605Y39662100D01*
X2758213Y38861492D01*
X3000397Y38930957D01*
X3187144Y39454402D01*
X3159362Y40009468D01*
X3000397Y40393243D01*
X2758213Y40462708D01*
X1957605Y39662100D01*
X1598395Y39662100D01*
X1584253Y39676242D01*
X1763858Y39855847D01*
X1778000Y39841705D01*
X2578608Y40642313D01*
X2509143Y40884497D01*
X1985698Y41071244D01*
X1430632Y41043462D01*
X1046857Y40884497D01*
X977393Y40642315D01*
X862382Y40757326D01*
X784200Y40679144D01*
X784200Y41566056D01*
X862382Y41487874D01*
X977393Y41602885D01*
X1046857Y41360703D01*
X1570302Y41173956D01*
X2125368Y41201738D01*
X2509143Y41360703D01*
X2578608Y41602887D01*
X1778000Y42403495D01*
X1763858Y42389352D01*
X1584253Y42568957D01*
X1598395Y42583100D01*
X1957605Y42583100D01*
X2758213Y41782492D01*
X3000397Y41851957D01*
X3187144Y42375402D01*
X3159362Y42930468D01*
X3000397Y43314243D01*
X2758213Y43383708D01*
X1957605Y42583100D01*
X1598395Y42583100D01*
X1584253Y42597242D01*
X1763858Y42776847D01*
X1778000Y42762705D01*
X2578608Y43563313D01*
X2509143Y43805497D01*
X1985698Y43992244D01*
X1430632Y43964462D01*
X1046857Y43805497D01*
X977393Y43563315D01*
X862382Y43678326D01*
X784200Y43600144D01*
X784200Y50459618D01*
X3098536Y50459618D01*
X3681150Y49049585D01*
X4759011Y47969841D01*
X6168025Y47384767D01*
X7693682Y47383436D01*
X9103715Y47966050D01*
X10183459Y49043911D01*
X10768533Y50452925D01*
X10769864Y51978582D01*
X10187250Y53388615D01*
X9109389Y54468359D01*
X7700375Y55053433D01*
X6174718Y55054764D01*
X4764685Y54472150D01*
X3684941Y53394289D01*
X3099867Y51985275D01*
X3098536Y50459618D01*
X784200Y50459618D01*
X784200Y59346056D01*
X862382Y59267874D01*
X977393Y59382885D01*
X1046857Y59140703D01*
X1570302Y58953956D01*
X2125368Y58981738D01*
X2509143Y59140703D01*
X2578608Y59382887D01*
X1778000Y60183495D01*
X1763858Y60169352D01*
X1584253Y60348957D01*
X1598395Y60363100D01*
X1957605Y60363100D01*
X2758213Y59562492D01*
X3000397Y59631957D01*
X3187144Y60155402D01*
X3159362Y60710468D01*
X3000397Y61094243D01*
X2758213Y61163708D01*
X1957605Y60363100D01*
X1598395Y60363100D01*
X1584253Y60377242D01*
X1763858Y60556847D01*
X1778000Y60542705D01*
X2578608Y61343313D01*
X2509143Y61585497D01*
X2019737Y61760100D01*
X20550753Y61760100D01*
X20037697Y61548110D01*
G36*
X62053502Y59320289D02*
X62308200Y59150105D01*
X62308200Y55115302D01*
X53640799Y46447901D01*
X53597609Y46383262D01*
X53457351Y46476980D01*
X52908200Y46586213D01*
X52359049Y46476980D01*
X51893502Y46165911D01*
X51638200Y45783825D01*
X51382898Y46165911D01*
X50917351Y46476980D01*
X50368200Y46586213D01*
X49819049Y46476980D01*
X49353502Y46165911D01*
X49098200Y45783825D01*
X48842898Y46165911D01*
X48377351Y46476980D01*
X47828200Y46586213D01*
X47279049Y46476980D01*
X46813502Y46165911D01*
X46558200Y45783825D01*
X46302898Y46165911D01*
X45837351Y46476980D01*
X45288200Y46586213D01*
X44739049Y46476980D01*
X44273502Y46165911D01*
X44003214Y45761397D01*
X43900589Y45978234D01*
X43485623Y46354141D01*
X43097239Y46515004D01*
X42875200Y46393015D01*
X42875200Y45250100D01*
X42895200Y45250100D01*
X42895200Y44996100D01*
X42875200Y44996100D01*
X42875200Y43853185D01*
X43097239Y43731196D01*
X43485623Y43892059D01*
X43900589Y44267966D01*
X44003214Y44484803D01*
X44273502Y44080289D01*
X44739049Y43769220D01*
X44975937Y43722100D01*
X43510205Y43722100D01*
X43510200Y43722101D01*
X43171525Y43654733D01*
X42884410Y43462890D01*
X42884408Y43462887D01*
X42630410Y43208890D01*
X42438567Y42921775D01*
X42438567Y42921774D01*
X42371199Y42583100D01*
X42371200Y42583095D01*
X42371200Y40043105D01*
X42371199Y40043100D01*
X42408419Y39855988D01*
X42438567Y39704425D01*
X42540121Y39552438D01*
X42630410Y39417310D01*
X44911200Y37136521D01*
X44911200Y32983922D01*
X44861362Y32863899D01*
X44861038Y32491933D01*
X45003083Y32148157D01*
X45265873Y31884908D01*
X45506649Y31784928D01*
X41035420Y27313700D01*
X23876000Y27313700D01*
X23537325Y27246333D01*
X23250210Y27054490D01*
X23250208Y27054487D01*
X23162365Y26966645D01*
X23042257Y26917017D01*
X22779008Y26654227D01*
X22636362Y26310699D01*
X22636038Y25938733D01*
X22778083Y25594957D01*
X23033457Y25339137D01*
X20973294Y23278974D01*
X20551339Y23279342D01*
X20037697Y23067110D01*
X19644371Y22674470D01*
X19558051Y22466588D01*
X19473010Y22672403D01*
X19080370Y23065729D01*
X18567100Y23278857D01*
X18011339Y23279342D01*
X17497697Y23067110D01*
X17205200Y22775123D01*
X17205200Y35906786D01*
X17272000Y35893499D01*
X17272005Y35893500D01*
X25984195Y35893500D01*
X25984200Y35893499D01*
X26609888Y36017957D01*
X27140320Y36372380D01*
X28334117Y37566178D01*
X28334120Y37566180D01*
X28642096Y38027100D01*
X29718000Y38027100D01*
X30343687Y38151557D01*
X30874120Y38505980D01*
X31031388Y38741350D01*
X32690700Y38741350D01*
X32690700Y38050791D01*
X32787373Y37817402D01*
X32966001Y37638773D01*
X33199390Y37542100D01*
X33889950Y37542100D01*
X34048700Y37700850D01*
X34048700Y38900100D01*
X32849450Y38900100D01*
X32690700Y38741350D01*
X31031388Y38741350D01*
X31228543Y39036413D01*
X31353000Y39662100D01*
X31285110Y40003409D01*
X32690700Y40003409D01*
X32690700Y39312850D01*
X32849450Y39154100D01*
X34048700Y39154100D01*
X34048700Y40353350D01*
X33889950Y40512100D01*
X33199390Y40512100D01*
X32966001Y40415427D01*
X32787373Y40236798D01*
X32690700Y40003409D01*
X31285110Y40003409D01*
X31228543Y40287787D01*
X30874120Y40818220D01*
X30343687Y41172643D01*
X30086493Y41223802D01*
X30508303Y41398090D01*
X30901629Y41790730D01*
X31114757Y42304000D01*
X31115242Y42859761D01*
X30903010Y43373403D01*
X30853000Y43423500D01*
X30853000Y45262568D01*
X31095604Y45505172D01*
X31063465Y45427772D01*
X31062935Y44821089D01*
X31294614Y44260385D01*
X31723229Y43831021D01*
X32283528Y43598365D01*
X32890211Y43597835D01*
X33450915Y43829514D01*
X33722602Y44100727D01*
X33725038Y44087783D01*
X33864110Y43871659D01*
X34076310Y43726669D01*
X34328200Y43675660D01*
X35928200Y43675660D01*
X36163517Y43719938D01*
X36379641Y43859010D01*
X36524631Y44071210D01*
X36556015Y44226189D01*
X36653502Y44080289D01*
X37119049Y43769220D01*
X37668200Y43659987D01*
X38217351Y43769220D01*
X38682898Y44080289D01*
X38938200Y44462375D01*
X39193502Y44080289D01*
X39659049Y43769220D01*
X40208200Y43659987D01*
X40284130Y43675090D01*
X40150197Y43474646D01*
X40063800Y43040300D01*
X40063800Y41466888D01*
X40013000Y41211500D01*
X40013000Y40301859D01*
X39823985Y40428154D01*
X39255700Y40541193D01*
X38687415Y40428154D01*
X38205646Y40106247D01*
X37985700Y39777074D01*
X37765754Y40106247D01*
X37283985Y40428154D01*
X36715700Y40541193D01*
X36147415Y40428154D01*
X35665646Y40106247D01*
X35636297Y40062323D01*
X35564027Y40236798D01*
X35385399Y40415427D01*
X35152010Y40512100D01*
X34461450Y40512100D01*
X34302700Y40353350D01*
X34302700Y39154100D01*
X34322700Y39154100D01*
X34322700Y38900100D01*
X34302700Y38900100D01*
X34302700Y37700850D01*
X34461450Y37542100D01*
X35152010Y37542100D01*
X35385399Y37638773D01*
X35564027Y37817402D01*
X35636297Y37991877D01*
X35665646Y37947953D01*
X36147415Y37626046D01*
X36715700Y37513007D01*
X37283985Y37626046D01*
X37765754Y37947953D01*
X37985700Y38277126D01*
X38205646Y37947953D01*
X38687415Y37626046D01*
X39255700Y37513007D01*
X39823985Y37626046D01*
X40013000Y37752341D01*
X40013000Y31661100D01*
X40099397Y31226754D01*
X40194604Y31084267D01*
X40345434Y30858534D01*
X40675634Y30528334D01*
X41043854Y30282297D01*
X41478200Y30195901D01*
X41912545Y30282297D01*
X42280766Y30528334D01*
X42526803Y30896555D01*
X42613199Y31330900D01*
X42526803Y31765246D01*
X42283000Y32130123D01*
X42283000Y41006912D01*
X42333800Y41262300D01*
X42333800Y43040300D01*
X42247403Y43474646D01*
X42048831Y43771830D01*
X42103503Y43853653D01*
X42399161Y43731196D01*
X42621200Y43853185D01*
X42621200Y44996100D01*
X42601200Y44996100D01*
X42601200Y45250100D01*
X42621200Y45250100D01*
X42621200Y46393015D01*
X42399161Y46515004D01*
X42315976Y46480550D01*
X42413038Y46714301D01*
X42413318Y47036100D01*
X46863000Y47036100D01*
X47297346Y47122497D01*
X47665566Y47368534D01*
X51170766Y50873734D01*
X51416803Y51241954D01*
X51449089Y51404267D01*
X51503200Y51676300D01*
X51503200Y59500333D01*
X51638200Y59702375D01*
X51893502Y59320289D01*
X52359049Y59009220D01*
X52908200Y58899987D01*
X53457351Y59009220D01*
X53922898Y59320289D01*
X54178200Y59702375D01*
X54433502Y59320289D01*
X54899049Y59009220D01*
X55448200Y58899987D01*
X55997351Y59009220D01*
X56462898Y59320289D01*
X56718200Y59702375D01*
X56973502Y59320289D01*
X57439049Y59009220D01*
X57988200Y58899987D01*
X58537351Y59009220D01*
X59002898Y59320289D01*
X59258200Y59702375D01*
X59513502Y59320289D01*
X59979049Y59009220D01*
X60528200Y58899987D01*
X61077351Y59009220D01*
X61542898Y59320289D01*
X61798200Y59702375D01*
X62053502Y59320289D01*
X62053502Y59320289D01*
G37*
X62053502Y59320289D02*
X62308200Y59150105D01*
X62308200Y55115302D01*
X53640799Y46447901D01*
X53597609Y46383262D01*
X53457351Y46476980D01*
X52908200Y46586213D01*
X52359049Y46476980D01*
X51893502Y46165911D01*
X51638200Y45783825D01*
X51382898Y46165911D01*
X50917351Y46476980D01*
X50368200Y46586213D01*
X49819049Y46476980D01*
X49353502Y46165911D01*
X49098200Y45783825D01*
X48842898Y46165911D01*
X48377351Y46476980D01*
X47828200Y46586213D01*
X47279049Y46476980D01*
X46813502Y46165911D01*
X46558200Y45783825D01*
X46302898Y46165911D01*
X45837351Y46476980D01*
X45288200Y46586213D01*
X44739049Y46476980D01*
X44273502Y46165911D01*
X44003214Y45761397D01*
X43900589Y45978234D01*
X43485623Y46354141D01*
X43097239Y46515004D01*
X42875200Y46393015D01*
X42875200Y45250100D01*
X42895200Y45250100D01*
X42895200Y44996100D01*
X42875200Y44996100D01*
X42875200Y43853185D01*
X43097239Y43731196D01*
X43485623Y43892059D01*
X43900589Y44267966D01*
X44003214Y44484803D01*
X44273502Y44080289D01*
X44739049Y43769220D01*
X44975937Y43722100D01*
X43510205Y43722100D01*
X43510200Y43722101D01*
X43171525Y43654733D01*
X42884410Y43462890D01*
X42884408Y43462887D01*
X42630410Y43208890D01*
X42438567Y42921775D01*
X42438567Y42921774D01*
X42371199Y42583100D01*
X42371200Y42583095D01*
X42371200Y40043105D01*
X42371199Y40043100D01*
X42408419Y39855988D01*
X42438567Y39704425D01*
X42540121Y39552438D01*
X42630410Y39417310D01*
X44911200Y37136521D01*
X44911200Y32983922D01*
X44861362Y32863899D01*
X44861038Y32491933D01*
X45003083Y32148157D01*
X45265873Y31884908D01*
X45506649Y31784928D01*
X41035420Y27313700D01*
X23876000Y27313700D01*
X23537325Y27246333D01*
X23250210Y27054490D01*
X23250208Y27054487D01*
X23162365Y26966645D01*
X23042257Y26917017D01*
X22779008Y26654227D01*
X22636362Y26310699D01*
X22636038Y25938733D01*
X22778083Y25594957D01*
X23033457Y25339137D01*
X20973294Y23278974D01*
X20551339Y23279342D01*
X20037697Y23067110D01*
X19644371Y22674470D01*
X19558051Y22466588D01*
X19473010Y22672403D01*
X19080370Y23065729D01*
X18567100Y23278857D01*
X18011339Y23279342D01*
X17497697Y23067110D01*
X17205200Y22775123D01*
X17205200Y35906786D01*
X17272000Y35893499D01*
X17272005Y35893500D01*
X25984195Y35893500D01*
X25984200Y35893499D01*
X26609888Y36017957D01*
X27140320Y36372380D01*
X28334117Y37566178D01*
X28334120Y37566180D01*
X28642096Y38027100D01*
X29718000Y38027100D01*
X30343687Y38151557D01*
X30874120Y38505980D01*
X31031388Y38741350D01*
X32690700Y38741350D01*
X32690700Y38050791D01*
X32787373Y37817402D01*
X32966001Y37638773D01*
X33199390Y37542100D01*
X33889950Y37542100D01*
X34048700Y37700850D01*
X34048700Y38900100D01*
X32849450Y38900100D01*
X32690700Y38741350D01*
X31031388Y38741350D01*
X31228543Y39036413D01*
X31353000Y39662100D01*
X31285110Y40003409D01*
X32690700Y40003409D01*
X32690700Y39312850D01*
X32849450Y39154100D01*
X34048700Y39154100D01*
X34048700Y40353350D01*
X33889950Y40512100D01*
X33199390Y40512100D01*
X32966001Y40415427D01*
X32787373Y40236798D01*
X32690700Y40003409D01*
X31285110Y40003409D01*
X31228543Y40287787D01*
X30874120Y40818220D01*
X30343687Y41172643D01*
X30086493Y41223802D01*
X30508303Y41398090D01*
X30901629Y41790730D01*
X31114757Y42304000D01*
X31115242Y42859761D01*
X30903010Y43373403D01*
X30853000Y43423500D01*
X30853000Y45262568D01*
X31095604Y45505172D01*
X31063465Y45427772D01*
X31062935Y44821089D01*
X31294614Y44260385D01*
X31723229Y43831021D01*
X32283528Y43598365D01*
X32890211Y43597835D01*
X33450915Y43829514D01*
X33722602Y44100727D01*
X33725038Y44087783D01*
X33864110Y43871659D01*
X34076310Y43726669D01*
X34328200Y43675660D01*
X35928200Y43675660D01*
X36163517Y43719938D01*
X36379641Y43859010D01*
X36524631Y44071210D01*
X36556015Y44226189D01*
X36653502Y44080289D01*
X37119049Y43769220D01*
X37668200Y43659987D01*
X38217351Y43769220D01*
X38682898Y44080289D01*
X38938200Y44462375D01*
X39193502Y44080289D01*
X39659049Y43769220D01*
X40208200Y43659987D01*
X40284130Y43675090D01*
X40150197Y43474646D01*
X40063800Y43040300D01*
X40063800Y41466888D01*
X40013000Y41211500D01*
X40013000Y40301859D01*
X39823985Y40428154D01*
X39255700Y40541193D01*
X38687415Y40428154D01*
X38205646Y40106247D01*
X37985700Y39777074D01*
X37765754Y40106247D01*
X37283985Y40428154D01*
X36715700Y40541193D01*
X36147415Y40428154D01*
X35665646Y40106247D01*
X35636297Y40062323D01*
X35564027Y40236798D01*
X35385399Y40415427D01*
X35152010Y40512100D01*
X34461450Y40512100D01*
X34302700Y40353350D01*
X34302700Y39154100D01*
X34322700Y39154100D01*
X34322700Y38900100D01*
X34302700Y38900100D01*
X34302700Y37700850D01*
X34461450Y37542100D01*
X35152010Y37542100D01*
X35385399Y37638773D01*
X35564027Y37817402D01*
X35636297Y37991877D01*
X35665646Y37947953D01*
X36147415Y37626046D01*
X36715700Y37513007D01*
X37283985Y37626046D01*
X37765754Y37947953D01*
X37985700Y38277126D01*
X38205646Y37947953D01*
X38687415Y37626046D01*
X39255700Y37513007D01*
X39823985Y37626046D01*
X40013000Y37752341D01*
X40013000Y31661100D01*
X40099397Y31226754D01*
X40194604Y31084267D01*
X40345434Y30858534D01*
X40675634Y30528334D01*
X41043854Y30282297D01*
X41478200Y30195901D01*
X41912545Y30282297D01*
X42280766Y30528334D01*
X42526803Y30896555D01*
X42613199Y31330900D01*
X42526803Y31765246D01*
X42283000Y32130123D01*
X42283000Y41006912D01*
X42333800Y41262300D01*
X42333800Y43040300D01*
X42247403Y43474646D01*
X42048831Y43771830D01*
X42103503Y43853653D01*
X42399161Y43731196D01*
X42621200Y43853185D01*
X42621200Y44996100D01*
X42601200Y44996100D01*
X42601200Y45250100D01*
X42621200Y45250100D01*
X42621200Y46393015D01*
X42399161Y46515004D01*
X42315976Y46480550D01*
X42413038Y46714301D01*
X42413318Y47036100D01*
X46863000Y47036100D01*
X47297346Y47122497D01*
X47665566Y47368534D01*
X51170766Y50873734D01*
X51416803Y51241954D01*
X51449089Y51404267D01*
X51503200Y51676300D01*
X51503200Y59500333D01*
X51638200Y59702375D01*
X51893502Y59320289D01*
X52359049Y59009220D01*
X52908200Y58899987D01*
X53457351Y59009220D01*
X53922898Y59320289D01*
X54178200Y59702375D01*
X54433502Y59320289D01*
X54899049Y59009220D01*
X55448200Y58899987D01*
X55997351Y59009220D01*
X56462898Y59320289D01*
X56718200Y59702375D01*
X56973502Y59320289D01*
X57439049Y59009220D01*
X57988200Y58899987D01*
X58537351Y59009220D01*
X59002898Y59320289D01*
X59258200Y59702375D01*
X59513502Y59320289D01*
X59979049Y59009220D01*
X60528200Y58899987D01*
X61077351Y59009220D01*
X61542898Y59320289D01*
X61798200Y59702375D01*
X62053502Y59320289D01*
G36*
X37795200Y60490100D02*
X37815200Y60490100D01*
X37815200Y60236100D01*
X37795200Y60236100D01*
X37795200Y59093185D01*
X38017239Y58971196D01*
X38405623Y59132059D01*
X38820589Y59507966D01*
X38923214Y59724803D01*
X39193502Y59320289D01*
X39659049Y59009220D01*
X40208200Y58899987D01*
X40757351Y59009220D01*
X41222898Y59320289D01*
X41478200Y59702375D01*
X41733502Y59320289D01*
X42199049Y59009220D01*
X42748200Y58899987D01*
X43297351Y59009220D01*
X43762898Y59320289D01*
X44018200Y59702375D01*
X44273502Y59320289D01*
X44739049Y59009220D01*
X45288200Y58899987D01*
X45837351Y59009220D01*
X46302898Y59320289D01*
X46558200Y59702375D01*
X46813502Y59320289D01*
X47279049Y59009220D01*
X47828200Y58899987D01*
X48377351Y59009220D01*
X48842898Y59320289D01*
X49098200Y59702375D01*
X49233200Y59500333D01*
X49233200Y57030805D01*
X48938433Y57031062D01*
X48594657Y56889017D01*
X48561482Y56855900D01*
X48133000Y56855900D01*
X47842161Y56798048D01*
X47595599Y56633301D01*
X41236920Y50274622D01*
X41191433Y50274662D01*
X40847657Y50132617D01*
X40584408Y49869827D01*
X40441762Y49526299D01*
X40441570Y49306100D01*
X32156400Y49306100D01*
X31722054Y49219703D01*
X31353834Y48973666D01*
X28915434Y46535266D01*
X28669397Y46167046D01*
X28583000Y45732700D01*
X28583000Y43424014D01*
X28534371Y43375470D01*
X28321243Y42862200D01*
X28320758Y42306439D01*
X28532990Y41792797D01*
X28925630Y41399471D01*
X29172167Y41297100D01*
X27178000Y41297100D01*
X26552313Y41172643D01*
X26021880Y40818220D01*
X25667457Y40287787D01*
X25543000Y39662100D01*
X25543000Y39399539D01*
X25306960Y39163500D01*
X24673613Y39163500D01*
X24764757Y39383000D01*
X24765242Y39938761D01*
X24553010Y40452403D01*
X24160370Y40845729D01*
X23647100Y41058857D01*
X23091339Y41059342D01*
X22577697Y40847110D01*
X22184371Y40454470D01*
X22098051Y40246588D01*
X22013010Y40452403D01*
X21620370Y40845729D01*
X21107100Y41058857D01*
X20551339Y41059342D01*
X20037697Y40847110D01*
X19644371Y40454470D01*
X19431243Y39941200D01*
X19430758Y39385439D01*
X19522461Y39163500D01*
X17949239Y39163500D01*
X17205200Y39907540D01*
X17205200Y41690408D01*
X17495630Y41399471D01*
X18008900Y41186343D01*
X18564661Y41185858D01*
X19078303Y41398090D01*
X19471629Y41790730D01*
X19557949Y41998612D01*
X19642990Y41792797D01*
X20035630Y41399471D01*
X20548900Y41186343D01*
X21104661Y41185858D01*
X21618303Y41398090D01*
X22011629Y41790730D01*
X22097949Y41998612D01*
X22182990Y41792797D01*
X22575630Y41399471D01*
X23088900Y41186343D01*
X23644661Y41185858D01*
X24158303Y41398090D01*
X24551629Y41790730D01*
X24637949Y41998612D01*
X24722990Y41792797D01*
X25115630Y41399471D01*
X25628900Y41186343D01*
X26184661Y41185858D01*
X26698303Y41398090D01*
X27091629Y41790730D01*
X27304757Y42304000D01*
X27305242Y42859761D01*
X27093010Y43373403D01*
X26700370Y43766729D01*
X26187100Y43979857D01*
X25631339Y43980342D01*
X25117697Y43768110D01*
X24724371Y43375470D01*
X24638051Y43167588D01*
X24553010Y43373403D01*
X24160370Y43766729D01*
X23647100Y43979857D01*
X23091339Y43980342D01*
X22577697Y43768110D01*
X22184371Y43375470D01*
X22098051Y43167588D01*
X22013010Y43373403D01*
X21620370Y43766729D01*
X21107100Y43979857D01*
X20551339Y43980342D01*
X20037697Y43768110D01*
X19644371Y43375470D01*
X19558051Y43167588D01*
X19473010Y43373403D01*
X19080370Y43766729D01*
X18567100Y43979857D01*
X18111195Y43980255D01*
X30874117Y56743178D01*
X30874120Y56743180D01*
X31228543Y57273613D01*
X31353001Y57899300D01*
X31353000Y57899305D01*
X31353000Y59441897D01*
X31723229Y59071021D01*
X32283528Y58838365D01*
X32890211Y58837835D01*
X33450915Y59069514D01*
X33880279Y59498129D01*
X33924122Y59603715D01*
X34113502Y59320289D01*
X34579049Y59009220D01*
X35128200Y58899987D01*
X35677351Y59009220D01*
X36142898Y59320289D01*
X36413186Y59724803D01*
X36515811Y59507966D01*
X36930777Y59132059D01*
X37319161Y58971196D01*
X37541200Y59093185D01*
X37541200Y60236100D01*
X37521200Y60236100D01*
X37521200Y60490100D01*
X37541200Y60490100D01*
X37541200Y60510100D01*
X37795200Y60510100D01*
X37795200Y60490100D01*
X37795200Y60490100D01*
G37*
X37795200Y60490100D02*
X37815200Y60490100D01*
X37815200Y60236100D01*
X37795200Y60236100D01*
X37795200Y59093185D01*
X38017239Y58971196D01*
X38405623Y59132059D01*
X38820589Y59507966D01*
X38923214Y59724803D01*
X39193502Y59320289D01*
X39659049Y59009220D01*
X40208200Y58899987D01*
X40757351Y59009220D01*
X41222898Y59320289D01*
X41478200Y59702375D01*
X41733502Y59320289D01*
X42199049Y59009220D01*
X42748200Y58899987D01*
X43297351Y59009220D01*
X43762898Y59320289D01*
X44018200Y59702375D01*
X44273502Y59320289D01*
X44739049Y59009220D01*
X45288200Y58899987D01*
X45837351Y59009220D01*
X46302898Y59320289D01*
X46558200Y59702375D01*
X46813502Y59320289D01*
X47279049Y59009220D01*
X47828200Y58899987D01*
X48377351Y59009220D01*
X48842898Y59320289D01*
X49098200Y59702375D01*
X49233200Y59500333D01*
X49233200Y57030805D01*
X48938433Y57031062D01*
X48594657Y56889017D01*
X48561482Y56855900D01*
X48133000Y56855900D01*
X47842161Y56798048D01*
X47595599Y56633301D01*
X41236920Y50274622D01*
X41191433Y50274662D01*
X40847657Y50132617D01*
X40584408Y49869827D01*
X40441762Y49526299D01*
X40441570Y49306100D01*
X32156400Y49306100D01*
X31722054Y49219703D01*
X31353834Y48973666D01*
X28915434Y46535266D01*
X28669397Y46167046D01*
X28583000Y45732700D01*
X28583000Y43424014D01*
X28534371Y43375470D01*
X28321243Y42862200D01*
X28320758Y42306439D01*
X28532990Y41792797D01*
X28925630Y41399471D01*
X29172167Y41297100D01*
X27178000Y41297100D01*
X26552313Y41172643D01*
X26021880Y40818220D01*
X25667457Y40287787D01*
X25543000Y39662100D01*
X25543000Y39399539D01*
X25306960Y39163500D01*
X24673613Y39163500D01*
X24764757Y39383000D01*
X24765242Y39938761D01*
X24553010Y40452403D01*
X24160370Y40845729D01*
X23647100Y41058857D01*
X23091339Y41059342D01*
X22577697Y40847110D01*
X22184371Y40454470D01*
X22098051Y40246588D01*
X22013010Y40452403D01*
X21620370Y40845729D01*
X21107100Y41058857D01*
X20551339Y41059342D01*
X20037697Y40847110D01*
X19644371Y40454470D01*
X19431243Y39941200D01*
X19430758Y39385439D01*
X19522461Y39163500D01*
X17949239Y39163500D01*
X17205200Y39907540D01*
X17205200Y41690408D01*
X17495630Y41399471D01*
X18008900Y41186343D01*
X18564661Y41185858D01*
X19078303Y41398090D01*
X19471629Y41790730D01*
X19557949Y41998612D01*
X19642990Y41792797D01*
X20035630Y41399471D01*
X20548900Y41186343D01*
X21104661Y41185858D01*
X21618303Y41398090D01*
X22011629Y41790730D01*
X22097949Y41998612D01*
X22182990Y41792797D01*
X22575630Y41399471D01*
X23088900Y41186343D01*
X23644661Y41185858D01*
X24158303Y41398090D01*
X24551629Y41790730D01*
X24637949Y41998612D01*
X24722990Y41792797D01*
X25115630Y41399471D01*
X25628900Y41186343D01*
X26184661Y41185858D01*
X26698303Y41398090D01*
X27091629Y41790730D01*
X27304757Y42304000D01*
X27305242Y42859761D01*
X27093010Y43373403D01*
X26700370Y43766729D01*
X26187100Y43979857D01*
X25631339Y43980342D01*
X25117697Y43768110D01*
X24724371Y43375470D01*
X24638051Y43167588D01*
X24553010Y43373403D01*
X24160370Y43766729D01*
X23647100Y43979857D01*
X23091339Y43980342D01*
X22577697Y43768110D01*
X22184371Y43375470D01*
X22098051Y43167588D01*
X22013010Y43373403D01*
X21620370Y43766729D01*
X21107100Y43979857D01*
X20551339Y43980342D01*
X20037697Y43768110D01*
X19644371Y43375470D01*
X19558051Y43167588D01*
X19473010Y43373403D01*
X19080370Y43766729D01*
X18567100Y43979857D01*
X18111195Y43980255D01*
X30874117Y56743178D01*
X30874120Y56743180D01*
X31228543Y57273613D01*
X31353001Y57899300D01*
X31353000Y57899305D01*
X31353000Y59441897D01*
X31723229Y59071021D01*
X32283528Y58838365D01*
X32890211Y58837835D01*
X33450915Y59069514D01*
X33880279Y59498129D01*
X33924122Y59603715D01*
X34113502Y59320289D01*
X34579049Y59009220D01*
X35128200Y58899987D01*
X35677351Y59009220D01*
X36142898Y59320289D01*
X36413186Y59724803D01*
X36515811Y59507966D01*
X36930777Y59132059D01*
X37319161Y58971196D01*
X37541200Y59093185D01*
X37541200Y60236100D01*
X37521200Y60236100D01*
X37521200Y60490100D01*
X37541200Y60490100D01*
X37541200Y60510100D01*
X37795200Y60510100D01*
X37795200Y60490100D01*
G36*
X48311043Y88429800D02*
X48310558Y87874039D01*
X48522790Y87360397D01*
X48822800Y87059863D01*
X48822800Y82537305D01*
X48822799Y82537300D01*
X48848448Y82408359D01*
X48890167Y82198625D01*
X49047998Y81962413D01*
X49082010Y81911510D01*
X49449255Y81544265D01*
X49498883Y81424157D01*
X49761673Y81160908D01*
X50105201Y81018262D01*
X50477167Y81017938D01*
X50820943Y81159983D01*
X51084192Y81422773D01*
X51226838Y81766301D01*
X51227162Y82138267D01*
X51085117Y82482043D01*
X50822327Y82745292D01*
X50701013Y82795666D01*
X50592800Y82903880D01*
X50592800Y87060222D01*
X50891429Y87358330D01*
X50977749Y87566212D01*
X51062790Y87360397D01*
X51362800Y87059863D01*
X51362800Y81015322D01*
X51312962Y80895299D01*
X51312638Y80523333D01*
X51454683Y80179557D01*
X51717473Y79916308D01*
X52061001Y79773662D01*
X52432967Y79773338D01*
X52776743Y79915383D01*
X53039992Y80178173D01*
X53182638Y80521701D01*
X53182962Y80893667D01*
X53132800Y81015069D01*
X53132800Y87060222D01*
X53431429Y87358330D01*
X53517749Y87566212D01*
X53602790Y87360397D01*
X53995430Y86967071D01*
X54508700Y86753943D01*
X55064461Y86753458D01*
X55578103Y86965690D01*
X55971429Y87358330D01*
X56057749Y87566212D01*
X56142790Y87360397D01*
X56535430Y86967071D01*
X57048700Y86753943D01*
X57604461Y86753458D01*
X58118103Y86965690D01*
X58511429Y87358330D01*
X58724557Y87871600D01*
X58725042Y88427361D01*
X58542520Y88869100D01*
X72610857Y88869100D01*
X72428656Y88358398D01*
X72456438Y87803332D01*
X72615403Y87419557D01*
X72857587Y87350092D01*
X73658195Y88150700D01*
X73644053Y88164842D01*
X73823658Y88344447D01*
X73837800Y88330305D01*
X73851943Y88344447D01*
X74031548Y88164842D01*
X74017405Y88150700D01*
X74031548Y88136557D01*
X73851943Y87956952D01*
X73837800Y87971095D01*
X73037192Y87170487D01*
X73106657Y86928303D01*
X73630102Y86741556D01*
X74185168Y86769338D01*
X74364200Y86843496D01*
X74364200Y71666142D01*
X74045498Y71779844D01*
X73490432Y71752062D01*
X73106657Y71593097D01*
X73037192Y71350913D01*
X73837800Y70550305D01*
X73851943Y70564447D01*
X74031548Y70384842D01*
X74017405Y70370700D01*
X74031548Y70356557D01*
X73851943Y70176952D01*
X73837800Y70191095D01*
X73037192Y69390487D01*
X73106657Y69148303D01*
X73630102Y68961556D01*
X74185168Y68989338D01*
X74364200Y69063496D01*
X74364200Y61383676D01*
X74093171Y61655179D01*
X73532872Y61887835D01*
X72926189Y61888365D01*
X72365485Y61656686D01*
X71936121Y61228071D01*
X71892278Y61122485D01*
X71702898Y61405911D01*
X71237351Y61716980D01*
X70688200Y61826213D01*
X70139049Y61716980D01*
X69673502Y61405911D01*
X69418200Y61023825D01*
X69162898Y61405911D01*
X68697351Y61716980D01*
X68148200Y61826213D01*
X67599049Y61716980D01*
X67133502Y61405911D01*
X66878200Y61023825D01*
X66622898Y61405911D01*
X66157351Y61716980D01*
X65608200Y61826213D01*
X65059049Y61716980D01*
X64593502Y61405911D01*
X64338200Y61023825D01*
X64082898Y61405911D01*
X63617351Y61716980D01*
X63068200Y61826213D01*
X62519049Y61716980D01*
X62053502Y61405911D01*
X61798200Y61023825D01*
X61542898Y61405911D01*
X61077351Y61716980D01*
X60528200Y61826213D01*
X59979049Y61716980D01*
X59513502Y61405911D01*
X59258200Y61023825D01*
X59002898Y61405911D01*
X58537351Y61716980D01*
X57988200Y61826213D01*
X57439049Y61716980D01*
X56973502Y61405911D01*
X56718200Y61023825D01*
X56462898Y61405911D01*
X55997351Y61716980D01*
X55448200Y61826213D01*
X54899049Y61716980D01*
X54433502Y61405911D01*
X54178200Y61023825D01*
X53922898Y61405911D01*
X53457351Y61716980D01*
X52908200Y61826213D01*
X52359049Y61716980D01*
X51893502Y61405911D01*
X51638200Y61023825D01*
X51382898Y61405911D01*
X50917351Y61716980D01*
X50368200Y61826213D01*
X49819049Y61716980D01*
X49353502Y61405911D01*
X49098200Y61023825D01*
X48842898Y61405911D01*
X48377351Y61716980D01*
X47828200Y61826213D01*
X47279049Y61716980D01*
X46813502Y61405911D01*
X46558200Y61023825D01*
X46302898Y61405911D01*
X45837351Y61716980D01*
X45288200Y61826213D01*
X44739049Y61716980D01*
X44273502Y61405911D01*
X44018200Y61023825D01*
X43762898Y61405911D01*
X43297351Y61716980D01*
X42748200Y61826213D01*
X42199049Y61716980D01*
X41733502Y61405911D01*
X41478200Y61023825D01*
X41222898Y61405911D01*
X40757351Y61716980D01*
X40540572Y61760100D01*
X41148000Y61760100D01*
X41194159Y61768785D01*
X41236553Y61796065D01*
X41264994Y61837690D01*
X41275000Y61887100D01*
X41275000Y64489700D01*
X43714560Y64489700D01*
X43714560Y62789700D01*
X43758838Y62554383D01*
X43897910Y62338259D01*
X44110110Y62193269D01*
X44362000Y62142260D01*
X46062000Y62142260D01*
X46297317Y62186538D01*
X46513441Y62325610D01*
X46658431Y62537810D01*
X46672086Y62605241D01*
X46701946Y62560553D01*
X47183715Y62238646D01*
X47752000Y62125607D01*
X48320285Y62238646D01*
X48802054Y62560553D01*
X49123961Y63042322D01*
X49237000Y63610607D01*
X49237000Y63668793D01*
X49123961Y64237078D01*
X48802054Y64718847D01*
X48320285Y65040754D01*
X47752000Y65153793D01*
X47183715Y65040754D01*
X46701946Y64718847D01*
X46674150Y64677248D01*
X46665162Y64725017D01*
X46526090Y64941141D01*
X46313890Y65086131D01*
X46062000Y65137140D01*
X44362000Y65137140D01*
X44126683Y65092862D01*
X43910559Y64953790D01*
X43765569Y64741590D01*
X43714560Y64489700D01*
X41275000Y64489700D01*
X41275000Y75679300D01*
X41266315Y75725459D01*
X41239035Y75767853D01*
X41197410Y75796294D01*
X41148000Y75806300D01*
X40856446Y75806300D01*
X40975124Y75855455D01*
X41403383Y76245742D01*
X41478200Y76405054D01*
X41553017Y76245742D01*
X41981276Y75855455D01*
X42391310Y75685624D01*
X42621200Y75806945D01*
X42621200Y77000100D01*
X40335200Y77000100D01*
X40335200Y76980100D01*
X40081200Y76980100D01*
X40081200Y77000100D01*
X37795200Y77000100D01*
X37795200Y76980100D01*
X37541200Y76980100D01*
X37541200Y77000100D01*
X35255200Y77000100D01*
X35255200Y76980100D01*
X35001200Y76980100D01*
X35001200Y77000100D01*
X34981200Y77000100D01*
X34981200Y77254100D01*
X35001200Y77254100D01*
X35001200Y78453350D01*
X35255200Y78453350D01*
X35255200Y77254100D01*
X37541200Y77254100D01*
X37541200Y78447255D01*
X37795200Y78447255D01*
X37795200Y77254100D01*
X40081200Y77254100D01*
X40081200Y78447255D01*
X40335200Y78447255D01*
X40335200Y77254100D01*
X42621200Y77254100D01*
X42621200Y78447255D01*
X42391310Y78568576D01*
X41981276Y78398745D01*
X41553017Y78008458D01*
X41478200Y77849146D01*
X41403383Y78008458D01*
X40975124Y78398745D01*
X40565090Y78568576D01*
X40335200Y78447255D01*
X40081200Y78447255D01*
X39851310Y78568576D01*
X39441276Y78398745D01*
X39013017Y78008458D01*
X38938200Y77849146D01*
X38863383Y78008458D01*
X38435124Y78398745D01*
X38025090Y78568576D01*
X37795200Y78447255D01*
X37541200Y78447255D01*
X37311310Y78568576D01*
X36901276Y78398745D01*
X36603336Y78127222D01*
X36516527Y78336798D01*
X36337899Y78515427D01*
X36104510Y78612100D01*
X35413950Y78612100D01*
X35255200Y78453350D01*
X35001200Y78453350D01*
X34842450Y78612100D01*
X34151890Y78612100D01*
X33918501Y78515427D01*
X33782000Y78378925D01*
X33782000Y78923559D01*
X33814110Y78873659D01*
X34026310Y78728669D01*
X34278200Y78677660D01*
X35978200Y78677660D01*
X36213517Y78721938D01*
X36429641Y78861010D01*
X36574631Y79073210D01*
X36588286Y79140641D01*
X36618146Y79095953D01*
X37099915Y78774046D01*
X37668200Y78661007D01*
X38236485Y78774046D01*
X38718254Y79095953D01*
X38938200Y79425126D01*
X39158146Y79095953D01*
X39639915Y78774046D01*
X40208200Y78661007D01*
X40776485Y78774046D01*
X41258254Y79095953D01*
X41478200Y79425126D01*
X41698146Y79095953D01*
X42179915Y78774046D01*
X42748200Y78661007D01*
X43316485Y78774046D01*
X43798254Y79095953D01*
X43907200Y79259003D01*
X43907200Y78041433D01*
X43515124Y78398745D01*
X43105090Y78568576D01*
X42875200Y78447255D01*
X42875200Y77254100D01*
X42895200Y77254100D01*
X42895200Y77000100D01*
X42875200Y77000100D01*
X42875200Y75806945D01*
X43105090Y75685624D01*
X43515124Y75855455D01*
X43907200Y76212767D01*
X43907200Y70726305D01*
X43907199Y70726300D01*
X44031657Y70100612D01*
X44386080Y69570180D01*
X44741680Y69214581D01*
X45272112Y68860158D01*
X45897800Y68735700D01*
X46523487Y68860158D01*
X47053919Y69214581D01*
X47280082Y69553058D01*
X47645430Y69187071D01*
X48158700Y68973943D01*
X48714461Y68973458D01*
X49228103Y69185690D01*
X49621429Y69578330D01*
X49834557Y70091600D01*
X49834559Y70094039D01*
X50850558Y70094039D01*
X51062790Y69580397D01*
X51455430Y69187071D01*
X51968700Y68973943D01*
X52524461Y68973458D01*
X53038103Y69185690D01*
X53431429Y69578330D01*
X53517749Y69786212D01*
X53602790Y69580397D01*
X53995430Y69187071D01*
X54508700Y68973943D01*
X55064461Y68973458D01*
X55578103Y69185690D01*
X55971429Y69578330D01*
X56184557Y70091600D01*
X56184981Y70578398D01*
X72428656Y70578398D01*
X72456438Y70023332D01*
X72615403Y69639557D01*
X72857587Y69570092D01*
X73658195Y70370700D01*
X72857587Y71171308D01*
X72615403Y71101843D01*
X72428656Y70578398D01*
X56184981Y70578398D01*
X56185042Y70647361D01*
X55972810Y71161003D01*
X55580170Y71554329D01*
X55066900Y71767457D01*
X54511139Y71767942D01*
X53997497Y71555710D01*
X53604171Y71163070D01*
X53517851Y70955188D01*
X53432810Y71161003D01*
X53040170Y71554329D01*
X52526900Y71767457D01*
X51971139Y71767942D01*
X51457497Y71555710D01*
X51064171Y71163070D01*
X50851043Y70649800D01*
X50850558Y70094039D01*
X49834559Y70094039D01*
X49835042Y70647361D01*
X49622810Y71161003D01*
X49230170Y71554329D01*
X48716900Y71767457D01*
X48161139Y71767942D01*
X47647497Y71555710D01*
X47279844Y71188699D01*
X47177200Y71342317D01*
X47177200Y78399618D01*
X66598536Y78399618D01*
X67181150Y76989585D01*
X68259011Y75909841D01*
X69668025Y75324767D01*
X71193682Y75323436D01*
X72603715Y75906050D01*
X73683459Y76983911D01*
X74268533Y78392925D01*
X74269864Y79918582D01*
X73687250Y81328615D01*
X72609389Y82408359D01*
X71200375Y82993433D01*
X69674718Y82994764D01*
X68264685Y82412150D01*
X67184941Y81334289D01*
X66599867Y79925275D01*
X66598536Y78399618D01*
X47177200Y78399618D01*
X47177200Y84651524D01*
X47190181Y84670951D01*
X47332143Y84883412D01*
X47456600Y85509100D01*
X47332143Y86134787D01*
X46977720Y86665220D01*
X46589196Y86924823D01*
X46688103Y86965690D01*
X47081429Y87358330D01*
X47294557Y87871600D01*
X47295042Y88427361D01*
X47112520Y88869100D01*
X48493456Y88869100D01*
X48311043Y88429800D01*
X48311043Y88429800D01*
G37*
X48311043Y88429800D02*
X48310558Y87874039D01*
X48522790Y87360397D01*
X48822800Y87059863D01*
X48822800Y82537305D01*
X48822799Y82537300D01*
X48848448Y82408359D01*
X48890167Y82198625D01*
X49047998Y81962413D01*
X49082010Y81911510D01*
X49449255Y81544265D01*
X49498883Y81424157D01*
X49761673Y81160908D01*
X50105201Y81018262D01*
X50477167Y81017938D01*
X50820943Y81159983D01*
X51084192Y81422773D01*
X51226838Y81766301D01*
X51227162Y82138267D01*
X51085117Y82482043D01*
X50822327Y82745292D01*
X50701013Y82795666D01*
X50592800Y82903880D01*
X50592800Y87060222D01*
X50891429Y87358330D01*
X50977749Y87566212D01*
X51062790Y87360397D01*
X51362800Y87059863D01*
X51362800Y81015322D01*
X51312962Y80895299D01*
X51312638Y80523333D01*
X51454683Y80179557D01*
X51717473Y79916308D01*
X52061001Y79773662D01*
X52432967Y79773338D01*
X52776743Y79915383D01*
X53039992Y80178173D01*
X53182638Y80521701D01*
X53182962Y80893667D01*
X53132800Y81015069D01*
X53132800Y87060222D01*
X53431429Y87358330D01*
X53517749Y87566212D01*
X53602790Y87360397D01*
X53995430Y86967071D01*
X54508700Y86753943D01*
X55064461Y86753458D01*
X55578103Y86965690D01*
X55971429Y87358330D01*
X56057749Y87566212D01*
X56142790Y87360397D01*
X56535430Y86967071D01*
X57048700Y86753943D01*
X57604461Y86753458D01*
X58118103Y86965690D01*
X58511429Y87358330D01*
X58724557Y87871600D01*
X58725042Y88427361D01*
X58542520Y88869100D01*
X72610857Y88869100D01*
X72428656Y88358398D01*
X72456438Y87803332D01*
X72615403Y87419557D01*
X72857587Y87350092D01*
X73658195Y88150700D01*
X73644053Y88164842D01*
X73823658Y88344447D01*
X73837800Y88330305D01*
X73851943Y88344447D01*
X74031548Y88164842D01*
X74017405Y88150700D01*
X74031548Y88136557D01*
X73851943Y87956952D01*
X73837800Y87971095D01*
X73037192Y87170487D01*
X73106657Y86928303D01*
X73630102Y86741556D01*
X74185168Y86769338D01*
X74364200Y86843496D01*
X74364200Y71666142D01*
X74045498Y71779844D01*
X73490432Y71752062D01*
X73106657Y71593097D01*
X73037192Y71350913D01*
X73837800Y70550305D01*
X73851943Y70564447D01*
X74031548Y70384842D01*
X74017405Y70370700D01*
X74031548Y70356557D01*
X73851943Y70176952D01*
X73837800Y70191095D01*
X73037192Y69390487D01*
X73106657Y69148303D01*
X73630102Y68961556D01*
X74185168Y68989338D01*
X74364200Y69063496D01*
X74364200Y61383676D01*
X74093171Y61655179D01*
X73532872Y61887835D01*
X72926189Y61888365D01*
X72365485Y61656686D01*
X71936121Y61228071D01*
X71892278Y61122485D01*
X71702898Y61405911D01*
X71237351Y61716980D01*
X70688200Y61826213D01*
X70139049Y61716980D01*
X69673502Y61405911D01*
X69418200Y61023825D01*
X69162898Y61405911D01*
X68697351Y61716980D01*
X68148200Y61826213D01*
X67599049Y61716980D01*
X67133502Y61405911D01*
X66878200Y61023825D01*
X66622898Y61405911D01*
X66157351Y61716980D01*
X65608200Y61826213D01*
X65059049Y61716980D01*
X64593502Y61405911D01*
X64338200Y61023825D01*
X64082898Y61405911D01*
X63617351Y61716980D01*
X63068200Y61826213D01*
X62519049Y61716980D01*
X62053502Y61405911D01*
X61798200Y61023825D01*
X61542898Y61405911D01*
X61077351Y61716980D01*
X60528200Y61826213D01*
X59979049Y61716980D01*
X59513502Y61405911D01*
X59258200Y61023825D01*
X59002898Y61405911D01*
X58537351Y61716980D01*
X57988200Y61826213D01*
X57439049Y61716980D01*
X56973502Y61405911D01*
X56718200Y61023825D01*
X56462898Y61405911D01*
X55997351Y61716980D01*
X55448200Y61826213D01*
X54899049Y61716980D01*
X54433502Y61405911D01*
X54178200Y61023825D01*
X53922898Y61405911D01*
X53457351Y61716980D01*
X52908200Y61826213D01*
X52359049Y61716980D01*
X51893502Y61405911D01*
X51638200Y61023825D01*
X51382898Y61405911D01*
X50917351Y61716980D01*
X50368200Y61826213D01*
X49819049Y61716980D01*
X49353502Y61405911D01*
X49098200Y61023825D01*
X48842898Y61405911D01*
X48377351Y61716980D01*
X47828200Y61826213D01*
X47279049Y61716980D01*
X46813502Y61405911D01*
X46558200Y61023825D01*
X46302898Y61405911D01*
X45837351Y61716980D01*
X45288200Y61826213D01*
X44739049Y61716980D01*
X44273502Y61405911D01*
X44018200Y61023825D01*
X43762898Y61405911D01*
X43297351Y61716980D01*
X42748200Y61826213D01*
X42199049Y61716980D01*
X41733502Y61405911D01*
X41478200Y61023825D01*
X41222898Y61405911D01*
X40757351Y61716980D01*
X40540572Y61760100D01*
X41148000Y61760100D01*
X41194159Y61768785D01*
X41236553Y61796065D01*
X41264994Y61837690D01*
X41275000Y61887100D01*
X41275000Y64489700D01*
X43714560Y64489700D01*
X43714560Y62789700D01*
X43758838Y62554383D01*
X43897910Y62338259D01*
X44110110Y62193269D01*
X44362000Y62142260D01*
X46062000Y62142260D01*
X46297317Y62186538D01*
X46513441Y62325610D01*
X46658431Y62537810D01*
X46672086Y62605241D01*
X46701946Y62560553D01*
X47183715Y62238646D01*
X47752000Y62125607D01*
X48320285Y62238646D01*
X48802054Y62560553D01*
X49123961Y63042322D01*
X49237000Y63610607D01*
X49237000Y63668793D01*
X49123961Y64237078D01*
X48802054Y64718847D01*
X48320285Y65040754D01*
X47752000Y65153793D01*
X47183715Y65040754D01*
X46701946Y64718847D01*
X46674150Y64677248D01*
X46665162Y64725017D01*
X46526090Y64941141D01*
X46313890Y65086131D01*
X46062000Y65137140D01*
X44362000Y65137140D01*
X44126683Y65092862D01*
X43910559Y64953790D01*
X43765569Y64741590D01*
X43714560Y64489700D01*
X41275000Y64489700D01*
X41275000Y75679300D01*
X41266315Y75725459D01*
X41239035Y75767853D01*
X41197410Y75796294D01*
X41148000Y75806300D01*
X40856446Y75806300D01*
X40975124Y75855455D01*
X41403383Y76245742D01*
X41478200Y76405054D01*
X41553017Y76245742D01*
X41981276Y75855455D01*
X42391310Y75685624D01*
X42621200Y75806945D01*
X42621200Y77000100D01*
X40335200Y77000100D01*
X40335200Y76980100D01*
X40081200Y76980100D01*
X40081200Y77000100D01*
X37795200Y77000100D01*
X37795200Y76980100D01*
X37541200Y76980100D01*
X37541200Y77000100D01*
X35255200Y77000100D01*
X35255200Y76980100D01*
X35001200Y76980100D01*
X35001200Y77000100D01*
X34981200Y77000100D01*
X34981200Y77254100D01*
X35001200Y77254100D01*
X35001200Y78453350D01*
X35255200Y78453350D01*
X35255200Y77254100D01*
X37541200Y77254100D01*
X37541200Y78447255D01*
X37795200Y78447255D01*
X37795200Y77254100D01*
X40081200Y77254100D01*
X40081200Y78447255D01*
X40335200Y78447255D01*
X40335200Y77254100D01*
X42621200Y77254100D01*
X42621200Y78447255D01*
X42391310Y78568576D01*
X41981276Y78398745D01*
X41553017Y78008458D01*
X41478200Y77849146D01*
X41403383Y78008458D01*
X40975124Y78398745D01*
X40565090Y78568576D01*
X40335200Y78447255D01*
X40081200Y78447255D01*
X39851310Y78568576D01*
X39441276Y78398745D01*
X39013017Y78008458D01*
X38938200Y77849146D01*
X38863383Y78008458D01*
X38435124Y78398745D01*
X38025090Y78568576D01*
X37795200Y78447255D01*
X37541200Y78447255D01*
X37311310Y78568576D01*
X36901276Y78398745D01*
X36603336Y78127222D01*
X36516527Y78336798D01*
X36337899Y78515427D01*
X36104510Y78612100D01*
X35413950Y78612100D01*
X35255200Y78453350D01*
X35001200Y78453350D01*
X34842450Y78612100D01*
X34151890Y78612100D01*
X33918501Y78515427D01*
X33782000Y78378925D01*
X33782000Y78923559D01*
X33814110Y78873659D01*
X34026310Y78728669D01*
X34278200Y78677660D01*
X35978200Y78677660D01*
X36213517Y78721938D01*
X36429641Y78861010D01*
X36574631Y79073210D01*
X36588286Y79140641D01*
X36618146Y79095953D01*
X37099915Y78774046D01*
X37668200Y78661007D01*
X38236485Y78774046D01*
X38718254Y79095953D01*
X38938200Y79425126D01*
X39158146Y79095953D01*
X39639915Y78774046D01*
X40208200Y78661007D01*
X40776485Y78774046D01*
X41258254Y79095953D01*
X41478200Y79425126D01*
X41698146Y79095953D01*
X42179915Y78774046D01*
X42748200Y78661007D01*
X43316485Y78774046D01*
X43798254Y79095953D01*
X43907200Y79259003D01*
X43907200Y78041433D01*
X43515124Y78398745D01*
X43105090Y78568576D01*
X42875200Y78447255D01*
X42875200Y77254100D01*
X42895200Y77254100D01*
X42895200Y77000100D01*
X42875200Y77000100D01*
X42875200Y75806945D01*
X43105090Y75685624D01*
X43515124Y75855455D01*
X43907200Y76212767D01*
X43907200Y70726305D01*
X43907199Y70726300D01*
X44031657Y70100612D01*
X44386080Y69570180D01*
X44741680Y69214581D01*
X45272112Y68860158D01*
X45897800Y68735700D01*
X46523487Y68860158D01*
X47053919Y69214581D01*
X47280082Y69553058D01*
X47645430Y69187071D01*
X48158700Y68973943D01*
X48714461Y68973458D01*
X49228103Y69185690D01*
X49621429Y69578330D01*
X49834557Y70091600D01*
X49834559Y70094039D01*
X50850558Y70094039D01*
X51062790Y69580397D01*
X51455430Y69187071D01*
X51968700Y68973943D01*
X52524461Y68973458D01*
X53038103Y69185690D01*
X53431429Y69578330D01*
X53517749Y69786212D01*
X53602790Y69580397D01*
X53995430Y69187071D01*
X54508700Y68973943D01*
X55064461Y68973458D01*
X55578103Y69185690D01*
X55971429Y69578330D01*
X56184557Y70091600D01*
X56184981Y70578398D01*
X72428656Y70578398D01*
X72456438Y70023332D01*
X72615403Y69639557D01*
X72857587Y69570092D01*
X73658195Y70370700D01*
X72857587Y71171308D01*
X72615403Y71101843D01*
X72428656Y70578398D01*
X56184981Y70578398D01*
X56185042Y70647361D01*
X55972810Y71161003D01*
X55580170Y71554329D01*
X55066900Y71767457D01*
X54511139Y71767942D01*
X53997497Y71555710D01*
X53604171Y71163070D01*
X53517851Y70955188D01*
X53432810Y71161003D01*
X53040170Y71554329D01*
X52526900Y71767457D01*
X51971139Y71767942D01*
X51457497Y71555710D01*
X51064171Y71163070D01*
X50851043Y70649800D01*
X50850558Y70094039D01*
X49834559Y70094039D01*
X49835042Y70647361D01*
X49622810Y71161003D01*
X49230170Y71554329D01*
X48716900Y71767457D01*
X48161139Y71767942D01*
X47647497Y71555710D01*
X47279844Y71188699D01*
X47177200Y71342317D01*
X47177200Y78399618D01*
X66598536Y78399618D01*
X67181150Y76989585D01*
X68259011Y75909841D01*
X69668025Y75324767D01*
X71193682Y75323436D01*
X72603715Y75906050D01*
X73683459Y76983911D01*
X74268533Y78392925D01*
X74269864Y79918582D01*
X73687250Y81328615D01*
X72609389Y82408359D01*
X71200375Y82993433D01*
X69674718Y82994764D01*
X68264685Y82412150D01*
X67184941Y81334289D01*
X66599867Y79925275D01*
X66598536Y78399618D01*
X47177200Y78399618D01*
X47177200Y84651524D01*
X47190181Y84670951D01*
X47332143Y84883412D01*
X47456600Y85509100D01*
X47332143Y86134787D01*
X46977720Y86665220D01*
X46589196Y86924823D01*
X46688103Y86965690D01*
X47081429Y87358330D01*
X47294557Y87871600D01*
X47295042Y88427361D01*
X47112520Y88869100D01*
X48493456Y88869100D01*
X48311043Y88429800D01*
M02*
