G04 #@! TF.FileFunction,Soldermask,Top*
%FSLAX46Y46*%
G04 Gerber Fmt 4.6, Leading zero omitted, Abs format (unit mm)*
G04 Created by KiCad (PCBNEW 4.0.6+dfsg1-1) date Mon Feb 26 15:31:38 2018*
%MOMM*%
%LPD*%
G01*
G04 APERTURE LIST*
%ADD10C,0.100000*%
%ADD11C,1.924000*%
%ADD12R,1.700000X1.100000*%
%ADD13R,2.051000X3.448000*%
%ADD14R,6.496000X6.496000*%
%ADD15R,2.899360X2.200860*%
%ADD16R,1.598880X1.598880*%
%ADD17R,2.000000X2.000000*%
%ADD18O,2.000000X2.000000*%
%ADD19C,2.180000*%
%ADD20R,2.900000X2.900000*%
%ADD21C,2.900000*%
%ADD22R,2.100000X2.100000*%
%ADD23O,2.100000X2.100000*%
%ADD24R,2.000000X3.900000*%
%ADD25R,3.900000X2.000000*%
%ADD26C,2.000000*%
%ADD27C,6.800000*%
%ADD28C,1.000000*%
G04 APERTURE END LIST*
D10*
D11*
X29718000Y60363100D03*
X27178000Y60363100D03*
X23368000Y60363100D03*
X20828000Y60363100D03*
X29718000Y42583100D03*
X1778000Y42583100D03*
X1778000Y60363100D03*
X25908000Y42583100D03*
X23368000Y42583100D03*
X20828000Y42583100D03*
X18288000Y42583100D03*
X29718000Y39662100D03*
X27178000Y39662100D03*
X23368000Y39662100D03*
X20828000Y39662100D03*
X29718000Y21882100D03*
X1778000Y21882100D03*
X1778000Y39662100D03*
X25908000Y21882100D03*
X23368000Y21882100D03*
X20828000Y21882100D03*
X18288000Y21882100D03*
D12*
X42494200Y69382600D03*
X42494200Y71282600D03*
D13*
X19177000Y87642700D03*
D14*
X16891000Y81292700D03*
D13*
X14605000Y87642700D03*
D15*
X19728180Y64731900D03*
X15730220Y64731900D03*
D16*
X42494200Y72776080D03*
X42494200Y74874120D03*
X29540200Y84714080D03*
X29540200Y86812120D03*
D12*
X29540200Y81257100D03*
X29540200Y83157100D03*
D13*
X25501600Y66840100D03*
D14*
X27787600Y73190100D03*
D13*
X30073600Y66840100D03*
D17*
X35128200Y45123100D03*
D18*
X68148200Y60363100D03*
X37668200Y45123100D03*
X65608200Y60363100D03*
X40208200Y45123100D03*
X63068200Y60363100D03*
X42748200Y45123100D03*
X60528200Y60363100D03*
X45288200Y45123100D03*
X57988200Y60363100D03*
X47828200Y45123100D03*
X55448200Y60363100D03*
X50368200Y45123100D03*
X52908200Y60363100D03*
X52908200Y45123100D03*
X50368200Y60363100D03*
X55448200Y45123100D03*
X47828200Y60363100D03*
X57988200Y45123100D03*
X45288200Y60363100D03*
X60528200Y45123100D03*
X42748200Y60363100D03*
X63068200Y45123100D03*
X40208200Y60363100D03*
X65608200Y45123100D03*
X37668200Y60363100D03*
X68148200Y45123100D03*
X35128200Y60363100D03*
X70688200Y45123100D03*
X70688200Y60363100D03*
D19*
X32588200Y45123100D03*
X32588200Y60363100D03*
X73228200Y60363100D03*
X73228200Y45123100D03*
D20*
X4978400Y70040500D03*
D21*
X4978400Y65040500D03*
D20*
X4953000Y86804500D03*
D21*
X4953000Y81804500D03*
D22*
X45212000Y63639700D03*
D23*
X47752000Y63639700D03*
D24*
X24434800Y81158100D03*
X24434800Y86558100D03*
D25*
X20988000Y71158100D03*
X15588000Y71158100D03*
D24*
X37109400Y68407300D03*
X37109400Y73807300D03*
D11*
X45720000Y1435100D03*
X48260000Y1435100D03*
X52070000Y1435100D03*
X54610000Y1435100D03*
X45720000Y19215100D03*
X73660000Y19215100D03*
X73660000Y1435100D03*
X49530000Y19215100D03*
X52070000Y19215100D03*
X54610000Y19215100D03*
X57150000Y19215100D03*
X45466000Y23406100D03*
X48006000Y23406100D03*
X51816000Y23406100D03*
X54356000Y23406100D03*
X45466000Y41186100D03*
X73406000Y41186100D03*
X73406000Y23406100D03*
X49276000Y41186100D03*
X51816000Y41186100D03*
X54356000Y41186100D03*
X56896000Y41186100D03*
X45897800Y70370700D03*
X48437800Y70370700D03*
X52247800Y70370700D03*
X54787800Y70370700D03*
X45897800Y88150700D03*
X73837800Y88150700D03*
X73837800Y70370700D03*
X49707800Y88150700D03*
X52247800Y88150700D03*
X54787800Y88150700D03*
X57327800Y88150700D03*
X29591000Y19215100D03*
X27051000Y19215100D03*
X23241000Y19215100D03*
X20701000Y19215100D03*
X29591000Y1435100D03*
X1651000Y1435100D03*
X1651000Y19215100D03*
X25781000Y1435100D03*
X23241000Y1435100D03*
X20701000Y1435100D03*
X18161000Y1435100D03*
D17*
X19558000Y71208900D03*
D26*
X17058000Y71208900D03*
D17*
X24434800Y82588100D03*
D26*
X24434800Y85088100D03*
D17*
X37058600Y69938900D03*
D26*
X37058600Y72438900D03*
D22*
X35128200Y80175100D03*
D23*
X35128200Y82715100D03*
X37668200Y80175100D03*
X37668200Y82715100D03*
X40208200Y80175100D03*
X40208200Y82715100D03*
X42748200Y80175100D03*
X42748200Y82715100D03*
D22*
X35128200Y85509100D03*
D23*
X35128200Y88049100D03*
X37668200Y85509100D03*
X37668200Y88049100D03*
X40208200Y85509100D03*
X40208200Y88049100D03*
X42748200Y85509100D03*
X42748200Y88049100D03*
D22*
X35128200Y77127100D03*
D23*
X37668200Y77127100D03*
X40208200Y77127100D03*
X42748200Y77127100D03*
D22*
X34175700Y39027100D03*
D23*
X36715700Y39027100D03*
X39255700Y39027100D03*
D27*
X10668000Y75882500D03*
D28*
X13068000Y75882500D03*
X12365056Y74185444D03*
X10668000Y73482500D03*
X8970944Y74185444D03*
X8268000Y75882500D03*
X8970944Y77579556D03*
X10668000Y78282500D03*
X12365056Y77579556D03*
D27*
X70434200Y10579100D03*
D28*
X72834200Y10579100D03*
X72131256Y8882044D03*
X70434200Y8179100D03*
X68737144Y8882044D03*
X68034200Y10579100D03*
X68737144Y12276156D03*
X70434200Y12979100D03*
X72131256Y12276156D03*
D27*
X70434200Y30899100D03*
D28*
X72834200Y30899100D03*
X72131256Y29202044D03*
X70434200Y28499100D03*
X68737144Y29202044D03*
X68034200Y30899100D03*
X68737144Y32596156D03*
X70434200Y33299100D03*
X72131256Y32596156D03*
D27*
X6934200Y10579100D03*
D28*
X9334200Y10579100D03*
X8631256Y8882044D03*
X6934200Y8179100D03*
X5237144Y8882044D03*
X4534200Y10579100D03*
X5237144Y12276156D03*
X6934200Y12979100D03*
X8631256Y12276156D03*
D27*
X6934200Y30899100D03*
D28*
X9334200Y30899100D03*
X8631256Y29202044D03*
X6934200Y28499100D03*
X5237144Y29202044D03*
X4534200Y30899100D03*
X5237144Y32596156D03*
X6934200Y33299100D03*
X8631256Y32596156D03*
D27*
X6934200Y51219100D03*
D28*
X9334200Y51219100D03*
X8631256Y49522044D03*
X6934200Y48819100D03*
X5237144Y49522044D03*
X4534200Y51219100D03*
X5237144Y52916156D03*
X6934200Y53619100D03*
X8631256Y52916156D03*
D27*
X70434200Y79159100D03*
D28*
X72834200Y79159100D03*
X72131256Y77462044D03*
X70434200Y76759100D03*
X68737144Y77462044D03*
X68034200Y79159100D03*
X68737144Y80856156D03*
X70434200Y81559100D03*
X72131256Y80856156D03*
D27*
X70434200Y53759100D03*
D28*
X72834200Y53759100D03*
X72131256Y52062044D03*
X70434200Y51359100D03*
X68737144Y52062044D03*
X68034200Y53759100D03*
X68737144Y55456156D03*
X70434200Y56159100D03*
X72131256Y55456156D03*
M02*
