M48
;DRILL file {KiCad 4.0.6+dfsg1-1} date Thu Mar 15 12:50:31 2018
;FORMAT={2:4/ absolute / inch / suppress leading zeros}
FMAT,2
INCH,TZ
T1C0.004
T2C0.016
T3C0.030
T4C0.051
%
G90
G05
M72
T1
X47035Y-26969
T2
X47795Y-31654
X48386Y-29134
X48425Y-31654
X48898Y-25167
X48976Y-21555
X49478Y-31181
X49606Y-25157
X50079Y-25157
X50551Y-25157
X51024Y-25157
X51467Y-31181
X51496Y-25157
X51732Y-29980
X52126Y-21555
X52185Y-25148
X52480Y-30866
X52559Y-29252
X53189Y-30866
T3
X47035Y-20469
X47035Y-27969
X47035Y-28969
X47035Y-29969
X47035Y-31469
X54035Y-20469
X54035Y-27969
X54035Y-28969
X54035Y-30469
X54035Y-31469
T4
X49528Y-17795
X51496Y-17795
T0
M30
