G04 #@! TF.FileFunction,Copper,L1,Top,Signal*
%FSLAX46Y46*%
G04 Gerber Fmt 4.6, Leading zero omitted, Abs format (unit mm)*
G04 Created by KiCad (PCBNEW 4.0.6+dfsg1-1) date Thu Mar 15 12:50:15 2018*
%MOMM*%
%LPD*%
G01*
G04 APERTURE LIST*
%ADD10C,0.100000*%
%ADD11C,0.381000*%
%ADD12R,2.500000X2.500000*%
%ADD13C,2.500000*%
%ADD14R,1.300000X0.700000*%
%ADD15R,0.680000X2.600000*%
%ADD16C,1.524000*%
%ADD17C,0.100000*%
%ADD18R,1.250000X1.000000*%
%ADD19R,2.550000X2.500000*%
%ADD20R,0.970000X1.270000*%
%ADD21C,0.600000*%
%ADD22C,1.000000*%
%ADD23C,2.000000*%
%ADD24C,0.750000*%
%ADD25C,0.500000*%
%ADD26C,0.400000*%
%ADD27C,0.300000*%
%ADD28C,1.500000*%
%ADD29C,0.250000*%
G04 APERTURE END LIST*
D10*
D11*
G36*
X122985900Y-67600000D02*
X123800000Y-67600000D01*
X123800000Y-70321670D01*
X122985900Y-70321670D01*
X122985900Y-67600000D01*
G37*
X122985900Y-67600000D02*
X123800000Y-67600000D01*
X123800000Y-70321670D01*
X122985900Y-70321670D01*
X122985900Y-67600000D01*
G36*
X133007410Y-67600000D02*
X133800000Y-67600000D01*
X133800000Y-70313360D01*
X133007410Y-70313360D01*
X133007410Y-67600000D01*
G37*
X133007410Y-67600000D02*
X133800000Y-67600000D01*
X133800000Y-70313360D01*
X133007410Y-70313360D01*
X133007410Y-67600000D01*
G36*
X127999139Y-53700000D02*
X128800000Y-53700000D01*
X128800000Y-62601291D01*
X127999139Y-62601291D01*
X127999139Y-53700000D01*
G37*
X127999139Y-53700000D02*
X128800000Y-53700000D01*
X128800000Y-62601291D01*
X127999139Y-62601291D01*
X127999139Y-53700000D01*
G36*
X125998460Y-53700000D02*
X126800000Y-53700000D01*
X126800000Y-56296350D01*
X125998460Y-56296350D01*
X125998460Y-53700000D01*
G37*
X125998460Y-53700000D02*
X126800000Y-53700000D01*
X126800000Y-56296350D01*
X125998460Y-56296350D01*
X125998460Y-53700000D01*
G36*
X130002510Y-53700000D02*
X130800000Y-53700000D01*
X130800000Y-56291080D01*
X130002510Y-56291080D01*
X130002510Y-53700000D01*
G37*
X130002510Y-53700000D02*
X130800000Y-53700000D01*
X130800000Y-56291080D01*
X130002510Y-56291080D01*
X130002510Y-53700000D01*
G36*
X135011300Y-53700000D02*
X135800000Y-53700000D01*
X135800000Y-56290250D01*
X135011300Y-56290250D01*
X135011300Y-53700000D01*
G37*
X135011300Y-53700000D02*
X135800000Y-53700000D01*
X135800000Y-56290250D01*
X135011300Y-56290250D01*
X135011300Y-53700000D01*
G36*
X120993980Y-53700000D02*
X121800000Y-53700000D01*
X121800000Y-56295360D01*
X120993980Y-56295360D01*
X120993980Y-53700000D01*
G37*
X120993980Y-53700000D02*
X121800000Y-53700000D01*
X121800000Y-56295360D01*
X120993980Y-56295360D01*
X120993980Y-53700000D01*
G36*
X135005610Y-61400000D02*
X135800000Y-61400000D01*
X135800000Y-70307060D01*
X135005610Y-70307060D01*
X135005610Y-61400000D01*
G37*
X135005610Y-61400000D02*
X135800000Y-61400000D01*
X135800000Y-70307060D01*
X135005610Y-70307060D01*
X135005610Y-61400000D01*
G36*
X120985180Y-61400000D02*
X121800000Y-61400000D01*
X121800000Y-70316620D01*
X120985180Y-70316620D01*
X120985180Y-61400000D01*
G37*
X120985180Y-61400000D02*
X121800000Y-61400000D01*
X121800000Y-70316620D01*
X120985180Y-70316620D01*
X120985180Y-61400000D01*
G36*
X120981600Y-56300000D02*
X126800000Y-56300000D01*
X126800000Y-61398508D01*
X120981600Y-61398508D01*
X120981600Y-56300000D01*
G37*
X120981600Y-56300000D02*
X126800000Y-56300000D01*
X126800000Y-61398508D01*
X120981600Y-61398508D01*
X120981600Y-56300000D01*
G36*
X130005580Y-56300000D02*
X135800000Y-56300000D01*
X135800000Y-61397907D01*
X130005580Y-61397907D01*
X130005580Y-56300000D01*
G37*
X130005580Y-56300000D02*
X135800000Y-56300000D01*
X135800000Y-61397907D01*
X130005580Y-61397907D01*
X130005580Y-56300000D01*
G36*
X122989030Y-62600000D02*
X133800000Y-62600000D01*
X133800000Y-67611380D01*
X122989030Y-67611380D01*
X122989030Y-62600000D01*
G37*
X122989030Y-62600000D02*
X133800000Y-62600000D01*
X133800000Y-67611380D01*
X122989030Y-67611380D01*
X122989030Y-62600000D01*
D12*
X130800000Y-45200000D03*
D13*
X125800000Y-45200000D03*
D14*
X127000000Y-74250000D03*
X127000000Y-76150000D03*
X124800000Y-74250000D03*
X124800000Y-76150000D03*
X131400000Y-74250000D03*
X131400000Y-76150000D03*
X129200000Y-74250000D03*
X129200000Y-76150000D03*
D15*
X121400000Y-71600000D03*
X122400000Y-71600000D03*
X123400000Y-71600000D03*
X124400000Y-71600000D03*
X125400000Y-71600000D03*
X126400000Y-71600000D03*
X127400000Y-71600000D03*
X128400000Y-71600000D03*
X129400000Y-71600000D03*
X130400000Y-71600000D03*
X131400000Y-71600000D03*
X132400000Y-71600000D03*
X133400000Y-71600000D03*
X134400000Y-71600000D03*
X135400000Y-71600000D03*
X135400000Y-52400000D03*
X134400000Y-52400000D03*
X133400000Y-52400000D03*
X132400000Y-52400000D03*
X131400000Y-52400000D03*
X130400000Y-52400000D03*
X129400000Y-52400000D03*
X128400000Y-52400000D03*
X127400000Y-52400000D03*
X126400000Y-52400000D03*
X125400000Y-52400000D03*
X124400000Y-52400000D03*
X123400000Y-52400000D03*
X122400000Y-52400000D03*
X121400000Y-52400000D03*
D16*
X137250000Y-79930000D03*
X137250000Y-77390000D03*
X137250000Y-73580000D03*
X137250000Y-71040000D03*
X119470000Y-79930000D03*
X119470000Y-51990000D03*
X137250000Y-51990000D03*
X119470000Y-76120000D03*
X119470000Y-73580000D03*
X119470000Y-71040000D03*
D17*
X119470000Y-68500000D03*
D18*
X123100000Y-80400000D03*
X123100000Y-78400000D03*
X121400000Y-80400000D03*
X121400000Y-78400000D03*
D19*
X125675000Y-79200000D03*
X130725000Y-79200000D03*
D18*
X133300000Y-80400000D03*
X133300000Y-78400000D03*
X135100000Y-80400000D03*
X135100000Y-78400000D03*
D20*
X121560000Y-76500000D03*
X122840000Y-76500000D03*
D21*
X131400000Y-76150000D03*
X129600000Y-63900000D03*
X128400000Y-63900000D03*
X126000000Y-63900000D03*
X127200000Y-63900000D03*
X130800000Y-63900000D03*
X132550000Y-63875000D03*
X124200000Y-63925000D03*
X123000000Y-80400000D03*
X122900000Y-74000000D03*
X121400000Y-80400000D03*
X125675000Y-79200000D03*
X133500000Y-74300000D03*
X130725000Y-79200000D03*
X135100000Y-78400000D03*
X133300000Y-78400000D03*
X124400000Y-54750000D03*
X132400000Y-54750000D03*
D22*
X131000000Y-49700000D02*
X131000000Y-45400000D01*
X131000000Y-45400000D02*
X130800000Y-45200000D01*
D23*
X130950000Y-45350000D02*
X130800000Y-45200000D01*
X130800000Y-45200000D02*
X131100000Y-45200000D01*
X131100000Y-45200000D02*
X132200000Y-46300000D01*
X132200000Y-46300000D02*
X132200000Y-49250000D01*
D24*
X130400000Y-50250000D02*
X135350000Y-50250000D01*
X135350000Y-50250000D02*
X135400000Y-50200000D01*
X135400000Y-52400000D02*
X135400000Y-50200000D01*
X134900000Y-49700000D02*
X131000000Y-49700000D01*
X131000000Y-49700000D02*
X130950000Y-49700000D01*
X130950000Y-49700000D02*
X130400000Y-49700000D01*
X135400000Y-50200000D02*
X134900000Y-49700000D01*
X130400000Y-52400000D02*
X130400000Y-50250000D01*
X130400000Y-50250000D02*
X130400000Y-49700000D01*
X130400000Y-49700000D02*
X130400000Y-45600000D01*
X130400000Y-45600000D02*
X130800000Y-45200000D01*
D22*
X126400000Y-49800000D02*
X126400000Y-45800000D01*
X126400000Y-45800000D02*
X125800000Y-45200000D01*
D23*
X125300000Y-49600000D02*
X125300000Y-45700000D01*
X125300000Y-45700000D02*
X125800000Y-45200000D01*
X124250000Y-49600000D02*
X124250000Y-46750000D01*
X124250000Y-46750000D02*
X125800000Y-45200000D01*
D24*
X121400000Y-50250000D02*
X125750000Y-50250000D01*
X125750000Y-50250000D02*
X126400000Y-50900000D01*
X125800000Y-45200000D02*
X125800000Y-49200000D01*
X125800000Y-49200000D02*
X126400000Y-49800000D01*
X121400000Y-52400000D02*
X121400000Y-50250000D01*
X121400000Y-50250000D02*
X121400000Y-50000000D01*
X126400000Y-49800000D02*
X126400000Y-50900000D01*
X126400000Y-50900000D02*
X126400000Y-52400000D01*
X126200000Y-49600000D02*
X126400000Y-49800000D01*
X121800000Y-49600000D02*
X124250000Y-49600000D01*
X124250000Y-49600000D02*
X125300000Y-49600000D01*
X125300000Y-49600000D02*
X126200000Y-49600000D01*
X121400000Y-50000000D02*
X121800000Y-49600000D01*
D25*
X130400000Y-71600000D02*
X130400000Y-69200000D01*
X126400000Y-69200000D02*
X126400000Y-71600000D01*
X126600000Y-69000000D02*
X126400000Y-69200000D01*
X130200000Y-69000000D02*
X126600000Y-69000000D01*
X130400000Y-69200000D02*
X130200000Y-69000000D01*
X126400000Y-71600000D02*
X126400000Y-73300000D01*
X126400000Y-73300000D02*
X127000000Y-73900000D01*
X127000000Y-73900000D02*
X127000000Y-74250000D01*
D22*
X137250000Y-77390000D02*
X137250000Y-79930000D01*
D26*
X127000000Y-76150000D02*
X127000000Y-76700000D01*
X127500000Y-77200000D02*
X137060000Y-77200000D01*
X127000000Y-76700000D02*
X127500000Y-77200000D01*
X137060000Y-77200000D02*
X137250000Y-77390000D01*
D25*
X124800000Y-74250000D02*
X124800000Y-74100000D01*
X124800000Y-74100000D02*
X125400000Y-73500000D01*
X125400000Y-73500000D02*
X125400000Y-71600000D01*
D27*
X122840000Y-76500000D02*
X124450000Y-76500000D01*
X124450000Y-76500000D02*
X124800000Y-76150000D01*
D25*
X131400000Y-71600000D02*
X131400000Y-74250000D01*
X128400000Y-71600000D02*
X128400000Y-73450000D01*
X128400000Y-73450000D02*
X129200000Y-74250000D01*
X129200000Y-76150000D02*
X129200000Y-75400000D01*
X120390000Y-75200000D02*
X119470000Y-76120000D01*
X129000000Y-75200000D02*
X120390000Y-75200000D01*
X129200000Y-75400000D02*
X129000000Y-75200000D01*
D24*
X128400000Y-63900000D02*
X127200000Y-63900000D01*
X132550000Y-63875000D02*
X130825000Y-63875000D01*
X130825000Y-63875000D02*
X130800000Y-63900000D01*
D23*
X132550000Y-63875000D02*
X132550000Y-63850000D01*
X124200000Y-63925000D02*
X124200000Y-63900000D01*
D28*
X137250000Y-73580000D02*
X137250000Y-73950000D01*
X137250000Y-73950000D02*
X136900000Y-74300000D01*
X136900000Y-74300000D02*
X133500000Y-74300000D01*
D24*
X123400000Y-71600000D02*
X123400000Y-73500000D01*
X123400000Y-73500000D02*
X122900000Y-74000000D01*
X121400000Y-80400000D02*
X123100000Y-80400000D01*
X133400000Y-74200000D02*
X133500000Y-74300000D01*
X133400000Y-71600000D02*
X133400000Y-74200000D01*
D22*
X137250000Y-71040000D02*
X137250000Y-73580000D01*
D25*
X133300000Y-80400000D02*
X133300000Y-80500000D01*
X133300000Y-80500000D02*
X132700000Y-81100000D01*
X132700000Y-81100000D02*
X127575000Y-81100000D01*
X127575000Y-81100000D02*
X125675000Y-79200000D01*
D22*
X133300000Y-80400000D02*
X135100000Y-80400000D01*
X123100000Y-80400000D02*
X124475000Y-80400000D01*
X124475000Y-80400000D02*
X125675000Y-79200000D01*
D23*
X124400000Y-52400000D02*
X124400000Y-54750000D01*
X132400000Y-52400000D02*
X132400000Y-54750000D01*
D25*
X131400000Y-52400000D02*
X131400000Y-51700000D01*
X131400000Y-51700000D02*
X131750000Y-51350000D01*
X132800000Y-51350000D02*
X131750000Y-51350000D01*
X132400000Y-52400000D02*
X132400000Y-52250000D01*
X133400000Y-52400000D02*
X133400000Y-51950000D01*
X133400000Y-51950000D02*
X132800000Y-51350000D01*
X132400000Y-52400000D02*
X132400000Y-51750000D01*
X132400000Y-51750000D02*
X132800000Y-51350000D01*
X132800000Y-51350000D02*
X133050000Y-51350000D01*
X131400000Y-52400000D02*
X132400000Y-52400000D01*
X132400000Y-52400000D02*
X133400000Y-52400000D01*
X125400000Y-52400000D02*
X125400000Y-51700000D01*
X125400000Y-51700000D02*
X125050000Y-51350000D01*
X123750000Y-51350000D02*
X123400000Y-51700000D01*
X123750000Y-51350000D02*
X125050000Y-51350000D01*
X124400000Y-52400000D02*
X124400000Y-52300000D01*
X123400000Y-52400000D02*
X123400000Y-51700000D01*
X123400000Y-52400000D02*
X124400000Y-52400000D01*
X125400000Y-52400000D02*
X124400000Y-52400000D01*
D29*
X123100000Y-78400000D02*
X123100000Y-78300000D01*
X123100000Y-78300000D02*
X124200000Y-77200000D01*
X128700000Y-79200000D02*
X130725000Y-79200000D01*
X126700000Y-77200000D02*
X128700000Y-79200000D01*
X124200000Y-77200000D02*
X126700000Y-77200000D01*
D26*
X121400000Y-78400000D02*
X123100000Y-78400000D01*
D22*
X133300000Y-78400000D02*
X135100000Y-78400000D01*
X130725000Y-79200000D02*
X131600000Y-79200000D01*
X131600000Y-79200000D02*
X132400000Y-78400000D01*
X132400000Y-78400000D02*
X133300000Y-78400000D01*
D27*
X119470000Y-79930000D02*
X119470000Y-77830000D01*
X120800000Y-76500000D02*
X121560000Y-76500000D01*
X119470000Y-77830000D02*
X120800000Y-76500000D01*
M02*
