G04 #@! TF.FileFunction,Copper,L1,Top,Signal*
%FSLAX46Y46*%
G04 Gerber Fmt 4.6, Leading zero omitted, Abs format (unit mm)*
G04 Created by KiCad (PCBNEW 4.0.6+dfsg1-1) date Mon Feb 26 15:58:45 2018*
%MOMM*%
%LPD*%
G01*
G04 APERTURE LIST*
%ADD10C,0.100000*%
%ADD11R,1.600000X1.600000*%
%ADD12O,1.600000X1.600000*%
%ADD13R,3.000000X1.600000*%
%ADD14R,1.850000X1.850000*%
%ADD15C,1.850000*%
%ADD16R,1.700000X1.700000*%
%ADD17O,1.700000X1.700000*%
%ADD18R,0.970000X1.270000*%
%ADD19C,1.524000*%
%ADD20C,0.100000*%
%ADD21C,0.600000*%
%ADD22C,2.000000*%
%ADD23C,0.500000*%
%ADD24C,1.000000*%
%ADD25C,0.250000*%
G04 APERTURE END LIST*
D10*
D11*
X19121120Y25476200D03*
D12*
X1341120Y12776200D03*
X16581120Y25476200D03*
X3881120Y12776200D03*
X14041120Y25476200D03*
X6421120Y12776200D03*
X11501120Y25476200D03*
X8961120Y12776200D03*
X8961120Y25476200D03*
X11501120Y12776200D03*
X6421120Y25476200D03*
X14041120Y12776200D03*
X3881120Y25476200D03*
X16581120Y12776200D03*
X1341120Y25476200D03*
X19121120Y12776200D03*
D13*
X2189120Y21031200D03*
X6589120Y21031200D03*
D14*
X14041120Y30302200D03*
D15*
X11541120Y30302200D03*
X9041120Y30302200D03*
X6541120Y30302200D03*
D16*
X11755120Y1600200D03*
D17*
X9215120Y1600200D03*
X6675120Y1600200D03*
X4135120Y1600200D03*
D18*
X7818120Y15189200D03*
X6548120Y15189200D03*
X5278120Y15189200D03*
D19*
X18994120Y1473200D03*
X18994120Y4013200D03*
X18994120Y7823200D03*
X18994120Y10363200D03*
X1214120Y1473200D03*
X1214120Y29413200D03*
X18994120Y29413200D03*
X1214120Y5283200D03*
X1214120Y7823200D03*
X1214120Y10363200D03*
D20*
X1214120Y12903200D03*
D21*
X4008120Y6172200D03*
X6589120Y21031200D03*
X16073120Y14808200D03*
D22*
X11755120Y1600200D02*
X18867120Y1600200D01*
X18867120Y1600200D02*
X18994120Y1473200D01*
X18994120Y1473200D02*
X18994120Y4013200D01*
X18994120Y7823200D02*
X18994120Y10363200D01*
D23*
X1341120Y25476200D02*
X1341120Y21879200D01*
X1341120Y21879200D02*
X2189120Y21031200D01*
X15311120Y14173200D02*
X15311120Y17475200D01*
X16073120Y10363200D02*
X15311120Y11125200D01*
X15311120Y11125200D02*
X15311120Y14173200D01*
X18994120Y10363200D02*
X16073120Y10363200D01*
X2189120Y19167200D02*
X2189120Y21031200D01*
X3500120Y17856200D02*
X2189120Y19167200D01*
X14930120Y17856200D02*
X3500120Y17856200D01*
X15311120Y17475200D02*
X14930120Y17856200D01*
X4135120Y6045200D02*
X4135120Y1600200D01*
X4008120Y6172200D02*
X4135120Y6045200D01*
D24*
X6589120Y21031200D02*
X16962120Y21031200D01*
X19121120Y23190200D02*
X19121120Y25476200D01*
X16962120Y21031200D02*
X19121120Y23190200D01*
D23*
X6548120Y21031200D02*
X6589120Y21031200D01*
X3881120Y23698200D02*
X6548120Y21031200D01*
X3881120Y25476200D02*
X3881120Y23698200D01*
X18994120Y29413200D02*
X18994120Y25603200D01*
X18994120Y25603200D02*
X19121120Y25476200D01*
X1214120Y29413200D02*
X1595120Y29413200D01*
X1595120Y29413200D02*
X3881120Y27127200D01*
X3881120Y27127200D02*
X3881120Y25476200D01*
D22*
X14041120Y25476200D02*
X14041120Y30302200D01*
X11501120Y25476200D02*
X11501120Y30262200D01*
X11501120Y30262200D02*
X11541120Y30302200D01*
X8961120Y25476200D02*
X8961120Y30222200D01*
X8961120Y30222200D02*
X9041120Y30302200D01*
X11501120Y12776200D02*
X13861118Y12776200D01*
X13861118Y12776200D02*
X14041120Y12776200D01*
X6421120Y25476200D02*
X6421120Y30182200D01*
X6421120Y30182200D02*
X6541120Y30302200D01*
D25*
X19121120Y12776200D02*
X19121120Y14554200D01*
X18867120Y14808200D02*
X16073120Y14808200D01*
X19121120Y14554200D02*
X18867120Y14808200D01*
D24*
X1214120Y7823200D02*
X5405120Y7823200D01*
X6675120Y6553200D02*
X6675120Y1600200D01*
X5405120Y7823200D02*
X6675120Y6553200D01*
X9215120Y1600200D02*
X9215120Y8712200D01*
X7564120Y10363200D02*
X1214120Y10363200D01*
X9215120Y8712200D02*
X7564120Y10363200D01*
X3881120Y12776200D02*
X3881120Y14427200D01*
X4643120Y15189200D02*
X5278120Y15189200D01*
X3881120Y14427200D02*
X4643120Y15189200D01*
D23*
X6421120Y12776200D02*
X6421120Y15062200D01*
X6421120Y15062200D02*
X6548120Y15189200D01*
D24*
X8961120Y12776200D02*
X8961120Y14681200D01*
X8453120Y15189200D02*
X7818120Y15189200D01*
X8961120Y14681200D02*
X8453120Y15189200D01*
M02*
