M48
;DRILL file {KiCad 4.0.6+dfsg1-1} date Mon Feb 26 15:58:47 2018
;FORMAT={2:4/ absolute / inch / suppress leading zeros}
FMAT,2
INCH,TZ
T1C0.016
T2C0.030
T3C0.031
T4C0.035
T5C0.039
%
G90
G05
M72
T1
X1578Y2430
X2594Y8280
X6328Y5830
T2
X478Y11580
X478Y4080
X478Y3080
X478Y2080
X478Y580
X7478Y11580
X7478Y4080
X7478Y3080
X7478Y1580
X7478Y580
T3
X528Y10030
X528Y5030
X1528Y10030
X1528Y5030
X2528Y10030
X2528Y5030
X3528Y10030
X3528Y5030
X4528Y10030
X4528Y5030
X5528Y10030
X5528Y5030
X6528Y10030
X6528Y5030
X7528Y10030
X7528Y5030
T4
X2575Y11930
X3559Y11930
X4544Y11930
X5528Y11930
T5
X1628Y630
X2628Y630
X3628Y630
X4628Y630
T0
M30
