G04 #@! TF.FileFunction,Legend,Top*
%FSLAX46Y46*%
G04 Gerber Fmt 4.6, Leading zero omitted, Abs format (unit mm)*
G04 Created by KiCad (PCBNEW 4.0.6+dfsg1-1) date Mon Feb 26 15:58:45 2018*
%MOMM*%
%LPD*%
G01*
G04 APERTURE LIST*
%ADD10C,0.100000*%
%ADD11C,0.175000*%
%ADD12C,0.250000*%
%ADD13C,0.200000*%
%ADD14C,0.120000*%
%ADD15C,0.010000*%
%ADD16C,0.150000*%
G04 APERTURE END LIST*
D10*
D11*
X4443789Y8563533D02*
X4443789Y9263533D01*
X4710455Y9263533D01*
X4777122Y9230200D01*
X4810455Y9196867D01*
X4843789Y9130200D01*
X4843789Y9030200D01*
X4810455Y8963533D01*
X4777122Y8930200D01*
X4710455Y8896867D01*
X4443789Y8896867D01*
X5243789Y8563533D02*
X5177122Y8596867D01*
X5143789Y8630200D01*
X5110455Y8696867D01*
X5110455Y8896867D01*
X5143789Y8963533D01*
X5177122Y8996867D01*
X5243789Y9030200D01*
X5343789Y9030200D01*
X5410455Y8996867D01*
X5443789Y8963533D01*
X5477122Y8896867D01*
X5477122Y8696867D01*
X5443789Y8630200D01*
X5410455Y8596867D01*
X5343789Y8563533D01*
X5243789Y8563533D01*
X5877122Y8563533D02*
X5810455Y8596867D01*
X5777122Y8663533D01*
X5777122Y9263533D01*
X6243789Y8563533D02*
X6177122Y8596867D01*
X6143789Y8630200D01*
X6110455Y8696867D01*
X6110455Y8896867D01*
X6143789Y8963533D01*
X6177122Y8996867D01*
X6243789Y9030200D01*
X6343789Y9030200D01*
X6410455Y8996867D01*
X6443789Y8963533D01*
X6477122Y8896867D01*
X6477122Y8696867D01*
X6443789Y8630200D01*
X6410455Y8596867D01*
X6343789Y8563533D01*
X6243789Y8563533D01*
X6877122Y8563533D02*
X6810455Y8596867D01*
X6777122Y8663533D01*
X6777122Y9263533D01*
X7443789Y9030200D02*
X7443789Y8563533D01*
X7143789Y9030200D02*
X7143789Y8663533D01*
X7177122Y8596867D01*
X7243789Y8563533D01*
X7343789Y8563533D01*
X7410455Y8596867D01*
X7443789Y8630200D01*
X8277121Y8596867D02*
X8377121Y8563533D01*
X8543788Y8563533D01*
X8610455Y8596867D01*
X8643788Y8630200D01*
X8677121Y8696867D01*
X8677121Y8763533D01*
X8643788Y8830200D01*
X8610455Y8863533D01*
X8543788Y8896867D01*
X8410455Y8930200D01*
X8343788Y8963533D01*
X8310455Y8996867D01*
X8277121Y9063533D01*
X8277121Y9130200D01*
X8310455Y9196867D01*
X8343788Y9230200D01*
X8410455Y9263533D01*
X8577121Y9263533D01*
X8677121Y9230200D01*
X8877122Y9030200D02*
X9143788Y9030200D01*
X8977122Y9263533D02*
X8977122Y8663533D01*
X9010455Y8596867D01*
X9077122Y8563533D01*
X9143788Y8563533D01*
X9643788Y8596867D02*
X9577122Y8563533D01*
X9443788Y8563533D01*
X9377122Y8596867D01*
X9343788Y8663533D01*
X9343788Y8930200D01*
X9377122Y8996867D01*
X9443788Y9030200D01*
X9577122Y9030200D01*
X9643788Y8996867D01*
X9677122Y8930200D01*
X9677122Y8863533D01*
X9343788Y8796867D01*
X9977122Y9030200D02*
X9977122Y8330200D01*
X9977122Y8996867D02*
X10043788Y9030200D01*
X10177122Y9030200D01*
X10243788Y8996867D01*
X10277122Y8963533D01*
X10310455Y8896867D01*
X10310455Y8696867D01*
X10277122Y8630200D01*
X10243788Y8596867D01*
X10177122Y8563533D01*
X10043788Y8563533D01*
X9977122Y8596867D01*
X10610455Y9030200D02*
X10610455Y8330200D01*
X10610455Y8996867D02*
X10677121Y9030200D01*
X10810455Y9030200D01*
X10877121Y8996867D01*
X10910455Y8963533D01*
X10943788Y8896867D01*
X10943788Y8696867D01*
X10910455Y8630200D01*
X10877121Y8596867D01*
X10810455Y8563533D01*
X10677121Y8563533D01*
X10610455Y8596867D01*
X11510454Y8596867D02*
X11443788Y8563533D01*
X11310454Y8563533D01*
X11243788Y8596867D01*
X11210454Y8663533D01*
X11210454Y8930200D01*
X11243788Y8996867D01*
X11310454Y9030200D01*
X11443788Y9030200D01*
X11510454Y8996867D01*
X11543788Y8930200D01*
X11543788Y8863533D01*
X11210454Y8796867D01*
X11843788Y8563533D02*
X11843788Y9030200D01*
X11843788Y8896867D02*
X11877121Y8963533D01*
X11910454Y8996867D01*
X11977121Y9030200D01*
X12043788Y9030200D01*
X13043787Y8930200D02*
X13143787Y8896867D01*
X13177120Y8863533D01*
X13210454Y8796867D01*
X13210454Y8696867D01*
X13177120Y8630200D01*
X13143787Y8596867D01*
X13077120Y8563533D01*
X12810454Y8563533D01*
X12810454Y9263533D01*
X13043787Y9263533D01*
X13110454Y9230200D01*
X13143787Y9196867D01*
X13177120Y9130200D01*
X13177120Y9063533D01*
X13143787Y8996867D01*
X13110454Y8963533D01*
X13043787Y8930200D01*
X12810454Y8930200D01*
X13610454Y8563533D02*
X13543787Y8596867D01*
X13510454Y8630200D01*
X13477120Y8696867D01*
X13477120Y8896867D01*
X13510454Y8963533D01*
X13543787Y8996867D01*
X13610454Y9030200D01*
X13710454Y9030200D01*
X13777120Y8996867D01*
X13810454Y8963533D01*
X13843787Y8896867D01*
X13843787Y8696867D01*
X13810454Y8630200D01*
X13777120Y8596867D01*
X13710454Y8563533D01*
X13610454Y8563533D01*
X14443787Y8563533D02*
X14443787Y8930200D01*
X14410453Y8996867D01*
X14343787Y9030200D01*
X14210453Y9030200D01*
X14143787Y8996867D01*
X14443787Y8596867D02*
X14377120Y8563533D01*
X14210453Y8563533D01*
X14143787Y8596867D01*
X14110453Y8663533D01*
X14110453Y8730200D01*
X14143787Y8796867D01*
X14210453Y8830200D01*
X14377120Y8830200D01*
X14443787Y8863533D01*
X14777120Y8563533D02*
X14777120Y9030200D01*
X14777120Y8896867D02*
X14810453Y8963533D01*
X14843786Y8996867D01*
X14910453Y9030200D01*
X14977120Y9030200D01*
X15510453Y8563533D02*
X15510453Y9263533D01*
X15510453Y8596867D02*
X15443786Y8563533D01*
X15310453Y8563533D01*
X15243786Y8596867D01*
X15210453Y8630200D01*
X15177119Y8696867D01*
X15177119Y8896867D01*
X15210453Y8963533D01*
X15243786Y8996867D01*
X15310453Y9030200D01*
X15443786Y9030200D01*
X15510453Y8996867D01*
X3443790Y7805200D02*
X3443790Y7238533D01*
X3410456Y7171867D01*
X3377123Y7138533D01*
X3310456Y7105200D01*
X3210456Y7105200D01*
X3143790Y7138533D01*
X3443790Y7371867D02*
X3377123Y7338533D01*
X3243790Y7338533D01*
X3177123Y7371867D01*
X3143790Y7405200D01*
X3110456Y7471867D01*
X3110456Y7671867D01*
X3143790Y7738533D01*
X3177123Y7771867D01*
X3243790Y7805200D01*
X3377123Y7805200D01*
X3443790Y7771867D01*
X3777123Y7338533D02*
X3777123Y7805200D01*
X3777123Y8038533D02*
X3743789Y8005200D01*
X3777123Y7971867D01*
X3810456Y8005200D01*
X3777123Y8038533D01*
X3777123Y7971867D01*
X4010456Y7805200D02*
X4277122Y7805200D01*
X4110456Y8038533D02*
X4110456Y7438533D01*
X4143789Y7371867D01*
X4210456Y7338533D01*
X4277122Y7338533D01*
X4510456Y7338533D02*
X4510456Y8038533D01*
X4810456Y7338533D02*
X4810456Y7705200D01*
X4777122Y7771867D01*
X4710456Y7805200D01*
X4610456Y7805200D01*
X4543789Y7771867D01*
X4510456Y7738533D01*
X5443789Y7805200D02*
X5443789Y7338533D01*
X5143789Y7805200D02*
X5143789Y7438533D01*
X5177122Y7371867D01*
X5243789Y7338533D01*
X5343789Y7338533D01*
X5410455Y7371867D01*
X5443789Y7405200D01*
X5777122Y7338533D02*
X5777122Y8038533D01*
X5777122Y7771867D02*
X5843788Y7805200D01*
X5977122Y7805200D01*
X6043788Y7771867D01*
X6077122Y7738533D01*
X6110455Y7671867D01*
X6110455Y7471867D01*
X6077122Y7405200D01*
X6043788Y7371867D01*
X5977122Y7338533D01*
X5843788Y7338533D01*
X5777122Y7371867D01*
X6410455Y7405200D02*
X6443788Y7371867D01*
X6410455Y7338533D01*
X6377121Y7371867D01*
X6410455Y7405200D01*
X6410455Y7338533D01*
X7043788Y7371867D02*
X6977121Y7338533D01*
X6843788Y7338533D01*
X6777121Y7371867D01*
X6743788Y7405200D01*
X6710454Y7471867D01*
X6710454Y7671867D01*
X6743788Y7738533D01*
X6777121Y7771867D01*
X6843788Y7805200D01*
X6977121Y7805200D01*
X7043788Y7771867D01*
X7443788Y7338533D02*
X7377121Y7371867D01*
X7343788Y7405200D01*
X7310454Y7471867D01*
X7310454Y7671867D01*
X7343788Y7738533D01*
X7377121Y7771867D01*
X7443788Y7805200D01*
X7543788Y7805200D01*
X7610454Y7771867D01*
X7643788Y7738533D01*
X7677121Y7671867D01*
X7677121Y7471867D01*
X7643788Y7405200D01*
X7610454Y7371867D01*
X7543788Y7338533D01*
X7443788Y7338533D01*
X7977121Y7338533D02*
X7977121Y7805200D01*
X7977121Y7738533D02*
X8010454Y7771867D01*
X8077121Y7805200D01*
X8177121Y7805200D01*
X8243787Y7771867D01*
X8277121Y7705200D01*
X8277121Y7338533D01*
X8277121Y7705200D02*
X8310454Y7771867D01*
X8377121Y7805200D01*
X8477121Y7805200D01*
X8543787Y7771867D01*
X8577121Y7705200D01*
X8577121Y7338533D01*
X9410454Y8071867D02*
X8810454Y7171867D01*
X9643787Y7705200D02*
X9877120Y7705200D01*
X9977120Y7338533D02*
X9643787Y7338533D01*
X9643787Y8038533D01*
X9977120Y8038533D01*
X10377120Y7338533D02*
X10310453Y7371867D01*
X10277120Y7438533D01*
X10277120Y8038533D01*
X10910453Y7371867D02*
X10843787Y7338533D01*
X10710453Y7338533D01*
X10643787Y7371867D01*
X10610453Y7438533D01*
X10610453Y7705200D01*
X10643787Y7771867D01*
X10710453Y7805200D01*
X10843787Y7805200D01*
X10910453Y7771867D01*
X10943787Y7705200D01*
X10943787Y7638533D01*
X10610453Y7571867D01*
X11243787Y7338533D02*
X11243787Y8038533D01*
X11310453Y7605200D02*
X11510453Y7338533D01*
X11510453Y7805200D02*
X11243787Y7538533D01*
X11710454Y7805200D02*
X11977120Y7805200D01*
X11810454Y8038533D02*
X11810454Y7438533D01*
X11843787Y7371867D01*
X11910454Y7338533D01*
X11977120Y7338533D01*
X12210454Y7338533D02*
X12210454Y7805200D01*
X12210454Y7671867D02*
X12243787Y7738533D01*
X12277120Y7771867D01*
X12343787Y7805200D01*
X12410454Y7805200D01*
X12743787Y7338533D02*
X12677120Y7371867D01*
X12643787Y7405200D01*
X12610453Y7471867D01*
X12610453Y7671867D01*
X12643787Y7738533D01*
X12677120Y7771867D01*
X12743787Y7805200D01*
X12843787Y7805200D01*
X12910453Y7771867D01*
X12943787Y7738533D01*
X12977120Y7671867D01*
X12977120Y7471867D01*
X12943787Y7405200D01*
X12910453Y7371867D01*
X12843787Y7338533D01*
X12743787Y7338533D01*
X13277120Y7805200D02*
X13277120Y7105200D01*
X13277120Y7771867D02*
X13343786Y7805200D01*
X13477120Y7805200D01*
X13543786Y7771867D01*
X13577120Y7738533D01*
X13610453Y7671867D01*
X13610453Y7471867D01*
X13577120Y7405200D01*
X13543786Y7371867D01*
X13477120Y7338533D01*
X13343786Y7338533D01*
X13277120Y7371867D01*
X13910453Y7338533D02*
X13910453Y7805200D01*
X13910453Y8038533D02*
X13877119Y8005200D01*
X13910453Y7971867D01*
X13943786Y8005200D01*
X13910453Y8038533D01*
X13910453Y7971867D01*
X14343786Y7338533D02*
X14277119Y7371867D01*
X14243786Y7405200D01*
X14210452Y7471867D01*
X14210452Y7671867D01*
X14243786Y7738533D01*
X14277119Y7771867D01*
X14343786Y7805200D01*
X14443786Y7805200D01*
X14510452Y7771867D01*
X14543786Y7738533D01*
X14577119Y7671867D01*
X14577119Y7471867D01*
X14543786Y7405200D01*
X14510452Y7371867D01*
X14443786Y7338533D01*
X14343786Y7338533D01*
X14877119Y7805200D02*
X14877119Y7338533D01*
X14877119Y7738533D02*
X14910452Y7771867D01*
X14977119Y7805200D01*
X15077119Y7805200D01*
X15143785Y7771867D01*
X15177119Y7705200D01*
X15177119Y7338533D01*
X15777118Y7371867D02*
X15710452Y7338533D01*
X15577118Y7338533D01*
X15510452Y7371867D01*
X15477118Y7438533D01*
X15477118Y7705200D01*
X15510452Y7771867D01*
X15577118Y7805200D01*
X15710452Y7805200D01*
X15777118Y7771867D01*
X15810452Y7705200D01*
X15810452Y7638533D01*
X15477118Y7571867D01*
X16377118Y7371867D02*
X16310452Y7338533D01*
X16177118Y7338533D01*
X16110452Y7371867D01*
X16077118Y7438533D01*
X16077118Y7705200D01*
X16110452Y7771867D01*
X16177118Y7805200D01*
X16310452Y7805200D01*
X16377118Y7771867D01*
X16410452Y7705200D01*
X16410452Y7638533D01*
X16077118Y7571867D01*
X16710452Y7338533D02*
X16710452Y7805200D01*
X16710452Y7671867D02*
X16743785Y7738533D01*
X16777118Y7771867D01*
X16843785Y7805200D01*
X16910452Y7805200D01*
D12*
X13898263Y27182819D02*
X13326834Y27182819D01*
X13612548Y27182819D02*
X13612548Y28182819D01*
X13517310Y28039962D01*
X13422072Y27944724D01*
X13326834Y27897105D01*
X14279215Y27468533D02*
X14755406Y27468533D01*
X14183977Y27182819D02*
X14517310Y28182819D01*
X14850644Y27182819D01*
X11286835Y27182819D02*
X10715406Y27182819D01*
X11001120Y27182819D02*
X11001120Y28182819D01*
X10905882Y28039962D01*
X10810644Y27944724D01*
X10715406Y27897105D01*
X12048740Y27706629D02*
X12191597Y27659010D01*
X12239216Y27611390D01*
X12286835Y27516152D01*
X12286835Y27373295D01*
X12239216Y27278057D01*
X12191597Y27230438D01*
X12096359Y27182819D01*
X11715406Y27182819D01*
X11715406Y28182819D01*
X12048740Y28182819D01*
X12143978Y28135200D01*
X12191597Y28087581D01*
X12239216Y27992343D01*
X12239216Y27897105D01*
X12191597Y27801867D01*
X12143978Y27754248D01*
X12048740Y27706629D01*
X11715406Y27706629D01*
X8246834Y28087581D02*
X8294453Y28135200D01*
X8389691Y28182819D01*
X8627787Y28182819D01*
X8723025Y28135200D01*
X8770644Y28087581D01*
X8818263Y27992343D01*
X8818263Y27897105D01*
X8770644Y27754248D01*
X8199215Y27182819D01*
X8818263Y27182819D01*
X9199215Y27468533D02*
X9675406Y27468533D01*
X9103977Y27182819D02*
X9437310Y28182819D01*
X9770644Y27182819D01*
X5635406Y28087581D02*
X5683025Y28135200D01*
X5778263Y28182819D01*
X6016359Y28182819D01*
X6111597Y28135200D01*
X6159216Y28087581D01*
X6206835Y27992343D01*
X6206835Y27897105D01*
X6159216Y27754248D01*
X5587787Y27182819D01*
X6206835Y27182819D01*
X6968740Y27706629D02*
X7111597Y27659010D01*
X7159216Y27611390D01*
X7206835Y27516152D01*
X7206835Y27373295D01*
X7159216Y27278057D01*
X7111597Y27230438D01*
X7016359Y27182819D01*
X6635406Y27182819D01*
X6635406Y28182819D01*
X6968740Y28182819D01*
X7063978Y28135200D01*
X7111597Y28087581D01*
X7159216Y27992343D01*
X7159216Y27897105D01*
X7111597Y27801867D01*
X7063978Y27754248D01*
X6968740Y27706629D01*
X6635406Y27706629D01*
X11437644Y4560819D02*
X10961453Y4560819D01*
X10913834Y4084629D01*
X10961453Y4132248D01*
X11056691Y4179867D01*
X11294787Y4179867D01*
X11390025Y4132248D01*
X11437644Y4084629D01*
X11485263Y3989390D01*
X11485263Y3751295D01*
X11437644Y3656057D01*
X11390025Y3608438D01*
X11294787Y3560819D01*
X11056691Y3560819D01*
X10961453Y3608438D01*
X10913834Y3656057D01*
X11770977Y4560819D02*
X12104310Y3560819D01*
X12437644Y4560819D01*
X9286549Y4084629D02*
X9429406Y4037010D01*
X9477025Y3989390D01*
X9524644Y3894152D01*
X9524644Y3751295D01*
X9477025Y3656057D01*
X9429406Y3608438D01*
X9334168Y3560819D01*
X8953215Y3560819D01*
X8953215Y4560819D01*
X9286549Y4560819D01*
X9381787Y4513200D01*
X9429406Y4465581D01*
X9477025Y4370343D01*
X9477025Y4275105D01*
X9429406Y4179867D01*
X9381787Y4132248D01*
X9286549Y4084629D01*
X8953215Y4084629D01*
X6437025Y3846533D02*
X6913216Y3846533D01*
X6341787Y3560819D02*
X6675120Y4560819D01*
X7008454Y3560819D01*
X3373216Y4513200D02*
X3277978Y4560819D01*
X3135121Y4560819D01*
X2992263Y4513200D01*
X2897025Y4417962D01*
X2849406Y4322724D01*
X2801787Y4132248D01*
X2801787Y3989390D01*
X2849406Y3798914D01*
X2897025Y3703676D01*
X2992263Y3608438D01*
X3135121Y3560819D01*
X3230359Y3560819D01*
X3373216Y3608438D01*
X3420835Y3656057D01*
X3420835Y3989390D01*
X3230359Y3989390D01*
X3849406Y3560819D02*
X3849406Y4560819D01*
X4420835Y3560819D01*
X4420835Y4560819D01*
X4897025Y3560819D02*
X4897025Y4560819D01*
X5135120Y4560819D01*
X5277978Y4513200D01*
X5373216Y4417962D01*
X5420835Y4322724D01*
X5468454Y4132248D01*
X5468454Y3989390D01*
X5420835Y3798914D01*
X5373216Y3703676D01*
X5277978Y3608438D01*
X5135120Y3560819D01*
X4897025Y3560819D01*
D13*
X2484120Y76200D02*
X2484120Y203200D01*
X13279120Y76200D02*
X2484120Y76200D01*
X13279120Y5029200D02*
X13279120Y76200D01*
X2484120Y5029200D02*
X13279120Y5029200D01*
X2484120Y203200D02*
X2484120Y5029200D01*
D14*
X20521120Y14046200D02*
X-58880Y14046200D01*
X17851120Y24206200D02*
X-58880Y24206200D01*
X20521120Y25476200D02*
X20521120Y26876200D01*
X20521120Y26876200D02*
X19121120Y26876200D01*
X20521120Y24206200D02*
X17851120Y24206200D01*
X17851120Y24206200D02*
X17851120Y26876200D01*
X17851120Y26876200D02*
X-58880Y26876200D01*
X-58880Y26876200D02*
X-58880Y11376200D01*
X-58880Y11376200D02*
X20521120Y11376200D01*
X20521120Y11376200D02*
X20521120Y24206200D01*
X7059120Y18361200D02*
X7059120Y19911200D01*
X7059120Y23701200D02*
X7059120Y22151200D01*
X1719120Y22941200D02*
X1719120Y22151200D01*
X1719120Y19121200D02*
X1719120Y19911200D01*
X7059120Y23701200D02*
X2479120Y23701200D01*
X2479120Y23701200D02*
X1719120Y22941200D01*
X1719120Y19121200D02*
X2479120Y18361200D01*
X2479120Y18361200D02*
X7059120Y18361200D01*
X16691120Y28552200D02*
X16691120Y32652200D01*
X16691120Y32652200D02*
X3891120Y32652200D01*
X3891120Y32652200D02*
X3891120Y28552200D01*
X3891120Y28552200D02*
X16691120Y28552200D01*
X16691120Y30302200D02*
X16191120Y30302200D01*
X16191120Y30302200D02*
X16191120Y29052200D01*
X16191120Y29052200D02*
X4391120Y29052200D01*
X4391120Y29052200D02*
X4391120Y30302200D01*
X4391120Y30302200D02*
X3891120Y30302200D01*
X16691120Y31152200D02*
X15691120Y31152200D01*
X15691120Y31152200D02*
X15691120Y32652200D01*
X3891120Y31152200D02*
X4891120Y31152200D01*
X4891120Y31152200D02*
X4891120Y32652200D01*
X16991120Y30452200D02*
X16991120Y32952200D01*
X16991120Y32952200D02*
X14491120Y32952200D01*
X10485120Y2990200D02*
X2745120Y2990200D01*
X2745120Y2990200D02*
X2745120Y210200D01*
X2745120Y210200D02*
X10485120Y210200D01*
X10485120Y210200D02*
X10485120Y2990200D01*
X11755120Y2990200D02*
X13145120Y2990200D01*
X13145120Y2990200D02*
X13145120Y1600200D01*
X8458120Y16079200D02*
X4638120Y16079200D01*
X4638120Y16079200D02*
X4638120Y14299200D01*
X4638120Y14299200D02*
X8458120Y14299200D01*
X8458120Y16079200D02*
X8458120Y14299200D01*
D15*
G36*
X13895472Y24249392D02*
X13973142Y24248982D01*
X14040558Y24248320D01*
X14092911Y24247407D01*
X14125391Y24246243D01*
X14133799Y24245225D01*
X14140195Y24231698D01*
X14156438Y24195168D01*
X14181248Y24138572D01*
X14213347Y24064844D01*
X14251458Y23976921D01*
X14294302Y23877736D01*
X14338342Y23775477D01*
X14384510Y23668271D01*
X14427159Y23569506D01*
X14465012Y23482121D01*
X14496791Y23409057D01*
X14521216Y23353251D01*
X14537010Y23317644D01*
X14542857Y23305203D01*
X14557571Y23300084D01*
X14593738Y23290230D01*
X14645313Y23277236D01*
X14685765Y23267499D01*
X14765641Y23247280D01*
X14856034Y23222370D01*
X14940779Y23197272D01*
X14962791Y23190345D01*
X15101295Y23145952D01*
X15508700Y23451274D01*
X15615933Y23531494D01*
X15703004Y23596177D01*
X15772234Y23646844D01*
X15825941Y23685019D01*
X15866446Y23712226D01*
X15896068Y23729989D01*
X15917127Y23739831D01*
X15931942Y23743275D01*
X15942832Y23741845D01*
X15947771Y23739650D01*
X15969100Y23727528D01*
X16010543Y23703375D01*
X16067976Y23669615D01*
X16137277Y23628674D01*
X16214323Y23582979D01*
X16236651Y23569705D01*
X16493866Y23416706D01*
X16487537Y23363425D01*
X16484590Y23336706D01*
X16479174Y23285691D01*
X16471683Y23214162D01*
X16462508Y23125900D01*
X16452046Y23024685D01*
X16440688Y22914298D01*
X16433552Y22844702D01*
X16385895Y22379260D01*
X16552655Y22209702D01*
X16611502Y22149642D01*
X16666377Y22093219D01*
X16712914Y22044954D01*
X16746746Y22009370D01*
X16759629Y21995433D01*
X16799842Y21950721D01*
X17298724Y22006903D01*
X17414023Y22019757D01*
X17520100Y22031334D01*
X17613780Y22041304D01*
X17691886Y22049341D01*
X17751245Y22055118D01*
X17788680Y22058308D01*
X17801033Y22058670D01*
X17808580Y22045632D01*
X17827929Y22011393D01*
X17857145Y21959405D01*
X17894288Y21893117D01*
X17937424Y21815981D01*
X17968169Y21760922D01*
X18131877Y21467589D01*
X17881317Y21111811D01*
X17816639Y21019905D01*
X17755119Y20932359D01*
X17699223Y20852691D01*
X17651415Y20784417D01*
X17614159Y20731055D01*
X17589920Y20696121D01*
X17585339Y20689443D01*
X17539922Y20622853D01*
X17578059Y20491887D01*
X17598008Y20419928D01*
X17620416Y20333696D01*
X17641872Y20246522D01*
X17652519Y20200859D01*
X17688842Y20040796D01*
X18613120Y19616066D01*
X18613120Y18932780D01*
X18150981Y18720102D01*
X17688842Y18507425D01*
X17652519Y18347618D01*
X17633153Y18266021D01*
X17610858Y18177622D01*
X17589054Y18095781D01*
X17578059Y18056846D01*
X17539922Y17925880D01*
X17585339Y17859290D01*
X17604922Y17830954D01*
X17638305Y17783071D01*
X17683025Y17719158D01*
X17736616Y17642732D01*
X17796614Y17557310D01*
X17860555Y17466409D01*
X17881317Y17436922D01*
X18131877Y17081144D01*
X17968169Y16787811D01*
X17922147Y16705417D01*
X17880842Y16631600D01*
X17846192Y16569810D01*
X17820133Y16523499D01*
X17804601Y16496115D01*
X17801059Y16490088D01*
X17786757Y16490592D01*
X17747592Y16493976D01*
X17686737Y16499915D01*
X17607369Y16508082D01*
X17512661Y16518151D01*
X17405789Y16529796D01*
X17298749Y16541700D01*
X16799842Y16597700D01*
X16759629Y16553145D01*
X16736119Y16527999D01*
X16697136Y16487299D01*
X16647045Y16435563D01*
X16590214Y16377309D01*
X16552655Y16339031D01*
X16385895Y16169474D01*
X16433552Y15704031D01*
X16445260Y15589934D01*
X16456311Y15482722D01*
X16466312Y15386177D01*
X16474868Y15304078D01*
X16481586Y15240209D01*
X16486073Y15198348D01*
X16487537Y15185308D01*
X16493866Y15132027D01*
X16236651Y14979029D01*
X16158180Y14932439D01*
X16086302Y14889927D01*
X16025141Y14853919D01*
X15978820Y14826840D01*
X15951463Y14811116D01*
X15947771Y14809084D01*
X15938014Y14805700D01*
X15925554Y14806389D01*
X15908070Y14812674D01*
X15883243Y14826079D01*
X15848754Y14848127D01*
X15802283Y14880341D01*
X15741511Y14924245D01*
X15664117Y14981362D01*
X15567783Y15053216D01*
X15508700Y15097459D01*
X15101295Y15402781D01*
X14962791Y15358389D01*
X14882921Y15334117D01*
X14792529Y15308676D01*
X14707779Y15286568D01*
X14685765Y15281234D01*
X14627218Y15267023D01*
X14580000Y15254876D01*
X14550159Y15246387D01*
X14542888Y15243530D01*
X14536507Y15229878D01*
X14520283Y15193227D01*
X14495494Y15136519D01*
X14463419Y15062696D01*
X14425335Y14974697D01*
X14382520Y14875463D01*
X14338664Y14773547D01*
X14292534Y14666381D01*
X14249906Y14567670D01*
X14212059Y14480354D01*
X14180275Y14407372D01*
X14155831Y14351662D01*
X14140008Y14316163D01*
X14134129Y14303838D01*
X14118773Y14301892D01*
X14080056Y14300181D01*
X14022840Y14298731D01*
X13951985Y14297564D01*
X13872352Y14296707D01*
X13788801Y14296183D01*
X13706194Y14296017D01*
X13629391Y14296235D01*
X13563253Y14296860D01*
X13512641Y14297917D01*
X13482416Y14299431D01*
X13476179Y14300505D01*
X13468043Y14314742D01*
X13450178Y14351980D01*
X13423914Y14409255D01*
X13390582Y14483600D01*
X13351511Y14572053D01*
X13308030Y14671647D01*
X13264133Y14773227D01*
X13217964Y14880436D01*
X13175313Y14979205D01*
X13137458Y15066593D01*
X13105678Y15139662D01*
X13081251Y15195472D01*
X13065454Y15231083D01*
X13059605Y15243530D01*
X13044892Y15248649D01*
X13008724Y15258503D01*
X12957150Y15271497D01*
X12916697Y15281234D01*
X12836821Y15301453D01*
X12746428Y15326363D01*
X12661683Y15351461D01*
X12639672Y15358389D01*
X12501168Y15402781D01*
X12093762Y15097459D01*
X11986530Y15017239D01*
X11899458Y14952557D01*
X11830229Y14901890D01*
X11776521Y14863714D01*
X11736016Y14836507D01*
X11706394Y14818744D01*
X11685336Y14808902D01*
X11670521Y14805458D01*
X11659631Y14806889D01*
X11654691Y14809084D01*
X11633363Y14821205D01*
X11591920Y14845358D01*
X11534486Y14879118D01*
X11465185Y14920059D01*
X11388140Y14965754D01*
X11365812Y14979029D01*
X11108597Y15132027D01*
X11114925Y15185308D01*
X11117872Y15212027D01*
X11123288Y15263042D01*
X11130780Y15334571D01*
X11139954Y15422834D01*
X11150417Y15524048D01*
X11161775Y15634435D01*
X11168911Y15704031D01*
X11216568Y16169474D01*
X11049807Y16339031D01*
X10990961Y16399092D01*
X10936085Y16455515D01*
X10889548Y16503779D01*
X10855717Y16539363D01*
X10842833Y16553301D01*
X10802620Y16598012D01*
X10303739Y16541830D01*
X10188439Y16528976D01*
X10082362Y16517400D01*
X9988683Y16507429D01*
X9910576Y16499392D01*
X9851218Y16493615D01*
X9813783Y16490425D01*
X9801429Y16490063D01*
X9793883Y16503101D01*
X9774533Y16537340D01*
X9745318Y16589328D01*
X9708174Y16655616D01*
X9665039Y16732752D01*
X9634294Y16787811D01*
X9470586Y17081144D01*
X9721146Y17436922D01*
X9785824Y17528828D01*
X9847343Y17616374D01*
X9903239Y17696042D01*
X9951047Y17764316D01*
X9988303Y17817678D01*
X10012542Y17852612D01*
X10017124Y17859290D01*
X10062541Y17925880D01*
X10024404Y18056846D01*
X10004455Y18128805D01*
X9982047Y18215037D01*
X9960591Y18302212D01*
X9949943Y18347874D01*
X9913620Y18507937D01*
X8989342Y18932667D01*
X8989342Y19274367D01*
X10979009Y19274367D01*
X10983573Y19072920D01*
X10998197Y18889487D01*
X11024275Y18715221D01*
X11063205Y18541277D01*
X11116380Y18358808D01*
X11130121Y18316667D01*
X11232878Y18050514D01*
X11359910Y17797137D01*
X11509923Y17558244D01*
X11681624Y17335545D01*
X11873722Y17130746D01*
X12084922Y16945557D01*
X12270176Y16810387D01*
X12368347Y16749496D01*
X12484397Y16685249D01*
X12609899Y16621759D01*
X12736426Y16563138D01*
X12855549Y16513499D01*
X12943318Y16481886D01*
X13076703Y16442698D01*
X13221085Y16407545D01*
X13364032Y16379195D01*
X13485201Y16361310D01*
X13566283Y16354613D01*
X13666582Y16350422D01*
X13777206Y16348739D01*
X13889263Y16349568D01*
X13993858Y16352912D01*
X14082100Y16358775D01*
X14104517Y16361079D01*
X14361163Y16402271D01*
X14607478Y16466577D01*
X14849342Y16555734D01*
X15007731Y16628220D01*
X15178371Y16717845D01*
X15331405Y16811333D01*
X15477296Y16915520D01*
X15603036Y17017203D01*
X15806115Y17207612D01*
X15989237Y17417087D01*
X16151448Y17643828D01*
X16291794Y17886033D01*
X16409320Y18141903D01*
X16503071Y18409637D01*
X16572092Y18687434D01*
X16608673Y18914163D01*
X16613789Y18970508D01*
X16618138Y19046911D01*
X16621384Y19135212D01*
X16623192Y19227248D01*
X16623454Y19274367D01*
X16618889Y19475813D01*
X16604266Y19659246D01*
X16578187Y19833512D01*
X16539258Y20007456D01*
X16486082Y20189925D01*
X16472341Y20232066D01*
X16369584Y20498219D01*
X16242553Y20751596D01*
X16092540Y20990489D01*
X15920838Y21213189D01*
X15728741Y21417987D01*
X15517541Y21603176D01*
X15332287Y21738346D01*
X15234612Y21798942D01*
X15119112Y21862925D01*
X14994173Y21926200D01*
X14868180Y21984674D01*
X14749521Y22034251D01*
X14660091Y22066533D01*
X14390811Y22139526D01*
X14117428Y22184945D01*
X13841852Y22202789D01*
X13565996Y22193060D01*
X13291769Y22155756D01*
X13021082Y22090879D01*
X12942371Y22066533D01*
X12836655Y22027827D01*
X12716425Y21976719D01*
X12590068Y21917304D01*
X12465970Y21853675D01*
X12352516Y21789927D01*
X12270176Y21738346D01*
X12044371Y21570392D01*
X11836616Y21381438D01*
X11648204Y21173190D01*
X11480426Y20947359D01*
X11334577Y20705651D01*
X11211950Y20449776D01*
X11130121Y20232066D01*
X11073626Y20046536D01*
X11031684Y19871476D01*
X11002900Y19698040D01*
X10985877Y19517381D01*
X10979221Y19320654D01*
X10979009Y19274367D01*
X8989342Y19274367D01*
X8989342Y19616066D01*
X9913620Y20040796D01*
X9949943Y20200859D01*
X9969290Y20282485D01*
X9991562Y20370888D01*
X10013351Y20452735D01*
X10024404Y20491887D01*
X10062541Y20622853D01*
X10017124Y20689443D01*
X9997541Y20717779D01*
X9964157Y20765662D01*
X9919438Y20829575D01*
X9865847Y20906001D01*
X9805848Y20991423D01*
X9741908Y21082324D01*
X9721146Y21111811D01*
X9470586Y21467589D01*
X9634294Y21760922D01*
X9680317Y21843318D01*
X9721625Y21917139D01*
X9756280Y21978933D01*
X9782345Y22025250D01*
X9797883Y22052640D01*
X9801429Y22058670D01*
X9815736Y22058168D01*
X9854905Y22054775D01*
X9915763Y22048819D01*
X9995133Y22040627D01*
X10089840Y22030526D01*
X10196710Y22018844D01*
X10303739Y22006903D01*
X10802620Y21950721D01*
X10842833Y21995433D01*
X10866345Y22020633D01*
X10905332Y22061381D01*
X10955427Y22113155D01*
X11012262Y22171434D01*
X11049807Y22209702D01*
X11216568Y22379260D01*
X11168911Y22844702D01*
X11157202Y22958799D01*
X11146151Y23066011D01*
X11136151Y23162557D01*
X11127595Y23244655D01*
X11120877Y23308525D01*
X11116390Y23350385D01*
X11114925Y23363425D01*
X11108597Y23416706D01*
X11365812Y23569705D01*
X11444283Y23616294D01*
X11516160Y23658806D01*
X11577321Y23694814D01*
X11623642Y23721893D01*
X11651000Y23737617D01*
X11654691Y23739650D01*
X11664448Y23743033D01*
X11676909Y23742344D01*
X11694393Y23736059D01*
X11719219Y23722654D01*
X11753708Y23700607D01*
X11800179Y23668392D01*
X11860952Y23624488D01*
X11938346Y23567371D01*
X12034680Y23495517D01*
X12093762Y23451274D01*
X12501168Y23145952D01*
X12639672Y23190345D01*
X12719541Y23214616D01*
X12809934Y23240057D01*
X12894683Y23262165D01*
X12916697Y23267499D01*
X12975249Y23281710D01*
X13022475Y23293858D01*
X13052327Y23302347D01*
X13059605Y23305203D01*
X13065996Y23318854D01*
X13082236Y23355502D01*
X13107045Y23412207D01*
X13139146Y23486030D01*
X13177260Y23574031D01*
X13220108Y23673270D01*
X13264120Y23775477D01*
X13310284Y23882658D01*
X13352932Y23981374D01*
X13390786Y24068690D01*
X13422568Y24141671D01*
X13447000Y24197380D01*
X13462804Y24232884D01*
X13468664Y24245225D01*
X13483448Y24246574D01*
X13521644Y24247673D01*
X13578442Y24248519D01*
X13649033Y24249115D01*
X13728608Y24249458D01*
X13812358Y24249551D01*
X13895472Y24249392D01*
X13895472Y24249392D01*
G37*
X13895472Y24249392D02*
X13973142Y24248982D01*
X14040558Y24248320D01*
X14092911Y24247407D01*
X14125391Y24246243D01*
X14133799Y24245225D01*
X14140195Y24231698D01*
X14156438Y24195168D01*
X14181248Y24138572D01*
X14213347Y24064844D01*
X14251458Y23976921D01*
X14294302Y23877736D01*
X14338342Y23775477D01*
X14384510Y23668271D01*
X14427159Y23569506D01*
X14465012Y23482121D01*
X14496791Y23409057D01*
X14521216Y23353251D01*
X14537010Y23317644D01*
X14542857Y23305203D01*
X14557571Y23300084D01*
X14593738Y23290230D01*
X14645313Y23277236D01*
X14685765Y23267499D01*
X14765641Y23247280D01*
X14856034Y23222370D01*
X14940779Y23197272D01*
X14962791Y23190345D01*
X15101295Y23145952D01*
X15508700Y23451274D01*
X15615933Y23531494D01*
X15703004Y23596177D01*
X15772234Y23646844D01*
X15825941Y23685019D01*
X15866446Y23712226D01*
X15896068Y23729989D01*
X15917127Y23739831D01*
X15931942Y23743275D01*
X15942832Y23741845D01*
X15947771Y23739650D01*
X15969100Y23727528D01*
X16010543Y23703375D01*
X16067976Y23669615D01*
X16137277Y23628674D01*
X16214323Y23582979D01*
X16236651Y23569705D01*
X16493866Y23416706D01*
X16487537Y23363425D01*
X16484590Y23336706D01*
X16479174Y23285691D01*
X16471683Y23214162D01*
X16462508Y23125900D01*
X16452046Y23024685D01*
X16440688Y22914298D01*
X16433552Y22844702D01*
X16385895Y22379260D01*
X16552655Y22209702D01*
X16611502Y22149642D01*
X16666377Y22093219D01*
X16712914Y22044954D01*
X16746746Y22009370D01*
X16759629Y21995433D01*
X16799842Y21950721D01*
X17298724Y22006903D01*
X17414023Y22019757D01*
X17520100Y22031334D01*
X17613780Y22041304D01*
X17691886Y22049341D01*
X17751245Y22055118D01*
X17788680Y22058308D01*
X17801033Y22058670D01*
X17808580Y22045632D01*
X17827929Y22011393D01*
X17857145Y21959405D01*
X17894288Y21893117D01*
X17937424Y21815981D01*
X17968169Y21760922D01*
X18131877Y21467589D01*
X17881317Y21111811D01*
X17816639Y21019905D01*
X17755119Y20932359D01*
X17699223Y20852691D01*
X17651415Y20784417D01*
X17614159Y20731055D01*
X17589920Y20696121D01*
X17585339Y20689443D01*
X17539922Y20622853D01*
X17578059Y20491887D01*
X17598008Y20419928D01*
X17620416Y20333696D01*
X17641872Y20246522D01*
X17652519Y20200859D01*
X17688842Y20040796D01*
X18613120Y19616066D01*
X18613120Y18932780D01*
X18150981Y18720102D01*
X17688842Y18507425D01*
X17652519Y18347618D01*
X17633153Y18266021D01*
X17610858Y18177622D01*
X17589054Y18095781D01*
X17578059Y18056846D01*
X17539922Y17925880D01*
X17585339Y17859290D01*
X17604922Y17830954D01*
X17638305Y17783071D01*
X17683025Y17719158D01*
X17736616Y17642732D01*
X17796614Y17557310D01*
X17860555Y17466409D01*
X17881317Y17436922D01*
X18131877Y17081144D01*
X17968169Y16787811D01*
X17922147Y16705417D01*
X17880842Y16631600D01*
X17846192Y16569810D01*
X17820133Y16523499D01*
X17804601Y16496115D01*
X17801059Y16490088D01*
X17786757Y16490592D01*
X17747592Y16493976D01*
X17686737Y16499915D01*
X17607369Y16508082D01*
X17512661Y16518151D01*
X17405789Y16529796D01*
X17298749Y16541700D01*
X16799842Y16597700D01*
X16759629Y16553145D01*
X16736119Y16527999D01*
X16697136Y16487299D01*
X16647045Y16435563D01*
X16590214Y16377309D01*
X16552655Y16339031D01*
X16385895Y16169474D01*
X16433552Y15704031D01*
X16445260Y15589934D01*
X16456311Y15482722D01*
X16466312Y15386177D01*
X16474868Y15304078D01*
X16481586Y15240209D01*
X16486073Y15198348D01*
X16487537Y15185308D01*
X16493866Y15132027D01*
X16236651Y14979029D01*
X16158180Y14932439D01*
X16086302Y14889927D01*
X16025141Y14853919D01*
X15978820Y14826840D01*
X15951463Y14811116D01*
X15947771Y14809084D01*
X15938014Y14805700D01*
X15925554Y14806389D01*
X15908070Y14812674D01*
X15883243Y14826079D01*
X15848754Y14848127D01*
X15802283Y14880341D01*
X15741511Y14924245D01*
X15664117Y14981362D01*
X15567783Y15053216D01*
X15508700Y15097459D01*
X15101295Y15402781D01*
X14962791Y15358389D01*
X14882921Y15334117D01*
X14792529Y15308676D01*
X14707779Y15286568D01*
X14685765Y15281234D01*
X14627218Y15267023D01*
X14580000Y15254876D01*
X14550159Y15246387D01*
X14542888Y15243530D01*
X14536507Y15229878D01*
X14520283Y15193227D01*
X14495494Y15136519D01*
X14463419Y15062696D01*
X14425335Y14974697D01*
X14382520Y14875463D01*
X14338664Y14773547D01*
X14292534Y14666381D01*
X14249906Y14567670D01*
X14212059Y14480354D01*
X14180275Y14407372D01*
X14155831Y14351662D01*
X14140008Y14316163D01*
X14134129Y14303838D01*
X14118773Y14301892D01*
X14080056Y14300181D01*
X14022840Y14298731D01*
X13951985Y14297564D01*
X13872352Y14296707D01*
X13788801Y14296183D01*
X13706194Y14296017D01*
X13629391Y14296235D01*
X13563253Y14296860D01*
X13512641Y14297917D01*
X13482416Y14299431D01*
X13476179Y14300505D01*
X13468043Y14314742D01*
X13450178Y14351980D01*
X13423914Y14409255D01*
X13390582Y14483600D01*
X13351511Y14572053D01*
X13308030Y14671647D01*
X13264133Y14773227D01*
X13217964Y14880436D01*
X13175313Y14979205D01*
X13137458Y15066593D01*
X13105678Y15139662D01*
X13081251Y15195472D01*
X13065454Y15231083D01*
X13059605Y15243530D01*
X13044892Y15248649D01*
X13008724Y15258503D01*
X12957150Y15271497D01*
X12916697Y15281234D01*
X12836821Y15301453D01*
X12746428Y15326363D01*
X12661683Y15351461D01*
X12639672Y15358389D01*
X12501168Y15402781D01*
X12093762Y15097459D01*
X11986530Y15017239D01*
X11899458Y14952557D01*
X11830229Y14901890D01*
X11776521Y14863714D01*
X11736016Y14836507D01*
X11706394Y14818744D01*
X11685336Y14808902D01*
X11670521Y14805458D01*
X11659631Y14806889D01*
X11654691Y14809084D01*
X11633363Y14821205D01*
X11591920Y14845358D01*
X11534486Y14879118D01*
X11465185Y14920059D01*
X11388140Y14965754D01*
X11365812Y14979029D01*
X11108597Y15132027D01*
X11114925Y15185308D01*
X11117872Y15212027D01*
X11123288Y15263042D01*
X11130780Y15334571D01*
X11139954Y15422834D01*
X11150417Y15524048D01*
X11161775Y15634435D01*
X11168911Y15704031D01*
X11216568Y16169474D01*
X11049807Y16339031D01*
X10990961Y16399092D01*
X10936085Y16455515D01*
X10889548Y16503779D01*
X10855717Y16539363D01*
X10842833Y16553301D01*
X10802620Y16598012D01*
X10303739Y16541830D01*
X10188439Y16528976D01*
X10082362Y16517400D01*
X9988683Y16507429D01*
X9910576Y16499392D01*
X9851218Y16493615D01*
X9813783Y16490425D01*
X9801429Y16490063D01*
X9793883Y16503101D01*
X9774533Y16537340D01*
X9745318Y16589328D01*
X9708174Y16655616D01*
X9665039Y16732752D01*
X9634294Y16787811D01*
X9470586Y17081144D01*
X9721146Y17436922D01*
X9785824Y17528828D01*
X9847343Y17616374D01*
X9903239Y17696042D01*
X9951047Y17764316D01*
X9988303Y17817678D01*
X10012542Y17852612D01*
X10017124Y17859290D01*
X10062541Y17925880D01*
X10024404Y18056846D01*
X10004455Y18128805D01*
X9982047Y18215037D01*
X9960591Y18302212D01*
X9949943Y18347874D01*
X9913620Y18507937D01*
X8989342Y18932667D01*
X8989342Y19274367D01*
X10979009Y19274367D01*
X10983573Y19072920D01*
X10998197Y18889487D01*
X11024275Y18715221D01*
X11063205Y18541277D01*
X11116380Y18358808D01*
X11130121Y18316667D01*
X11232878Y18050514D01*
X11359910Y17797137D01*
X11509923Y17558244D01*
X11681624Y17335545D01*
X11873722Y17130746D01*
X12084922Y16945557D01*
X12270176Y16810387D01*
X12368347Y16749496D01*
X12484397Y16685249D01*
X12609899Y16621759D01*
X12736426Y16563138D01*
X12855549Y16513499D01*
X12943318Y16481886D01*
X13076703Y16442698D01*
X13221085Y16407545D01*
X13364032Y16379195D01*
X13485201Y16361310D01*
X13566283Y16354613D01*
X13666582Y16350422D01*
X13777206Y16348739D01*
X13889263Y16349568D01*
X13993858Y16352912D01*
X14082100Y16358775D01*
X14104517Y16361079D01*
X14361163Y16402271D01*
X14607478Y16466577D01*
X14849342Y16555734D01*
X15007731Y16628220D01*
X15178371Y16717845D01*
X15331405Y16811333D01*
X15477296Y16915520D01*
X15603036Y17017203D01*
X15806115Y17207612D01*
X15989237Y17417087D01*
X16151448Y17643828D01*
X16291794Y17886033D01*
X16409320Y18141903D01*
X16503071Y18409637D01*
X16572092Y18687434D01*
X16608673Y18914163D01*
X16613789Y18970508D01*
X16618138Y19046911D01*
X16621384Y19135212D01*
X16623192Y19227248D01*
X16623454Y19274367D01*
X16618889Y19475813D01*
X16604266Y19659246D01*
X16578187Y19833512D01*
X16539258Y20007456D01*
X16486082Y20189925D01*
X16472341Y20232066D01*
X16369584Y20498219D01*
X16242553Y20751596D01*
X16092540Y20990489D01*
X15920838Y21213189D01*
X15728741Y21417987D01*
X15517541Y21603176D01*
X15332287Y21738346D01*
X15234612Y21798942D01*
X15119112Y21862925D01*
X14994173Y21926200D01*
X14868180Y21984674D01*
X14749521Y22034251D01*
X14660091Y22066533D01*
X14390811Y22139526D01*
X14117428Y22184945D01*
X13841852Y22202789D01*
X13565996Y22193060D01*
X13291769Y22155756D01*
X13021082Y22090879D01*
X12942371Y22066533D01*
X12836655Y22027827D01*
X12716425Y21976719D01*
X12590068Y21917304D01*
X12465970Y21853675D01*
X12352516Y21789927D01*
X12270176Y21738346D01*
X12044371Y21570392D01*
X11836616Y21381438D01*
X11648204Y21173190D01*
X11480426Y20947359D01*
X11334577Y20705651D01*
X11211950Y20449776D01*
X11130121Y20232066D01*
X11073626Y20046536D01*
X11031684Y19871476D01*
X11002900Y19698040D01*
X10985877Y19517381D01*
X10979221Y19320654D01*
X10979009Y19274367D01*
X8989342Y19274367D01*
X8989342Y19616066D01*
X9913620Y20040796D01*
X9949943Y20200859D01*
X9969290Y20282485D01*
X9991562Y20370888D01*
X10013351Y20452735D01*
X10024404Y20491887D01*
X10062541Y20622853D01*
X10017124Y20689443D01*
X9997541Y20717779D01*
X9964157Y20765662D01*
X9919438Y20829575D01*
X9865847Y20906001D01*
X9805848Y20991423D01*
X9741908Y21082324D01*
X9721146Y21111811D01*
X9470586Y21467589D01*
X9634294Y21760922D01*
X9680317Y21843318D01*
X9721625Y21917139D01*
X9756280Y21978933D01*
X9782345Y22025250D01*
X9797883Y22052640D01*
X9801429Y22058670D01*
X9815736Y22058168D01*
X9854905Y22054775D01*
X9915763Y22048819D01*
X9995133Y22040627D01*
X10089840Y22030526D01*
X10196710Y22018844D01*
X10303739Y22006903D01*
X10802620Y21950721D01*
X10842833Y21995433D01*
X10866345Y22020633D01*
X10905332Y22061381D01*
X10955427Y22113155D01*
X11012262Y22171434D01*
X11049807Y22209702D01*
X11216568Y22379260D01*
X11168911Y22844702D01*
X11157202Y22958799D01*
X11146151Y23066011D01*
X11136151Y23162557D01*
X11127595Y23244655D01*
X11120877Y23308525D01*
X11116390Y23350385D01*
X11114925Y23363425D01*
X11108597Y23416706D01*
X11365812Y23569705D01*
X11444283Y23616294D01*
X11516160Y23658806D01*
X11577321Y23694814D01*
X11623642Y23721893D01*
X11651000Y23737617D01*
X11654691Y23739650D01*
X11664448Y23743033D01*
X11676909Y23742344D01*
X11694393Y23736059D01*
X11719219Y23722654D01*
X11753708Y23700607D01*
X11800179Y23668392D01*
X11860952Y23624488D01*
X11938346Y23567371D01*
X12034680Y23495517D01*
X12093762Y23451274D01*
X12501168Y23145952D01*
X12639672Y23190345D01*
X12719541Y23214616D01*
X12809934Y23240057D01*
X12894683Y23262165D01*
X12916697Y23267499D01*
X12975249Y23281710D01*
X13022475Y23293858D01*
X13052327Y23302347D01*
X13059605Y23305203D01*
X13065996Y23318854D01*
X13082236Y23355502D01*
X13107045Y23412207D01*
X13139146Y23486030D01*
X13177260Y23574031D01*
X13220108Y23673270D01*
X13264120Y23775477D01*
X13310284Y23882658D01*
X13352932Y23981374D01*
X13390786Y24068690D01*
X13422568Y24141671D01*
X13447000Y24197380D01*
X13462804Y24232884D01*
X13468664Y24245225D01*
X13483448Y24246574D01*
X13521644Y24247673D01*
X13578442Y24248519D01*
X13649033Y24249115D01*
X13728608Y24249458D01*
X13812358Y24249551D01*
X13895472Y24249392D01*
G36*
X12524628Y15349352D02*
X12543847Y15338316D01*
X12535634Y15331630D01*
X12516287Y15330311D01*
X12496613Y15335521D01*
X12495573Y15343806D01*
X12513930Y15351493D01*
X12524628Y15349352D01*
X12524628Y15349352D01*
G37*
X12524628Y15349352D02*
X12543847Y15338316D01*
X12535634Y15331630D01*
X12516287Y15330311D01*
X12496613Y15335521D01*
X12495573Y15343806D01*
X12513930Y15351493D01*
X12524628Y15349352D01*
G36*
X13062307Y21129888D02*
X13255209Y21129595D01*
X13422765Y21129060D01*
X13566411Y21128246D01*
X13687585Y21127115D01*
X13787724Y21125630D01*
X13868267Y21123754D01*
X13930649Y21121448D01*
X13976310Y21118676D01*
X14006685Y21115399D01*
X14023213Y21111581D01*
X14027331Y21107183D01*
X14020476Y21102168D01*
X14013343Y21099404D01*
X14007058Y21084942D01*
X13995840Y21046275D01*
X13980531Y20986821D01*
X13961971Y20910001D01*
X13941001Y20819232D01*
X13918460Y20717936D01*
X13909879Y20678422D01*
X13820080Y20262144D01*
X12966125Y20258508D01*
X12112171Y20254872D01*
X12072800Y20075064D01*
X12057536Y20006273D01*
X12043959Y19946789D01*
X12033422Y19902417D01*
X12027277Y19878964D01*
X12026821Y19877617D01*
X12030500Y19872025D01*
X12047938Y19867671D01*
X12081700Y19864427D01*
X12134354Y19862167D01*
X12208468Y19860763D01*
X12306610Y19860087D01*
X12382193Y19859978D01*
X12744173Y19859978D01*
X13022230Y19440172D01*
X13086593Y19342904D01*
X13145951Y19253018D01*
X13198514Y19173238D01*
X13242493Y19106289D01*
X13276098Y19054893D01*
X13297541Y19021776D01*
X13304991Y19009783D01*
X13292238Y19007752D01*
X13253860Y19005849D01*
X13192455Y19004112D01*
X13110618Y19002578D01*
X13010948Y19001285D01*
X12896042Y19000271D01*
X12768496Y18999573D01*
X12630908Y18999230D01*
X12575691Y18999200D01*
X12412670Y18999152D01*
X12275605Y18998959D01*
X12162229Y18998545D01*
X12070278Y18997835D01*
X11997483Y18996752D01*
X11941579Y18995223D01*
X11900301Y18993170D01*
X11871381Y18990518D01*
X11852554Y18987193D01*
X11841553Y18983118D01*
X11836112Y18978218D01*
X11834468Y18974505D01*
X11829583Y18954354D01*
X11819942Y18911812D01*
X11806494Y18851265D01*
X11790190Y18777100D01*
X11771980Y18693705D01*
X11752812Y18605466D01*
X11733637Y18516770D01*
X11715405Y18432004D01*
X11699066Y18355555D01*
X11685568Y18291809D01*
X11675863Y18245154D01*
X11670899Y18219977D01*
X11670454Y18216933D01*
X11684162Y18215522D01*
X11723680Y18214192D01*
X11786594Y18212963D01*
X11870491Y18211859D01*
X11972957Y18210901D01*
X12091580Y18210112D01*
X12223947Y18209514D01*
X12367644Y18209129D01*
X12520258Y18208979D01*
X12535347Y18208978D01*
X13400240Y18208978D01*
X13688880Y17811396D01*
X13757051Y17717683D01*
X13820493Y17630826D01*
X13877176Y17553580D01*
X13925069Y17488694D01*
X13962144Y17438922D01*
X13986368Y17407016D01*
X13995210Y17396126D01*
X14010422Y17376951D01*
X14012898Y17370375D01*
X13999135Y17369134D01*
X13959235Y17367952D01*
X13895286Y17366843D01*
X13809374Y17365821D01*
X13703584Y17364901D01*
X13580004Y17364097D01*
X13440719Y17363425D01*
X13287816Y17362897D01*
X13123380Y17362530D01*
X12949499Y17362337D01*
X12855772Y17362311D01*
X11698646Y17362311D01*
X11631633Y17448185D01*
X11468194Y17680172D01*
X11327599Y17927112D01*
X11210961Y18186267D01*
X11119395Y18454900D01*
X11054015Y18730276D01*
X11022157Y18945727D01*
X11007779Y19161313D01*
X11009156Y19389227D01*
X11025796Y19618724D01*
X11057202Y19839059D01*
X11065225Y19881144D01*
X11111062Y20068350D01*
X11174198Y20262396D01*
X11251782Y20457055D01*
X11340964Y20646098D01*
X11438894Y20823298D01*
X11542719Y20982427D01*
X11609392Y21070005D01*
X11658232Y21129978D01*
X12842620Y21129978D01*
X13062307Y21129888D01*
X13062307Y21129888D01*
G37*
X13062307Y21129888D02*
X13255209Y21129595D01*
X13422765Y21129060D01*
X13566411Y21128246D01*
X13687585Y21127115D01*
X13787724Y21125630D01*
X13868267Y21123754D01*
X13930649Y21121448D01*
X13976310Y21118676D01*
X14006685Y21115399D01*
X14023213Y21111581D01*
X14027331Y21107183D01*
X14020476Y21102168D01*
X14013343Y21099404D01*
X14007058Y21084942D01*
X13995840Y21046275D01*
X13980531Y20986821D01*
X13961971Y20910001D01*
X13941001Y20819232D01*
X13918460Y20717936D01*
X13909879Y20678422D01*
X13820080Y20262144D01*
X12966125Y20258508D01*
X12112171Y20254872D01*
X12072800Y20075064D01*
X12057536Y20006273D01*
X12043959Y19946789D01*
X12033422Y19902417D01*
X12027277Y19878964D01*
X12026821Y19877617D01*
X12030500Y19872025D01*
X12047938Y19867671D01*
X12081700Y19864427D01*
X12134354Y19862167D01*
X12208468Y19860763D01*
X12306610Y19860087D01*
X12382193Y19859978D01*
X12744173Y19859978D01*
X13022230Y19440172D01*
X13086593Y19342904D01*
X13145951Y19253018D01*
X13198514Y19173238D01*
X13242493Y19106289D01*
X13276098Y19054893D01*
X13297541Y19021776D01*
X13304991Y19009783D01*
X13292238Y19007752D01*
X13253860Y19005849D01*
X13192455Y19004112D01*
X13110618Y19002578D01*
X13010948Y19001285D01*
X12896042Y19000271D01*
X12768496Y18999573D01*
X12630908Y18999230D01*
X12575691Y18999200D01*
X12412670Y18999152D01*
X12275605Y18998959D01*
X12162229Y18998545D01*
X12070278Y18997835D01*
X11997483Y18996752D01*
X11941579Y18995223D01*
X11900301Y18993170D01*
X11871381Y18990518D01*
X11852554Y18987193D01*
X11841553Y18983118D01*
X11836112Y18978218D01*
X11834468Y18974505D01*
X11829583Y18954354D01*
X11819942Y18911812D01*
X11806494Y18851265D01*
X11790190Y18777100D01*
X11771980Y18693705D01*
X11752812Y18605466D01*
X11733637Y18516770D01*
X11715405Y18432004D01*
X11699066Y18355555D01*
X11685568Y18291809D01*
X11675863Y18245154D01*
X11670899Y18219977D01*
X11670454Y18216933D01*
X11684162Y18215522D01*
X11723680Y18214192D01*
X11786594Y18212963D01*
X11870491Y18211859D01*
X11972957Y18210901D01*
X12091580Y18210112D01*
X12223947Y18209514D01*
X12367644Y18209129D01*
X12520258Y18208979D01*
X12535347Y18208978D01*
X13400240Y18208978D01*
X13688880Y17811396D01*
X13757051Y17717683D01*
X13820493Y17630826D01*
X13877176Y17553580D01*
X13925069Y17488694D01*
X13962144Y17438922D01*
X13986368Y17407016D01*
X13995210Y17396126D01*
X14010422Y17376951D01*
X14012898Y17370375D01*
X13999135Y17369134D01*
X13959235Y17367952D01*
X13895286Y17366843D01*
X13809374Y17365821D01*
X13703584Y17364901D01*
X13580004Y17364097D01*
X13440719Y17363425D01*
X13287816Y17362897D01*
X13123380Y17362530D01*
X12949499Y17362337D01*
X12855772Y17362311D01*
X11698646Y17362311D01*
X11631633Y17448185D01*
X11468194Y17680172D01*
X11327599Y17927112D01*
X11210961Y18186267D01*
X11119395Y18454900D01*
X11054015Y18730276D01*
X11022157Y18945727D01*
X11007779Y19161313D01*
X11009156Y19389227D01*
X11025796Y19618724D01*
X11057202Y19839059D01*
X11065225Y19881144D01*
X11111062Y20068350D01*
X11174198Y20262396D01*
X11251782Y20457055D01*
X11340964Y20646098D01*
X11438894Y20823298D01*
X11542719Y20982427D01*
X11609392Y21070005D01*
X11658232Y21129978D01*
X12842620Y21129978D01*
X13062307Y21129888D01*
G36*
X15993070Y21070005D02*
X16101576Y20921885D01*
X16205328Y20751582D01*
X16301602Y20565063D01*
X16387668Y20368297D01*
X16460802Y20167249D01*
X16518275Y19967887D01*
X16539593Y19874089D01*
X16556931Y19775958D01*
X16565481Y19686720D01*
X16564977Y19598620D01*
X16555155Y19503907D01*
X16535750Y19394824D01*
X16520871Y19325780D01*
X16475287Y19123194D01*
X15494565Y18589970D01*
X15340968Y18506533D01*
X15194654Y18427196D01*
X15057498Y18352967D01*
X14931375Y18284855D01*
X14818159Y18223866D01*
X14719726Y18171010D01*
X14637951Y18127294D01*
X14574708Y18093726D01*
X14531872Y18071314D01*
X14511318Y18061066D01*
X14509743Y18060526D01*
X14511884Y18074393D01*
X14519281Y18112183D01*
X14531152Y18170249D01*
X14546714Y18244947D01*
X14565184Y18332629D01*
X14585779Y18429650D01*
X14607715Y18532365D01*
X14630210Y18637127D01*
X14652480Y18740290D01*
X14673743Y18838210D01*
X14693216Y18927240D01*
X14710114Y19003734D01*
X14723656Y19064046D01*
X14733058Y19104530D01*
X14737538Y19121542D01*
X14737690Y19121817D01*
X14750132Y19129136D01*
X14784301Y19148706D01*
X14837345Y19178909D01*
X14906414Y19218126D01*
X14988655Y19264735D01*
X15081218Y19317120D01*
X15156219Y19359517D01*
X15255193Y19415563D01*
X15346407Y19467450D01*
X15426927Y19513491D01*
X15493817Y19551998D01*
X15544144Y19581283D01*
X15574972Y19599659D01*
X15583498Y19605233D01*
X15589148Y19621394D01*
X15599161Y19661084D01*
X15612653Y19720101D01*
X15628740Y19794243D01*
X15646538Y19879309D01*
X15665163Y19971096D01*
X15683731Y20065404D01*
X15701357Y20158031D01*
X15712061Y20216283D01*
X15721621Y20269200D01*
X15198871Y20269200D01*
X15063127Y20269115D01*
X14952969Y20268781D01*
X14865758Y20268079D01*
X14798859Y20266891D01*
X14749633Y20265100D01*
X14715445Y20262585D01*
X14693658Y20259230D01*
X14681633Y20254915D01*
X14676735Y20249522D01*
X14676120Y20245733D01*
X14673173Y20228540D01*
X14664659Y20186034D01*
X14651066Y20120467D01*
X14632883Y20034090D01*
X14610601Y19929154D01*
X14584709Y19807912D01*
X14555695Y19672614D01*
X14524048Y19525513D01*
X14490259Y19368860D01*
X14454817Y19204906D01*
X14418209Y19035904D01*
X14380927Y18864104D01*
X14343459Y18691758D01*
X14306295Y18521118D01*
X14269923Y18354435D01*
X14234833Y18193961D01*
X14201514Y18041947D01*
X14170455Y17900646D01*
X14142147Y17772308D01*
X14117077Y17659185D01*
X14095735Y17563529D01*
X14078611Y17487592D01*
X14066194Y17433624D01*
X14058972Y17403877D01*
X14057518Y17398917D01*
X14051783Y17395134D01*
X14040348Y17401570D01*
X14021711Y17420093D01*
X13994368Y17452569D01*
X13956816Y17500863D01*
X13907553Y17566843D01*
X13845073Y17652373D01*
X13773361Y17751695D01*
X13705679Y17845585D01*
X13641323Y17934508D01*
X13582647Y18015237D01*
X13532004Y18084550D01*
X13491745Y18139222D01*
X13464225Y18176029D01*
X13455099Y18187829D01*
X13409983Y18244291D01*
X13728702Y19687134D01*
X14047422Y21129978D01*
X15944231Y21129978D01*
X15993070Y21070005D01*
X15993070Y21070005D01*
G37*
X15993070Y21070005D02*
X16101576Y20921885D01*
X16205328Y20751582D01*
X16301602Y20565063D01*
X16387668Y20368297D01*
X16460802Y20167249D01*
X16518275Y19967887D01*
X16539593Y19874089D01*
X16556931Y19775958D01*
X16565481Y19686720D01*
X16564977Y19598620D01*
X16555155Y19503907D01*
X16535750Y19394824D01*
X16520871Y19325780D01*
X16475287Y19123194D01*
X15494565Y18589970D01*
X15340968Y18506533D01*
X15194654Y18427196D01*
X15057498Y18352967D01*
X14931375Y18284855D01*
X14818159Y18223866D01*
X14719726Y18171010D01*
X14637951Y18127294D01*
X14574708Y18093726D01*
X14531872Y18071314D01*
X14511318Y18061066D01*
X14509743Y18060526D01*
X14511884Y18074393D01*
X14519281Y18112183D01*
X14531152Y18170249D01*
X14546714Y18244947D01*
X14565184Y18332629D01*
X14585779Y18429650D01*
X14607715Y18532365D01*
X14630210Y18637127D01*
X14652480Y18740290D01*
X14673743Y18838210D01*
X14693216Y18927240D01*
X14710114Y19003734D01*
X14723656Y19064046D01*
X14733058Y19104530D01*
X14737538Y19121542D01*
X14737690Y19121817D01*
X14750132Y19129136D01*
X14784301Y19148706D01*
X14837345Y19178909D01*
X14906414Y19218126D01*
X14988655Y19264735D01*
X15081218Y19317120D01*
X15156219Y19359517D01*
X15255193Y19415563D01*
X15346407Y19467450D01*
X15426927Y19513491D01*
X15493817Y19551998D01*
X15544144Y19581283D01*
X15574972Y19599659D01*
X15583498Y19605233D01*
X15589148Y19621394D01*
X15599161Y19661084D01*
X15612653Y19720101D01*
X15628740Y19794243D01*
X15646538Y19879309D01*
X15665163Y19971096D01*
X15683731Y20065404D01*
X15701357Y20158031D01*
X15712061Y20216283D01*
X15721621Y20269200D01*
X15198871Y20269200D01*
X15063127Y20269115D01*
X14952969Y20268781D01*
X14865758Y20268079D01*
X14798859Y20266891D01*
X14749633Y20265100D01*
X14715445Y20262585D01*
X14693658Y20259230D01*
X14681633Y20254915D01*
X14676735Y20249522D01*
X14676120Y20245733D01*
X14673173Y20228540D01*
X14664659Y20186034D01*
X14651066Y20120467D01*
X14632883Y20034090D01*
X14610601Y19929154D01*
X14584709Y19807912D01*
X14555695Y19672614D01*
X14524048Y19525513D01*
X14490259Y19368860D01*
X14454817Y19204906D01*
X14418209Y19035904D01*
X14380927Y18864104D01*
X14343459Y18691758D01*
X14306295Y18521118D01*
X14269923Y18354435D01*
X14234833Y18193961D01*
X14201514Y18041947D01*
X14170455Y17900646D01*
X14142147Y17772308D01*
X14117077Y17659185D01*
X14095735Y17563529D01*
X14078611Y17487592D01*
X14066194Y17433624D01*
X14058972Y17403877D01*
X14057518Y17398917D01*
X14051783Y17395134D01*
X14040348Y17401570D01*
X14021711Y17420093D01*
X13994368Y17452569D01*
X13956816Y17500863D01*
X13907553Y17566843D01*
X13845073Y17652373D01*
X13773361Y17751695D01*
X13705679Y17845585D01*
X13641323Y17934508D01*
X13582647Y18015237D01*
X13532004Y18084550D01*
X13491745Y18139222D01*
X13464225Y18176029D01*
X13455099Y18187829D01*
X13409983Y18244291D01*
X13728702Y19687134D01*
X14047422Y21129978D01*
X15944231Y21129978D01*
X15993070Y21070005D01*
D16*
X8302263Y18959534D02*
X8349882Y18911915D01*
X8397501Y18769058D01*
X8397501Y18673820D01*
X8349882Y18530962D01*
X8254644Y18435724D01*
X8159406Y18388105D01*
X7968930Y18340486D01*
X7826072Y18340486D01*
X7635596Y18388105D01*
X7540358Y18435724D01*
X7445120Y18530962D01*
X7397501Y18673820D01*
X7397501Y18769058D01*
X7445120Y18911915D01*
X7492739Y18959534D01*
X8397501Y19911915D02*
X8397501Y19340486D01*
X8397501Y19626200D02*
X7397501Y19626200D01*
X7540358Y19530962D01*
X7635596Y19435724D01*
X7683215Y19340486D01*
X628168Y18599771D02*
X1390073Y18599771D01*
X1009121Y18218819D02*
X1009121Y18980724D01*
M02*
