M48
;DRILL file {KiCad 4.0.6+dfsg1-1} date Mon Feb 26 15:47:54 2018
;FORMAT={2:4/ absolute / inch / suppress leading zeros}
FMAT,2
INCH,TZ
T1C0.016
T2C0.024
T3C0.030
T4C0.035
T5C0.039
%
G90
G05
M72
T1
X1028Y6530
X2078Y6708
T2
X778Y8630
X1278Y8630
X1528Y1180
X1778Y8630
X2028Y1180
X2528Y1180
X4628Y6380
X4628Y5880
X4628Y5380
X6428Y8580
X6928Y8580
X7428Y8580
T3
X528Y11530
X528Y5030
X528Y4030
X528Y3030
X528Y2030
X528Y530
X7528Y11530
X7528Y4030
X7528Y3030
X7528Y1530
X7528Y530
T4
X1978Y9930
X2978Y9930
X3678Y2530
X4678Y9780
X4678Y2530
X5678Y9780
X6178Y6430
X6178Y5430
T5
X1978Y11280
X2978Y11280
X3678Y680
X4678Y680
X5028Y11280
X5928Y2580
X5928Y1580
X5928Y580
X6028Y11280
X7428Y6530
X7428Y5530
T0
M30
