G04 #@! TF.FileFunction,Copper,L1,Top,Signal*
%FSLAX46Y46*%
G04 Gerber Fmt 4.6, Leading zero omitted, Abs format (unit mm)*
G04 Created by KiCad (PCBNEW 4.0.6+dfsg1-1) date Mon Feb 26 15:47:50 2018*
%MOMM*%
%LPD*%
G01*
G04 APERTURE LIST*
%ADD10C,0.100000*%
%ADD11O,0.899160X1.501140*%
%ADD12R,0.899160X1.501140*%
%ADD13C,1.524000*%
%ADD14R,1.800000X1.800000*%
%ADD15O,1.800000X1.800000*%
%ADD16R,1.700000X1.700000*%
%ADD17O,1.700000X1.700000*%
%ADD18R,1.300000X0.700000*%
%ADD19O,1.501140X0.899160*%
%ADD20R,1.501140X0.899160*%
%ADD21R,0.700000X1.300000*%
%ADD22C,0.600000*%
%ADD23C,1.000000*%
%ADD24C,0.500000*%
G04 APERTURE END LIST*
D10*
D11*
X3246120Y21920200D03*
X1976120Y21920200D03*
D12*
X4516120Y21920200D03*
D13*
X19121120Y1346200D03*
X19121120Y3886200D03*
X19121120Y7696200D03*
X19121120Y10236200D03*
X1341120Y1346200D03*
X1341120Y29286200D03*
X19121120Y29286200D03*
X1341120Y5156200D03*
X1341120Y7696200D03*
X1341120Y10236200D03*
X1341120Y12776200D03*
D14*
X7564120Y25222200D03*
D15*
X5024120Y25222200D03*
D14*
X11882120Y24841200D03*
D15*
X14422120Y24841200D03*
D14*
X11882120Y6426200D03*
D15*
X9342120Y6426200D03*
D16*
X12771120Y28651200D03*
D17*
X15311120Y28651200D03*
D16*
X7564120Y28651200D03*
D17*
X5024120Y28651200D03*
D16*
X15057120Y1473200D03*
D17*
X15057120Y4013200D03*
X15057120Y6553200D03*
D16*
X11882120Y1727200D03*
D17*
X9342120Y1727200D03*
D11*
X17597120Y21793200D03*
X18867120Y21793200D03*
D12*
X16327120Y21793200D03*
D11*
X5151120Y2997200D03*
X3881120Y2997200D03*
D12*
X6421120Y2997200D03*
D18*
X1595120Y16652200D03*
X1595120Y18552200D03*
D14*
X15692120Y16332200D03*
D15*
X15692120Y13792200D03*
D16*
X18867120Y16586200D03*
D17*
X18867120Y14046200D03*
D19*
X11755120Y14935200D03*
X11755120Y16205200D03*
D20*
X11755120Y13665200D03*
D21*
X11948120Y18999200D03*
X13848120Y18999200D03*
X13848120Y20904200D03*
X11948120Y20904200D03*
D18*
X5913120Y13223200D03*
X5913120Y15123200D03*
X3627120Y18552200D03*
X3627120Y16652200D03*
X7945120Y15123200D03*
X7945120Y13223200D03*
X4770120Y7630200D03*
X4770120Y5730200D03*
X6802120Y5730200D03*
X6802120Y7630200D03*
D22*
X5278120Y17037198D03*
X2611120Y16586200D03*
D23*
X19121120Y7696200D02*
X19121120Y10236200D01*
X15057120Y6553200D02*
X15184120Y6553200D01*
X15184120Y6553200D02*
X16327120Y7696200D01*
X16327120Y7696200D02*
X19121120Y7696200D01*
X15692120Y16332200D02*
X18613120Y16332200D01*
X18613120Y16332200D02*
X18867120Y16586200D01*
X12771120Y28651200D02*
X12771120Y26619200D01*
X12771120Y26619200D02*
X11882120Y25730200D01*
X11882120Y25730200D02*
X11882120Y24841200D01*
X7564120Y25222200D02*
X8326120Y25222200D01*
X8326120Y25222200D02*
X8707120Y24841200D01*
X8707120Y24841200D02*
X11882120Y24841200D01*
X7564120Y25222200D02*
X7564120Y28651200D01*
X14422120Y24841200D02*
X14930120Y24841200D01*
X14930120Y24841200D02*
X16327120Y23444200D01*
X16327120Y23444200D02*
X16327120Y21793200D01*
X14422120Y24841200D02*
X15057120Y24841200D01*
X15057120Y24841200D02*
X15311120Y25095200D01*
X15311120Y25095200D02*
X15311120Y28651200D01*
X4516120Y21920200D02*
X4516120Y22174200D01*
X4516120Y22174200D02*
X5024120Y22682200D01*
X5024120Y22682200D02*
X5024120Y25222200D01*
X5024120Y25222200D02*
X5024120Y28651200D01*
X15057120Y4013200D02*
X12517120Y4013200D01*
X12517120Y4013200D02*
X11882120Y4648200D01*
X11882120Y1727200D02*
X11882120Y4648200D01*
X11882120Y4648200D02*
X11882120Y6426200D01*
X11882120Y5791200D02*
X11882120Y6045200D01*
X9342120Y6426200D02*
X9342120Y1727200D01*
X6421120Y2997200D02*
X6421120Y1854200D01*
X6548120Y1727200D02*
X9342120Y1727200D01*
X6421120Y1854200D02*
X6548120Y1727200D01*
X19121120Y1346200D02*
X19121120Y3886200D01*
X15057120Y1473200D02*
X18994120Y1473200D01*
X18994120Y1473200D02*
X19121120Y1346200D01*
X18867120Y21793200D02*
X18867120Y29032200D01*
X18867120Y29032200D02*
X19121120Y29286200D01*
X1976120Y21920200D02*
X1976120Y28651200D01*
X1976120Y28651200D02*
X1341120Y29286200D01*
X3881120Y2997200D02*
X3881120Y4775200D01*
X3881120Y4775200D02*
X4770120Y5664200D01*
X4770120Y5664200D02*
X4770120Y5730200D01*
X5913120Y15123200D02*
X5913120Y15697200D01*
X5913120Y15697200D02*
X6929120Y16713200D01*
X6929120Y16713200D02*
X11247120Y16713200D01*
X11247120Y16713200D02*
X11755120Y16205200D01*
X11755120Y16205200D02*
X11882120Y16205200D01*
X11882120Y16205200D02*
X13848120Y18171200D01*
X13848120Y18171200D02*
X13848120Y18999200D01*
X1976120Y21920200D02*
X1849120Y21920200D01*
X1849120Y21920200D02*
X1595120Y21666200D01*
X1595120Y21666200D02*
X1595120Y18552200D01*
X13848120Y18999200D02*
X13914120Y18999200D01*
X13914120Y18999200D02*
X14168120Y18745200D01*
X14168120Y18745200D02*
X18486120Y18745200D01*
X18486120Y18745200D02*
X18867120Y19126200D01*
X18867120Y19126200D02*
X18867120Y21793200D01*
X5278120Y17037198D02*
X7875122Y19634200D01*
X7875122Y19634200D02*
X7945120Y19634200D01*
X7945120Y19634200D02*
X8326120Y20015200D01*
X8326120Y20015200D02*
X11948120Y20015200D01*
X11948120Y20904200D02*
X11948120Y20015200D01*
X11948120Y20015200D02*
X11948120Y18999200D01*
X2611120Y16586200D02*
X2611120Y16652200D01*
X2611120Y16652200D02*
X2611120Y16586200D01*
X2611120Y16586200D02*
X2611120Y16652200D01*
X1595120Y16652200D02*
X2611120Y16652200D01*
X2611120Y16652200D02*
X3627120Y16652200D01*
D24*
X1341120Y1346200D02*
X1341120Y2743200D01*
X2865120Y6172200D02*
X4323120Y7630200D01*
X2865120Y4267200D02*
X2865120Y6172200D01*
X1341120Y2743200D02*
X2865120Y4267200D01*
X4323120Y7630200D02*
X4770120Y7630200D01*
D23*
X4770120Y7630200D02*
X6802120Y7630200D01*
X15692120Y13792200D02*
X18613120Y13792200D01*
X18613120Y13792200D02*
X18867120Y14046200D01*
X11755120Y13665200D02*
X15565120Y13665200D01*
X15565120Y13665200D02*
X15692120Y13792200D01*
X5913120Y13223200D02*
X7945120Y13223200D01*
X1341120Y10236200D02*
X1468120Y10236200D01*
X1468120Y10236200D02*
X4455120Y13223200D01*
X4455120Y13223200D02*
X5913120Y13223200D01*
X13848120Y20904200D02*
X14295120Y20904200D01*
X17597120Y20142200D02*
X17597120Y21793200D01*
X17470120Y20015200D02*
X17597120Y20142200D01*
X15184120Y20015200D02*
X17470120Y20015200D01*
X14295120Y20904200D02*
X15184120Y20015200D01*
X3246120Y21920200D02*
X3246120Y20396200D01*
X3627120Y20015200D02*
X3627120Y18552200D01*
X3246120Y20396200D02*
X3627120Y20015200D01*
D24*
X5151120Y2997200D02*
X5151120Y4267200D01*
X5847120Y4775200D02*
X6802120Y5730200D01*
X5659120Y4775200D02*
X5847120Y4775200D01*
X5151120Y4267200D02*
X5659120Y4775200D01*
D23*
X7945120Y15123200D02*
X9408120Y15123200D01*
X9596120Y14935200D02*
X11755120Y14935200D01*
X9408120Y15123200D02*
X9596120Y14935200D01*
M02*
