G04 #@! TF.FileFunction,Legend,Top*
%FSLAX46Y46*%
G04 Gerber Fmt 4.6, Leading zero omitted, Abs format (unit mm)*
G04 Created by KiCad (PCBNEW 4.0.6+dfsg1-1) date Mon Feb 26 15:47:50 2018*
%MOMM*%
%LPD*%
G01*
G04 APERTURE LIST*
%ADD10C,0.100000*%
%ADD11C,0.300000*%
%ADD12C,0.375000*%
%ADD13C,0.150000*%
%ADD14C,0.200000*%
%ADD15C,0.120000*%
G04 APERTURE END LIST*
D10*
D11*
X8897692Y4160057D02*
X10040549Y4160057D01*
X11437692Y4160057D02*
X12580549Y4160057D01*
X12009120Y3588629D02*
X12009120Y4731486D01*
X2217492Y28671057D02*
X3360349Y28671057D01*
D12*
X15815406Y25178629D02*
X15815406Y26678629D01*
X16529692Y25178629D02*
X16529692Y26678629D01*
X16886835Y26678629D01*
X17101120Y26607200D01*
X17243978Y26464343D01*
X17315406Y26321486D01*
X17386835Y26035771D01*
X17386835Y25821486D01*
X17315406Y25535771D01*
X17243978Y25392914D01*
X17101120Y25250057D01*
X16886835Y25178629D01*
X16529692Y25178629D01*
X19958263Y25178629D02*
X19101120Y25178629D01*
X19529692Y25178629D02*
X19529692Y26678629D01*
X19386835Y26464343D01*
X19243977Y26321486D01*
X19101120Y26250057D01*
X8115691Y17217486D02*
X6615691Y17217486D01*
X8115691Y17931772D02*
X6615691Y17931772D01*
X6615691Y18288915D01*
X6687120Y18503200D01*
X6829977Y18646058D01*
X6972834Y18717486D01*
X7258549Y18788915D01*
X7472834Y18788915D01*
X7758549Y18717486D01*
X7901406Y18646058D01*
X8044263Y18503200D01*
X8115691Y18288915D01*
X8115691Y17931772D01*
X6758549Y20503200D02*
X6687120Y20574629D01*
X6615691Y20717486D01*
X6615691Y21074629D01*
X6687120Y21217486D01*
X6758549Y21288915D01*
X6901406Y21360343D01*
X7044263Y21360343D01*
X7258549Y21288915D01*
X8115691Y20431772D01*
X8115691Y21360343D01*
X10227406Y10446629D02*
X10227406Y11946629D01*
X10941692Y10446629D02*
X10941692Y11946629D01*
X11298835Y11946629D01*
X11513120Y11875200D01*
X11655978Y11732343D01*
X11727406Y11589486D01*
X11798835Y11303771D01*
X11798835Y11089486D01*
X11727406Y10803771D01*
X11655978Y10660914D01*
X11513120Y10518057D01*
X11298835Y10446629D01*
X10941692Y10446629D01*
X14227406Y11446629D02*
X14227406Y10446629D01*
X13870263Y12018057D02*
X13513120Y10946629D01*
X14441692Y10946629D01*
X8322406Y7906629D02*
X8322406Y9406629D01*
X9036692Y7906629D02*
X9036692Y9406629D01*
X9393835Y9406629D01*
X9608120Y9335200D01*
X9750978Y9192343D01*
X9822406Y9049486D01*
X9893835Y8763771D01*
X9893835Y8549486D01*
X9822406Y8263771D01*
X9750978Y8120914D01*
X9608120Y7978057D01*
X9393835Y7906629D01*
X9036692Y7906629D01*
X11536692Y9406629D02*
X12465263Y9406629D01*
X11965263Y8835200D01*
X12179549Y8835200D01*
X12322406Y8763771D01*
X12393835Y8692343D01*
X12465263Y8549486D01*
X12465263Y8192343D01*
X12393835Y8049486D01*
X12322406Y7978057D01*
X12179549Y7906629D01*
X11750977Y7906629D01*
X11608120Y7978057D01*
X11536692Y8049486D01*
D11*
X17025692Y28671057D02*
X18168549Y28671057D01*
X9659692Y28798057D02*
X10802549Y28798057D01*
X10231120Y28226629D02*
X10231120Y29369486D01*
D13*
X6635454Y8386819D02*
X6302120Y8863010D01*
X6064025Y8386819D02*
X6064025Y9386819D01*
X6444978Y9386819D01*
X6540216Y9339200D01*
X6587835Y9291581D01*
X6635454Y9196343D01*
X6635454Y9053486D01*
X6587835Y8958248D01*
X6540216Y8910629D01*
X6444978Y8863010D01*
X6064025Y8863010D01*
X7206882Y8958248D02*
X7111644Y9005867D01*
X7064025Y9053486D01*
X7016406Y9148724D01*
X7016406Y9196343D01*
X7064025Y9291581D01*
X7111644Y9339200D01*
X7206882Y9386819D01*
X7397359Y9386819D01*
X7492597Y9339200D01*
X7540216Y9291581D01*
X7587835Y9196343D01*
X7587835Y9148724D01*
X7540216Y9053486D01*
X7492597Y9005867D01*
X7397359Y8958248D01*
X7206882Y8958248D01*
X7111644Y8910629D01*
X7064025Y8863010D01*
X7016406Y8767771D01*
X7016406Y8577295D01*
X7064025Y8482057D01*
X7111644Y8434438D01*
X7206882Y8386819D01*
X7397359Y8386819D01*
X7492597Y8434438D01*
X7540216Y8482057D01*
X7587835Y8577295D01*
X7587835Y8767771D01*
X7540216Y8863010D01*
X7492597Y8910629D01*
X7397359Y8958248D01*
D14*
X11374120Y26746200D02*
X11374120Y30556200D01*
X10231120Y26746200D02*
X11374120Y26746200D01*
X8961120Y26746200D02*
X8961120Y30556200D01*
X10231120Y26746200D02*
X8961120Y26746200D01*
X10231120Y22174200D02*
X10231120Y26746200D01*
X16708120Y19888200D02*
X20391120Y19888200D01*
X15184120Y18364200D02*
X16708120Y19888200D01*
X10104120Y22110700D02*
X10294620Y22110700D01*
X8834120Y22110700D02*
X10104120Y22110700D01*
X8834120Y16078200D02*
X8834120Y22110700D01*
X71120Y13919200D02*
X71120Y13982700D01*
X4770120Y13919200D02*
X71120Y13919200D01*
X17470120Y11442700D02*
X20391120Y11442700D01*
X17470120Y11252200D02*
X17470120Y11442700D01*
X17470120Y10426700D02*
X17470120Y11252200D01*
X18041620Y9855200D02*
X17470120Y10426700D01*
D11*
X18295692Y12097557D02*
X19438549Y12097557D01*
X18232192Y19019057D02*
X19375049Y19019057D01*
X18803620Y18447629D02*
X18803620Y19590486D01*
D14*
X14676120Y17856200D02*
X15184120Y18364200D01*
X10612120Y17856200D02*
X14676120Y17856200D01*
X8834120Y16078200D02*
X10612120Y17856200D01*
X4770120Y16078200D02*
X8834120Y16078200D01*
X4770120Y9855200D02*
X4770120Y16078200D01*
X18105120Y9855200D02*
X18105120Y76200D01*
X2865120Y9855200D02*
X18105120Y9855200D01*
X2865120Y5029200D02*
X2865120Y9855200D01*
X1722120Y3886200D02*
X2865120Y5029200D01*
X1722120Y2616200D02*
X1722120Y3886200D01*
X2484120Y1854200D02*
X1722120Y2616200D01*
X2484120Y76200D02*
X2484120Y1854200D01*
X17668501Y6057962D02*
X17668501Y5600819D01*
X17668501Y5829390D02*
X16668501Y5829390D01*
X16811358Y5753200D01*
X16906596Y5677009D01*
X16954215Y5600819D01*
X16763739Y6362724D02*
X16716120Y6400819D01*
X16668501Y6477010D01*
X16668501Y6667486D01*
X16716120Y6743676D01*
X16763739Y6781772D01*
X16858977Y6819867D01*
X16954215Y6819867D01*
X17097072Y6781772D01*
X17668501Y6324629D01*
X17668501Y6819867D01*
X16668501Y7048438D02*
X17668501Y7315105D01*
X16668501Y7581772D01*
X17620882Y3657629D02*
X17668501Y3771915D01*
X17668501Y3962391D01*
X17620882Y4038581D01*
X17573263Y4076677D01*
X17478025Y4114772D01*
X17382787Y4114772D01*
X17287549Y4076677D01*
X17239930Y4038581D01*
X17192310Y3962391D01*
X17144691Y3810010D01*
X17097072Y3733819D01*
X17049453Y3695724D01*
X16954215Y3657629D01*
X16858977Y3657629D01*
X16763739Y3695724D01*
X16716120Y3733819D01*
X16668501Y3810010D01*
X16668501Y4000486D01*
X16716120Y4114772D01*
X16668501Y1447820D02*
X16668501Y1066867D01*
X17144691Y1028772D01*
X17097072Y1066867D01*
X17049453Y1143058D01*
X17049453Y1333534D01*
X17097072Y1409724D01*
X17144691Y1447820D01*
X17239930Y1485915D01*
X17478025Y1485915D01*
X17573263Y1447820D01*
X17620882Y1409724D01*
X17668501Y1333534D01*
X17668501Y1143058D01*
X17620882Y1066867D01*
X17573263Y1028772D01*
X16668501Y1714486D02*
X17668501Y1981153D01*
X16668501Y2247820D01*
D15*
X5046120Y23770200D02*
X1446120Y23770200D01*
X5084598Y23758678D02*
G75*
G02X3246120Y19320200I-1838478J-1838478D01*
G01*
X1407642Y23758678D02*
G75*
G03X3246120Y19320200I1838478J-1838478D01*
G01*
D14*
X71120Y76200D02*
X20391120Y76200D01*
X20391120Y76200D02*
X20391120Y30556200D01*
X20391120Y30556200D02*
X71120Y30556200D01*
X71120Y30556200D02*
X71120Y76200D01*
D15*
X6533487Y26155470D02*
G75*
G02X6504309Y24322200I1030633J-933270D01*
G01*
X6167120Y26302200D02*
X6167120Y27191200D01*
X6167120Y26746700D02*
X5574453Y26302200D01*
X5574453Y26302200D02*
X5574453Y27191200D01*
X5574453Y27191200D02*
X6167120Y26746700D01*
X12912753Y23907930D02*
G75*
G02X12941931Y25741200I-1030633J933270D01*
G01*
X13279120Y23761200D02*
X13279120Y22872200D01*
X13279120Y23316700D02*
X13871787Y23761200D01*
X13871787Y23761200D02*
X13871787Y22872200D01*
X13871787Y22872200D02*
X13279120Y23316700D01*
X10851487Y7359470D02*
G75*
G02X10822309Y5526200I1030633J-933270D01*
G01*
X10485120Y7506200D02*
X10485120Y8395200D01*
X10485120Y7950700D02*
X9892453Y7506200D01*
X9892453Y7506200D02*
X9892453Y8395200D01*
X9892453Y8395200D02*
X10485120Y7950700D01*
X14041120Y27261200D02*
X16701120Y27261200D01*
X16701120Y27261200D02*
X16701120Y30041200D01*
X16701120Y30041200D02*
X14041120Y30041200D01*
X14041120Y30041200D02*
X14041120Y27261200D01*
X12771120Y27261200D02*
X11381120Y27261200D01*
X11381120Y27261200D02*
X11381120Y28651200D01*
X6294120Y30041200D02*
X3634120Y30041200D01*
X3634120Y30041200D02*
X3634120Y27261200D01*
X3634120Y27261200D02*
X6294120Y27261200D01*
X6294120Y27261200D02*
X6294120Y30041200D01*
X7564120Y30041200D02*
X8954120Y30041200D01*
X8954120Y30041200D02*
X8954120Y28651200D01*
X16447120Y2743200D02*
X16447120Y7943200D01*
X16447120Y7943200D02*
X13667120Y7943200D01*
X13667120Y7943200D02*
X13667120Y2743200D01*
X13667120Y2743200D02*
X16447120Y2743200D01*
X16447120Y1473200D02*
X16447120Y83200D01*
X16447120Y83200D02*
X15057120Y83200D01*
X10612120Y3117200D02*
X7952120Y3117200D01*
X7952120Y3117200D02*
X7952120Y337200D01*
X7952120Y337200D02*
X10612120Y337200D01*
X10612120Y337200D02*
X10612120Y3117200D01*
X11882120Y3117200D02*
X13272120Y3117200D01*
X13272120Y3117200D02*
X13272120Y1727200D01*
X15797120Y19943200D02*
X19397120Y19943200D01*
X15758642Y19954722D02*
G75*
G02X17597120Y24393200I1838478J1838478D01*
G01*
X19435598Y19954722D02*
G75*
G03X17597120Y24393200I-1838478J1838478D01*
G01*
X6951120Y4847200D02*
X3351120Y4847200D01*
X6989598Y4835678D02*
G75*
G02X5151120Y397200I-1838478J-1838478D01*
G01*
X3312642Y4835678D02*
G75*
G03X5151120Y397200I1838478J-1838478D01*
G01*
X2475120Y18202200D02*
X2475120Y17002200D01*
X715120Y17002200D02*
X715120Y18202200D01*
X14758850Y15301567D02*
G75*
G02X16592120Y15272389I933270J1030633D01*
G01*
X14612120Y14935200D02*
X13723120Y14935200D01*
X14167620Y14935200D02*
X14612120Y14342533D01*
X14612120Y14342533D02*
X13723120Y14342533D01*
X13723120Y14342533D02*
X14167620Y14935200D01*
X17477120Y15316200D02*
X17477120Y12656200D01*
X17477120Y12656200D02*
X20257120Y12656200D01*
X20257120Y12656200D02*
X20257120Y15316200D01*
X20257120Y15316200D02*
X17477120Y15316200D01*
X17477120Y16586200D02*
X17477120Y17976200D01*
X17477120Y17976200D02*
X18867120Y17976200D01*
X13605120Y13135200D02*
X13605120Y16735200D01*
X13593598Y13096722D02*
G75*
G02X9155120Y14935200I-1838478J1838478D01*
G01*
X13593598Y16773678D02*
G75*
G03X9155120Y14935200I-1838478J-1838478D01*
G01*
X13498120Y18119200D02*
X12298120Y18119200D01*
X12298120Y19879200D02*
X13498120Y19879200D01*
X12298120Y21784200D02*
X13498120Y21784200D01*
X13498120Y20024200D02*
X12298120Y20024200D01*
X6793120Y14773200D02*
X6793120Y13573200D01*
X5033120Y13573200D02*
X5033120Y14773200D01*
X2747120Y17002200D02*
X2747120Y18202200D01*
X4507120Y18202200D02*
X4507120Y17002200D01*
X7065120Y13573200D02*
X7065120Y14773200D01*
X8825120Y14773200D02*
X8825120Y13573200D01*
X3890120Y6080200D02*
X3890120Y7280200D01*
X5650120Y7280200D02*
X5650120Y6080200D01*
X7682120Y7280200D02*
X7682120Y6080200D01*
X5922120Y6080200D02*
X5922120Y7280200D01*
D13*
X2000025Y24515819D02*
X2000025Y25515819D01*
X2238120Y25515819D01*
X2380978Y25468200D01*
X2476216Y25372962D01*
X2523835Y25277724D01*
X2571454Y25087248D01*
X2571454Y24944390D01*
X2523835Y24753914D01*
X2476216Y24658676D01*
X2380978Y24563438D01*
X2238120Y24515819D01*
X2000025Y24515819D01*
X2952406Y25420581D02*
X3000025Y25468200D01*
X3095263Y25515819D01*
X3333359Y25515819D01*
X3428597Y25468200D01*
X3476216Y25420581D01*
X3523835Y25325343D01*
X3523835Y25230105D01*
X3476216Y25087248D01*
X2904787Y24515819D01*
X3523835Y24515819D01*
X10763025Y22229819D02*
X10763025Y23229819D01*
X11001120Y23229819D01*
X11143978Y23182200D01*
X11239216Y23086962D01*
X11286835Y22991724D01*
X11334454Y22801248D01*
X11334454Y22658390D01*
X11286835Y22467914D01*
X11239216Y22372676D01*
X11143978Y22277438D01*
X11001120Y22229819D01*
X10763025Y22229819D01*
X12286835Y22229819D02*
X11715406Y22229819D01*
X12001120Y22229819D02*
X12001120Y23229819D01*
X11905882Y23086962D01*
X11810644Y22991724D01*
X11715406Y22944105D01*
X1920501Y14768534D02*
X1444310Y14435200D01*
X1920501Y14197105D02*
X920501Y14197105D01*
X920501Y14578058D01*
X968120Y14673296D01*
X1015739Y14720915D01*
X1110977Y14768534D01*
X1253834Y14768534D01*
X1349072Y14720915D01*
X1396691Y14673296D01*
X1444310Y14578058D01*
X1444310Y14197105D01*
X1015739Y15149486D02*
X968120Y15197105D01*
X920501Y15292343D01*
X920501Y15530439D01*
X968120Y15625677D01*
X1015739Y15673296D01*
X1110977Y15720915D01*
X1206215Y15720915D01*
X1349072Y15673296D01*
X1920501Y15101867D01*
X1920501Y15720915D01*
X10318454Y18673819D02*
X9985120Y19150010D01*
X9747025Y18673819D02*
X9747025Y19673819D01*
X10127978Y19673819D01*
X10223216Y19626200D01*
X10270835Y19578581D01*
X10318454Y19483343D01*
X10318454Y19340486D01*
X10270835Y19245248D01*
X10223216Y19197629D01*
X10127978Y19150010D01*
X9747025Y19150010D01*
X11270835Y18673819D02*
X10699406Y18673819D01*
X10985120Y18673819D02*
X10985120Y19673819D01*
X10889882Y19530962D01*
X10794644Y19435724D01*
X10699406Y19388105D01*
X10191454Y20451819D02*
X9858120Y20928010D01*
X9620025Y20451819D02*
X9620025Y21451819D01*
X10000978Y21451819D01*
X10096216Y21404200D01*
X10143835Y21356581D01*
X10191454Y21261343D01*
X10191454Y21118486D01*
X10143835Y21023248D01*
X10096216Y20975629D01*
X10000978Y20928010D01*
X9620025Y20928010D01*
X10524787Y21451819D02*
X11143835Y21451819D01*
X10810501Y21070867D01*
X10953359Y21070867D01*
X11048597Y21023248D01*
X11096216Y20975629D01*
X11143835Y20880390D01*
X11143835Y20642295D01*
X11096216Y20547057D01*
X11048597Y20499438D01*
X10953359Y20451819D01*
X10667644Y20451819D01*
X10572406Y20499438D01*
X10524787Y20547057D01*
X6365501Y11339534D02*
X5889310Y11006200D01*
X6365501Y10768105D02*
X5365501Y10768105D01*
X5365501Y11149058D01*
X5413120Y11244296D01*
X5460739Y11291915D01*
X5555977Y11339534D01*
X5698834Y11339534D01*
X5794072Y11291915D01*
X5841691Y11244296D01*
X5889310Y11149058D01*
X5889310Y10768105D01*
X5698834Y12196677D02*
X6365501Y12196677D01*
X5317882Y11958581D02*
X6032168Y11720486D01*
X6032168Y12339534D01*
X4206501Y14768534D02*
X3730310Y14435200D01*
X4206501Y14197105D02*
X3206501Y14197105D01*
X3206501Y14578058D01*
X3254120Y14673296D01*
X3301739Y14720915D01*
X3396977Y14768534D01*
X3539834Y14768534D01*
X3635072Y14720915D01*
X3682691Y14673296D01*
X3730310Y14578058D01*
X3730310Y14197105D01*
X3206501Y15673296D02*
X3206501Y15197105D01*
X3682691Y15149486D01*
X3635072Y15197105D01*
X3587453Y15292343D01*
X3587453Y15530439D01*
X3635072Y15625677D01*
X3682691Y15673296D01*
X3777930Y15720915D01*
X4016025Y15720915D01*
X4111263Y15673296D01*
X4158882Y15625677D01*
X4206501Y15530439D01*
X4206501Y15292343D01*
X4158882Y15197105D01*
X4111263Y15149486D01*
X8524501Y11339534D02*
X8048310Y11006200D01*
X8524501Y10768105D02*
X7524501Y10768105D01*
X7524501Y11149058D01*
X7572120Y11244296D01*
X7619739Y11291915D01*
X7714977Y11339534D01*
X7857834Y11339534D01*
X7953072Y11291915D01*
X8000691Y11244296D01*
X8048310Y11149058D01*
X8048310Y10768105D01*
X7524501Y12196677D02*
X7524501Y12006200D01*
X7572120Y11910962D01*
X7619739Y11863343D01*
X7762596Y11768105D01*
X7953072Y11720486D01*
X8334025Y11720486D01*
X8429263Y11768105D01*
X8476882Y11815724D01*
X8524501Y11910962D01*
X8524501Y12101439D01*
X8476882Y12196677D01*
X8429263Y12244296D01*
X8334025Y12291915D01*
X8095930Y12291915D01*
X8000691Y12244296D01*
X7953072Y12196677D01*
X7905453Y12101439D01*
X7905453Y11910962D01*
X7953072Y11815724D01*
X8000691Y11768105D01*
X8095930Y11720486D01*
X4730454Y8386819D02*
X4397120Y8863010D01*
X4159025Y8386819D02*
X4159025Y9386819D01*
X4539978Y9386819D01*
X4635216Y9339200D01*
X4682835Y9291581D01*
X4730454Y9196343D01*
X4730454Y9053486D01*
X4682835Y8958248D01*
X4635216Y8910629D01*
X4539978Y8863010D01*
X4159025Y8863010D01*
X5063787Y9386819D02*
X5730454Y9386819D01*
X5301882Y8386819D01*
M02*
