G04 #@! TF.FileFunction,Soldermask,Bot*
%FSLAX46Y46*%
G04 Gerber Fmt 4.6, Leading zero omitted, Abs format (unit mm)*
G04 Created by KiCad (PCBNEW 4.0.6+dfsg1-1) date Mon Feb 26 15:47:50 2018*
%MOMM*%
%LPD*%
G01*
G04 APERTURE LIST*
%ADD10C,0.100000*%
%ADD11O,1.299160X1.901140*%
%ADD12R,1.299160X1.901140*%
%ADD13C,1.924000*%
%ADD14R,2.200000X2.200000*%
%ADD15O,2.200000X2.200000*%
%ADD16R,2.100000X2.100000*%
%ADD17O,2.100000X2.100000*%
%ADD18O,1.901140X1.299160*%
%ADD19R,1.901140X1.299160*%
G04 APERTURE END LIST*
D10*
D11*
X3246120Y21920200D03*
X1976120Y21920200D03*
D12*
X4516120Y21920200D03*
D13*
X19121120Y1346200D03*
X19121120Y3886200D03*
X19121120Y7696200D03*
X19121120Y10236200D03*
X1341120Y1346200D03*
X1341120Y29286200D03*
X19121120Y29286200D03*
X1341120Y5156200D03*
X1341120Y7696200D03*
X1341120Y10236200D03*
X1341120Y12776200D03*
D14*
X7564120Y25222200D03*
D15*
X5024120Y25222200D03*
D14*
X11882120Y24841200D03*
D15*
X14422120Y24841200D03*
D14*
X11882120Y6426200D03*
D15*
X9342120Y6426200D03*
D16*
X12771120Y28651200D03*
D17*
X15311120Y28651200D03*
D16*
X7564120Y28651200D03*
D17*
X5024120Y28651200D03*
D16*
X15057120Y1473200D03*
D17*
X15057120Y4013200D03*
X15057120Y6553200D03*
D16*
X11882120Y1727200D03*
D17*
X9342120Y1727200D03*
D11*
X17597120Y21793200D03*
X18867120Y21793200D03*
D12*
X16327120Y21793200D03*
D11*
X5151120Y2997200D03*
X3881120Y2997200D03*
D12*
X6421120Y2997200D03*
D14*
X15692120Y16332200D03*
D15*
X15692120Y13792200D03*
D16*
X18867120Y16586200D03*
D17*
X18867120Y14046200D03*
D18*
X11755120Y14935200D03*
X11755120Y16205200D03*
D19*
X11755120Y13665200D03*
M02*
