G04 #@! TF.FileFunction,Legend,Bot*
%FSLAX46Y46*%
G04 Gerber Fmt 4.6, Leading zero omitted, Abs format (unit mm)*
G04 Created by KiCad (PCBNEW 4.0.6+dfsg1-1) date Mon Feb 26 16:02:50 2018*
%MOMM*%
%LPD*%
G01*
G04 APERTURE LIST*
%ADD10C,0.100000*%
%ADD11C,0.010000*%
G04 APERTURE END LIST*
D10*
D11*
G36*
X8730848Y12057392D02*
X8653178Y12056982D01*
X8585762Y12056320D01*
X8533409Y12055407D01*
X8500929Y12054243D01*
X8492521Y12053225D01*
X8486125Y12039698D01*
X8469882Y12003168D01*
X8445072Y11946572D01*
X8412973Y11872844D01*
X8374862Y11784921D01*
X8332018Y11685736D01*
X8287978Y11583477D01*
X8241810Y11476271D01*
X8199161Y11377506D01*
X8161308Y11290121D01*
X8129529Y11217057D01*
X8105104Y11161251D01*
X8089310Y11125644D01*
X8083463Y11113203D01*
X8068749Y11108084D01*
X8032582Y11098230D01*
X7981007Y11085236D01*
X7940555Y11075499D01*
X7860679Y11055280D01*
X7770286Y11030370D01*
X7685541Y11005272D01*
X7663529Y10998345D01*
X7525025Y10953952D01*
X7117620Y11259274D01*
X7010387Y11339494D01*
X6923316Y11404177D01*
X6854086Y11454844D01*
X6800379Y11493019D01*
X6759874Y11520226D01*
X6730252Y11537989D01*
X6709193Y11547831D01*
X6694378Y11551275D01*
X6683488Y11549845D01*
X6678549Y11547650D01*
X6657220Y11535528D01*
X6615777Y11511375D01*
X6558344Y11477615D01*
X6489043Y11436674D01*
X6411997Y11390979D01*
X6389669Y11377705D01*
X6132454Y11224706D01*
X6138783Y11171425D01*
X6141730Y11144706D01*
X6147146Y11093691D01*
X6154637Y11022162D01*
X6163812Y10933900D01*
X6174274Y10832685D01*
X6185632Y10722298D01*
X6192768Y10652702D01*
X6240425Y10187260D01*
X6073665Y10017702D01*
X6014818Y9957642D01*
X5959943Y9901219D01*
X5913406Y9852954D01*
X5879574Y9817370D01*
X5866691Y9803433D01*
X5826478Y9758721D01*
X5327596Y9814903D01*
X5212297Y9827757D01*
X5106220Y9839334D01*
X5012540Y9849304D01*
X4934434Y9857341D01*
X4875075Y9863118D01*
X4837640Y9866308D01*
X4825287Y9866670D01*
X4817740Y9853632D01*
X4798391Y9819393D01*
X4769175Y9767405D01*
X4732032Y9701117D01*
X4688896Y9623981D01*
X4658151Y9568922D01*
X4494443Y9275589D01*
X4745003Y8919811D01*
X4809681Y8827905D01*
X4871201Y8740359D01*
X4927097Y8660691D01*
X4974905Y8592417D01*
X5012161Y8539055D01*
X5036400Y8504121D01*
X5040981Y8497443D01*
X5086398Y8430853D01*
X5048261Y8299887D01*
X5028312Y8227928D01*
X5005904Y8141696D01*
X4984448Y8054522D01*
X4973801Y8008859D01*
X4937478Y7848796D01*
X4013200Y7424066D01*
X4013200Y6740780D01*
X4475339Y6528102D01*
X4937478Y6315425D01*
X4973801Y6155618D01*
X4993167Y6074021D01*
X5015462Y5985622D01*
X5037266Y5903781D01*
X5048261Y5864846D01*
X5086398Y5733880D01*
X5040981Y5667290D01*
X5021398Y5638954D01*
X4988015Y5591071D01*
X4943295Y5527158D01*
X4889704Y5450732D01*
X4829706Y5365310D01*
X4765765Y5274409D01*
X4745003Y5244922D01*
X4494443Y4889144D01*
X4658151Y4595811D01*
X4704173Y4513417D01*
X4745478Y4439600D01*
X4780128Y4377810D01*
X4806187Y4331499D01*
X4821719Y4304115D01*
X4825261Y4298088D01*
X4839563Y4298592D01*
X4878728Y4301976D01*
X4939583Y4307915D01*
X5018951Y4316082D01*
X5113659Y4326151D01*
X5220531Y4337796D01*
X5327571Y4349700D01*
X5826478Y4405700D01*
X5866691Y4361145D01*
X5890201Y4335999D01*
X5929184Y4295299D01*
X5979275Y4243563D01*
X6036106Y4185309D01*
X6073665Y4147031D01*
X6240425Y3977474D01*
X6192768Y3512031D01*
X6181060Y3397934D01*
X6170009Y3290722D01*
X6160008Y3194177D01*
X6151452Y3112078D01*
X6144734Y3048209D01*
X6140247Y3006348D01*
X6138783Y2993308D01*
X6132454Y2940027D01*
X6389669Y2787029D01*
X6468140Y2740439D01*
X6540018Y2697927D01*
X6601179Y2661919D01*
X6647500Y2634840D01*
X6674857Y2619116D01*
X6678549Y2617084D01*
X6688306Y2613700D01*
X6700766Y2614389D01*
X6718250Y2620674D01*
X6743077Y2634079D01*
X6777566Y2656127D01*
X6824037Y2688341D01*
X6884809Y2732245D01*
X6962203Y2789362D01*
X7058537Y2861216D01*
X7117620Y2905459D01*
X7525025Y3210781D01*
X7663529Y3166389D01*
X7743399Y3142117D01*
X7833791Y3116676D01*
X7918541Y3094568D01*
X7940555Y3089234D01*
X7999102Y3075023D01*
X8046320Y3062876D01*
X8076161Y3054387D01*
X8083432Y3051530D01*
X8089813Y3037878D01*
X8106037Y3001227D01*
X8130826Y2944519D01*
X8162901Y2870696D01*
X8200985Y2782697D01*
X8243800Y2683463D01*
X8287656Y2581547D01*
X8333786Y2474381D01*
X8376414Y2375670D01*
X8414261Y2288354D01*
X8446045Y2215372D01*
X8470489Y2159662D01*
X8486312Y2124163D01*
X8492191Y2111838D01*
X8507547Y2109892D01*
X8546264Y2108181D01*
X8603480Y2106731D01*
X8674335Y2105564D01*
X8753968Y2104707D01*
X8837519Y2104183D01*
X8920126Y2104017D01*
X8996929Y2104235D01*
X9063067Y2104860D01*
X9113679Y2105917D01*
X9143904Y2107431D01*
X9150141Y2108505D01*
X9158277Y2122742D01*
X9176142Y2159980D01*
X9202406Y2217255D01*
X9235738Y2291600D01*
X9274809Y2380053D01*
X9318290Y2479647D01*
X9362187Y2581227D01*
X9408356Y2688436D01*
X9451007Y2787205D01*
X9488862Y2874593D01*
X9520642Y2947662D01*
X9545069Y3003472D01*
X9560866Y3039083D01*
X9566715Y3051530D01*
X9581428Y3056649D01*
X9617596Y3066503D01*
X9669170Y3079497D01*
X9709623Y3089234D01*
X9789499Y3109453D01*
X9879892Y3134363D01*
X9964637Y3159461D01*
X9986648Y3166389D01*
X10125152Y3210781D01*
X10532558Y2905459D01*
X10639790Y2825239D01*
X10726862Y2760557D01*
X10796091Y2709890D01*
X10849799Y2671714D01*
X10890304Y2644507D01*
X10919926Y2626744D01*
X10940984Y2616902D01*
X10955799Y2613458D01*
X10966689Y2614889D01*
X10971629Y2617084D01*
X10992957Y2629205D01*
X11034400Y2653358D01*
X11091834Y2687118D01*
X11161135Y2728059D01*
X11238180Y2773754D01*
X11260508Y2787029D01*
X11517723Y2940027D01*
X11511395Y2993308D01*
X11508448Y3020027D01*
X11503032Y3071042D01*
X11495540Y3142571D01*
X11486366Y3230834D01*
X11475903Y3332048D01*
X11464545Y3442435D01*
X11457409Y3512031D01*
X11409752Y3977474D01*
X11576513Y4147031D01*
X11635359Y4207092D01*
X11690235Y4263515D01*
X11736772Y4311779D01*
X11770603Y4347363D01*
X11783487Y4361301D01*
X11823700Y4406012D01*
X12322581Y4349830D01*
X12437881Y4336976D01*
X12543958Y4325400D01*
X12637637Y4315429D01*
X12715744Y4307392D01*
X12775102Y4301615D01*
X12812537Y4298425D01*
X12824891Y4298063D01*
X12832437Y4311101D01*
X12851787Y4345340D01*
X12881002Y4397328D01*
X12918146Y4463616D01*
X12961281Y4540752D01*
X12992026Y4595811D01*
X13155734Y4889144D01*
X12905174Y5244922D01*
X12840496Y5336828D01*
X12778977Y5424374D01*
X12723081Y5504042D01*
X12675273Y5572316D01*
X12638017Y5625678D01*
X12613778Y5660612D01*
X12609196Y5667290D01*
X12563779Y5733880D01*
X12601916Y5864846D01*
X12621865Y5936805D01*
X12644273Y6023037D01*
X12665729Y6110212D01*
X12676377Y6155874D01*
X12712700Y6315937D01*
X13636978Y6740667D01*
X13636978Y7082367D01*
X11647311Y7082367D01*
X11642747Y6880920D01*
X11628123Y6697487D01*
X11602045Y6523221D01*
X11563115Y6349277D01*
X11509940Y6166808D01*
X11496199Y6124667D01*
X11393442Y5858514D01*
X11266410Y5605137D01*
X11116397Y5366244D01*
X10944696Y5143545D01*
X10752598Y4938746D01*
X10541398Y4753557D01*
X10356144Y4618387D01*
X10257973Y4557496D01*
X10141923Y4493249D01*
X10016421Y4429759D01*
X9889894Y4371138D01*
X9770771Y4321499D01*
X9683002Y4289886D01*
X9549617Y4250698D01*
X9405235Y4215545D01*
X9262288Y4187195D01*
X9141119Y4169310D01*
X9060037Y4162613D01*
X8959738Y4158422D01*
X8849114Y4156739D01*
X8737057Y4157568D01*
X8632462Y4160912D01*
X8544220Y4166775D01*
X8521803Y4169079D01*
X8265157Y4210271D01*
X8018842Y4274577D01*
X7776978Y4363734D01*
X7618589Y4436220D01*
X7447949Y4525845D01*
X7294915Y4619333D01*
X7149024Y4723520D01*
X7023284Y4825203D01*
X6820205Y5015612D01*
X6637083Y5225087D01*
X6474872Y5451828D01*
X6334526Y5694033D01*
X6217000Y5949903D01*
X6123249Y6217637D01*
X6054228Y6495434D01*
X6017647Y6722163D01*
X6012531Y6778508D01*
X6008182Y6854911D01*
X6004936Y6943212D01*
X6003128Y7035248D01*
X6002866Y7082367D01*
X6007431Y7283813D01*
X6022054Y7467246D01*
X6048133Y7641512D01*
X6087062Y7815456D01*
X6140238Y7997925D01*
X6153979Y8040066D01*
X6256736Y8306219D01*
X6383767Y8559596D01*
X6533780Y8798489D01*
X6705482Y9021189D01*
X6897579Y9225987D01*
X7108779Y9411176D01*
X7294033Y9546346D01*
X7391708Y9606942D01*
X7507208Y9670925D01*
X7632147Y9734200D01*
X7758140Y9792674D01*
X7876799Y9842251D01*
X7966229Y9874533D01*
X8235509Y9947526D01*
X8508892Y9992945D01*
X8784468Y10010789D01*
X9060324Y10001060D01*
X9334551Y9963756D01*
X9605238Y9898879D01*
X9683949Y9874533D01*
X9789665Y9835827D01*
X9909895Y9784719D01*
X10036252Y9725304D01*
X10160350Y9661675D01*
X10273804Y9597927D01*
X10356144Y9546346D01*
X10581949Y9378392D01*
X10789704Y9189438D01*
X10978116Y8981190D01*
X11145894Y8755359D01*
X11291743Y8513651D01*
X11414370Y8257776D01*
X11496199Y8040066D01*
X11552694Y7854536D01*
X11594636Y7679476D01*
X11623420Y7506040D01*
X11640443Y7325381D01*
X11647099Y7128654D01*
X11647311Y7082367D01*
X13636978Y7082367D01*
X13636978Y7424066D01*
X12712700Y7848796D01*
X12676377Y8008859D01*
X12657030Y8090485D01*
X12634758Y8178888D01*
X12612969Y8260735D01*
X12601916Y8299887D01*
X12563779Y8430853D01*
X12609196Y8497443D01*
X12628779Y8525779D01*
X12662163Y8573662D01*
X12706882Y8637575D01*
X12760473Y8714001D01*
X12820472Y8799423D01*
X12884412Y8890324D01*
X12905174Y8919811D01*
X13155734Y9275589D01*
X12992026Y9568922D01*
X12946003Y9651318D01*
X12904695Y9725139D01*
X12870040Y9786933D01*
X12843975Y9833250D01*
X12828437Y9860640D01*
X12824891Y9866670D01*
X12810584Y9866168D01*
X12771415Y9862775D01*
X12710557Y9856819D01*
X12631187Y9848627D01*
X12536480Y9838526D01*
X12429610Y9826844D01*
X12322581Y9814903D01*
X11823700Y9758721D01*
X11783487Y9803433D01*
X11759975Y9828633D01*
X11720988Y9869381D01*
X11670893Y9921155D01*
X11614058Y9979434D01*
X11576513Y10017702D01*
X11409752Y10187260D01*
X11457409Y10652702D01*
X11469118Y10766799D01*
X11480169Y10874011D01*
X11490169Y10970557D01*
X11498725Y11052655D01*
X11505443Y11116525D01*
X11509930Y11158385D01*
X11511395Y11171425D01*
X11517723Y11224706D01*
X11260508Y11377705D01*
X11182037Y11424294D01*
X11110160Y11466806D01*
X11048999Y11502814D01*
X11002678Y11529893D01*
X10975320Y11545617D01*
X10971629Y11547650D01*
X10961872Y11551033D01*
X10949411Y11550344D01*
X10931927Y11544059D01*
X10907101Y11530654D01*
X10872612Y11508607D01*
X10826141Y11476392D01*
X10765368Y11432488D01*
X10687974Y11375371D01*
X10591640Y11303517D01*
X10532558Y11259274D01*
X10125152Y10953952D01*
X9986648Y10998345D01*
X9906779Y11022616D01*
X9816386Y11048057D01*
X9731637Y11070165D01*
X9709623Y11075499D01*
X9651071Y11089710D01*
X9603845Y11101858D01*
X9573993Y11110347D01*
X9566715Y11113203D01*
X9560324Y11126854D01*
X9544084Y11163502D01*
X9519275Y11220207D01*
X9487174Y11294030D01*
X9449060Y11382031D01*
X9406212Y11481270D01*
X9362200Y11583477D01*
X9316036Y11690658D01*
X9273388Y11789374D01*
X9235534Y11876690D01*
X9203752Y11949671D01*
X9179320Y12005380D01*
X9163516Y12040884D01*
X9157656Y12053225D01*
X9142872Y12054574D01*
X9104676Y12055673D01*
X9047878Y12056519D01*
X8977287Y12057115D01*
X8897712Y12057458D01*
X8813962Y12057551D01*
X8730848Y12057392D01*
X8730848Y12057392D01*
G37*
X8730848Y12057392D02*
X8653178Y12056982D01*
X8585762Y12056320D01*
X8533409Y12055407D01*
X8500929Y12054243D01*
X8492521Y12053225D01*
X8486125Y12039698D01*
X8469882Y12003168D01*
X8445072Y11946572D01*
X8412973Y11872844D01*
X8374862Y11784921D01*
X8332018Y11685736D01*
X8287978Y11583477D01*
X8241810Y11476271D01*
X8199161Y11377506D01*
X8161308Y11290121D01*
X8129529Y11217057D01*
X8105104Y11161251D01*
X8089310Y11125644D01*
X8083463Y11113203D01*
X8068749Y11108084D01*
X8032582Y11098230D01*
X7981007Y11085236D01*
X7940555Y11075499D01*
X7860679Y11055280D01*
X7770286Y11030370D01*
X7685541Y11005272D01*
X7663529Y10998345D01*
X7525025Y10953952D01*
X7117620Y11259274D01*
X7010387Y11339494D01*
X6923316Y11404177D01*
X6854086Y11454844D01*
X6800379Y11493019D01*
X6759874Y11520226D01*
X6730252Y11537989D01*
X6709193Y11547831D01*
X6694378Y11551275D01*
X6683488Y11549845D01*
X6678549Y11547650D01*
X6657220Y11535528D01*
X6615777Y11511375D01*
X6558344Y11477615D01*
X6489043Y11436674D01*
X6411997Y11390979D01*
X6389669Y11377705D01*
X6132454Y11224706D01*
X6138783Y11171425D01*
X6141730Y11144706D01*
X6147146Y11093691D01*
X6154637Y11022162D01*
X6163812Y10933900D01*
X6174274Y10832685D01*
X6185632Y10722298D01*
X6192768Y10652702D01*
X6240425Y10187260D01*
X6073665Y10017702D01*
X6014818Y9957642D01*
X5959943Y9901219D01*
X5913406Y9852954D01*
X5879574Y9817370D01*
X5866691Y9803433D01*
X5826478Y9758721D01*
X5327596Y9814903D01*
X5212297Y9827757D01*
X5106220Y9839334D01*
X5012540Y9849304D01*
X4934434Y9857341D01*
X4875075Y9863118D01*
X4837640Y9866308D01*
X4825287Y9866670D01*
X4817740Y9853632D01*
X4798391Y9819393D01*
X4769175Y9767405D01*
X4732032Y9701117D01*
X4688896Y9623981D01*
X4658151Y9568922D01*
X4494443Y9275589D01*
X4745003Y8919811D01*
X4809681Y8827905D01*
X4871201Y8740359D01*
X4927097Y8660691D01*
X4974905Y8592417D01*
X5012161Y8539055D01*
X5036400Y8504121D01*
X5040981Y8497443D01*
X5086398Y8430853D01*
X5048261Y8299887D01*
X5028312Y8227928D01*
X5005904Y8141696D01*
X4984448Y8054522D01*
X4973801Y8008859D01*
X4937478Y7848796D01*
X4013200Y7424066D01*
X4013200Y6740780D01*
X4475339Y6528102D01*
X4937478Y6315425D01*
X4973801Y6155618D01*
X4993167Y6074021D01*
X5015462Y5985622D01*
X5037266Y5903781D01*
X5048261Y5864846D01*
X5086398Y5733880D01*
X5040981Y5667290D01*
X5021398Y5638954D01*
X4988015Y5591071D01*
X4943295Y5527158D01*
X4889704Y5450732D01*
X4829706Y5365310D01*
X4765765Y5274409D01*
X4745003Y5244922D01*
X4494443Y4889144D01*
X4658151Y4595811D01*
X4704173Y4513417D01*
X4745478Y4439600D01*
X4780128Y4377810D01*
X4806187Y4331499D01*
X4821719Y4304115D01*
X4825261Y4298088D01*
X4839563Y4298592D01*
X4878728Y4301976D01*
X4939583Y4307915D01*
X5018951Y4316082D01*
X5113659Y4326151D01*
X5220531Y4337796D01*
X5327571Y4349700D01*
X5826478Y4405700D01*
X5866691Y4361145D01*
X5890201Y4335999D01*
X5929184Y4295299D01*
X5979275Y4243563D01*
X6036106Y4185309D01*
X6073665Y4147031D01*
X6240425Y3977474D01*
X6192768Y3512031D01*
X6181060Y3397934D01*
X6170009Y3290722D01*
X6160008Y3194177D01*
X6151452Y3112078D01*
X6144734Y3048209D01*
X6140247Y3006348D01*
X6138783Y2993308D01*
X6132454Y2940027D01*
X6389669Y2787029D01*
X6468140Y2740439D01*
X6540018Y2697927D01*
X6601179Y2661919D01*
X6647500Y2634840D01*
X6674857Y2619116D01*
X6678549Y2617084D01*
X6688306Y2613700D01*
X6700766Y2614389D01*
X6718250Y2620674D01*
X6743077Y2634079D01*
X6777566Y2656127D01*
X6824037Y2688341D01*
X6884809Y2732245D01*
X6962203Y2789362D01*
X7058537Y2861216D01*
X7117620Y2905459D01*
X7525025Y3210781D01*
X7663529Y3166389D01*
X7743399Y3142117D01*
X7833791Y3116676D01*
X7918541Y3094568D01*
X7940555Y3089234D01*
X7999102Y3075023D01*
X8046320Y3062876D01*
X8076161Y3054387D01*
X8083432Y3051530D01*
X8089813Y3037878D01*
X8106037Y3001227D01*
X8130826Y2944519D01*
X8162901Y2870696D01*
X8200985Y2782697D01*
X8243800Y2683463D01*
X8287656Y2581547D01*
X8333786Y2474381D01*
X8376414Y2375670D01*
X8414261Y2288354D01*
X8446045Y2215372D01*
X8470489Y2159662D01*
X8486312Y2124163D01*
X8492191Y2111838D01*
X8507547Y2109892D01*
X8546264Y2108181D01*
X8603480Y2106731D01*
X8674335Y2105564D01*
X8753968Y2104707D01*
X8837519Y2104183D01*
X8920126Y2104017D01*
X8996929Y2104235D01*
X9063067Y2104860D01*
X9113679Y2105917D01*
X9143904Y2107431D01*
X9150141Y2108505D01*
X9158277Y2122742D01*
X9176142Y2159980D01*
X9202406Y2217255D01*
X9235738Y2291600D01*
X9274809Y2380053D01*
X9318290Y2479647D01*
X9362187Y2581227D01*
X9408356Y2688436D01*
X9451007Y2787205D01*
X9488862Y2874593D01*
X9520642Y2947662D01*
X9545069Y3003472D01*
X9560866Y3039083D01*
X9566715Y3051530D01*
X9581428Y3056649D01*
X9617596Y3066503D01*
X9669170Y3079497D01*
X9709623Y3089234D01*
X9789499Y3109453D01*
X9879892Y3134363D01*
X9964637Y3159461D01*
X9986648Y3166389D01*
X10125152Y3210781D01*
X10532558Y2905459D01*
X10639790Y2825239D01*
X10726862Y2760557D01*
X10796091Y2709890D01*
X10849799Y2671714D01*
X10890304Y2644507D01*
X10919926Y2626744D01*
X10940984Y2616902D01*
X10955799Y2613458D01*
X10966689Y2614889D01*
X10971629Y2617084D01*
X10992957Y2629205D01*
X11034400Y2653358D01*
X11091834Y2687118D01*
X11161135Y2728059D01*
X11238180Y2773754D01*
X11260508Y2787029D01*
X11517723Y2940027D01*
X11511395Y2993308D01*
X11508448Y3020027D01*
X11503032Y3071042D01*
X11495540Y3142571D01*
X11486366Y3230834D01*
X11475903Y3332048D01*
X11464545Y3442435D01*
X11457409Y3512031D01*
X11409752Y3977474D01*
X11576513Y4147031D01*
X11635359Y4207092D01*
X11690235Y4263515D01*
X11736772Y4311779D01*
X11770603Y4347363D01*
X11783487Y4361301D01*
X11823700Y4406012D01*
X12322581Y4349830D01*
X12437881Y4336976D01*
X12543958Y4325400D01*
X12637637Y4315429D01*
X12715744Y4307392D01*
X12775102Y4301615D01*
X12812537Y4298425D01*
X12824891Y4298063D01*
X12832437Y4311101D01*
X12851787Y4345340D01*
X12881002Y4397328D01*
X12918146Y4463616D01*
X12961281Y4540752D01*
X12992026Y4595811D01*
X13155734Y4889144D01*
X12905174Y5244922D01*
X12840496Y5336828D01*
X12778977Y5424374D01*
X12723081Y5504042D01*
X12675273Y5572316D01*
X12638017Y5625678D01*
X12613778Y5660612D01*
X12609196Y5667290D01*
X12563779Y5733880D01*
X12601916Y5864846D01*
X12621865Y5936805D01*
X12644273Y6023037D01*
X12665729Y6110212D01*
X12676377Y6155874D01*
X12712700Y6315937D01*
X13636978Y6740667D01*
X13636978Y7082367D01*
X11647311Y7082367D01*
X11642747Y6880920D01*
X11628123Y6697487D01*
X11602045Y6523221D01*
X11563115Y6349277D01*
X11509940Y6166808D01*
X11496199Y6124667D01*
X11393442Y5858514D01*
X11266410Y5605137D01*
X11116397Y5366244D01*
X10944696Y5143545D01*
X10752598Y4938746D01*
X10541398Y4753557D01*
X10356144Y4618387D01*
X10257973Y4557496D01*
X10141923Y4493249D01*
X10016421Y4429759D01*
X9889894Y4371138D01*
X9770771Y4321499D01*
X9683002Y4289886D01*
X9549617Y4250698D01*
X9405235Y4215545D01*
X9262288Y4187195D01*
X9141119Y4169310D01*
X9060037Y4162613D01*
X8959738Y4158422D01*
X8849114Y4156739D01*
X8737057Y4157568D01*
X8632462Y4160912D01*
X8544220Y4166775D01*
X8521803Y4169079D01*
X8265157Y4210271D01*
X8018842Y4274577D01*
X7776978Y4363734D01*
X7618589Y4436220D01*
X7447949Y4525845D01*
X7294915Y4619333D01*
X7149024Y4723520D01*
X7023284Y4825203D01*
X6820205Y5015612D01*
X6637083Y5225087D01*
X6474872Y5451828D01*
X6334526Y5694033D01*
X6217000Y5949903D01*
X6123249Y6217637D01*
X6054228Y6495434D01*
X6017647Y6722163D01*
X6012531Y6778508D01*
X6008182Y6854911D01*
X6004936Y6943212D01*
X6003128Y7035248D01*
X6002866Y7082367D01*
X6007431Y7283813D01*
X6022054Y7467246D01*
X6048133Y7641512D01*
X6087062Y7815456D01*
X6140238Y7997925D01*
X6153979Y8040066D01*
X6256736Y8306219D01*
X6383767Y8559596D01*
X6533780Y8798489D01*
X6705482Y9021189D01*
X6897579Y9225987D01*
X7108779Y9411176D01*
X7294033Y9546346D01*
X7391708Y9606942D01*
X7507208Y9670925D01*
X7632147Y9734200D01*
X7758140Y9792674D01*
X7876799Y9842251D01*
X7966229Y9874533D01*
X8235509Y9947526D01*
X8508892Y9992945D01*
X8784468Y10010789D01*
X9060324Y10001060D01*
X9334551Y9963756D01*
X9605238Y9898879D01*
X9683949Y9874533D01*
X9789665Y9835827D01*
X9909895Y9784719D01*
X10036252Y9725304D01*
X10160350Y9661675D01*
X10273804Y9597927D01*
X10356144Y9546346D01*
X10581949Y9378392D01*
X10789704Y9189438D01*
X10978116Y8981190D01*
X11145894Y8755359D01*
X11291743Y8513651D01*
X11414370Y8257776D01*
X11496199Y8040066D01*
X11552694Y7854536D01*
X11594636Y7679476D01*
X11623420Y7506040D01*
X11640443Y7325381D01*
X11647099Y7128654D01*
X11647311Y7082367D01*
X13636978Y7082367D01*
X13636978Y7424066D01*
X12712700Y7848796D01*
X12676377Y8008859D01*
X12657030Y8090485D01*
X12634758Y8178888D01*
X12612969Y8260735D01*
X12601916Y8299887D01*
X12563779Y8430853D01*
X12609196Y8497443D01*
X12628779Y8525779D01*
X12662163Y8573662D01*
X12706882Y8637575D01*
X12760473Y8714001D01*
X12820472Y8799423D01*
X12884412Y8890324D01*
X12905174Y8919811D01*
X13155734Y9275589D01*
X12992026Y9568922D01*
X12946003Y9651318D01*
X12904695Y9725139D01*
X12870040Y9786933D01*
X12843975Y9833250D01*
X12828437Y9860640D01*
X12824891Y9866670D01*
X12810584Y9866168D01*
X12771415Y9862775D01*
X12710557Y9856819D01*
X12631187Y9848627D01*
X12536480Y9838526D01*
X12429610Y9826844D01*
X12322581Y9814903D01*
X11823700Y9758721D01*
X11783487Y9803433D01*
X11759975Y9828633D01*
X11720988Y9869381D01*
X11670893Y9921155D01*
X11614058Y9979434D01*
X11576513Y10017702D01*
X11409752Y10187260D01*
X11457409Y10652702D01*
X11469118Y10766799D01*
X11480169Y10874011D01*
X11490169Y10970557D01*
X11498725Y11052655D01*
X11505443Y11116525D01*
X11509930Y11158385D01*
X11511395Y11171425D01*
X11517723Y11224706D01*
X11260508Y11377705D01*
X11182037Y11424294D01*
X11110160Y11466806D01*
X11048999Y11502814D01*
X11002678Y11529893D01*
X10975320Y11545617D01*
X10971629Y11547650D01*
X10961872Y11551033D01*
X10949411Y11550344D01*
X10931927Y11544059D01*
X10907101Y11530654D01*
X10872612Y11508607D01*
X10826141Y11476392D01*
X10765368Y11432488D01*
X10687974Y11375371D01*
X10591640Y11303517D01*
X10532558Y11259274D01*
X10125152Y10953952D01*
X9986648Y10998345D01*
X9906779Y11022616D01*
X9816386Y11048057D01*
X9731637Y11070165D01*
X9709623Y11075499D01*
X9651071Y11089710D01*
X9603845Y11101858D01*
X9573993Y11110347D01*
X9566715Y11113203D01*
X9560324Y11126854D01*
X9544084Y11163502D01*
X9519275Y11220207D01*
X9487174Y11294030D01*
X9449060Y11382031D01*
X9406212Y11481270D01*
X9362200Y11583477D01*
X9316036Y11690658D01*
X9273388Y11789374D01*
X9235534Y11876690D01*
X9203752Y11949671D01*
X9179320Y12005380D01*
X9163516Y12040884D01*
X9157656Y12053225D01*
X9142872Y12054574D01*
X9104676Y12055673D01*
X9047878Y12056519D01*
X8977287Y12057115D01*
X8897712Y12057458D01*
X8813962Y12057551D01*
X8730848Y12057392D01*
G36*
X10101692Y3157352D02*
X10082473Y3146316D01*
X10090686Y3139630D01*
X10110033Y3138311D01*
X10129707Y3143521D01*
X10130747Y3151806D01*
X10112390Y3159493D01*
X10101692Y3157352D01*
X10101692Y3157352D01*
G37*
X10101692Y3157352D02*
X10082473Y3146316D01*
X10090686Y3139630D01*
X10110033Y3138311D01*
X10129707Y3143521D01*
X10130747Y3151806D01*
X10112390Y3159493D01*
X10101692Y3157352D01*
G36*
X9564013Y8937888D02*
X9371111Y8937595D01*
X9203555Y8937060D01*
X9059909Y8936246D01*
X8938735Y8935115D01*
X8838596Y8933630D01*
X8758053Y8931754D01*
X8695671Y8929448D01*
X8650010Y8926676D01*
X8619635Y8923399D01*
X8603107Y8919581D01*
X8598989Y8915183D01*
X8605844Y8910168D01*
X8612977Y8907404D01*
X8619262Y8892942D01*
X8630480Y8854275D01*
X8645789Y8794821D01*
X8664349Y8718001D01*
X8685319Y8627232D01*
X8707860Y8525936D01*
X8716441Y8486422D01*
X8806240Y8070144D01*
X9660195Y8066508D01*
X10514149Y8062872D01*
X10553520Y7883064D01*
X10568784Y7814273D01*
X10582361Y7754789D01*
X10592898Y7710417D01*
X10599043Y7686964D01*
X10599499Y7685617D01*
X10595820Y7680025D01*
X10578382Y7675671D01*
X10544620Y7672427D01*
X10491966Y7670167D01*
X10417852Y7668763D01*
X10319710Y7668087D01*
X10244127Y7667978D01*
X9882147Y7667978D01*
X9604090Y7248172D01*
X9539727Y7150904D01*
X9480369Y7061018D01*
X9427806Y6981238D01*
X9383827Y6914289D01*
X9350222Y6862893D01*
X9328779Y6829776D01*
X9321329Y6817783D01*
X9334082Y6815752D01*
X9372460Y6813849D01*
X9433865Y6812112D01*
X9515702Y6810578D01*
X9615372Y6809285D01*
X9730278Y6808271D01*
X9857824Y6807573D01*
X9995412Y6807230D01*
X10050629Y6807200D01*
X10213650Y6807152D01*
X10350715Y6806959D01*
X10464091Y6806545D01*
X10556042Y6805835D01*
X10628837Y6804752D01*
X10684741Y6803223D01*
X10726019Y6801170D01*
X10754939Y6798518D01*
X10773766Y6795193D01*
X10784767Y6791118D01*
X10790208Y6786218D01*
X10791852Y6782505D01*
X10796737Y6762354D01*
X10806378Y6719812D01*
X10819826Y6659265D01*
X10836130Y6585100D01*
X10854340Y6501705D01*
X10873508Y6413466D01*
X10892683Y6324770D01*
X10910915Y6240004D01*
X10927254Y6163555D01*
X10940752Y6099809D01*
X10950457Y6053154D01*
X10955421Y6027977D01*
X10955866Y6024933D01*
X10942158Y6023522D01*
X10902640Y6022192D01*
X10839726Y6020963D01*
X10755829Y6019859D01*
X10653363Y6018901D01*
X10534740Y6018112D01*
X10402373Y6017514D01*
X10258676Y6017129D01*
X10106062Y6016979D01*
X10090973Y6016978D01*
X9226080Y6016978D01*
X8937440Y5619396D01*
X8869269Y5525683D01*
X8805827Y5438826D01*
X8749144Y5361580D01*
X8701251Y5296694D01*
X8664176Y5246922D01*
X8639952Y5215016D01*
X8631110Y5204126D01*
X8615898Y5184951D01*
X8613422Y5178375D01*
X8627185Y5177134D01*
X8667085Y5175952D01*
X8731034Y5174843D01*
X8816946Y5173821D01*
X8922736Y5172901D01*
X9046316Y5172097D01*
X9185601Y5171425D01*
X9338504Y5170897D01*
X9502940Y5170530D01*
X9676821Y5170337D01*
X9770548Y5170311D01*
X10927674Y5170311D01*
X10994687Y5256185D01*
X11158126Y5488172D01*
X11298721Y5735112D01*
X11415359Y5994267D01*
X11506925Y6262900D01*
X11572305Y6538276D01*
X11604163Y6753727D01*
X11618541Y6969313D01*
X11617164Y7197227D01*
X11600524Y7426724D01*
X11569118Y7647059D01*
X11561095Y7689144D01*
X11515258Y7876350D01*
X11452122Y8070396D01*
X11374538Y8265055D01*
X11285356Y8454098D01*
X11187426Y8631298D01*
X11083601Y8790427D01*
X11016928Y8878005D01*
X10968088Y8937978D01*
X9783700Y8937978D01*
X9564013Y8937888D01*
X9564013Y8937888D01*
G37*
X9564013Y8937888D02*
X9371111Y8937595D01*
X9203555Y8937060D01*
X9059909Y8936246D01*
X8938735Y8935115D01*
X8838596Y8933630D01*
X8758053Y8931754D01*
X8695671Y8929448D01*
X8650010Y8926676D01*
X8619635Y8923399D01*
X8603107Y8919581D01*
X8598989Y8915183D01*
X8605844Y8910168D01*
X8612977Y8907404D01*
X8619262Y8892942D01*
X8630480Y8854275D01*
X8645789Y8794821D01*
X8664349Y8718001D01*
X8685319Y8627232D01*
X8707860Y8525936D01*
X8716441Y8486422D01*
X8806240Y8070144D01*
X9660195Y8066508D01*
X10514149Y8062872D01*
X10553520Y7883064D01*
X10568784Y7814273D01*
X10582361Y7754789D01*
X10592898Y7710417D01*
X10599043Y7686964D01*
X10599499Y7685617D01*
X10595820Y7680025D01*
X10578382Y7675671D01*
X10544620Y7672427D01*
X10491966Y7670167D01*
X10417852Y7668763D01*
X10319710Y7668087D01*
X10244127Y7667978D01*
X9882147Y7667978D01*
X9604090Y7248172D01*
X9539727Y7150904D01*
X9480369Y7061018D01*
X9427806Y6981238D01*
X9383827Y6914289D01*
X9350222Y6862893D01*
X9328779Y6829776D01*
X9321329Y6817783D01*
X9334082Y6815752D01*
X9372460Y6813849D01*
X9433865Y6812112D01*
X9515702Y6810578D01*
X9615372Y6809285D01*
X9730278Y6808271D01*
X9857824Y6807573D01*
X9995412Y6807230D01*
X10050629Y6807200D01*
X10213650Y6807152D01*
X10350715Y6806959D01*
X10464091Y6806545D01*
X10556042Y6805835D01*
X10628837Y6804752D01*
X10684741Y6803223D01*
X10726019Y6801170D01*
X10754939Y6798518D01*
X10773766Y6795193D01*
X10784767Y6791118D01*
X10790208Y6786218D01*
X10791852Y6782505D01*
X10796737Y6762354D01*
X10806378Y6719812D01*
X10819826Y6659265D01*
X10836130Y6585100D01*
X10854340Y6501705D01*
X10873508Y6413466D01*
X10892683Y6324770D01*
X10910915Y6240004D01*
X10927254Y6163555D01*
X10940752Y6099809D01*
X10950457Y6053154D01*
X10955421Y6027977D01*
X10955866Y6024933D01*
X10942158Y6023522D01*
X10902640Y6022192D01*
X10839726Y6020963D01*
X10755829Y6019859D01*
X10653363Y6018901D01*
X10534740Y6018112D01*
X10402373Y6017514D01*
X10258676Y6017129D01*
X10106062Y6016979D01*
X10090973Y6016978D01*
X9226080Y6016978D01*
X8937440Y5619396D01*
X8869269Y5525683D01*
X8805827Y5438826D01*
X8749144Y5361580D01*
X8701251Y5296694D01*
X8664176Y5246922D01*
X8639952Y5215016D01*
X8631110Y5204126D01*
X8615898Y5184951D01*
X8613422Y5178375D01*
X8627185Y5177134D01*
X8667085Y5175952D01*
X8731034Y5174843D01*
X8816946Y5173821D01*
X8922736Y5172901D01*
X9046316Y5172097D01*
X9185601Y5171425D01*
X9338504Y5170897D01*
X9502940Y5170530D01*
X9676821Y5170337D01*
X9770548Y5170311D01*
X10927674Y5170311D01*
X10994687Y5256185D01*
X11158126Y5488172D01*
X11298721Y5735112D01*
X11415359Y5994267D01*
X11506925Y6262900D01*
X11572305Y6538276D01*
X11604163Y6753727D01*
X11618541Y6969313D01*
X11617164Y7197227D01*
X11600524Y7426724D01*
X11569118Y7647059D01*
X11561095Y7689144D01*
X11515258Y7876350D01*
X11452122Y8070396D01*
X11374538Y8265055D01*
X11285356Y8454098D01*
X11187426Y8631298D01*
X11083601Y8790427D01*
X11016928Y8878005D01*
X10968088Y8937978D01*
X9783700Y8937978D01*
X9564013Y8937888D01*
G36*
X6633250Y8878005D02*
X6524744Y8729885D01*
X6420992Y8559582D01*
X6324718Y8373063D01*
X6238652Y8176297D01*
X6165518Y7975249D01*
X6108045Y7775887D01*
X6086727Y7682089D01*
X6069389Y7583958D01*
X6060839Y7494720D01*
X6061343Y7406620D01*
X6071165Y7311907D01*
X6090570Y7202824D01*
X6105449Y7133780D01*
X6151033Y6931194D01*
X7131755Y6397970D01*
X7285352Y6314533D01*
X7431666Y6235196D01*
X7568822Y6160967D01*
X7694945Y6092855D01*
X7808161Y6031866D01*
X7906594Y5979010D01*
X7988369Y5935294D01*
X8051612Y5901726D01*
X8094448Y5879314D01*
X8115002Y5869066D01*
X8116577Y5868526D01*
X8114436Y5882393D01*
X8107039Y5920183D01*
X8095168Y5978249D01*
X8079606Y6052947D01*
X8061136Y6140629D01*
X8040541Y6237650D01*
X8018605Y6340365D01*
X7996110Y6445127D01*
X7973840Y6548290D01*
X7952577Y6646210D01*
X7933104Y6735240D01*
X7916206Y6811734D01*
X7902664Y6872046D01*
X7893262Y6912530D01*
X7888782Y6929542D01*
X7888630Y6929817D01*
X7876188Y6937136D01*
X7842019Y6956706D01*
X7788975Y6986909D01*
X7719906Y7026126D01*
X7637665Y7072735D01*
X7545102Y7125120D01*
X7470101Y7167517D01*
X7371127Y7223563D01*
X7279913Y7275450D01*
X7199393Y7321491D01*
X7132503Y7359998D01*
X7082176Y7389283D01*
X7051348Y7407659D01*
X7042822Y7413233D01*
X7037172Y7429394D01*
X7027159Y7469084D01*
X7013667Y7528101D01*
X6997580Y7602243D01*
X6979782Y7687309D01*
X6961157Y7779096D01*
X6942589Y7873404D01*
X6924963Y7966031D01*
X6914259Y8024283D01*
X6904699Y8077200D01*
X7427449Y8077200D01*
X7563193Y8077115D01*
X7673351Y8076781D01*
X7760562Y8076079D01*
X7827461Y8074891D01*
X7876687Y8073100D01*
X7910875Y8070585D01*
X7932662Y8067230D01*
X7944687Y8062915D01*
X7949585Y8057522D01*
X7950200Y8053733D01*
X7953147Y8036540D01*
X7961661Y7994034D01*
X7975254Y7928467D01*
X7993437Y7842090D01*
X8015719Y7737154D01*
X8041611Y7615912D01*
X8070625Y7480614D01*
X8102272Y7333513D01*
X8136061Y7176860D01*
X8171503Y7012906D01*
X8208111Y6843904D01*
X8245393Y6672104D01*
X8282861Y6499758D01*
X8320025Y6329118D01*
X8356397Y6162435D01*
X8391487Y6001961D01*
X8424806Y5849947D01*
X8455865Y5708646D01*
X8484173Y5580308D01*
X8509243Y5467185D01*
X8530585Y5371529D01*
X8547709Y5295592D01*
X8560126Y5241624D01*
X8567348Y5211877D01*
X8568802Y5206917D01*
X8574537Y5203134D01*
X8585972Y5209570D01*
X8604609Y5228093D01*
X8631952Y5260569D01*
X8669504Y5308863D01*
X8718767Y5374843D01*
X8781247Y5460373D01*
X8852959Y5559695D01*
X8920641Y5653585D01*
X8984997Y5742508D01*
X9043673Y5823237D01*
X9094316Y5892550D01*
X9134575Y5947222D01*
X9162095Y5984029D01*
X9171221Y5995829D01*
X9216337Y6052291D01*
X8897618Y7495134D01*
X8578898Y8937978D01*
X6682089Y8937978D01*
X6633250Y8878005D01*
X6633250Y8878005D01*
G37*
X6633250Y8878005D02*
X6524744Y8729885D01*
X6420992Y8559582D01*
X6324718Y8373063D01*
X6238652Y8176297D01*
X6165518Y7975249D01*
X6108045Y7775887D01*
X6086727Y7682089D01*
X6069389Y7583958D01*
X6060839Y7494720D01*
X6061343Y7406620D01*
X6071165Y7311907D01*
X6090570Y7202824D01*
X6105449Y7133780D01*
X6151033Y6931194D01*
X7131755Y6397970D01*
X7285352Y6314533D01*
X7431666Y6235196D01*
X7568822Y6160967D01*
X7694945Y6092855D01*
X7808161Y6031866D01*
X7906594Y5979010D01*
X7988369Y5935294D01*
X8051612Y5901726D01*
X8094448Y5879314D01*
X8115002Y5869066D01*
X8116577Y5868526D01*
X8114436Y5882393D01*
X8107039Y5920183D01*
X8095168Y5978249D01*
X8079606Y6052947D01*
X8061136Y6140629D01*
X8040541Y6237650D01*
X8018605Y6340365D01*
X7996110Y6445127D01*
X7973840Y6548290D01*
X7952577Y6646210D01*
X7933104Y6735240D01*
X7916206Y6811734D01*
X7902664Y6872046D01*
X7893262Y6912530D01*
X7888782Y6929542D01*
X7888630Y6929817D01*
X7876188Y6937136D01*
X7842019Y6956706D01*
X7788975Y6986909D01*
X7719906Y7026126D01*
X7637665Y7072735D01*
X7545102Y7125120D01*
X7470101Y7167517D01*
X7371127Y7223563D01*
X7279913Y7275450D01*
X7199393Y7321491D01*
X7132503Y7359998D01*
X7082176Y7389283D01*
X7051348Y7407659D01*
X7042822Y7413233D01*
X7037172Y7429394D01*
X7027159Y7469084D01*
X7013667Y7528101D01*
X6997580Y7602243D01*
X6979782Y7687309D01*
X6961157Y7779096D01*
X6942589Y7873404D01*
X6924963Y7966031D01*
X6914259Y8024283D01*
X6904699Y8077200D01*
X7427449Y8077200D01*
X7563193Y8077115D01*
X7673351Y8076781D01*
X7760562Y8076079D01*
X7827461Y8074891D01*
X7876687Y8073100D01*
X7910875Y8070585D01*
X7932662Y8067230D01*
X7944687Y8062915D01*
X7949585Y8057522D01*
X7950200Y8053733D01*
X7953147Y8036540D01*
X7961661Y7994034D01*
X7975254Y7928467D01*
X7993437Y7842090D01*
X8015719Y7737154D01*
X8041611Y7615912D01*
X8070625Y7480614D01*
X8102272Y7333513D01*
X8136061Y7176860D01*
X8171503Y7012906D01*
X8208111Y6843904D01*
X8245393Y6672104D01*
X8282861Y6499758D01*
X8320025Y6329118D01*
X8356397Y6162435D01*
X8391487Y6001961D01*
X8424806Y5849947D01*
X8455865Y5708646D01*
X8484173Y5580308D01*
X8509243Y5467185D01*
X8530585Y5371529D01*
X8547709Y5295592D01*
X8560126Y5241624D01*
X8567348Y5211877D01*
X8568802Y5206917D01*
X8574537Y5203134D01*
X8585972Y5209570D01*
X8604609Y5228093D01*
X8631952Y5260569D01*
X8669504Y5308863D01*
X8718767Y5374843D01*
X8781247Y5460373D01*
X8852959Y5559695D01*
X8920641Y5653585D01*
X8984997Y5742508D01*
X9043673Y5823237D01*
X9094316Y5892550D01*
X9134575Y5947222D01*
X9162095Y5984029D01*
X9171221Y5995829D01*
X9216337Y6052291D01*
X8897618Y7495134D01*
X8578898Y8937978D01*
X6682089Y8937978D01*
X6633250Y8878005D01*
M02*
