G04 #@! TF.FileFunction,Soldermask,Bot*
%FSLAX46Y46*%
G04 Gerber Fmt 4.6, Leading zero omitted, Abs format (unit mm)*
G04 Created by KiCad (PCBNEW 4.0.6+dfsg1-1) date Mon Feb 26 16:02:50 2018*
%MOMM*%
%LPD*%
G01*
G04 APERTURE LIST*
%ADD10C,0.100000*%
%ADD11R,2.250000X2.250000*%
%ADD12C,2.250000*%
%ADD13R,2.100000X2.100000*%
%ADD14O,2.100000X2.100000*%
%ADD15R,1.500000X1.290000*%
%ADD16C,1.924000*%
G04 APERTURE END LIST*
D10*
D11*
X6852920Y29088080D03*
D12*
X9352920Y29088080D03*
X11852920Y29088080D03*
X14352920Y29088080D03*
D13*
X16395700Y8521700D03*
D14*
X16395700Y5981700D03*
D15*
X14715200Y14549200D03*
X14715200Y15399200D03*
X14715200Y17099200D03*
X14715200Y16249200D03*
X13658950Y16249200D03*
X13658950Y17099200D03*
X13658950Y15399200D03*
X13658950Y14549200D03*
X12602700Y14549200D03*
X12602700Y15399200D03*
X12602700Y17099200D03*
X12602700Y16249200D03*
X11546450Y16249200D03*
X11546450Y17099200D03*
X11546450Y15399200D03*
X11546450Y14549200D03*
X10490200Y14549200D03*
X10490200Y15399200D03*
X10490200Y17099200D03*
X10490200Y16249200D03*
X9433950Y16249200D03*
X9433950Y17099200D03*
X9433950Y15399200D03*
X9433950Y14549200D03*
X8377700Y14549200D03*
X8377700Y15399200D03*
X8377700Y17099200D03*
X8377700Y16249200D03*
X7321450Y16249200D03*
X7321450Y17099200D03*
X7321450Y15399200D03*
X7321450Y14549200D03*
X6265200Y14549200D03*
X6265200Y15399200D03*
X6265200Y17099200D03*
X6265200Y16249200D03*
D16*
X19126200Y1727200D03*
X19126200Y4267200D03*
X19126200Y8077200D03*
X19126200Y10617200D03*
X1346200Y1727200D03*
X1346200Y29667200D03*
X19126200Y29667200D03*
X1346200Y5537200D03*
X1346200Y8077200D03*
X1346200Y10617200D03*
X1346200Y13157200D03*
M02*
