M48
;DRILL file {KiCad 4.0.6+dfsg1-1} date Mon Feb 26 16:03:04 2018
;FORMAT={2:4/ absolute / inch / suppress leading zeros}
FMAT,2
INCH,TZ
T1C0.012
T2C0.016
T3C0.030
T4C0.035
T5C0.039
%
G90
G05
M72
T1
X2467Y6732
X2467Y6397
X2467Y6063
X2467Y5728
X2882Y6732
X2882Y6397
X2882Y6063
X2882Y5728
X3298Y6732
X3298Y6397
X3298Y6063
X3298Y5728
X3714Y6732
X3714Y6397
X3714Y6063
X3714Y5728
X4130Y6732
X4130Y6397
X4130Y6063
X4130Y5728
X4546Y6732
X4546Y6397
X4546Y6063
X4546Y5728
X4962Y6732
X4962Y6397
X4962Y6063
X4962Y5728
X5378Y6732
X5378Y6397
X5378Y6063
X5378Y5728
X5793Y6732
X5793Y6397
X5793Y6063
X5793Y5728
T2
X1230Y10670
X1550Y4290
X1570Y3190
X1750Y4930
X1790Y7810
X2450Y8270
X2550Y7890
X2690Y9910
X2766Y1743
X3210Y7950
X3230Y4570
X3270Y3870
X3710Y8250
X3750Y4610
X3865Y3870
X4230Y10450
X4290Y8310
X4290Y4290
X4770Y8070
X4770Y1250
X5090Y8270
X5230Y4580
X5510Y4210
X5830Y7850
X6250Y10230
X6430Y9130
X6810Y6810
X6830Y7730
X7010Y4790
X7080Y9880
T3
X530Y11680
X530Y5180
X530Y4180
X530Y3180
X530Y2180
X530Y680
X7530Y11680
X7530Y4180
X7530Y3180
X7530Y1680
X7530Y680
T4
X2698Y11452
X3682Y11452
X4667Y11452
X5651Y11452
T5
X6455Y3355
X6455Y2355
T0
M30
