G04 #@! TF.FileFunction,Copper,L1,Top,Signal*
%FSLAX46Y46*%
G04 Gerber Fmt 4.6, Leading zero omitted, Abs format (unit mm)*
G04 Created by KiCad (PCBNEW 4.0.6+dfsg1-1) date Mon Feb 26 15:54:24 2018*
%MOMM*%
%LPD*%
G01*
G04 APERTURE LIST*
%ADD10C,0.100000*%
%ADD11C,1.524000*%
%ADD12R,1.800000X1.800000*%
%ADD13O,1.800000X1.800000*%
%ADD14R,1.700000X1.700000*%
%ADD15O,1.700000X1.700000*%
%ADD16R,2.500000X2.500000*%
%ADD17C,2.500000*%
%ADD18C,3.000000*%
%ADD19O,1.501140X0.899160*%
%ADD20R,1.501140X0.899160*%
%ADD21R,1.200000X1.200000*%
%ADD22R,1.300000X0.700000*%
%ADD23C,0.600000*%
%ADD24C,1.000000*%
%ADD25C,2.000000*%
G04 APERTURE END LIST*
D10*
D11*
X19121120Y1346200D03*
X19121120Y3886200D03*
X19121120Y7696200D03*
X19121120Y10236200D03*
X1341120Y1346200D03*
X19121120Y29286200D03*
D12*
X11628120Y23698200D03*
D13*
X14168120Y23698200D03*
D14*
X11691620Y27317700D03*
D15*
X14231620Y27317700D03*
X16771620Y27317700D03*
D16*
X7564120Y27254200D03*
D17*
X2564120Y27254200D03*
X13817320Y5734600D03*
D18*
X13817320Y17934600D03*
X1767320Y17984600D03*
D17*
X1817320Y5734600D03*
D18*
X7767320Y3784600D03*
D19*
X17724120Y14554200D03*
X17724120Y13284200D03*
D20*
X17724120Y15824200D03*
D21*
X18824120Y23444200D03*
X16624120Y23444200D03*
D22*
X18740120Y19446200D03*
X18740120Y21346200D03*
D23*
X9342120Y11760200D03*
X17978120Y19380200D03*
X12136120Y12522200D03*
D24*
X13817320Y5734600D02*
X13817320Y9631400D01*
X15946120Y15824200D02*
X17724120Y15824200D01*
X15692120Y15570200D02*
X15946120Y15824200D01*
X15692120Y11506200D02*
X15692120Y15570200D01*
X13817320Y9631400D02*
X15692120Y11506200D01*
X17724120Y15824200D02*
X17724120Y16586200D01*
X16624120Y17686200D02*
X16624120Y23444200D01*
X17724120Y16586200D02*
X16624120Y17686200D01*
X14168120Y23698200D02*
X16370120Y23698200D01*
X16370120Y23698200D02*
X16624120Y23444200D01*
X1817320Y5734600D02*
X3062520Y5734600D01*
X3062520Y5734600D02*
X9088120Y11760200D01*
X9088120Y11760200D02*
X9342120Y11760200D01*
X11628120Y23698200D02*
X11628120Y24714200D01*
X14930120Y25476200D02*
X16771620Y27317700D01*
X12390120Y25476200D02*
X14930120Y25476200D01*
X11628120Y24714200D02*
X12390120Y25476200D01*
X18740120Y19446200D02*
X18044120Y19446200D01*
X18044120Y19446200D02*
X17978120Y19380200D01*
X19121120Y7696200D02*
X19121120Y10236200D01*
X18740120Y19446200D02*
X19182120Y19446200D01*
X19182120Y19446200D02*
X19502120Y19126200D01*
X19502120Y19126200D02*
X19502120Y10617200D01*
X19502120Y10617200D02*
X19121120Y10236200D01*
X1341120Y1346200D02*
X1341120Y1473200D01*
X1341120Y1473200D02*
X12136120Y12268200D01*
X12136120Y12268200D02*
X12136120Y12522200D01*
X17724120Y13284200D02*
X17724120Y12014200D01*
X16073120Y2743200D02*
X8808720Y2743200D01*
X17089120Y3759200D02*
X16073120Y2743200D01*
X17089120Y11379200D02*
X17089120Y3759200D01*
X17724120Y12014200D02*
X17089120Y11379200D01*
X8808720Y2743200D02*
X7767320Y3784600D01*
X14231620Y27317700D02*
X14231620Y28460700D01*
X4850120Y29540200D02*
X2564120Y27254200D01*
X13152120Y29540200D02*
X4850120Y29540200D01*
X14231620Y28460700D02*
X13152120Y29540200D01*
D25*
X7564120Y27254200D02*
X7564120Y19888200D01*
X9517720Y17934600D02*
X13817320Y17934600D01*
X7564120Y19888200D02*
X9517720Y17934600D01*
D24*
X18740120Y21346200D02*
X18740120Y23360200D01*
X18740120Y23360200D02*
X18824120Y23444200D01*
M02*
