G04 #@! TF.FileFunction,Copper,L2,Bot,Signal*
%FSLAX46Y46*%
G04 Gerber Fmt 4.6, Leading zero omitted, Abs format (unit mm)*
G04 Created by KiCad (PCBNEW 4.0.6+dfsg1-1) date Mon Feb 26 15:54:24 2018*
%MOMM*%
%LPD*%
G01*
G04 APERTURE LIST*
%ADD10C,0.100000*%
%ADD11C,1.524000*%
%ADD12R,1.800000X1.800000*%
%ADD13O,1.800000X1.800000*%
%ADD14R,1.700000X1.700000*%
%ADD15O,1.700000X1.700000*%
%ADD16R,2.500000X2.500000*%
%ADD17C,2.500000*%
%ADD18R,0.700000X1.300000*%
%ADD19C,3.000000*%
%ADD20O,1.501140X0.899160*%
%ADD21R,1.501140X0.899160*%
%ADD22C,0.600000*%
%ADD23C,1.000000*%
%ADD24C,0.254000*%
G04 APERTURE END LIST*
D10*
D11*
X19121120Y1346200D03*
X19121120Y3886200D03*
X19121120Y7696200D03*
X19121120Y10236200D03*
X1341120Y1346200D03*
X19121120Y29286200D03*
D12*
X11628120Y23698200D03*
D13*
X14168120Y23698200D03*
D14*
X11691620Y27317700D03*
D15*
X14231620Y27317700D03*
X16771620Y27317700D03*
D16*
X7564120Y27254200D03*
D17*
X2564120Y27254200D03*
D18*
X14356120Y14554200D03*
X12456120Y14554200D03*
D17*
X13817320Y5734600D03*
D19*
X13817320Y17934600D03*
X1767320Y17984600D03*
D17*
X1817320Y5734600D03*
D19*
X7767320Y3784600D03*
D20*
X17724120Y14554200D03*
X17724120Y13284200D03*
D21*
X17724120Y15824200D03*
D18*
X14356120Y12522200D03*
X12456120Y12522200D03*
D22*
X9342120Y11760200D03*
X17978120Y19380200D03*
X12136120Y12522200D03*
D23*
X19121120Y1346200D02*
X19121120Y3886200D01*
X11691620Y27317700D02*
X7818120Y23444200D01*
X14422120Y1346200D02*
X19121120Y1346200D01*
X7818120Y7950200D02*
X14422120Y1346200D01*
X7818120Y23444200D02*
X7818120Y7950200D01*
X9342120Y11760200D02*
X10866120Y10236200D01*
X10866120Y10236200D02*
X19121120Y10236200D01*
X16962120Y20396200D02*
X16962120Y27127200D01*
X17978120Y19380200D02*
X16962120Y20396200D01*
X16962120Y27127200D02*
X16771620Y27317700D01*
X12456120Y12522200D02*
X12456120Y14554200D01*
X12136120Y12522200D02*
X12456120Y12522200D01*
X19121120Y29286200D02*
X19121120Y27889200D01*
X19502120Y13284200D02*
X17724120Y13284200D01*
X19502120Y27508200D02*
X19502120Y13284200D01*
X19121120Y27889200D02*
X19502120Y27508200D01*
X14356120Y12522200D02*
X16962120Y12522200D01*
X16962120Y12522200D02*
X17724120Y13284200D01*
X14356120Y14554200D02*
X17724120Y14554200D01*
D24*
X5024120Y6299200D02*
X7863988Y6299200D01*
X5024120Y6096000D02*
X8067188Y6096000D01*
X5024120Y5892800D02*
X7257761Y5892800D01*
X8239201Y5892800D02*
X8270388Y5892800D01*
X5024120Y5689600D02*
X6767192Y5689600D01*
X5024120Y5486400D02*
X6527105Y5486400D01*
X5024120Y5283200D02*
X6448325Y5283200D01*
X5024120Y5080000D02*
X6175615Y5080000D01*
X6292315Y5080000D02*
X6651525Y5080000D01*
X5024120Y4876800D02*
X5902287Y4876800D01*
X6495515Y4876800D02*
X6854725Y4876800D01*
X5024120Y4673600D02*
X5822632Y4673600D01*
X6698715Y4673600D02*
X7057925Y4673600D01*
X5024120Y4470400D02*
X5742977Y4470400D01*
X6901915Y4470400D02*
X7261125Y4470400D01*
X5024120Y4267200D02*
X5663322Y4267200D01*
X7105115Y4267200D02*
X7464325Y4267200D01*
X9886688Y4267200D02*
X9895988Y4267200D01*
X5024120Y4064000D02*
X5626592Y4064000D01*
X7308315Y4064000D02*
X7667525Y4064000D01*
X9897371Y4064000D02*
X10099188Y4064000D01*
X5024120Y3860800D02*
X5630474Y3860800D01*
X7511515Y3860800D02*
X7899010Y3860800D01*
X9901254Y3860800D02*
X10302388Y3860800D01*
X5024120Y3657600D02*
X5634357Y3657600D01*
X7460715Y3657600D02*
X8073925Y3657600D01*
X9905136Y3657600D02*
X10505588Y3657600D01*
X5024120Y3454400D02*
X5638239Y3454400D01*
X7257515Y3454400D02*
X7616725Y3454400D01*
X7917915Y3454400D02*
X8277125Y3454400D01*
X9909019Y3454400D02*
X10612120Y3454400D01*
X5024120Y3251200D02*
X5668994Y3251200D01*
X7054315Y3251200D02*
X7413525Y3251200D01*
X8121115Y3251200D02*
X8480325Y3251200D01*
X9851404Y3251200D02*
X10612120Y3251200D01*
X5024120Y3048000D02*
X5753163Y3048000D01*
X6851115Y3048000D02*
X7210325Y3048000D01*
X8324315Y3048000D02*
X8683525Y3048000D01*
X9771749Y3048000D02*
X10612120Y3048000D01*
X5024120Y2844800D02*
X5837331Y2844800D01*
X6647915Y2844800D02*
X7007125Y2844800D01*
X8527515Y2844800D02*
X8886725Y2844800D01*
X9692094Y2844800D02*
X10612120Y2844800D01*
X5024120Y2641600D02*
X5921499Y2641600D01*
X6444715Y2641600D02*
X6803925Y2641600D01*
X8730715Y2641600D02*
X9089925Y2641600D01*
X9612439Y2641600D02*
X10612120Y2641600D01*
X5013164Y2438400D02*
X6600725Y2438400D01*
X8933915Y2438400D02*
X10623791Y2438400D01*
X2427606Y2235200D02*
X6450714Y2235200D01*
X9083925Y2235200D02*
X11927988Y2235200D01*
X2569310Y2032000D02*
X6552568Y2032000D01*
X8982071Y2032000D02*
X12131188Y2032000D01*
X2653270Y1828800D02*
X6906666Y1828800D01*
X8644806Y1828800D02*
X12334388Y1828800D01*
X2737231Y1625600D02*
X12537588Y1625600D01*
X2738187Y1422400D02*
X12740788Y1422400D01*
X2738009Y1219200D02*
X12943988Y1219200D01*
X2716658Y1016000D02*
X13147188Y1016000D01*
X2632282Y812800D02*
X13350388Y812800D01*
X10231120Y29846200D02*
X17837665Y29846200D01*
X10231120Y29643000D02*
X17765171Y29643000D01*
X10231120Y29439800D02*
X17714683Y29439800D01*
X19066831Y29439800D02*
X19175410Y29439800D01*
X10231120Y29236600D02*
X17724854Y29236600D01*
X18891915Y29236600D02*
X19279411Y29236600D01*
X10231120Y29033400D02*
X17735024Y29033400D01*
X18688715Y29033400D02*
X19047925Y29033400D01*
X10231120Y28830200D02*
X14223612Y28830200D01*
X14239629Y28830200D02*
X16763612Y28830200D01*
X16779629Y28830200D02*
X17784754Y28830200D01*
X18485515Y28830200D02*
X18844725Y28830200D01*
X10231120Y28627000D02*
X10386907Y28627000D01*
X12994208Y28627000D02*
X13526016Y28627000D01*
X14937225Y28627000D02*
X16066016Y28627000D01*
X17477225Y28627000D02*
X17868923Y28627000D01*
X18282315Y28627000D02*
X18641525Y28627000D01*
X10231120Y28423800D02*
X10248066Y28423800D01*
X13131409Y28423800D02*
X13221905Y28423800D01*
X15241336Y28423800D02*
X15761905Y28423800D01*
X17781336Y28423800D02*
X18438325Y28423800D01*
X15399439Y28220600D02*
X15603802Y28220600D01*
X17939439Y28220600D02*
X18345003Y28220600D01*
X18075212Y28017400D02*
X18520042Y28017400D01*
X18163647Y27814200D02*
X19681120Y27814200D01*
X18204066Y27611000D02*
X19681120Y27611000D01*
X18244485Y27407800D02*
X19681120Y27407800D01*
X18239909Y27204600D02*
X19681120Y27204600D01*
X18199490Y27001400D02*
X19681120Y27001400D01*
X18159071Y26798200D02*
X19681120Y26798200D01*
X18097120Y26595000D02*
X19681120Y26595000D01*
X15384070Y26391800D02*
X15619169Y26391800D01*
X18097120Y26391800D02*
X19681120Y26391800D01*
X13119459Y26188600D02*
X13256326Y26188600D01*
X15206913Y26188600D02*
X15796325Y26188600D01*
X18097120Y26188600D02*
X19681120Y26188600D01*
X12964761Y25985400D02*
X13560437Y25985400D01*
X14902802Y25985400D02*
X15827120Y25985400D01*
X18097120Y25985400D02*
X19681120Y25985400D01*
X11761252Y25782200D02*
X15827120Y25782200D01*
X18097120Y25782200D02*
X19681120Y25782200D01*
X11558052Y25579000D02*
X15827120Y25579000D01*
X18097120Y25579000D02*
X19681120Y25579000D01*
X11354852Y25375800D02*
X15827120Y25375800D01*
X18097120Y25375800D02*
X19681120Y25375800D01*
X12812254Y25172600D02*
X13833392Y25172600D01*
X14502849Y25172600D02*
X15827120Y25172600D01*
X18097120Y25172600D02*
X19681120Y25172600D01*
X13043844Y24969400D02*
X13330695Y24969400D01*
X15005545Y24969400D02*
X15827120Y24969400D01*
X18097120Y24969400D02*
X19681120Y24969400D01*
X15295234Y24766200D02*
X15827120Y24766200D01*
X18097120Y24766200D02*
X19681120Y24766200D01*
X15431008Y24563000D02*
X15827120Y24563000D01*
X18097120Y24563000D02*
X19681120Y24563000D01*
X15566781Y24359800D02*
X15827120Y24359800D01*
X18097120Y24359800D02*
X19681120Y24359800D01*
X15642011Y24156600D02*
X15827120Y24156600D01*
X18097120Y24156600D02*
X19681120Y24156600D01*
X15682430Y23953400D02*
X15827120Y23953400D01*
X18097120Y23953400D02*
X19681120Y23953400D01*
X15722849Y23750200D02*
X15827120Y23750200D01*
X18097120Y23750200D02*
X19681120Y23750200D01*
X15703116Y23547000D02*
X15827120Y23547000D01*
X18097120Y23547000D02*
X19681120Y23547000D01*
X15662697Y23343800D02*
X15827120Y23343800D01*
X18097120Y23343800D02*
X19681120Y23343800D01*
X15622278Y23140600D02*
X15827120Y23140600D01*
X18097120Y23140600D02*
X19681120Y23140600D01*
X15500497Y22937400D02*
X15827120Y22937400D01*
X18097120Y22937400D02*
X19681120Y22937400D01*
X15364723Y22734200D02*
X15827120Y22734200D01*
X18097120Y22734200D02*
X19681120Y22734200D01*
X15161192Y22531000D02*
X15827120Y22531000D01*
X18097120Y22531000D02*
X19681120Y22531000D01*
X14857081Y22327800D02*
X15827120Y22327800D01*
X18097120Y22327800D02*
X19681120Y22327800D01*
X15565120Y22124600D02*
X15827120Y22124600D01*
X18097120Y22124600D02*
X19681120Y22124600D01*
X15565120Y21921400D02*
X15827120Y21921400D01*
X18097120Y21921400D02*
X19681120Y21921400D01*
X15565120Y21718200D02*
X15827120Y21718200D01*
X18097120Y21718200D02*
X19681120Y21718200D01*
X15565120Y21515000D02*
X15827120Y21515000D01*
X18097120Y21515000D02*
X19681120Y21515000D01*
X15565120Y21311800D02*
X15827120Y21311800D01*
X18097120Y21311800D02*
X19681120Y21311800D01*
X15565120Y21108600D02*
X15827120Y21108600D01*
X18097120Y21108600D02*
X19681120Y21108600D01*
X15565120Y20905400D02*
X15827120Y20905400D01*
X18097120Y20905400D02*
X19681120Y20905400D01*
X15565120Y20702200D02*
X15827120Y20702200D01*
X18261252Y20702200D02*
X19681120Y20702200D01*
X15565120Y20499000D02*
X15827120Y20499000D01*
X18464452Y20499000D02*
X19681120Y20499000D01*
X15565120Y20295800D02*
X15847090Y20295800D01*
X18667652Y20295800D02*
X19681120Y20295800D01*
X15565120Y20092600D02*
X15887509Y20092600D01*
X18840933Y20092600D02*
X19681120Y20092600D01*
X15565120Y19889400D02*
X15961929Y19889400D01*
X18976707Y19889400D02*
X19681120Y19889400D01*
X15565120Y19686200D02*
X16097703Y19686200D01*
X19052253Y19686200D02*
X19681120Y19686200D01*
X15565120Y19483000D02*
X16270188Y19483000D01*
X19092672Y19483000D02*
X19681120Y19483000D01*
X15565120Y19279800D02*
X16473388Y19279800D01*
X19093149Y19279800D02*
X19681120Y19279800D01*
X15655529Y19076600D02*
X16676588Y19076600D01*
X19052729Y19076600D02*
X19681120Y19076600D01*
X15739489Y18873400D02*
X16879788Y18873400D01*
X18978310Y18873400D02*
X19681120Y18873400D01*
X15823450Y18670200D02*
X17082988Y18670200D01*
X18842536Y18670200D02*
X19681120Y18670200D01*
X15907411Y18467000D02*
X17341129Y18467000D01*
X18615110Y18467000D02*
X19681120Y18467000D01*
X15952608Y18263800D02*
X17884611Y18263800D01*
X18071628Y18263800D02*
X19681120Y18263800D01*
X15952430Y18060600D02*
X19681120Y18060600D01*
X15952253Y17857400D02*
X19681120Y17857400D01*
X15952075Y17654200D02*
X19681120Y17654200D01*
X15928255Y17451000D02*
X19681120Y17451000D01*
X15843878Y17247800D02*
X19681120Y17247800D01*
X15759502Y17044600D02*
X19681120Y17044600D01*
X15675126Y16841400D02*
X16683000Y16841400D01*
X18768747Y16841400D02*
X19681120Y16841400D01*
X15565120Y16638200D02*
X16454008Y16638200D01*
X18994777Y16638200D02*
X19681120Y16638200D01*
X15565120Y16435000D02*
X16358758Y16435000D01*
X19091795Y16435000D02*
X19681120Y16435000D01*
X15565120Y16231800D02*
X16326110Y16231800D01*
X19122130Y16231800D02*
X19681120Y16231800D01*
X15565120Y16028600D02*
X16326110Y16028600D01*
X19122130Y16028600D02*
X19681120Y16028600D01*
X15565120Y15825400D02*
X16326110Y15825400D01*
X19122130Y15825400D02*
X19681120Y15825400D01*
X19122130Y15622200D02*
X19681120Y15622200D01*
X19122130Y15419000D02*
X19681120Y15419000D01*
X19089968Y15215800D02*
X19681120Y15215800D01*
X19025311Y15012600D02*
X19681120Y15012600D01*
X19086073Y14809400D02*
X19681120Y14809400D01*
X19126492Y14606200D02*
X19681120Y14606200D01*
X19106759Y14403000D02*
X19681120Y14403000D01*
X19066340Y14199800D02*
X19681120Y14199800D01*
X18959027Y13996600D02*
X19681120Y13996600D01*
X18963892Y13793400D02*
X19681120Y13793400D01*
X19063205Y13590200D02*
X19681120Y13590200D01*
X15565120Y13387000D02*
X19681120Y13387000D01*
X15565120Y13183800D02*
X19681120Y13183800D01*
X15565120Y12980600D02*
X16383862Y12980600D01*
X17597120Y12980600D02*
X17851120Y12980600D01*
X19064377Y12980600D02*
X19681120Y12980600D01*
X15565120Y12777400D02*
X16483175Y12777400D01*
X17597120Y12777400D02*
X17851120Y12777400D01*
X18965064Y12777400D02*
X19681120Y12777400D01*
X15565120Y12574200D02*
X16605019Y12574200D01*
X17597120Y12574200D02*
X17851120Y12574200D01*
X18843220Y12574200D02*
X19681120Y12574200D01*
X15565120Y12371000D02*
X16843536Y12371000D01*
X17597120Y12371000D02*
X17851120Y12371000D01*
X18604703Y12371000D02*
X19681120Y12371000D01*
X15565120Y12167800D02*
X19681120Y12167800D01*
X15565120Y11964600D02*
X19681120Y11964600D01*
X15565120Y11761400D02*
X19681120Y11761400D01*
X15565120Y11558200D02*
X18662359Y11558200D01*
X19580255Y11558200D02*
X19681120Y11558200D01*
X8290496Y5872692D02*
X8151133Y5927323D01*
X7301933Y5911097D01*
X6592738Y5617339D01*
X6432955Y5298570D01*
X7767320Y3964205D01*
X7781463Y3978347D01*
X7961068Y3798742D01*
X7946925Y3784600D01*
X9281290Y2450235D01*
X9600059Y2610018D01*
X9910043Y3400787D01*
X9893817Y4249987D01*
X9880110Y4283078D01*
X10612120Y3551068D01*
X10612120Y2489200D01*
X10620805Y2443041D01*
X10648085Y2400647D01*
X10689710Y2372206D01*
X10739120Y2362200D01*
X11800988Y2362200D01*
X13376988Y786200D01*
X2621237Y786200D01*
X2737877Y1067100D01*
X2738362Y1622861D01*
X2526130Y2136503D01*
X2392238Y2270630D01*
X6432955Y2270630D01*
X6592738Y1951861D01*
X7383507Y1641877D01*
X8232707Y1658103D01*
X8941902Y1951861D01*
X9101685Y2270630D01*
X7767320Y3604995D01*
X6432955Y2270630D01*
X2392238Y2270630D01*
X2300827Y2362200D01*
X4897120Y2362200D01*
X4943279Y2370885D01*
X4985673Y2398165D01*
X5014114Y2439790D01*
X5024120Y2489200D01*
X5024120Y4168413D01*
X5624597Y4168413D01*
X5640823Y3319213D01*
X5934581Y2610018D01*
X6253350Y2450235D01*
X7587715Y3784600D01*
X6253350Y5118965D01*
X5934581Y4959182D01*
X5624597Y4168413D01*
X5024120Y4168413D01*
X5024120Y6299200D01*
X7863988Y6299200D01*
X8290496Y5872692D01*
X5024120Y6299200D02*
X7863988Y6299200D01*
X5024120Y6096000D02*
X8067188Y6096000D01*
X5024120Y5892800D02*
X7257761Y5892800D01*
X8239201Y5892800D02*
X8270388Y5892800D01*
X5024120Y5689600D02*
X6767192Y5689600D01*
X5024120Y5486400D02*
X6527105Y5486400D01*
X5024120Y5283200D02*
X6448325Y5283200D01*
X5024120Y5080000D02*
X6175615Y5080000D01*
X6292315Y5080000D02*
X6651525Y5080000D01*
X5024120Y4876800D02*
X5902287Y4876800D01*
X6495515Y4876800D02*
X6854725Y4876800D01*
X5024120Y4673600D02*
X5822632Y4673600D01*
X6698715Y4673600D02*
X7057925Y4673600D01*
X5024120Y4470400D02*
X5742977Y4470400D01*
X6901915Y4470400D02*
X7261125Y4470400D01*
X5024120Y4267200D02*
X5663322Y4267200D01*
X7105115Y4267200D02*
X7464325Y4267200D01*
X9886688Y4267200D02*
X9895988Y4267200D01*
X5024120Y4064000D02*
X5626592Y4064000D01*
X7308315Y4064000D02*
X7667525Y4064000D01*
X9897371Y4064000D02*
X10099188Y4064000D01*
X5024120Y3860800D02*
X5630474Y3860800D01*
X7511515Y3860800D02*
X7899010Y3860800D01*
X9901254Y3860800D02*
X10302388Y3860800D01*
X5024120Y3657600D02*
X5634357Y3657600D01*
X7460715Y3657600D02*
X8073925Y3657600D01*
X9905136Y3657600D02*
X10505588Y3657600D01*
X5024120Y3454400D02*
X5638239Y3454400D01*
X7257515Y3454400D02*
X7616725Y3454400D01*
X7917915Y3454400D02*
X8277125Y3454400D01*
X9909019Y3454400D02*
X10612120Y3454400D01*
X5024120Y3251200D02*
X5668994Y3251200D01*
X7054315Y3251200D02*
X7413525Y3251200D01*
X8121115Y3251200D02*
X8480325Y3251200D01*
X9851404Y3251200D02*
X10612120Y3251200D01*
X5024120Y3048000D02*
X5753163Y3048000D01*
X6851115Y3048000D02*
X7210325Y3048000D01*
X8324315Y3048000D02*
X8683525Y3048000D01*
X9771749Y3048000D02*
X10612120Y3048000D01*
X5024120Y2844800D02*
X5837331Y2844800D01*
X6647915Y2844800D02*
X7007125Y2844800D01*
X8527515Y2844800D02*
X8886725Y2844800D01*
X9692094Y2844800D02*
X10612120Y2844800D01*
X5024120Y2641600D02*
X5921499Y2641600D01*
X6444715Y2641600D02*
X6803925Y2641600D01*
X8730715Y2641600D02*
X9089925Y2641600D01*
X9612439Y2641600D02*
X10612120Y2641600D01*
X5013164Y2438400D02*
X6600725Y2438400D01*
X8933915Y2438400D02*
X10623791Y2438400D01*
X2427606Y2235200D02*
X6450714Y2235200D01*
X9083925Y2235200D02*
X11927988Y2235200D01*
X2569310Y2032000D02*
X6552568Y2032000D01*
X8982071Y2032000D02*
X12131188Y2032000D01*
X2653270Y1828800D02*
X6906666Y1828800D01*
X8644806Y1828800D02*
X12334388Y1828800D01*
X2737231Y1625600D02*
X12537588Y1625600D01*
X2738187Y1422400D02*
X12740788Y1422400D01*
X2738009Y1219200D02*
X12943988Y1219200D01*
X2716658Y1016000D02*
X13147188Y1016000D01*
X2632282Y812800D02*
X13350388Y812800D01*
X10231120Y29846200D02*
X17837665Y29846200D01*
X10231120Y29643000D02*
X17765171Y29643000D01*
X10231120Y29439800D02*
X17714683Y29439800D01*
X19066831Y29439800D02*
X19175410Y29439800D01*
X10231120Y29236600D02*
X17724854Y29236600D01*
X18891915Y29236600D02*
X19279411Y29236600D01*
X10231120Y29033400D02*
X17735024Y29033400D01*
X18688715Y29033400D02*
X19047925Y29033400D01*
X10231120Y28830200D02*
X14223612Y28830200D01*
X14239629Y28830200D02*
X16763612Y28830200D01*
X16779629Y28830200D02*
X17784754Y28830200D01*
X18485515Y28830200D02*
X18844725Y28830200D01*
X10231120Y28627000D02*
X10386907Y28627000D01*
X12994208Y28627000D02*
X13526016Y28627000D01*
X14937225Y28627000D02*
X16066016Y28627000D01*
X17477225Y28627000D02*
X17868923Y28627000D01*
X18282315Y28627000D02*
X18641525Y28627000D01*
X10231120Y28423800D02*
X10248066Y28423800D01*
X13131409Y28423800D02*
X13221905Y28423800D01*
X15241336Y28423800D02*
X15761905Y28423800D01*
X17781336Y28423800D02*
X18438325Y28423800D01*
X15399439Y28220600D02*
X15603802Y28220600D01*
X17939439Y28220600D02*
X18345003Y28220600D01*
X18075212Y28017400D02*
X18520042Y28017400D01*
X18163647Y27814200D02*
X19681120Y27814200D01*
X18204066Y27611000D02*
X19681120Y27611000D01*
X18244485Y27407800D02*
X19681120Y27407800D01*
X18239909Y27204600D02*
X19681120Y27204600D01*
X18199490Y27001400D02*
X19681120Y27001400D01*
X18159071Y26798200D02*
X19681120Y26798200D01*
X18097120Y26595000D02*
X19681120Y26595000D01*
X15384070Y26391800D02*
X15619169Y26391800D01*
X18097120Y26391800D02*
X19681120Y26391800D01*
X13119459Y26188600D02*
X13256326Y26188600D01*
X15206913Y26188600D02*
X15796325Y26188600D01*
X18097120Y26188600D02*
X19681120Y26188600D01*
X12964761Y25985400D02*
X13560437Y25985400D01*
X14902802Y25985400D02*
X15827120Y25985400D01*
X18097120Y25985400D02*
X19681120Y25985400D01*
X11761252Y25782200D02*
X15827120Y25782200D01*
X18097120Y25782200D02*
X19681120Y25782200D01*
X11558052Y25579000D02*
X15827120Y25579000D01*
X18097120Y25579000D02*
X19681120Y25579000D01*
X11354852Y25375800D02*
X15827120Y25375800D01*
X18097120Y25375800D02*
X19681120Y25375800D01*
X12812254Y25172600D02*
X13833392Y25172600D01*
X14502849Y25172600D02*
X15827120Y25172600D01*
X18097120Y25172600D02*
X19681120Y25172600D01*
X13043844Y24969400D02*
X13330695Y24969400D01*
X15005545Y24969400D02*
X15827120Y24969400D01*
X18097120Y24969400D02*
X19681120Y24969400D01*
X15295234Y24766200D02*
X15827120Y24766200D01*
X18097120Y24766200D02*
X19681120Y24766200D01*
X15431008Y24563000D02*
X15827120Y24563000D01*
X18097120Y24563000D02*
X19681120Y24563000D01*
X15566781Y24359800D02*
X15827120Y24359800D01*
X18097120Y24359800D02*
X19681120Y24359800D01*
X15642011Y24156600D02*
X15827120Y24156600D01*
X18097120Y24156600D02*
X19681120Y24156600D01*
X15682430Y23953400D02*
X15827120Y23953400D01*
X18097120Y23953400D02*
X19681120Y23953400D01*
X15722849Y23750200D02*
X15827120Y23750200D01*
X18097120Y23750200D02*
X19681120Y23750200D01*
X15703116Y23547000D02*
X15827120Y23547000D01*
X18097120Y23547000D02*
X19681120Y23547000D01*
X15662697Y23343800D02*
X15827120Y23343800D01*
X18097120Y23343800D02*
X19681120Y23343800D01*
X15622278Y23140600D02*
X15827120Y23140600D01*
X18097120Y23140600D02*
X19681120Y23140600D01*
X15500497Y22937400D02*
X15827120Y22937400D01*
X18097120Y22937400D02*
X19681120Y22937400D01*
X15364723Y22734200D02*
X15827120Y22734200D01*
X18097120Y22734200D02*
X19681120Y22734200D01*
X15161192Y22531000D02*
X15827120Y22531000D01*
X18097120Y22531000D02*
X19681120Y22531000D01*
X14857081Y22327800D02*
X15827120Y22327800D01*
X18097120Y22327800D02*
X19681120Y22327800D01*
X15565120Y22124600D02*
X15827120Y22124600D01*
X18097120Y22124600D02*
X19681120Y22124600D01*
X15565120Y21921400D02*
X15827120Y21921400D01*
X18097120Y21921400D02*
X19681120Y21921400D01*
X15565120Y21718200D02*
X15827120Y21718200D01*
X18097120Y21718200D02*
X19681120Y21718200D01*
X15565120Y21515000D02*
X15827120Y21515000D01*
X18097120Y21515000D02*
X19681120Y21515000D01*
X15565120Y21311800D02*
X15827120Y21311800D01*
X18097120Y21311800D02*
X19681120Y21311800D01*
X15565120Y21108600D02*
X15827120Y21108600D01*
X18097120Y21108600D02*
X19681120Y21108600D01*
X15565120Y20905400D02*
X15827120Y20905400D01*
X18097120Y20905400D02*
X19681120Y20905400D01*
X15565120Y20702200D02*
X15827120Y20702200D01*
X18261252Y20702200D02*
X19681120Y20702200D01*
X15565120Y20499000D02*
X15827120Y20499000D01*
X18464452Y20499000D02*
X19681120Y20499000D01*
X15565120Y20295800D02*
X15847090Y20295800D01*
X18667652Y20295800D02*
X19681120Y20295800D01*
X15565120Y20092600D02*
X15887509Y20092600D01*
X18840933Y20092600D02*
X19681120Y20092600D01*
X15565120Y19889400D02*
X15961929Y19889400D01*
X18976707Y19889400D02*
X19681120Y19889400D01*
X15565120Y19686200D02*
X16097703Y19686200D01*
X19052253Y19686200D02*
X19681120Y19686200D01*
X15565120Y19483000D02*
X16270188Y19483000D01*
X19092672Y19483000D02*
X19681120Y19483000D01*
X15565120Y19279800D02*
X16473388Y19279800D01*
X19093149Y19279800D02*
X19681120Y19279800D01*
X15655529Y19076600D02*
X16676588Y19076600D01*
X19052729Y19076600D02*
X19681120Y19076600D01*
X15739489Y18873400D02*
X16879788Y18873400D01*
X18978310Y18873400D02*
X19681120Y18873400D01*
X15823450Y18670200D02*
X17082988Y18670200D01*
X18842536Y18670200D02*
X19681120Y18670200D01*
X15907411Y18467000D02*
X17341129Y18467000D01*
X18615110Y18467000D02*
X19681120Y18467000D01*
X15952608Y18263800D02*
X17884611Y18263800D01*
X18071628Y18263800D02*
X19681120Y18263800D01*
X15952430Y18060600D02*
X19681120Y18060600D01*
X15952253Y17857400D02*
X19681120Y17857400D01*
X15952075Y17654200D02*
X19681120Y17654200D01*
X15928255Y17451000D02*
X19681120Y17451000D01*
X15843878Y17247800D02*
X19681120Y17247800D01*
X15759502Y17044600D02*
X19681120Y17044600D01*
X15675126Y16841400D02*
X16683000Y16841400D01*
X18768747Y16841400D02*
X19681120Y16841400D01*
X15565120Y16638200D02*
X16454008Y16638200D01*
X18994777Y16638200D02*
X19681120Y16638200D01*
X15565120Y16435000D02*
X16358758Y16435000D01*
X19091795Y16435000D02*
X19681120Y16435000D01*
X15565120Y16231800D02*
X16326110Y16231800D01*
X19122130Y16231800D02*
X19681120Y16231800D01*
X15565120Y16028600D02*
X16326110Y16028600D01*
X19122130Y16028600D02*
X19681120Y16028600D01*
X15565120Y15825400D02*
X16326110Y15825400D01*
X19122130Y15825400D02*
X19681120Y15825400D01*
X19122130Y15622200D02*
X19681120Y15622200D01*
X19122130Y15419000D02*
X19681120Y15419000D01*
X19089968Y15215800D02*
X19681120Y15215800D01*
X19025311Y15012600D02*
X19681120Y15012600D01*
X19086073Y14809400D02*
X19681120Y14809400D01*
X19126492Y14606200D02*
X19681120Y14606200D01*
X19106759Y14403000D02*
X19681120Y14403000D01*
X19066340Y14199800D02*
X19681120Y14199800D01*
X18959027Y13996600D02*
X19681120Y13996600D01*
X18963892Y13793400D02*
X19681120Y13793400D01*
X19063205Y13590200D02*
X19681120Y13590200D01*
X15565120Y13387000D02*
X19681120Y13387000D01*
X15565120Y13183800D02*
X19681120Y13183800D01*
X15565120Y12980600D02*
X16383862Y12980600D01*
X17597120Y12980600D02*
X17851120Y12980600D01*
X19064377Y12980600D02*
X19681120Y12980600D01*
X15565120Y12777400D02*
X16483175Y12777400D01*
X17597120Y12777400D02*
X17851120Y12777400D01*
X18965064Y12777400D02*
X19681120Y12777400D01*
X15565120Y12574200D02*
X16605019Y12574200D01*
X17597120Y12574200D02*
X17851120Y12574200D01*
X18843220Y12574200D02*
X19681120Y12574200D01*
X15565120Y12371000D02*
X16843536Y12371000D01*
X17597120Y12371000D02*
X17851120Y12371000D01*
X18604703Y12371000D02*
X19681120Y12371000D01*
X15565120Y12167800D02*
X19681120Y12167800D01*
X15565120Y11964600D02*
X19681120Y11964600D01*
X15565120Y11761400D02*
X19681120Y11761400D01*
X15565120Y11558200D02*
X18662359Y11558200D01*
X19580255Y11558200D02*
X19681120Y11558200D01*
X17711976Y29493898D02*
X17739758Y28938832D01*
X17898723Y28555057D01*
X18140907Y28485592D01*
X18941515Y29286200D01*
X18927373Y29300342D01*
X19106978Y29479947D01*
X19121120Y29465805D01*
X19135263Y29479947D01*
X19314868Y29300342D01*
X19300725Y29286200D01*
X19314868Y29272057D01*
X19135263Y29092452D01*
X19121120Y29106595D01*
X18320512Y28305987D01*
X18389977Y28063803D01*
X18913422Y27877056D01*
X19468488Y27904838D01*
X19681120Y27992913D01*
X19681120Y11516317D01*
X19400220Y11632957D01*
X18844459Y11633442D01*
X18330817Y11421210D01*
X18280720Y11371200D01*
X15565120Y11371200D01*
X15565120Y12990265D01*
X16379139Y12990265D01*
X16566414Y12607089D01*
X16890747Y12330780D01*
X17296130Y12199620D01*
X17597120Y12199620D01*
X17597120Y13157200D01*
X17851120Y13157200D01*
X17851120Y12199620D01*
X18152110Y12199620D01*
X18557493Y12330780D01*
X18881826Y12607089D01*
X19069101Y12990265D01*
X18942188Y13157200D01*
X17851120Y13157200D01*
X17597120Y13157200D01*
X16506052Y13157200D01*
X16379139Y12990265D01*
X15565120Y12990265D01*
X15565120Y13419200D01*
X16499970Y13419200D01*
X16506052Y13411200D01*
X17597120Y13411200D01*
X17597120Y13419200D01*
X17724120Y13419200D01*
X17784448Y13431200D01*
X17851120Y13431200D01*
X17851120Y13411200D01*
X18942188Y13411200D01*
X19069101Y13578135D01*
X18904479Y13914962D01*
X19054276Y14139149D01*
X19136835Y14554200D01*
X19054276Y14969251D01*
X19010756Y15034383D01*
X19071121Y15122730D01*
X19122130Y15374620D01*
X19122130Y16273780D01*
X19077852Y16509097D01*
X18938780Y16725221D01*
X18726580Y16870211D01*
X18474690Y16921220D01*
X16973550Y16921220D01*
X16738233Y16876942D01*
X16522109Y16737870D01*
X16377119Y16525670D01*
X16326110Y16273780D01*
X16326110Y15689200D01*
X15565120Y15689200D01*
X15565120Y16662639D01*
X15626229Y16723641D01*
X15951948Y17508059D01*
X15952690Y18357415D01*
X15628340Y19142400D01*
X15565120Y19205730D01*
X15565120Y22174200D01*
X15556435Y22220359D01*
X15529155Y22262753D01*
X15487530Y22291194D01*
X15438120Y22301200D01*
X14817272Y22301200D01*
X15283601Y22612791D01*
X15616347Y23110781D01*
X15733192Y23698200D01*
X15616347Y24285619D01*
X15283601Y24783609D01*
X14785611Y25116355D01*
X14198192Y25233200D01*
X14138048Y25233200D01*
X13550629Y25116355D01*
X13130094Y24835363D01*
X12992210Y25049641D01*
X12780010Y25194631D01*
X12528120Y25245640D01*
X11224692Y25245640D01*
X11799312Y25820260D01*
X12541620Y25820260D01*
X12776937Y25864538D01*
X12993061Y26003610D01*
X13138051Y26215810D01*
X13151706Y26283241D01*
X13181566Y26238553D01*
X13663335Y25916646D01*
X14231620Y25803607D01*
X14799905Y25916646D01*
X15281674Y26238553D01*
X15501620Y26567726D01*
X15721566Y26238553D01*
X15827120Y26168024D01*
X15827120Y20396200D01*
X15913517Y19961854D01*
X16011946Y19814545D01*
X16159554Y19593634D01*
X17175554Y18577634D01*
X17543775Y18331597D01*
X17978120Y18245200D01*
X18412465Y18331597D01*
X18780686Y18577634D01*
X19026723Y18945855D01*
X19113120Y19380200D01*
X19026723Y19814545D01*
X18780686Y20182766D01*
X18097120Y20866332D01*
X18097120Y26650788D01*
X18143581Y26720322D01*
X18256620Y27288607D01*
X18256620Y27346793D01*
X18143581Y27915078D01*
X17821674Y28396847D01*
X17339905Y28718754D01*
X16771620Y28831793D01*
X16203335Y28718754D01*
X15721566Y28396847D01*
X15501620Y28067674D01*
X15281674Y28396847D01*
X14799905Y28718754D01*
X14231620Y28831793D01*
X13663335Y28718754D01*
X13181566Y28396847D01*
X13153770Y28355248D01*
X13144782Y28403017D01*
X13005710Y28619141D01*
X12793510Y28764131D01*
X12541620Y28815140D01*
X10841620Y28815140D01*
X10606303Y28770862D01*
X10390179Y28631790D01*
X10245189Y28419590D01*
X10231120Y28350115D01*
X10231120Y29846200D01*
X17837665Y29846200D01*
X17711976Y29493898D01*
M02*
