G04 #@! TF.FileFunction,Copper,L1,Top,Signal*
%FSLAX46Y46*%
G04 Gerber Fmt 4.6, Leading zero omitted, Abs format (unit mm)*
G04 Created by KiCad (PCBNEW 4.0.6+dfsg1-1) date Mon Feb 26 16:02:50 2018*
%MOMM*%
%LPD*%
G01*
G04 APERTURE LIST*
%ADD10C,0.100000*%
%ADD11R,0.800000X0.750000*%
%ADD12R,2.500000X1.000000*%
%ADD13R,1.850000X1.850000*%
%ADD14C,1.850000*%
%ADD15R,1.700000X1.700000*%
%ADD16O,1.700000X1.700000*%
%ADD17R,0.500000X0.900000*%
%ADD18R,1.300000X1.300000*%
%ADD19R,1.300000X2.000000*%
%ADD20R,2.500000X0.900000*%
%ADD21R,1.100000X0.890000*%
%ADD22R,0.400000X1.100000*%
%ADD23C,1.524000*%
%ADD24C,0.600000*%
%ADD25C,0.400000*%
%ADD26C,0.500000*%
%ADD27C,0.250000*%
%ADD28C,2.000000*%
%ADD29C,1.000000*%
G04 APERTURE END LIST*
D10*
D11*
X8317800Y9829800D03*
X9817800Y9829800D03*
X12611800Y9829800D03*
X11111800Y9829800D03*
D12*
X6934200Y25198200D03*
X6934200Y22198200D03*
X10236200Y22198200D03*
X10236200Y25198200D03*
X13538200Y22198200D03*
X13538200Y25198200D03*
D13*
X6852920Y29088080D03*
D14*
X9352920Y29088080D03*
X11852920Y29088080D03*
X14352920Y29088080D03*
D15*
X16395700Y8521700D03*
D16*
X16395700Y5981700D03*
D17*
X14464600Y2616200D03*
X15964600Y2616200D03*
D18*
X7026600Y2126600D03*
D19*
X12226600Y3276600D03*
D18*
X7026600Y4426600D03*
D17*
X8317800Y8305800D03*
X9817800Y8305800D03*
X12561000Y8305800D03*
X11061000Y8305800D03*
D20*
X5156200Y6754200D03*
X5156200Y9654200D03*
X17348200Y17274200D03*
X17348200Y14374200D03*
D21*
X14715200Y14549200D03*
X14715200Y15399200D03*
X14715200Y17099200D03*
X14715200Y16249200D03*
X13658950Y16249200D03*
X13658950Y17099200D03*
X13658950Y15399200D03*
X13658950Y14549200D03*
X12602700Y14549200D03*
X12602700Y15399200D03*
X12602700Y17099200D03*
X12602700Y16249200D03*
X11546450Y16249200D03*
X11546450Y17099200D03*
X11546450Y15399200D03*
X11546450Y14549200D03*
X10490200Y14549200D03*
X10490200Y15399200D03*
X10490200Y17099200D03*
X10490200Y16249200D03*
X9433950Y16249200D03*
X9433950Y17099200D03*
X9433950Y15399200D03*
X9433950Y14549200D03*
X8377700Y14549200D03*
X8377700Y15399200D03*
X8377700Y17099200D03*
X8377700Y16249200D03*
X7321450Y16249200D03*
X7321450Y17099200D03*
X7321450Y15399200D03*
X7321450Y14549200D03*
X6265200Y14549200D03*
X6265200Y15399200D03*
X6265200Y17099200D03*
X6265200Y16249200D03*
D22*
X6265200Y12974200D03*
X6915200Y12974200D03*
X7565200Y12974200D03*
X8215200Y12974200D03*
X8865200Y12974200D03*
X9515200Y12974200D03*
X10165200Y12974200D03*
X10815200Y12974200D03*
X11465200Y12974200D03*
X12115200Y12974200D03*
X12765200Y12974200D03*
X13415200Y12974200D03*
X14065200Y12974200D03*
X14715200Y12974200D03*
X14715200Y18674200D03*
X14065200Y18674200D03*
X13415200Y18674200D03*
X12765200Y18674200D03*
X12115200Y18674200D03*
X11465200Y18674200D03*
X10815200Y18674200D03*
X10165200Y18674200D03*
X9515200Y18674200D03*
X8865200Y18674200D03*
X8215200Y18674200D03*
X7565200Y18674200D03*
X6915200Y18674200D03*
X6265200Y18674200D03*
D23*
X19126200Y1727200D03*
X19126200Y4267200D03*
X19126200Y8077200D03*
X19126200Y10617200D03*
X1346200Y1727200D03*
X1346200Y29667200D03*
X19126200Y29667200D03*
X1346200Y5537200D03*
X1346200Y8077200D03*
X1346200Y10617200D03*
X1346200Y13157200D03*
D24*
X8305800Y9829800D03*
X9525000Y11709400D03*
X17297400Y17297400D03*
X17983200Y25095200D03*
X10896600Y21107400D03*
X7026600Y4426600D03*
X9817800Y9829800D03*
X14808200Y19939000D03*
X6832600Y25171400D03*
X9423400Y20955000D03*
X16332200Y23190200D03*
X17348200Y19634200D03*
X8204200Y11607800D03*
X8153400Y20193000D03*
X13284200Y11633200D03*
X15875000Y25984200D03*
X12928600Y21005800D03*
X17805400Y12166600D03*
X13995400Y10693400D03*
X4445000Y12522200D03*
X6477000Y20040600D03*
X6223000Y21005800D03*
X4546600Y19837400D03*
X3937000Y10896600D03*
X3987800Y8102600D03*
X3124200Y27101800D03*
X10744200Y26543000D03*
X12115800Y20497800D03*
X12115800Y3175000D03*
X10896600Y10896600D03*
D25*
X9515200Y12974200D02*
X9515200Y11719200D01*
X8305800Y9829800D02*
X8317800Y9829800D01*
X9515200Y11719200D02*
X9525000Y11709400D01*
X8317800Y9829800D02*
X8317800Y8305800D01*
X17297400Y17297400D02*
X17320600Y17274200D01*
D26*
X13538200Y25198200D02*
X17880200Y25198200D01*
X17880200Y25198200D02*
X17983200Y25095200D01*
D27*
X9817800Y9829800D02*
X9817800Y11049000D01*
X9728200Y10998200D02*
X9728200Y11049000D01*
X9767000Y10998200D02*
X9728200Y10998200D01*
X9817800Y11049000D02*
X9767000Y10998200D01*
X10815200Y18674200D02*
X10815200Y21026000D01*
X10815200Y21026000D02*
X10896600Y21107400D01*
D25*
X5156200Y6297000D02*
X7026600Y4426600D01*
X5156200Y6754200D02*
X5156200Y6297000D01*
X14065200Y18674200D02*
X14065200Y19602400D01*
X14401800Y19939000D02*
X14808200Y19939000D01*
X14065200Y19602400D02*
X14401800Y19939000D01*
X17320600Y17274200D02*
X17348200Y17274200D01*
X5156200Y6754200D02*
X10615000Y6754200D01*
X10642600Y6781800D02*
X10642600Y8305800D01*
X10615000Y6754200D02*
X10642600Y6781800D01*
D27*
X10165200Y12974200D02*
X10165200Y11882000D01*
X10165200Y11882000D02*
X10236200Y11811000D01*
X10236200Y11811000D02*
X10236200Y11201400D01*
X10236200Y11201400D02*
X10083800Y11049000D01*
X10083800Y11049000D02*
X9728200Y11049000D01*
X8865200Y11404000D02*
X8865200Y12974200D01*
X9728200Y11049000D02*
X9220200Y11049000D01*
X9220200Y11049000D02*
X8865200Y11404000D01*
D25*
X11111800Y9829800D02*
X11111800Y8356600D01*
X11111800Y8356600D02*
X11061000Y8305800D01*
X9817800Y8305800D02*
X10642600Y8305800D01*
X10642600Y8305800D02*
X11061000Y8305800D01*
X9817800Y9829800D02*
X11111800Y9829800D01*
X9817800Y8305800D02*
X9817800Y9829800D01*
X13538200Y25198200D02*
X15187800Y25198200D01*
X15187800Y25198200D02*
X16257400Y25198200D01*
X19177000Y28117800D02*
X19177000Y29540200D01*
X16257400Y25198200D02*
X19177000Y28117800D01*
X11465200Y12974200D02*
X11465200Y11344000D01*
X11760200Y10681400D02*
X12611800Y9829800D01*
X11760200Y11049000D02*
X11760200Y10681400D01*
X11465200Y11344000D02*
X11760200Y11049000D01*
X12611800Y9829800D02*
X12611800Y8356600D01*
X12611800Y8356600D02*
X12561000Y8305800D01*
X9515200Y18674200D02*
X9515200Y20863200D01*
X6832600Y25171400D02*
X6859400Y25198200D01*
X9515200Y20863200D02*
X9423400Y20955000D01*
X6859400Y25198200D02*
X6934200Y25198200D01*
X8865200Y18674200D02*
X8865200Y20497200D01*
X7974200Y21158200D02*
X6934200Y22198200D01*
X8204200Y21158200D02*
X7974200Y21158200D01*
X8865200Y20497200D02*
X8204200Y21158200D01*
X10165200Y18674200D02*
X10165200Y22127200D01*
X10165200Y22127200D02*
X10236200Y22198200D01*
X17348200Y18674200D02*
X17348200Y19634200D01*
X16027400Y23495000D02*
X9728200Y23495000D01*
X16332200Y23190200D02*
X16027400Y23495000D01*
X16395700Y8521700D02*
X16395700Y11925300D01*
X19222600Y18674200D02*
X17348200Y18674200D01*
X17348200Y18674200D02*
X14715200Y18674200D01*
X19431000Y18465800D02*
X19222600Y18674200D01*
X19431000Y13233400D02*
X19431000Y18465800D01*
X19278600Y13081000D02*
X19431000Y13233400D01*
X17551400Y13081000D02*
X19278600Y13081000D01*
X16395700Y11925300D02*
X17551400Y13081000D01*
X6265200Y18674200D02*
X6265200Y19185600D01*
X6265200Y19185600D02*
X4749800Y20701000D01*
X5257800Y23495000D02*
X9728200Y23495000D01*
X4749800Y22987000D02*
X5257800Y23495000D01*
X4749800Y20701000D02*
X4749800Y22987000D01*
X9728200Y23495000D02*
X10236200Y24003000D01*
X10236200Y24003000D02*
X10236200Y25198200D01*
X16395700Y8521700D02*
X16497300Y8521700D01*
D27*
X11465200Y18674200D02*
X11465200Y20812400D01*
X11465200Y20812400D02*
X12851000Y22198200D01*
X12851000Y22198200D02*
X13538200Y22198200D01*
D25*
X8215200Y12974200D02*
X8215200Y11618800D01*
X8215200Y11618800D02*
X8204200Y11607800D01*
X8215200Y18674200D02*
X8215200Y20131200D01*
X8215200Y20131200D02*
X8153400Y20193000D01*
X12765200Y12974200D02*
X12765200Y12025200D01*
X13157200Y11633200D02*
X13284200Y11633200D01*
X12765200Y12025200D02*
X13157200Y11633200D01*
X12765200Y18674200D02*
X12765200Y19928000D01*
X14352920Y27506280D02*
X14352920Y29088080D01*
X15875000Y25984200D02*
X14352920Y27506280D01*
X12928600Y20091400D02*
X12928600Y21005800D01*
X12765200Y19928000D02*
X12928600Y20091400D01*
D28*
X19126200Y8077200D02*
X19126200Y10617200D01*
D29*
X16395700Y5981700D02*
X18122900Y5981700D01*
X19177000Y7035800D02*
X19177000Y7950200D01*
X18122900Y5981700D02*
X19177000Y7035800D01*
D28*
X19126200Y4267200D02*
X19126200Y1727200D01*
D27*
X13415200Y19714400D02*
X13944600Y20243800D01*
X13944600Y20243800D02*
X13944600Y20701000D01*
X13944600Y20701000D02*
X13995400Y20650200D01*
X13995400Y20650200D02*
X19227800Y20650200D01*
X19227800Y20650200D02*
X20040600Y19837400D01*
X20040600Y19837400D02*
X20040600Y12522200D01*
X20040600Y12522200D02*
X19685000Y12166600D01*
X19685000Y12166600D02*
X17805400Y12166600D01*
X13415200Y18674200D02*
X13415200Y19714400D01*
X14046200Y10693400D02*
X14046200Y10744200D01*
X13995400Y10693400D02*
X14046200Y10693400D01*
D25*
X19177000Y4140200D02*
X19177000Y1600200D01*
X14046200Y10744200D02*
X14046200Y5511800D01*
X15964600Y3593400D02*
X15964600Y2616200D01*
X14046200Y5511800D02*
X15964600Y3593400D01*
X15964600Y2616200D02*
X15964600Y1232600D01*
X15964600Y1232600D02*
X15468600Y736600D01*
X8712200Y736600D02*
X15468600Y736600D01*
X15468600Y736600D02*
X18313400Y736600D01*
X18313400Y736600D02*
X19177000Y1600200D01*
X6915200Y18674200D02*
X6915200Y19602400D01*
X5054600Y736600D02*
X8712200Y736600D01*
X8712200Y736600D02*
X8763000Y736600D01*
X3073400Y2717800D02*
X5054600Y736600D01*
X3073400Y11150600D02*
X3073400Y2717800D01*
X4445000Y12522200D02*
X3073400Y11150600D01*
X6915200Y19602400D02*
X6477000Y20040600D01*
X13415200Y12974200D02*
X14065200Y12974200D01*
X12115200Y12974200D02*
X12115200Y11659200D01*
X12928600Y10744200D02*
X14046200Y10744200D01*
X14046200Y10744200D02*
X14097000Y10744200D01*
X12432465Y11240335D02*
X12928600Y10744200D01*
X12432465Y11341935D02*
X12432465Y11240335D01*
X12115200Y11659200D02*
X12432465Y11341935D01*
X14097000Y10744200D02*
X14097000Y11201400D01*
X14097000Y11201400D02*
X14097000Y12942400D01*
X14097000Y12942400D02*
X14065200Y12974200D01*
X19126200Y1549400D02*
X19177000Y1600200D01*
D27*
X7565200Y19917600D02*
X6477000Y21005800D01*
X6477000Y21005800D02*
X6223000Y21005800D01*
X7565200Y19917600D02*
X7565200Y18674200D01*
X5257800Y19126200D02*
X4546600Y19837400D01*
X5257800Y12420600D02*
X5257800Y19126200D01*
X4445000Y11607800D02*
X5257800Y12420600D01*
X4445000Y11404600D02*
X4445000Y11607800D01*
X3937000Y10896600D02*
X4445000Y11404600D01*
X3987800Y8102600D02*
X4038600Y8153400D01*
X4038600Y8153400D02*
X6731000Y8153400D01*
X6731000Y8153400D02*
X7239000Y8661400D01*
X7239000Y8661400D02*
X7239000Y11557000D01*
X7239000Y11557000D02*
X7565200Y11883200D01*
X7565200Y11883200D02*
X7565200Y12974200D01*
X3124200Y27101800D02*
X3175000Y27152600D01*
X3175000Y27152600D02*
X10693400Y27152600D01*
X10693400Y27152600D02*
X10744200Y27101800D01*
X10744200Y27101800D02*
X10744200Y26543000D01*
X12115800Y20497800D02*
X12115200Y20497200D01*
X12115200Y20497200D02*
X12115200Y18674200D01*
D25*
X7026600Y2126600D02*
X9811400Y2126600D01*
X14464600Y1866200D02*
X14464600Y2616200D01*
X14097000Y1498600D02*
X14464600Y1866200D01*
X10439400Y1498600D02*
X14097000Y1498600D01*
X9811400Y2126600D02*
X10439400Y1498600D01*
X10815200Y12974200D02*
X10815200Y10978000D01*
X12115800Y3175000D02*
X12217400Y3276600D01*
X10815200Y10978000D02*
X10896600Y10896600D01*
X12217400Y3276600D02*
X12226600Y3276600D01*
X12226600Y3521400D02*
X12226600Y3276600D01*
D27*
X6265200Y12974200D02*
X6265200Y12615200D01*
X6265200Y12615200D02*
X5156200Y11506200D01*
X5156200Y11506200D02*
X5156200Y9654200D01*
D25*
X14715200Y12974200D02*
X15920600Y12974200D01*
X15920600Y12974200D02*
X17320600Y14374200D01*
X17320600Y14374200D02*
X17348200Y14374200D01*
M02*
