G04 #@! TF.FileFunction,Copper,L2,Bot,Signal*
%FSLAX46Y46*%
G04 Gerber Fmt 4.6, Leading zero omitted, Abs format (unit mm)*
G04 Created by KiCad (PCBNEW 4.0.6+dfsg1-1) date Mon Feb 26 15:58:45 2018*
%MOMM*%
%LPD*%
G01*
G04 APERTURE LIST*
%ADD10C,0.100000*%
%ADD11R,1.600000X1.600000*%
%ADD12O,1.600000X1.600000*%
%ADD13R,1.850000X1.850000*%
%ADD14C,1.850000*%
%ADD15R,1.700000X1.700000*%
%ADD16O,1.700000X1.700000*%
%ADD17C,1.524000*%
%ADD18C,0.600000*%
%ADD19C,0.500000*%
%ADD20C,1.000000*%
%ADD21C,0.250000*%
%ADD22C,0.254000*%
G04 APERTURE END LIST*
D10*
D11*
X19121120Y25476200D03*
D12*
X1341120Y12776200D03*
X16581120Y25476200D03*
X3881120Y12776200D03*
X14041120Y25476200D03*
X6421120Y12776200D03*
X11501120Y25476200D03*
X8961120Y12776200D03*
X8961120Y25476200D03*
X11501120Y12776200D03*
X6421120Y25476200D03*
X14041120Y12776200D03*
X3881120Y25476200D03*
X16581120Y12776200D03*
X1341120Y25476200D03*
X19121120Y12776200D03*
D13*
X14041120Y30302200D03*
D14*
X11541120Y30302200D03*
X9041120Y30302200D03*
X6541120Y30302200D03*
D15*
X11755120Y1600200D03*
D16*
X9215120Y1600200D03*
X6675120Y1600200D03*
X4135120Y1600200D03*
D17*
X18994120Y1473200D03*
X18994120Y4013200D03*
X18994120Y7823200D03*
X18994120Y10363200D03*
X1214120Y1473200D03*
X1214120Y29413200D03*
X18994120Y29413200D03*
X1214120Y5283200D03*
X1214120Y7823200D03*
X1214120Y10363200D03*
D18*
X4008120Y6172200D03*
X6589120Y21031200D03*
X16073120Y14808200D03*
D19*
X18994120Y4013200D02*
X18232120Y4013200D01*
X18232120Y4013200D02*
X16708120Y5537200D01*
X16581120Y22555200D02*
X16581120Y25476200D01*
X17851120Y21285200D02*
X16581120Y22555200D01*
X17851120Y11760200D02*
X17851120Y21285200D01*
X16708120Y10617200D02*
X17851120Y11760200D01*
X16708120Y5537200D02*
X16708120Y10617200D01*
X6589120Y21031200D02*
X9215120Y21031200D01*
X6802120Y6172200D02*
X4008120Y6172200D01*
X10231120Y9601200D02*
X6802120Y6172200D01*
X10231120Y20015200D02*
X10231120Y9601200D01*
X9215120Y21031200D02*
X10231120Y20015200D01*
D20*
X6589120Y21031200D02*
X6548120Y21031200D01*
D21*
X16581120Y12776200D02*
X16327120Y12776200D01*
X16327120Y12776200D02*
X7310120Y3759200D01*
X7310120Y3759200D02*
X3500120Y3759200D01*
X3500120Y3759200D02*
X1214120Y1473200D01*
X7183120Y5283200D02*
X1214120Y5283200D01*
X12771120Y10871200D02*
X7183120Y5283200D01*
X12771120Y14681200D02*
X12771120Y10871200D01*
X12898120Y14808200D02*
X12771120Y14681200D01*
X16073120Y14808200D02*
X12898120Y14808200D01*
D22*
G36*
X2814301Y1727200D02*
X4008120Y1727200D01*
X4008120Y1747200D01*
X4262120Y1747200D01*
X4262120Y1727200D01*
X4282120Y1727200D01*
X4282120Y1473200D01*
X4262120Y1473200D01*
X4262120Y1453200D01*
X4008120Y1453200D01*
X4008120Y1473200D01*
X2814301Y1473200D01*
X2693634Y1243308D01*
X2908304Y786200D01*
X2441502Y786200D01*
X2610877Y1194100D01*
X2611362Y1749861D01*
X2597977Y1782255D01*
X2720889Y1905167D01*
X2814301Y1727200D01*
X2814301Y1727200D01*
G37*
X2814301Y1727200D02*
X4008120Y1727200D01*
X4008120Y1747200D01*
X4262120Y1747200D01*
X4262120Y1727200D01*
X4282120Y1727200D01*
X4282120Y1473200D01*
X4262120Y1473200D01*
X4262120Y1453200D01*
X4008120Y1453200D01*
X4008120Y1473200D01*
X2814301Y1473200D01*
X2693634Y1243308D01*
X2908304Y786200D01*
X2441502Y786200D01*
X2610877Y1194100D01*
X2611362Y1749861D01*
X2597977Y1782255D01*
X2720889Y1905167D01*
X2814301Y1727200D01*
G36*
X10486422Y11733389D02*
X10951969Y11422320D01*
X11501120Y11313087D01*
X12011120Y11414532D01*
X12011120Y11186002D01*
X6868318Y6043200D01*
X2411651Y6043200D01*
X2399130Y6073503D01*
X2006490Y6466829D01*
X1798608Y6553149D01*
X2004423Y6638190D01*
X2397749Y7030830D01*
X2610877Y7544100D01*
X2611362Y8099861D01*
X2399130Y8613503D01*
X2006490Y9006829D01*
X1798608Y9093149D01*
X2004423Y9178190D01*
X2397749Y9570830D01*
X2610877Y10084100D01*
X2611362Y10639861D01*
X2399130Y11153503D01*
X2034547Y11518723D01*
X2355818Y11733389D01*
X2611120Y12115475D01*
X2866422Y11733389D01*
X3331969Y11422320D01*
X3881120Y11313087D01*
X4430271Y11422320D01*
X4895818Y11733389D01*
X5151120Y12115475D01*
X5406422Y11733389D01*
X5871969Y11422320D01*
X6421120Y11313087D01*
X6970271Y11422320D01*
X7435818Y11733389D01*
X7691120Y12115475D01*
X7946422Y11733389D01*
X8411969Y11422320D01*
X8961120Y11313087D01*
X9510271Y11422320D01*
X9975818Y11733389D01*
X10231120Y12115475D01*
X10486422Y11733389D01*
X10486422Y11733389D01*
G37*
X10486422Y11733389D02*
X10951969Y11422320D01*
X11501120Y11313087D01*
X12011120Y11414532D01*
X12011120Y11186002D01*
X6868318Y6043200D01*
X2411651Y6043200D01*
X2399130Y6073503D01*
X2006490Y6466829D01*
X1798608Y6553149D01*
X2004423Y6638190D01*
X2397749Y7030830D01*
X2610877Y7544100D01*
X2611362Y8099861D01*
X2399130Y8613503D01*
X2006490Y9006829D01*
X1798608Y9093149D01*
X2004423Y9178190D01*
X2397749Y9570830D01*
X2610877Y10084100D01*
X2611362Y10639861D01*
X2399130Y11153503D01*
X2034547Y11518723D01*
X2355818Y11733389D01*
X2611120Y12115475D01*
X2866422Y11733389D01*
X3331969Y11422320D01*
X3881120Y11313087D01*
X4430271Y11422320D01*
X4895818Y11733389D01*
X5151120Y12115475D01*
X5406422Y11733389D01*
X5871969Y11422320D01*
X6421120Y11313087D01*
X6970271Y11422320D01*
X7435818Y11733389D01*
X7691120Y12115475D01*
X7946422Y11733389D01*
X8411969Y11422320D01*
X8961120Y11313087D01*
X9510271Y11422320D01*
X9975818Y11733389D01*
X10231120Y12115475D01*
X10486422Y11733389D01*
G36*
X19681120Y30651346D02*
X19201818Y30822344D01*
X18646752Y30794562D01*
X18262977Y30635597D01*
X18193512Y30393413D01*
X18994120Y29592805D01*
X19008263Y29606947D01*
X19187868Y29427342D01*
X19173725Y29413200D01*
X19187868Y29399057D01*
X19008263Y29219452D01*
X18994120Y29233595D01*
X18193512Y28432987D01*
X18262977Y28190803D01*
X18786422Y28004056D01*
X19341488Y28031838D01*
X19681120Y28172518D01*
X19681120Y26911200D01*
X19406870Y26911200D01*
X19248120Y26752450D01*
X19248120Y25603200D01*
X19268120Y25603200D01*
X19268120Y25349200D01*
X19248120Y25349200D01*
X19248120Y24199950D01*
X19406870Y24041200D01*
X19681120Y24041200D01*
X19681120Y14122831D01*
X19670271Y14130080D01*
X19121120Y14239313D01*
X18736120Y14162732D01*
X18736120Y21285195D01*
X18736121Y21285200D01*
X18668753Y21623875D01*
X18637800Y21670200D01*
X18476910Y21910990D01*
X18476907Y21910992D01*
X17466120Y22921780D01*
X17466120Y24346727D01*
X17595818Y24433389D01*
X17686120Y24568535D01*
X17686120Y24549891D01*
X17782793Y24316502D01*
X17961421Y24137873D01*
X18194810Y24041200D01*
X18835370Y24041200D01*
X18994120Y24199950D01*
X18994120Y25349200D01*
X18974120Y25349200D01*
X18974120Y25603200D01*
X18994120Y25603200D01*
X18994120Y26752450D01*
X18835370Y26911200D01*
X18194810Y26911200D01*
X17961421Y26814527D01*
X17782793Y26635898D01*
X17686120Y26402509D01*
X17686120Y26383865D01*
X17595818Y26519011D01*
X17130271Y26830080D01*
X16581120Y26939313D01*
X16031969Y26830080D01*
X15566422Y26519011D01*
X15311120Y26136925D01*
X15055818Y26519011D01*
X14590271Y26830080D01*
X14041120Y26939313D01*
X13491969Y26830080D01*
X13026422Y26519011D01*
X12771120Y26136925D01*
X12515818Y26519011D01*
X12050271Y26830080D01*
X11501120Y26939313D01*
X10951969Y26830080D01*
X10486422Y26519011D01*
X10231120Y26136925D01*
X9975818Y26519011D01*
X9510271Y26830080D01*
X8961120Y26939313D01*
X8411969Y26830080D01*
X7946422Y26519011D01*
X7691120Y26136925D01*
X7435818Y26519011D01*
X6970271Y26830080D01*
X6421120Y26939313D01*
X5871969Y26830080D01*
X5406422Y26519011D01*
X5136134Y26114497D01*
X5033509Y26331334D01*
X4618543Y26707241D01*
X4230159Y26868104D01*
X4008120Y26746115D01*
X4008120Y25603200D01*
X4028120Y25603200D01*
X4028120Y25349200D01*
X4008120Y25349200D01*
X4008120Y24206285D01*
X4230159Y24084296D01*
X4618543Y24245159D01*
X5033509Y24621066D01*
X5136134Y24837903D01*
X5406422Y24433389D01*
X5871969Y24122320D01*
X6421120Y24013087D01*
X6970271Y24122320D01*
X7435818Y24433389D01*
X7691120Y24815475D01*
X7946422Y24433389D01*
X8411969Y24122320D01*
X8961120Y24013087D01*
X9510271Y24122320D01*
X9975818Y24433389D01*
X10231120Y24815475D01*
X10486422Y24433389D01*
X10951969Y24122320D01*
X11501120Y24013087D01*
X12050271Y24122320D01*
X12515818Y24433389D01*
X12771120Y24815475D01*
X13026422Y24433389D01*
X13491969Y24122320D01*
X14041120Y24013087D01*
X14590271Y24122320D01*
X15055818Y24433389D01*
X15311120Y24815475D01*
X15566422Y24433389D01*
X15696120Y24346727D01*
X15696120Y22555205D01*
X15696119Y22555200D01*
X15752310Y22272716D01*
X15763487Y22216525D01*
X15955330Y21929410D01*
X16966120Y20918621D01*
X16966120Y15095407D01*
X16866237Y15337143D01*
X16603447Y15600392D01*
X16259919Y15743038D01*
X15887953Y15743362D01*
X15544177Y15601317D01*
X15511002Y15568200D01*
X12898120Y15568200D01*
X12607281Y15510348D01*
X12360719Y15345601D01*
X12233719Y15218601D01*
X12068972Y14972039D01*
X12011120Y14681200D01*
X12011120Y14137868D01*
X11501120Y14239313D01*
X10951969Y14130080D01*
X10486422Y13819011D01*
X10231120Y13436925D01*
X9975818Y13819011D01*
X9510271Y14130080D01*
X8961120Y14239313D01*
X8411969Y14130080D01*
X7946422Y13819011D01*
X7691120Y13436925D01*
X7435818Y13819011D01*
X6970271Y14130080D01*
X6421120Y14239313D01*
X5871969Y14130080D01*
X5406422Y13819011D01*
X5151120Y13436925D01*
X4895818Y13819011D01*
X4430271Y14130080D01*
X3881120Y14239313D01*
X3331969Y14130080D01*
X2866422Y13819011D01*
X2611120Y13436925D01*
X2355818Y13819011D01*
X1890271Y14130080D01*
X1341120Y14239313D01*
X791969Y14130080D01*
X781120Y14122831D01*
X781120Y24129569D01*
X791969Y24122320D01*
X1341120Y24013087D01*
X1890271Y24122320D01*
X2355818Y24433389D01*
X2626106Y24837903D01*
X2728731Y24621066D01*
X3143697Y24245159D01*
X3532081Y24084296D01*
X3754120Y24206285D01*
X3754120Y25349200D01*
X3734120Y25349200D01*
X3734120Y25603200D01*
X3754120Y25603200D01*
X3754120Y26746115D01*
X3532081Y26868104D01*
X3143697Y26707241D01*
X2728731Y26331334D01*
X2626106Y26114497D01*
X2355818Y26519011D01*
X1890271Y26830080D01*
X1341120Y26939313D01*
X791969Y26830080D01*
X781120Y26822831D01*
X781120Y28084436D01*
X1006422Y28004056D01*
X1561488Y28031838D01*
X1945263Y28190803D01*
X2014728Y28432987D01*
X1214120Y29233595D01*
X1199978Y29219452D01*
X1020373Y29399057D01*
X1034515Y29413200D01*
X1393725Y29413200D01*
X2194333Y28612592D01*
X2436517Y28682057D01*
X2623264Y29205502D01*
X2595482Y29760568D01*
X2499099Y29993258D01*
X4980850Y29993258D01*
X5217845Y29419686D01*
X5656297Y28980468D01*
X6229456Y28742472D01*
X6850062Y28741930D01*
X7423634Y28978925D01*
X7791376Y29346026D01*
X8156297Y28980468D01*
X8729456Y28742472D01*
X9350062Y28741930D01*
X9923634Y28978925D01*
X10291376Y29346026D01*
X10656297Y28980468D01*
X11229456Y28742472D01*
X11850062Y28741930D01*
X12423634Y28978925D01*
X12541869Y29096954D01*
X12652030Y28925759D01*
X12864230Y28780769D01*
X13116120Y28729760D01*
X14966120Y28729760D01*
X15201437Y28774038D01*
X15417561Y28913110D01*
X15562551Y29125310D01*
X15613560Y29377200D01*
X15613560Y29620898D01*
X17584976Y29620898D01*
X17612758Y29065832D01*
X17771723Y28682057D01*
X18013907Y28612592D01*
X18814515Y29413200D01*
X18013907Y30213808D01*
X17771723Y30144343D01*
X17584976Y29620898D01*
X15613560Y29620898D01*
X15613560Y31227200D01*
X15569282Y31462517D01*
X15430210Y31678641D01*
X15218010Y31823631D01*
X14966120Y31874640D01*
X13116120Y31874640D01*
X12880803Y31830362D01*
X12664679Y31691290D01*
X12540349Y31509326D01*
X12425943Y31623932D01*
X11852784Y31861928D01*
X11232178Y31862470D01*
X10658606Y31625475D01*
X10290864Y31258374D01*
X9925943Y31623932D01*
X9352784Y31861928D01*
X8732178Y31862470D01*
X8158606Y31625475D01*
X7790864Y31258374D01*
X7425943Y31623932D01*
X6852784Y31861928D01*
X6232178Y31862470D01*
X5658606Y31625475D01*
X5219388Y31187023D01*
X4981392Y30613864D01*
X4980850Y29993258D01*
X2499099Y29993258D01*
X2436517Y30144343D01*
X2194333Y30213808D01*
X1393725Y29413200D01*
X1034515Y29413200D01*
X1020373Y29427342D01*
X1199978Y29606947D01*
X1214120Y29592805D01*
X2014728Y30393413D01*
X1945263Y30635597D01*
X1421818Y30822344D01*
X866752Y30794562D01*
X781120Y30759092D01*
X781120Y32005200D01*
X19681120Y32005200D01*
X19681120Y30651346D01*
X19681120Y30651346D01*
G37*
X19681120Y30651346D02*
X19201818Y30822344D01*
X18646752Y30794562D01*
X18262977Y30635597D01*
X18193512Y30393413D01*
X18994120Y29592805D01*
X19008263Y29606947D01*
X19187868Y29427342D01*
X19173725Y29413200D01*
X19187868Y29399057D01*
X19008263Y29219452D01*
X18994120Y29233595D01*
X18193512Y28432987D01*
X18262977Y28190803D01*
X18786422Y28004056D01*
X19341488Y28031838D01*
X19681120Y28172518D01*
X19681120Y26911200D01*
X19406870Y26911200D01*
X19248120Y26752450D01*
X19248120Y25603200D01*
X19268120Y25603200D01*
X19268120Y25349200D01*
X19248120Y25349200D01*
X19248120Y24199950D01*
X19406870Y24041200D01*
X19681120Y24041200D01*
X19681120Y14122831D01*
X19670271Y14130080D01*
X19121120Y14239313D01*
X18736120Y14162732D01*
X18736120Y21285195D01*
X18736121Y21285200D01*
X18668753Y21623875D01*
X18637800Y21670200D01*
X18476910Y21910990D01*
X18476907Y21910992D01*
X17466120Y22921780D01*
X17466120Y24346727D01*
X17595818Y24433389D01*
X17686120Y24568535D01*
X17686120Y24549891D01*
X17782793Y24316502D01*
X17961421Y24137873D01*
X18194810Y24041200D01*
X18835370Y24041200D01*
X18994120Y24199950D01*
X18994120Y25349200D01*
X18974120Y25349200D01*
X18974120Y25603200D01*
X18994120Y25603200D01*
X18994120Y26752450D01*
X18835370Y26911200D01*
X18194810Y26911200D01*
X17961421Y26814527D01*
X17782793Y26635898D01*
X17686120Y26402509D01*
X17686120Y26383865D01*
X17595818Y26519011D01*
X17130271Y26830080D01*
X16581120Y26939313D01*
X16031969Y26830080D01*
X15566422Y26519011D01*
X15311120Y26136925D01*
X15055818Y26519011D01*
X14590271Y26830080D01*
X14041120Y26939313D01*
X13491969Y26830080D01*
X13026422Y26519011D01*
X12771120Y26136925D01*
X12515818Y26519011D01*
X12050271Y26830080D01*
X11501120Y26939313D01*
X10951969Y26830080D01*
X10486422Y26519011D01*
X10231120Y26136925D01*
X9975818Y26519011D01*
X9510271Y26830080D01*
X8961120Y26939313D01*
X8411969Y26830080D01*
X7946422Y26519011D01*
X7691120Y26136925D01*
X7435818Y26519011D01*
X6970271Y26830080D01*
X6421120Y26939313D01*
X5871969Y26830080D01*
X5406422Y26519011D01*
X5136134Y26114497D01*
X5033509Y26331334D01*
X4618543Y26707241D01*
X4230159Y26868104D01*
X4008120Y26746115D01*
X4008120Y25603200D01*
X4028120Y25603200D01*
X4028120Y25349200D01*
X4008120Y25349200D01*
X4008120Y24206285D01*
X4230159Y24084296D01*
X4618543Y24245159D01*
X5033509Y24621066D01*
X5136134Y24837903D01*
X5406422Y24433389D01*
X5871969Y24122320D01*
X6421120Y24013087D01*
X6970271Y24122320D01*
X7435818Y24433389D01*
X7691120Y24815475D01*
X7946422Y24433389D01*
X8411969Y24122320D01*
X8961120Y24013087D01*
X9510271Y24122320D01*
X9975818Y24433389D01*
X10231120Y24815475D01*
X10486422Y24433389D01*
X10951969Y24122320D01*
X11501120Y24013087D01*
X12050271Y24122320D01*
X12515818Y24433389D01*
X12771120Y24815475D01*
X13026422Y24433389D01*
X13491969Y24122320D01*
X14041120Y24013087D01*
X14590271Y24122320D01*
X15055818Y24433389D01*
X15311120Y24815475D01*
X15566422Y24433389D01*
X15696120Y24346727D01*
X15696120Y22555205D01*
X15696119Y22555200D01*
X15752310Y22272716D01*
X15763487Y22216525D01*
X15955330Y21929410D01*
X16966120Y20918621D01*
X16966120Y15095407D01*
X16866237Y15337143D01*
X16603447Y15600392D01*
X16259919Y15743038D01*
X15887953Y15743362D01*
X15544177Y15601317D01*
X15511002Y15568200D01*
X12898120Y15568200D01*
X12607281Y15510348D01*
X12360719Y15345601D01*
X12233719Y15218601D01*
X12068972Y14972039D01*
X12011120Y14681200D01*
X12011120Y14137868D01*
X11501120Y14239313D01*
X10951969Y14130080D01*
X10486422Y13819011D01*
X10231120Y13436925D01*
X9975818Y13819011D01*
X9510271Y14130080D01*
X8961120Y14239313D01*
X8411969Y14130080D01*
X7946422Y13819011D01*
X7691120Y13436925D01*
X7435818Y13819011D01*
X6970271Y14130080D01*
X6421120Y14239313D01*
X5871969Y14130080D01*
X5406422Y13819011D01*
X5151120Y13436925D01*
X4895818Y13819011D01*
X4430271Y14130080D01*
X3881120Y14239313D01*
X3331969Y14130080D01*
X2866422Y13819011D01*
X2611120Y13436925D01*
X2355818Y13819011D01*
X1890271Y14130080D01*
X1341120Y14239313D01*
X791969Y14130080D01*
X781120Y14122831D01*
X781120Y24129569D01*
X791969Y24122320D01*
X1341120Y24013087D01*
X1890271Y24122320D01*
X2355818Y24433389D01*
X2626106Y24837903D01*
X2728731Y24621066D01*
X3143697Y24245159D01*
X3532081Y24084296D01*
X3754120Y24206285D01*
X3754120Y25349200D01*
X3734120Y25349200D01*
X3734120Y25603200D01*
X3754120Y25603200D01*
X3754120Y26746115D01*
X3532081Y26868104D01*
X3143697Y26707241D01*
X2728731Y26331334D01*
X2626106Y26114497D01*
X2355818Y26519011D01*
X1890271Y26830080D01*
X1341120Y26939313D01*
X791969Y26830080D01*
X781120Y26822831D01*
X781120Y28084436D01*
X1006422Y28004056D01*
X1561488Y28031838D01*
X1945263Y28190803D01*
X2014728Y28432987D01*
X1214120Y29233595D01*
X1199978Y29219452D01*
X1020373Y29399057D01*
X1034515Y29413200D01*
X1393725Y29413200D01*
X2194333Y28612592D01*
X2436517Y28682057D01*
X2623264Y29205502D01*
X2595482Y29760568D01*
X2499099Y29993258D01*
X4980850Y29993258D01*
X5217845Y29419686D01*
X5656297Y28980468D01*
X6229456Y28742472D01*
X6850062Y28741930D01*
X7423634Y28978925D01*
X7791376Y29346026D01*
X8156297Y28980468D01*
X8729456Y28742472D01*
X9350062Y28741930D01*
X9923634Y28978925D01*
X10291376Y29346026D01*
X10656297Y28980468D01*
X11229456Y28742472D01*
X11850062Y28741930D01*
X12423634Y28978925D01*
X12541869Y29096954D01*
X12652030Y28925759D01*
X12864230Y28780769D01*
X13116120Y28729760D01*
X14966120Y28729760D01*
X15201437Y28774038D01*
X15417561Y28913110D01*
X15562551Y29125310D01*
X15613560Y29377200D01*
X15613560Y29620898D01*
X17584976Y29620898D01*
X17612758Y29065832D01*
X17771723Y28682057D01*
X18013907Y28612592D01*
X18814515Y29413200D01*
X18013907Y30213808D01*
X17771723Y30144343D01*
X17584976Y29620898D01*
X15613560Y29620898D01*
X15613560Y31227200D01*
X15569282Y31462517D01*
X15430210Y31678641D01*
X15218010Y31823631D01*
X14966120Y31874640D01*
X13116120Y31874640D01*
X12880803Y31830362D01*
X12664679Y31691290D01*
X12540349Y31509326D01*
X12425943Y31623932D01*
X11852784Y31861928D01*
X11232178Y31862470D01*
X10658606Y31625475D01*
X10290864Y31258374D01*
X9925943Y31623932D01*
X9352784Y31861928D01*
X8732178Y31862470D01*
X8158606Y31625475D01*
X7790864Y31258374D01*
X7425943Y31623932D01*
X6852784Y31861928D01*
X6232178Y31862470D01*
X5658606Y31625475D01*
X5219388Y31187023D01*
X4981392Y30613864D01*
X4980850Y29993258D01*
X2499099Y29993258D01*
X2436517Y30144343D01*
X2194333Y30213808D01*
X1393725Y29413200D01*
X1034515Y29413200D01*
X1020373Y29427342D01*
X1199978Y29606947D01*
X1214120Y29592805D01*
X2014728Y30393413D01*
X1945263Y30635597D01*
X1421818Y30822344D01*
X866752Y30794562D01*
X781120Y30759092D01*
X781120Y32005200D01*
X19681120Y32005200D01*
X19681120Y30651346D01*
M02*
