M48
;DRILL file {KiCad 4.0.6+dfsg1-1} date Mon Feb 26 15:54:27 2018
;FORMAT={2:4/ absolute / inch / suppress leading zeros}
FMAT,2
INCH,TZ
T1C0.016
T2C0.024
T3C0.030
T4C0.035
T5C0.039
T6C0.051
%
G90
G05
M72
T1
X3678Y4630
X4778Y4930
X7078Y7630
T2
X6978Y6230
X6978Y5730
X6978Y5230
T3
X528Y530
X7528Y11530
X7528Y4030
X7528Y3030
X7528Y1530
X7528Y530
T4
X4578Y9330
X5578Y9330
T5
X715Y2258
X4603Y10755
X5440Y2258
X5603Y10755
X6603Y10755
T6
X696Y7081
X1009Y10730
X2978Y10730
X3058Y1490
X5440Y7061
T0
M30
